<svg xmlns="http://www.w3.org/2000/svg" viewBox="0 0 30 30"><defs><style>.cls-1{fill:#fff;}</style></defs><g id="Layer_2" data-name="Layer 2"><g id="Layer_1-2" data-name="Layer 1"><path id="Icon_awesome-bug-2" data-name="Icon awesome-bug-2" class="cls-1" d="M30,16.93a1.9,1.9,0,0,1-1.91,1.82H24.84v.94a8.21,8.21,0,0,1-.8,3.58l3.54,3.53a1.88,1.88,0,1,1-2.66,2.65h0l-3.2-3.21a8.43,8.43,0,0,1-5.31,1.89V13.83a.7.7,0,0,0-.7-.7H14.3a.7.7,0,0,0-.7.7v14.3a8.43,8.43,0,0,1-5.31-1.89L5.08,29.45A1.88,1.88,0,0,1,2.42,26.8L6,23.27a8.51,8.51,0,0,1-.8-3.58v-.94H1.91A1.9,1.9,0,0,1,0,16.93,1.88,1.88,0,0,1,1.82,15H5.16V11.56L2.42,8.83A1.88,1.88,0,0,1,5.08,6.17h0l3.2,3.2H21.72l3.2-3.2a1.88,1.88,0,0,1,2.66,2.66h0l-2.74,2.73V15h3.28A1.88,1.88,0,0,1,30,16.87ZM15.06,0A6.56,6.56,0,0,0,8.5,6.56H21.62A6.56,6.56,0,0,0,15.06,0Z"/></g></g></svg>