<svg width="20" height="19" viewBox="0 0 20 19" fill="none" xmlns="http://www.w3.org/2000/svg">
<rect width="20" height="19" fill="#F5F5F5"/>
<path d="M-1237 -56C-1237 -57.1046 -1236.1 -58 -1235 -58H51C52.1046 -58 53 -57.1046 53 -56V449C53 450.105 52.1046 451 51 451H-1235C-1236.1 451 -1237 450.105 -1237 449V-56Z" fill="white"/>
<path d="M-1235 -57H51V-59H-1235V-57ZM52 -56V449H54V-56H52ZM51 450H-1235V452H51V450ZM-1236 449V-56H-1238V449H-1236ZM-1235 450C-1235.55 450 -1236 449.552 -1236 449H-1238C-1238 450.657 -1236.66 452 -1235 452V450ZM52 449C52 449.552 51.5522 450 51 450V452C52.6569 452 54 450.657 54 449H52ZM51 -57C51.5522 -57 52 -56.5523 52 -56H54C54 -57.6568 52.6569 -59 51 -59V-57ZM-1235 -59C-1236.66 -59 -1238 -57.6569 -1238 -56H-1236C-1236 -56.5523 -1235.55 -57 -1235 -57V-59Z" fill="black" fill-opacity="0.1"/>
<rect width="1262" height="180" transform="translate(-1224 -16)" fill="#1D202F"/>
<g clip-path="url(#clip0_1482_338)">
<path d="M3.08452 56.0009L-138.751 230.42L-232.669 17.667L3.08452 56.0009ZM3.08452 56.0009L64.4188 134.586" stroke="#F9FAF9" stroke-width="1.43752"/>
</g>
<line x1="1.35355" y1="0.646447" x2="19.3535" y2="18.6464" stroke="#F9FAF9"/>
<line y1="-0.5" x2="25.4558" y2="-0.5" transform="matrix(0.707107 -0.707106 0.707107 0.707106 1 19)" stroke="#F9FAF9"/>
<defs>
<clipPath id="clip0_1482_338">
<rect width="280" height="154" fill="white" transform="translate(-242 10)"/>
</clipPath>
</defs>
</svg>
