<svg xmlns="http://www.w3.org/2000/svg" width="50.961" height="36.859" viewBox="0 0 50.961 36.859"><g transform="translate(-411.761 -569.083)"><path d="M437.043,605.442q-10.107,0-20.212,0c-3.255,0-4.552-1.26-4.559-4.47q-.023-13.447,0-26.895c.005-3.21,1.3-4.488,4.554-4.491q20.5-.019,41.012,0c3,0,4.354,1.3,4.362,4.266q.04,13.644,0,27.288c-.009,2.966-1.356,4.285-4.359,4.3C450.909,605.46,443.976,605.441,437.043,605.442Zm.2-1.29q10.205,0,20.41,0c2.789,0,3.264-.48,3.268-3.35q.015-13.352,0-26.7c0-2.747-.47-3.224-3.172-3.226q-20.509-.008-41.017,0c-2.646,0-3.165.523-3.169,3.252q-.019,13.45,0,26.9c0,2.613.5,3.123,3.072,3.127Q426.937,604.163,437.24,604.152Z" fill="#222222" stroke="#222222" stroke-width="1"/><path d="M460.211,586.63q-2.858.134-5.717.268a5.136,5.136,0,0,1-5.2-3.046,5.035,5.035,0,0,1,.569-5.667c1.518-1.994,3.573-2.4,5.929-2.053a9.633,9.633,0,0,0,2.765,0c2.426-.358,4.579.041,6.1,2.112a4.891,4.891,0,0,1,.621,5.32C464.258,585.668,462.657,586.921,460.211,586.63Zm-4.324-5.122a4.274,4.274,0,0,0,4.174,4.261,4.361,4.361,0,0,0,4.374-4.3,4.274,4.274,0,0,0-8.548.044Zm-.005,3.711a6.134,6.134,0,0,1-.068-7.527c-2.258-.749-3.932-.265-5.1,1.4a4.332,4.332,0,0,0,.134,4.956C452.057,585.622,453.692,586.048,455.881,585.219Z" transform="translate(-7.838 -1.387)" fill="#222222" stroke="#222222" stroke-width="1"/><path d="M421.984,606.154c-4.454,0-4.41,0-4.281-4.53.035-1.217.461-1.584,1.614-1.543,1.883.067,3.773.076,5.655,0,1.231-.051,1.519.467,1.547,1.609C426.628,606.155,426.664,606.154,421.984,606.154Zm-2.779-4.75c-.382,3.633-.382,3.633,2.882,3.634.391,0,.784-.029,1.172,0,1.38.1,1.941-.407,1.956-1.9.016-1.624-.762-1.817-2.05-1.749S420.594,601.4,419.206,601.4Z" transform="translate(-1.164 -6.566)" fill="#222222" stroke="#222222" stroke-width="1"/><path d="M463.793,600.1c4.336,0,4.293,0,4.238,4.364-.016,1.24-.348,1.767-1.655,1.711-1.947-.084-3.9.052-5.846-.082-.454-.032-.86-.772-1.281-1.194-.033-.034,0-.126-.008-.191C458.971,600.1,458.971,600.1,463.793,600.1Zm3.111,1.312c-2.01,0-3.5-.062-4.981.038-.453.03-1.226.482-1.245.781-.057.848.106,2.43.348,2.463a16.77,16.77,0,0,0,5.178,0C466.579,604.631,466.63,602.8,466.9,601.417Z" transform="translate(-10.093 -6.572)" fill="#222222" stroke="#222222" stroke-width="1"/><path d="M449.857,600.1c4.479,0,4.449,0,4.246,4.555-.047,1.054-.339,1.545-1.46,1.512-1.883-.055-3.778.078-5.649-.078a1.97,1.97,0,0,1-1.375-1.289C445.041,600.11,445.079,600.1,449.857,600.1Zm-.029,1.305c-.261,0-.523.007-.785,0-1.275-.039-2.459-.191-2.427,1.8.032,1.945,1.214,1.843,2.491,1.839.785,0,1.57-.025,2.355-.012,1.091.018,1.467-.552,1.5-1.587C453.036,601.514,452.91,601.41,449.828,601.41Z" transform="translate(-7.126 -6.572)" fill="#222222" stroke="#222222" stroke-width="1"/><path d="M435.8,606.152c-4.213,0-4.161,0-4.126-4.307.011-1.36.427-1.85,1.794-1.773,1.749.1,3.51.067,5.263.009,1.093-.035,1.448.409,1.518,1.477C440.545,606.154,440.574,606.152,435.8,606.152Zm.159-4.751c-.26,0-.52.014-.779,0-1.311-.081-2.419-.113-2.4,1.807s1.167,1.857,2.459,1.832c.778-.016,1.559-.041,2.337,0,1.37.063,1.564-.739,1.563-1.869,0-1.164-.269-1.906-1.628-1.768A14.714,14.714,0,0,1,435.955,601.4Z" transform="translate(-4.177 -6.564)" fill="#222222" stroke="#222222" stroke-width="1"/><path d="M426.294,578.979h-8.249l0-.519h8.263Z" transform="translate(-1.245 -1.913)" fill="#222222" stroke="#222222" stroke-width="1"/><ellipse cx="5.724" cy="0.354" rx="5.724" ry="0.354" transform="translate(426.034 576.407)" fill="#222222" stroke="#222222" stroke-width="1"/><path d="M437.542,584.279h-2.523l-.009-.616h2.527Z" transform="translate(-4.897 -3.033)" fill="#222222" stroke="#222222" stroke-width="1"/><path d="M423.383,583.392l2.346.132-.038.717h-2.36Z" transform="translate(-2.383 -2.974)" fill="#222222" stroke="#222222" stroke-width="1"/><path d="M456.245,585.584c-2.189.829-3.825.4-5.035-1.174a4.332,4.332,0,0,1-.134-4.956c1.17-1.662,2.843-2.146,5.1-1.4A6.134,6.134,0,0,0,456.245,585.584Z" transform="translate(-8.202 -1.752)" fill="#222222" stroke="#222222" stroke-width="1"/><path d="M419.581,601.762c1.388,0,2.677.053,3.959-.015s2.066.125,2.05,1.749c-.014,1.493-.575,2.005-1.956,1.9-.388-.03-.782,0-1.172,0C419.2,605.4,419.2,605.4,419.581,601.762Z" transform="translate(-1.539 -6.923)" fill="#222222" stroke="#222222" stroke-width="1"/><path d="M467.32,601.772c-.273,1.385-.324,3.214-.7,3.283a16.768,16.768,0,0,1-5.178,0c-.242-.032-.4-1.615-.348-2.462.02-.3.793-.752,1.245-.782C463.819,601.71,465.309,601.772,467.32,601.772Z" transform="translate(-10.51 -6.927)" fill="#222222" stroke="#222222" stroke-width="1"/><path d="M450.171,601.763c3.082,0,3.208.1,3.138,2.035-.037,1.034-.414,1.6-1.5,1.587-.785-.013-1.57.009-2.355.012-1.277,0-2.459.106-2.491-1.839-.032-1.986,1.152-1.835,2.427-1.8C449.647,601.77,449.909,601.763,450.171,601.763Z" transform="translate(-7.469 -6.925)" fill="#222222" stroke="#222222" stroke-width="1"/><path d="M436.261,601.761a15.149,15.149,0,0,0,1.557-.007c1.359-.138,1.628.6,1.628,1.768,0,1.13-.193,1.932-1.563,1.869-.778-.036-1.559-.011-2.337,0-1.292.026-2.434.074-2.459-1.832s1.084-1.888,2.4-1.807C435.741,601.774,436,601.76,436.261,601.761Z" transform="translate(-4.483 -6.922)" fill="#222222" stroke="#222222" stroke-width="1"/></g></svg>