<svg width="320" height="56" fill="none" xmlns="http://www.w3.org/2000/svg"><path fill-rule="evenodd" clip-rule="evenodd" d="M5.856 53.413c0 1.266.32 2.583 2.126 2.587l5.676-.004h4.257c1.866 0 2.29-1.244 2.29-2.583V41.447c0-1.928 0-3.43 1.967-3.43 1.182 0 1.926.565 2.593 1.547l9.704 14.314c.946 1.394 2.096 2.12 4.257 2.12h9.92c1.68 0 2.672-1.866 1.718-3.235L41.188 39.6a3.574 3.574 0 01.74-4.85c7.675-6.026 7.84-12.313 7.89-14.715v-.07c-.205-4.174-2-8.504-4.926-11.886-3.633-4.195-8.942-6.933-15.36-7.92A14.357 14.357 0 0027.327 0H2.338C.227 0-.803 2.518.743 4.544c1.165 1.526 2.33 2.19 3.292 2.738.315.18.608.346.872.527.967.662.962 1.127.951 2.003l-.002.302v43.299zM39.193 19.59c0 4.227-5.293 7.653-11.822 7.653-6.528 0-11.821-3.426-11.821-7.653 0-4.227 5.293-7.653 11.821-7.653 6.53 0 11.822 3.426 11.822 7.653z" fill="#222"/><path d="M27.371 24.933c3.494 0 6.327-2.392 6.327-5.343 0-2.95-2.833-5.342-6.327-5.342-3.494 0-6.327 2.392-6.327 5.342 0 2.95 2.833 5.343 6.327 5.343zM73.983 22.527c-2.3 0-3.688 1.018-4.413 3.238l-.157-2.93h-3.215v16.002h3.782v-9.064c.473-2.652 1.797-3.73 4.318-3.73h.852v-3.515h-1.167zM80.86 31.93h10.434v-2.65c0-4.41-2.49-6.814-7.124-6.814-4.633 0-7.092 2.374-7.092 6.783v3.144c0 4.47 2.49 6.814 7.281 6.814 4.192 0 6.62-1.788 6.84-5.21h-3.625c-.157 1.387-1.229 2.22-3.215 2.22-2.427 0-3.498-1.203-3.498-3.793v-.493zm3.436-6.474c2.364 0 3.404 1.141 3.404 3.73h-6.84c0-2.589 1.04-3.73 3.436-3.73zM100.743 39.207c4.476 0 6.745-1.696 6.745-5.056 0-3.053-1.639-4.502-5.894-4.964-2.68-.308-3.625-.802-3.625-2.066 0-1.14.946-1.819 2.742-1.819 1.891 0 2.774.71 2.774 2.19h3.656c0-3.3-2.206-5.026-6.398-5.026s-6.493 1.757-6.493 5.056c0 2.96 1.576 4.255 5.736 4.748 2.774.308 3.783.894 3.783 2.22 0 1.233-1.009 1.88-2.995 1.88-2.238 0-3.246-.77-3.246-2.343h-3.625c0 3.453 2.206 5.18 6.84 5.18zM117.783 35.846c-1.576 0-2.017-.493-2.017-2.25v-7.893h3.688v-2.867h-3.688v-4.1h-3.467l-.252 4.1h-2.648v2.867h2.585v8.016c0 3.607 1.387 5.118 4.633 5.118h3.026v-2.99h-1.86zM130.744 22.527c-2.301 0-3.688 1.018-4.413 3.238l-.157-2.93h-3.215v16.002h3.782v-9.064c.473-2.652 1.797-3.73 4.318-3.73h.851v-3.515h-1.166zM135.422 20.277h4.035v-3.484h-4.035v3.484zm.126 18.56h3.782V22.836h-3.782v16zM150.225 39.207c4.349 0 6.682-2.097 6.776-6.228h-3.624c-.126 2.19-1.104 3.145-3.121 3.145-2.206 0-3.246-1.14-3.246-3.762V29.31c0-2.62 1.04-3.761 3.246-3.761 2.017 0 2.963.956 3.121 3.114h3.624c-.094-4.131-2.427-6.197-6.776-6.197-4.602 0-6.998 2.312-6.998 6.783v3.144c0 4.502 2.396 6.814 6.998 6.814zM166.972 35.846c-1.576 0-2.017-.493-2.017-2.25v-7.893h3.687v-2.867h-3.687v-4.1h-3.468l-.252 4.1h-2.647v2.867h2.584v8.016c0 3.607 1.387 5.118 4.634 5.118h3.026v-2.99h-1.86zM185.869 39.207c4.35 0 6.683-2.097 6.777-6.228h-3.625c-.126 2.19-1.103 3.145-3.12 3.145-2.206 0-3.247-1.14-3.247-3.762V29.31c0-2.62 1.041-3.761 3.247-3.761 2.017 0 2.963.956 3.12 3.114h3.625c-.094-4.131-2.427-6.197-6.777-6.197-4.602 0-6.997 2.312-6.997 6.783v3.144c0 4.502 2.395 6.814 6.997 6.814zM202.928 39.207c4.791 0 7.281-2.343 7.281-6.968v-2.805c0-4.625-2.49-6.968-7.281-6.968-4.791 0-7.249 2.343-7.249 6.968v2.805c0 4.625 2.458 6.968 7.249 6.968zm0-3.083c-2.395 0-3.467-1.233-3.467-3.977v-2.62c0-2.745 1.072-3.978 3.467-3.978 2.396 0 3.499 1.233 3.499 3.977v2.62c0 2.745-1.103 3.978-3.499 3.978zM222.487 22.466c-2.143 0-3.751.77-5.075 2.559l-.126-2.19h-3.215v16.002h3.783v-10.39c.914-1.819 2.111-2.713 3.688-2.713 1.544 0 2.3.894 2.3 2.867v10.236h3.783V28.262c0-3.823-1.734-5.796-5.138-5.796zM238.385 35.846c-1.576 0-2.018-.493-2.018-2.25v-7.893h3.688v-2.867h-3.688v-4.1H232.9l-.252 4.1H230v2.867h2.585v8.016c0 3.607 1.387 5.118 4.633 5.118h3.026v-2.99h-1.859zM246.218 31.93h10.433v-2.65c0-4.41-2.49-6.814-7.124-6.814-4.633 0-7.092 2.374-7.092 6.783v3.144c0 4.47 2.49 6.814 7.282 6.814 4.192 0 6.619-1.788 6.839-5.21h-3.624c-.158 1.387-1.23 2.22-3.215 2.22-2.428 0-3.499-1.203-3.499-3.793v-.493zm3.435-6.474c2.364 0 3.405 1.141 3.405 3.73h-6.84c0-2.589 1.04-3.73 3.435-3.73zM268.905 22.466c-2.143 0-3.751.77-5.074 2.559l-.126-2.19h-3.216v16.002h3.783v-10.39c.914-1.819 2.112-2.713 3.688-2.713 1.544 0 2.301.894 2.301 2.867v10.236h3.782V28.262c0-3.823-1.733-5.796-5.138-5.796zM284.803 35.846c-1.576 0-2.018-.493-2.018-2.25v-7.893h3.688v-2.867h-3.688v-4.1h-3.467l-.252 4.1h-2.648v2.867h2.585v8.016c0 3.607 1.387 5.118 4.634 5.118h3.025v-2.99h-1.859zM298.025 21.695h-3.73v9.434h1.73v-3.468h2c2.355 0 3.348-.874 3.348-2.97 0-2.094-.993-2.996-3.348-2.996zm-.142 4.495h-1.858v-3.01h1.858c1.277 0 1.759.43 1.759 1.498 0 1.082-.482 1.512-1.759 1.512zM308.754 31.13h1.986l-2.213-3.788c1.291-.32 1.844-1.18 1.844-2.747 0-2.054-.922-2.9-3.205-2.9h-3.83v9.434h1.731V27.48h1.588l2.099 3.65zm-3.687-7.95h1.929c1.219 0 1.645.388 1.645 1.415 0 1.013-.426 1.415-1.645 1.415h-1.929v-2.83zM316.17 31.296c2.596 0 3.83-1.235 3.83-3.802V25.33c0-2.567-1.234-3.801-3.83-3.801-2.581 0-3.815 1.234-3.815 3.801v2.164c0 2.567 1.234 3.802 3.815 3.802zm0-1.485c-1.475 0-2.085-.707-2.085-2.33v-2.137c0-1.623.61-2.33 2.085-2.33s2.1.707 2.1 2.33v2.136c0 1.624-.625 2.331-2.1 2.331z" fill="#222"/></svg>