<svg width="565.519" height="47.25" viewBox="-0.85 4.375 565.519 47.25" fill="none" xmlns="http://www.w3.org/2000/svg">
<g clip-path="url(#clip0_202_713)">
<path d="M-0.849609 14.5C-0.849609 8.90812 3.68351 4.375 9.27539 4.375H36.2754C41.8673 4.375 46.4004 8.90812 46.4004 14.5V41.5C46.4004 47.0919 41.8673 51.625 36.2754 51.625H9.27539C3.68351 51.625 -0.849609 47.0919 -0.849609 41.5V14.5Z" fill="#1145C9"/>
<path fill-rule="evenodd" clip-rule="evenodd" d="M30.7971 41.4987H23.1967C22.3737 41.4987 21.7057 40.8257 21.7057 39.9969C21.7057 39.1683 22.3737 38.4953 23.1967 38.4953H28.1614C28.9362 38.4418 29.549 37.7912 29.549 36.9975C29.549 36.1687 28.8809 35.4959 28.058 35.4959L20.2892 35.4957C19.4674 35.4957 18.8002 34.8238 18.8002 33.9962C18.8002 33.1686 19.4674 32.4965 20.2892 32.4965H21.227L21.225 32.4946H22.6193C23.4406 32.4946 24.1076 31.8231 24.1076 30.9958C24.1076 30.1686 23.4406 29.4971 22.6193 29.4971H19.1126V29.4957H11.759C10.9377 29.4957 10.2707 28.8241 10.2707 27.9967C10.2707 27.1694 10.9377 26.4976 11.759 26.4976H19.1126V26.4935H21.9918C22.8124 26.4935 23.4787 25.8225 23.4787 24.9959C23.4787 24.1694 22.8124 23.4983 21.9918 23.4983L18.2779 23.4981C17.4561 23.4981 16.7891 22.8261 16.7891 21.9986C16.7891 21.1709 17.4561 20.4989 18.2779 20.4989H25.3385C25.3738 20.4989 25.4086 20.5001 25.4431 20.5025H27.967C28.7897 20.5025 29.4578 19.8297 29.4578 19.0009C29.4578 18.1722 28.7897 17.4995 27.967 17.4995H24.257C23.4849 17.443 22.8752 16.7936 22.8752 16.0018C22.8752 15.1729 23.5431 14.5001 24.3661 14.5001H30.2102C30.2166 14.5001 30.2229 14.5001 30.2299 14.5002H37.1204L25.0468 27.7795L39.6503 41.5001H30.8366L30.8345 41.4981C30.8221 41.4986 30.8097 41.4987 30.7971 41.4987ZM16.4913 38.4953C17.3114 38.4953 17.9771 39.1658 17.9771 39.9916C17.9771 40.8175 17.3114 41.4879 16.4913 41.4879H11.0392C10.2193 41.4879 9.55354 40.8175 9.55354 39.9916C9.55354 39.1658 10.2193 38.4953 11.0392 38.4953H16.4913ZM14.3329 32.4965C15.1554 32.4965 15.8231 33.169 15.8231 33.9974C15.8231 34.8256 15.1554 35.4982 14.3329 35.4982C13.5103 35.4982 12.8426 34.8256 12.8426 33.9974C12.8426 33.169 13.5103 32.4965 14.3329 32.4965ZM6.54672 26.4976C7.36929 26.4976 8.037 27.1701 8.037 27.9985C8.037 28.8268 7.36929 29.4993 6.54672 29.4993C5.72428 29.4993 5.05657 28.8268 5.05657 27.9985C5.05657 27.1701 5.72428 26.4976 6.54672 26.4976ZM12.3218 20.4989C13.1442 20.4989 13.8121 21.1714 13.8121 21.9998C13.8121 22.8281 13.1442 23.5005 12.3218 23.5005C11.4993 23.5005 10.8315 22.8281 10.8315 21.9998C10.8315 21.1714 11.4993 20.4989 12.3218 20.4989ZM17.666 14.5001C18.4861 14.5001 19.1517 15.1705 19.1517 15.9963C19.1517 16.8223 18.4861 17.4927 17.666 17.4927H14.2197C13.3997 17.4927 12.734 16.8223 12.734 15.9963C12.734 15.1705 13.3996 14.5001 14.2197 14.5001H17.666Z" fill="#FEFBF2"/>
<path d="M553.811 43.9172C551.628 43.9172 549.718 43.4289 548.08 42.4522C546.443 41.4756 545.179 40.0824 544.289 38.2728C543.398 36.4631 542.953 34.3518 542.953 31.9389C542.953 29.4973 543.398 27.3861 544.289 25.6051C545.179 23.8242 546.443 22.4454 548.08 21.4687C549.718 20.4634 551.628 19.9607 553.811 19.9607C555.994 19.9607 557.904 20.4634 559.542 21.4687C561.179 22.4454 562.443 23.8242 563.333 25.6051C564.224 27.3861 564.669 29.4973 564.669 31.9389C564.669 34.3518 564.224 36.4631 563.333 38.2728C562.443 40.0824 561.179 41.4756 559.542 42.4522C557.904 43.4289 555.994 43.9172 553.811 43.9172ZM553.811 39.9532C555.764 39.9532 557.272 39.2494 558.335 37.8419C559.398 36.4056 559.929 34.438 559.929 31.9389C559.929 29.4399 559.398 27.4866 558.335 26.0791C557.272 24.6428 555.764 23.9247 553.811 23.9247C551.886 23.9247 550.378 24.6428 549.287 26.0791C548.224 27.4866 547.693 29.4399 547.693 31.9389C547.693 34.438 548.224 36.4056 549.287 37.8419C550.378 39.2494 551.886 39.9532 553.811 39.9532Z" fill="#1E1004"/>
<path d="M530.436 43.4001V20.4777H534.615L534.787 26.553L534.4 26.4238C534.715 24.3556 535.347 22.8475 536.295 21.8996C537.272 20.9517 538.579 20.4777 540.216 20.4777H542.414V24.571H540.216C539.067 24.571 538.105 24.7577 537.329 25.1312C536.554 25.5046 535.965 26.0791 535.563 26.8546C535.189 27.6302 535.003 28.6356 535.003 29.8707V43.4001H530.436Z" fill="#1E1004"/>
<path d="M504.263 43.4001V12.8082H515.681C519.185 12.8082 521.914 13.6556 523.867 15.3504C525.821 17.0164 526.797 19.3431 526.797 22.3305C526.797 24.3125 526.352 26.036 525.462 27.501C524.571 28.9372 523.293 30.0431 521.627 30.8187C519.99 31.5655 518.008 31.9389 515.681 31.9389H508.916V43.4001H504.263ZM508.916 27.7164H515.552C517.648 27.7164 519.243 27.2712 520.334 26.3807C521.426 25.4615 521.972 24.1114 521.972 22.3305C521.972 20.5783 521.426 19.2713 520.334 18.4095C519.243 17.5191 517.648 17.0738 515.552 17.0738H508.916V27.7164Z" fill="#1E1004"/>
<path d="M481.461 43.9172C479.306 43.9172 477.482 43.5868 475.989 42.9262C474.524 42.2655 473.389 41.3607 472.585 40.2117C471.781 39.034 471.321 37.6839 471.206 36.1615L475.903 35.946C476.132 37.2099 476.678 38.2153 477.54 38.9622C478.402 39.709 479.709 40.0824 481.461 40.0824C482.897 40.0824 484.032 39.8526 484.865 39.393C485.698 38.9334 486.114 38.2009 486.114 37.1956C486.114 36.6498 485.971 36.1902 485.683 35.8168C485.425 35.4146 484.908 35.0843 484.132 34.8258C483.357 34.5385 482.208 34.2656 480.685 34.0071C478.416 33.5762 476.635 33.0736 475.342 32.4991C474.05 31.9246 473.131 31.1921 472.585 30.3016C472.039 29.4112 471.766 28.334 471.766 27.0701C471.766 24.9732 472.542 23.264 474.093 21.9427C475.673 20.6214 477.942 19.9607 480.901 19.9607C482.883 19.9607 484.549 20.3054 485.899 20.9948C487.249 21.6555 488.297 22.5603 489.044 23.7093C489.82 24.8295 490.308 26.0934 490.509 27.501L485.813 27.7595C485.669 26.9552 485.382 26.2658 484.951 25.6913C484.549 25.0881 484.003 24.6285 483.314 24.3125C482.624 23.9678 481.806 23.7955 480.858 23.7955C479.393 23.7955 478.301 24.0827 477.583 24.6572C476.865 25.2317 476.506 25.9785 476.506 26.8977C476.506 27.5871 476.664 28.1473 476.98 28.5781C477.324 29.009 477.87 29.3681 478.617 29.6553C479.364 29.9138 480.355 30.1436 481.59 30.3447C483.974 30.7469 485.841 31.2495 487.191 31.8528C488.541 32.4273 489.489 33.1454 490.035 34.0071C490.581 34.8689 490.854 35.9173 490.854 37.1525C490.854 38.5887 490.452 39.8095 489.647 40.8149C488.843 41.8203 487.737 42.5958 486.33 43.1416C484.922 43.6587 483.299 43.9172 481.461 43.9172Z" fill="#1E1004"/>
<path d="M448.127 49.8632V20.4777H452.436L452.565 25.3897L452.048 25.1312C452.623 23.4364 453.571 22.1581 454.892 21.2964C456.213 20.4059 457.736 19.9607 459.459 19.9607C461.7 19.9607 463.538 20.5208 464.974 21.6411C466.439 22.7326 467.516 24.1832 468.206 25.9929C468.924 27.8026 469.283 29.7846 469.283 31.9389C469.283 34.0933 468.924 36.0753 468.206 37.885C467.516 39.6946 466.439 41.1596 464.974 42.2799C463.538 43.3714 461.7 43.9172 459.459 43.9172C458.31 43.9172 457.233 43.7161 456.228 43.314C455.222 42.9118 454.36 42.3517 453.642 41.6336C452.953 40.8867 452.465 40.0106 452.177 39.0052L452.694 38.4882V49.8632H448.127ZM458.64 39.9532C460.479 39.9532 461.915 39.2494 462.949 37.8419C464.012 36.4344 464.543 34.4667 464.543 31.9389C464.543 29.4112 464.012 27.4435 462.949 26.036C461.915 24.6285 460.479 23.9247 458.64 23.9247C457.434 23.9247 456.386 24.2263 455.495 24.8295C454.605 25.404 453.915 26.2945 453.427 27.501C452.939 28.7074 452.694 30.1867 452.694 31.9389C452.694 33.6911 452.924 35.1705 453.384 36.3769C453.872 37.5834 454.561 38.4882 455.452 39.0914C456.371 39.6659 457.434 39.9532 458.64 39.9532Z" fill="#1E1004"/>
<path d="M438.017 43.4001V20.4777H442.584V43.4001H438.017ZM437.931 17.16V12.5928H442.67V17.16H437.931Z" fill="#1E1004"/>
<path d="M414.273 43.4001V12.8082H418.841V25.6482L418.28 25.562C418.539 24.2694 419.013 23.221 419.702 22.4167C420.392 21.5836 421.239 20.9661 422.245 20.5639C423.25 20.1618 424.356 19.9607 425.562 19.9607C427.228 19.9607 428.636 20.3341 429.785 21.081C430.934 21.7991 431.795 22.8188 432.37 24.1401C432.973 25.4615 433.275 26.9695 433.275 28.6643V43.4001H428.708V29.8707C428.708 27.8026 428.349 26.2801 427.63 25.3035C426.941 24.2981 425.849 23.7955 424.356 23.7955C422.69 23.7955 421.354 24.3269 420.349 25.3897C419.343 26.4238 418.841 27.9462 418.841 29.9569V43.4001H414.273Z" fill="#1E1004"/>
<path d="M401.551 43.9172C399.397 43.9172 397.572 43.5868 396.079 42.9262C394.614 42.2655 393.479 41.3607 392.675 40.2117C391.871 39.034 391.411 37.6839 391.296 36.1615L395.993 35.946C396.222 37.2099 396.768 38.2153 397.63 38.9622C398.492 39.709 399.799 40.0824 401.551 40.0824C402.987 40.0824 404.122 39.8526 404.955 39.393C405.788 38.9334 406.204 38.2009 406.204 37.1956C406.204 36.6498 406.061 36.1902 405.773 35.8168C405.515 35.4146 404.998 35.0843 404.222 34.8258C403.447 34.5385 402.298 34.2656 400.775 34.0071C398.506 33.5762 396.725 33.0736 395.432 32.4991C394.14 31.9246 393.221 31.1921 392.675 30.3016C392.129 29.4112 391.856 28.334 391.856 27.0701C391.856 24.9732 392.632 23.264 394.183 21.9427C395.763 20.6214 398.032 19.9607 400.991 19.9607C402.973 19.9607 404.639 20.3054 405.989 20.9948C407.339 21.6555 408.387 22.5603 409.134 23.7093C409.91 24.8295 410.398 26.0934 410.599 27.501L405.903 27.7595C405.759 26.9552 405.472 26.2658 405.041 25.6913C404.639 25.0881 404.093 24.6285 403.404 24.3125C402.714 23.9678 401.896 23.7955 400.948 23.7955C399.483 23.7955 398.391 24.0827 397.673 24.6572C396.955 25.2317 396.596 25.9785 396.596 26.8977C396.596 27.5871 396.754 28.1473 397.07 28.5781C397.414 29.009 397.96 29.3681 398.707 29.6553C399.454 29.9138 400.445 30.1436 401.68 30.3447C404.064 30.7469 405.931 31.2495 407.281 31.8528C408.632 32.4273 409.579 33.1454 410.125 34.0071C410.671 34.8689 410.944 35.9173 410.944 37.1525C410.944 38.5887 410.542 39.8095 409.737 40.8149C408.933 41.8203 407.827 42.5958 406.42 43.1416C405.012 43.6587 403.389 43.9172 401.551 43.9172Z" fill="#1E1004"/>
<path d="M378.779 43.4001V20.4777H382.958L383.13 26.553L382.743 26.4238C383.059 24.3556 383.691 22.8475 384.638 21.8996C385.615 20.9517 386.922 20.4777 388.559 20.4777H390.757V24.571H388.559C387.41 24.571 386.448 24.7577 385.673 25.1312C384.897 25.5046 384.308 26.0791 383.906 26.8546C383.533 27.6302 383.346 28.6356 383.346 29.8707V43.4001H378.779Z" fill="#1E1004"/>
<path d="M365.102 43.9172C362.862 43.9172 360.923 43.4289 359.286 42.4522C357.677 41.4756 356.428 40.0824 355.537 38.2728C354.675 36.4631 354.244 34.3518 354.244 31.9389C354.244 29.526 354.675 27.4291 355.537 25.6482C356.428 23.8385 357.677 22.4454 359.286 21.4687C360.894 20.4634 362.79 19.9607 364.973 19.9607C367.041 19.9607 368.865 20.449 370.445 21.4257C372.025 22.3736 373.246 23.7524 374.108 25.562C374.998 27.3717 375.443 29.5548 375.443 32.1113V33.2746H358.984C359.099 35.5152 359.688 37.1956 360.751 38.3158C361.842 39.4361 363.307 39.9962 365.146 39.9962C366.496 39.9962 367.616 39.6803 368.506 39.0483C369.397 38.4164 370.014 37.569 370.359 36.5062L375.099 36.8078C374.495 38.9334 373.303 40.6569 371.522 41.9783C369.77 43.2709 367.63 43.9172 365.102 43.9172ZM358.984 29.8277H370.618C370.474 27.7882 369.885 26.2801 368.851 25.3035C367.846 24.3269 366.553 23.8385 364.973 23.8385C363.336 23.8385 361.986 24.3556 360.923 25.3897C359.889 26.395 359.243 27.8744 358.984 29.8277Z" fill="#1E1004"/>
<path d="M342.584 43.9172C341.004 43.9172 339.596 43.5725 338.361 42.8831C337.155 42.165 336.221 41.1883 335.56 39.9532L335.431 43.4001H331.166V12.8082H335.733V23.7093C336.336 22.7039 337.226 21.8278 338.404 21.081C339.611 20.3341 341.004 19.9607 342.584 19.9607C344.566 19.9607 346.289 20.449 347.754 21.4257C349.219 22.4023 350.339 23.7954 351.115 25.6051C351.919 27.3861 352.321 29.4973 352.321 31.9389C352.321 34.3805 351.919 36.5062 351.115 38.3158C350.339 40.0968 349.219 41.4756 347.754 42.4522C346.289 43.4289 344.566 43.9172 342.584 43.9172ZM341.851 39.9532C343.603 39.9532 344.997 39.2494 346.031 37.8419C347.065 36.4056 347.582 34.438 347.582 31.9389C347.582 29.4399 347.065 27.4866 346.031 26.0791C344.997 24.6428 343.618 23.9247 341.894 23.9247C340.602 23.9247 339.496 24.2407 338.577 24.8726C337.657 25.5046 336.954 26.4238 336.465 27.6302C335.977 28.8079 335.733 30.2442 335.733 31.9389C335.733 33.5762 335.977 34.9981 336.465 36.2046C336.954 37.411 337.657 38.3446 338.577 39.0052C339.496 39.6372 340.587 39.9532 341.851 39.9532Z" fill="#1E1004"/>
<path d="M294.757 43.4001V20.4777H298.936L299.066 26.1652L298.549 25.9929C298.807 24.729 299.252 23.6518 299.884 22.7614C300.545 21.8709 301.349 21.1815 302.297 20.6932C303.245 20.2048 304.279 19.9607 305.399 19.9607C307.353 19.9607 308.947 20.5208 310.182 21.6411C311.417 22.7326 312.193 24.2407 312.509 26.1652H311.776C312.035 24.8152 312.466 23.6949 313.069 22.8044C313.701 21.8852 314.505 21.1815 315.482 20.6932C316.458 20.2048 317.564 19.9607 318.8 19.9607C320.408 19.9607 321.773 20.3054 322.893 20.9948C324.042 21.6555 324.904 22.6321 325.478 23.9247C326.081 25.2173 326.383 26.7972 326.383 28.6643V43.4001H321.816V29.7846C321.816 27.8026 321.457 26.3089 320.738 25.3035C320.02 24.2981 318.929 23.7955 317.464 23.7955C316.516 23.7955 315.683 24.0396 314.965 24.5279C314.247 25.0163 313.687 25.72 313.284 26.6392C312.911 27.5584 312.724 28.6643 312.724 29.9569V43.4001H308.372V29.9569C308.372 28.0036 308.042 26.4956 307.381 25.4328C306.749 24.3412 305.658 23.7955 304.107 23.7955C303.13 23.7955 302.283 24.0396 301.565 24.5279C300.875 25.0163 300.329 25.7344 299.927 26.6823C299.525 27.6015 299.324 28.693 299.324 29.9569V43.4001H294.757Z" fill="#1E1004"/>
<path d="M281.081 43.9172C278.84 43.9172 276.901 43.4289 275.264 42.4522C273.655 41.4756 272.406 40.0824 271.515 38.2728C270.654 36.4631 270.223 34.3518 270.223 31.9389C270.223 29.526 270.654 27.4291 271.515 25.6482C272.406 23.8385 273.655 22.4454 275.264 21.4687C276.873 20.4634 278.768 19.9607 280.951 19.9607C283.02 19.9607 284.844 20.449 286.424 21.4257C288.003 22.3736 289.224 23.7524 290.086 25.562C290.976 27.3717 291.422 29.5548 291.422 32.1113V33.2746H274.962C275.077 35.5152 275.666 37.1956 276.729 38.3158C277.82 39.4361 279.285 39.9962 281.124 39.9962C282.474 39.9962 283.594 39.6803 284.485 39.0483C285.375 38.4164 285.993 37.569 286.337 36.5062L291.077 36.8078C290.474 38.9334 289.282 40.6569 287.501 41.9783C285.748 43.2709 283.608 43.9172 281.081 43.9172ZM274.962 29.8277H286.596C286.452 27.7882 285.863 26.2801 284.829 25.3035C283.824 24.3269 282.531 23.8385 280.951 23.8385C279.314 23.8385 277.964 24.3556 276.901 25.3897C275.867 26.395 275.221 27.8744 274.962 29.8277Z" fill="#1E1004"/>
<path d="M235.499 43.4001V12.8082H241.876L250.968 37.9281L260.059 12.8082H266.436V43.4001H261.783V20.9948L253.553 43.357H248.383L240.153 20.9948V43.4001H235.499Z" fill="#1E1004"/>
<path d="M211.744 43.9172C209.503 43.9172 207.564 43.4289 205.927 42.4522C204.319 41.4756 203.069 40.0824 202.179 38.2728C201.317 36.4631 200.886 34.3518 200.886 31.9389C200.886 29.526 201.317 27.4291 202.179 25.6482C203.069 23.8385 204.319 22.4454 205.927 21.4687C207.536 20.4634 209.432 19.9607 211.615 19.9607C213.683 19.9607 215.507 20.449 217.087 21.4257C218.667 22.3736 219.887 23.7524 220.749 25.562C221.64 27.3717 222.085 29.5548 222.085 32.1113V33.2746H205.626C205.74 35.5152 206.329 37.1956 207.392 38.3158C208.484 39.4361 209.949 39.9962 211.787 39.9962C213.137 39.9962 214.257 39.6803 215.148 39.0483C216.038 38.4164 216.656 37.569 217.001 36.5062L221.74 36.8078C221.137 38.9334 219.945 40.6569 218.164 41.9783C216.412 43.2709 214.272 43.9172 211.744 43.9172ZM205.626 29.8277H217.259C217.115 27.7882 216.527 26.2801 215.493 25.3035C214.487 24.3269 213.195 23.8385 211.615 23.8385C209.977 23.8385 208.627 24.3556 207.564 25.3897C206.53 26.395 205.884 27.8744 205.626 29.8277Z" fill="#1E1004"/>
<path d="M189.179 43.9172C186.996 43.9172 185.085 43.4289 183.448 42.4522C181.811 41.4756 180.547 40.0824 179.656 38.2728C178.766 36.4631 178.321 34.3518 178.321 31.9389C178.321 29.526 178.766 27.4291 179.656 25.6482C180.547 23.8385 181.811 22.4454 183.448 21.4687C185.085 20.4634 186.996 19.9607 189.179 19.9607C191.046 19.9607 192.697 20.291 194.134 20.9517C195.599 21.5836 196.776 22.5172 197.667 23.7524C198.586 24.9875 199.175 26.4956 199.433 28.2765L194.651 28.535C194.421 27.0414 193.818 25.9067 192.841 25.1312C191.864 24.3269 190.644 23.9247 189.179 23.9247C187.254 23.9247 185.746 24.6428 184.655 26.0791C183.592 27.4866 183.06 29.4399 183.06 31.9389C183.06 34.438 183.592 36.4056 184.655 37.8419C185.746 39.2494 187.254 39.9532 189.179 39.9532C190.644 39.9532 191.864 39.551 192.841 38.7467C193.818 37.9137 194.421 36.6642 194.651 34.9981L199.433 35.2567C199.175 37.0089 198.586 38.5313 197.667 39.8239C196.776 41.1165 195.599 42.1219 194.134 42.84C192.697 43.5581 191.046 43.9172 189.179 43.9172Z" fill="#1E1004"/>
<path d="M156.083 43.4001V20.4777H160.263L160.435 26.5961L159.875 26.2945C160.134 24.8008 160.622 23.5944 161.34 22.6752C162.058 21.756 162.934 21.081 163.968 20.6501C165.002 20.1905 166.123 19.9607 167.329 19.9607C169.053 19.9607 170.474 20.3485 171.595 21.124C172.744 21.8709 173.605 22.905 174.18 24.2263C174.783 25.5189 175.085 26.9983 175.085 28.6643V43.4001H170.518V30.0431C170.518 28.693 170.374 27.5584 170.087 26.6392C169.799 25.72 169.325 25.0163 168.665 24.5279C168.004 24.0396 167.142 23.7955 166.08 23.7955C164.471 23.7955 163.164 24.3269 162.159 25.3897C161.153 26.4525 160.651 28.0036 160.651 30.0431V43.4001H156.083Z" fill="#1E1004"/>
<path d="M142.407 43.9172C140.167 43.9172 138.228 43.4289 136.59 42.4522C134.982 41.4756 133.732 40.0824 132.842 38.2728C131.98 36.4631 131.549 34.3518 131.549 31.9389C131.549 29.526 131.98 27.4291 132.842 25.6482C133.732 23.8385 134.982 22.4454 136.59 21.4687C138.199 20.4634 140.095 19.9607 142.278 19.9607C144.346 19.9607 146.17 20.449 147.75 21.4257C149.33 22.3736 150.551 23.7524 151.412 25.562C152.303 27.3717 152.748 29.5548 152.748 32.1113V33.2746H136.289C136.404 35.5152 136.993 37.1956 138.055 38.3158C139.147 39.4361 140.612 39.9962 142.45 39.9962C143.8 39.9962 144.921 39.6803 145.811 39.0483C146.702 38.4164 147.319 37.569 147.664 36.5062L152.403 36.8078C151.8 38.9334 150.608 40.6569 148.827 41.9783C147.075 43.2709 144.935 43.9172 142.407 43.9172ZM136.289 29.8277H147.922C147.779 27.7882 147.19 26.2801 146.156 25.3035C145.15 24.3269 143.858 23.8385 142.278 23.8385C140.641 23.8385 139.291 24.3556 138.228 25.3897C137.194 26.395 136.547 27.8744 136.289 29.8277Z" fill="#1E1004"/>
<path d="M116.614 43.9172C114.66 43.9172 112.951 43.4289 111.486 42.4522C110.05 41.4756 108.944 40.0968 108.169 38.3158C107.422 36.5062 107.048 34.3805 107.048 31.9389C107.048 29.4973 107.436 27.3861 108.212 25.6051C108.987 23.7954 110.093 22.4023 111.529 21.4257C112.966 20.449 114.66 19.9607 116.614 19.9607C118.194 19.9607 119.601 20.291 120.836 20.9517C122.071 21.6124 123.005 22.5316 123.637 23.7093V12.8082H128.204V43.4001H123.939L123.809 39.9532C123.177 41.1883 122.215 42.165 120.922 42.8831C119.659 43.5725 118.222 43.9172 116.614 43.9172ZM117.82 39.9532C119.055 39.9532 120.104 39.6372 120.966 39.0052C121.827 38.3733 122.488 37.4541 122.948 36.2477C123.407 35.0412 123.637 33.605 123.637 31.9389C123.637 30.2154 123.407 28.7648 122.948 27.5871C122.488 26.3807 121.827 25.4759 120.966 24.8726C120.104 24.2407 119.055 23.9247 117.82 23.9247C115.982 23.9247 114.517 24.6428 113.425 26.0791C112.334 27.4866 111.788 29.4399 111.788 31.9389C111.788 34.4093 112.334 36.3626 113.425 37.7988C114.517 39.235 115.982 39.9532 117.82 39.9532Z" fill="#1E1004"/>
<path d="M91.8571 43.9172C89.473 43.9172 87.5628 43.3714 86.1265 42.2799C84.719 41.1883 84.0153 39.6515 84.0153 37.6695C84.0153 35.6875 84.6041 34.1507 85.7818 33.0592C86.9883 31.9389 88.841 31.1346 91.3401 30.6463L99.2251 29.1383C99.2251 27.3573 98.8085 26.036 97.9755 25.1742C97.1425 24.2838 95.9073 23.8385 94.27 23.8385C92.8051 23.8385 91.6561 24.1689 90.823 24.8295C89.99 25.4615 89.4155 26.4094 89.0996 27.6733L84.403 27.3717C84.8339 25.0737 85.8967 23.264 87.5915 21.9427C89.315 20.6214 91.5412 19.9607 94.27 19.9607C97.3723 19.9607 99.7277 20.7937 101.336 22.4597C102.974 24.0971 103.792 26.4094 103.792 29.3968V43.4001H99.7421L99.5697 38.3158L100.001 38.4882C99.7995 39.551 99.3112 40.4846 98.5357 41.2889C97.7601 42.0932 96.7834 42.7395 95.6057 43.2278C94.4567 43.6874 93.2072 43.9172 91.8571 43.9172ZM92.5896 40.2979C93.9684 40.2979 95.1461 40.0393 96.1228 39.5223C97.0994 38.9765 97.8606 38.2297 98.4064 37.2817C98.9522 36.3338 99.2251 35.2567 99.2251 34.0502V32.5852L92.5034 33.8779C91.1247 34.1364 90.148 34.5529 89.5735 35.1274C89.0277 35.6732 88.7549 36.3769 88.7549 37.2387C88.7549 38.2153 89.0852 38.9765 89.7459 39.5223C90.4353 40.0393 91.3832 40.2979 92.5896 40.2979Z" fill="#1E1004"/>
<path d="M59.8164 43.4001V12.8082H64.4698V27.4148L77.3529 12.8082H82.9973L71.2776 26.1652L83.7729 43.4001H78.3008L68.1753 29.4399L64.4698 33.5762V43.4001H59.8164Z" fill="#1E1004"/>
</g>
<defs>
<clipPath id="clip0_202_713">
<rect width="567" height="56" fill="white"/>
</clipPath>
</defs>
</svg>
