<svg xmlns="http://www.w3.org/2000/svg" viewBox="0 0 29 29"><defs><style>.cls-1{fill:#640af8;}</style></defs><g id="Layer_2" data-name="Layer 2"><g id="Layer_1-2" data-name="Layer 1"><path id="Icon_metro-help" data-name="Icon metro-help" class="cls-1" d="M14.5,0A14.5,14.5,0,1,0,29,14.5h0A14.5,14.5,0,0,0,14.5,0ZM9.06,14.5a5.44,5.44,0,1,1,5.44,5.44A5.45,5.45,0,0,1,9.06,14.5Zm17.17,4.86-5-2.09a7.31,7.31,0,0,0,0-5.55l5-2.08a12.67,12.67,0,0,1,0,9.71ZM19.36,2.77l-2.08,5a7.31,7.31,0,0,0-5.55,0l-2.09-5A12.78,12.78,0,0,1,19.36,2.77ZM2.78,9.64l5,2.08a7.31,7.31,0,0,0,0,5.55l-5,2.09a12.69,12.69,0,0,1,0-9.72ZM9.64,26.22l2.09-5a7.31,7.31,0,0,0,5.55,0l2.08,5a12.67,12.67,0,0,1-9.71,0Z"/></g></g></svg>