<svg xmlns="http://www.w3.org/2000/svg" width="50.398" height="38.863" viewBox="0 0 50.398 38.863"><g transform="translate(-616.871 -486.865)"><path d="M632.832,504.875c4.434-6.719,10.151-11.587,18.509-11.993a16.057,16.057,0,0,1,10.27,2.763l-26.6,10.374-.02.478,15.253,5.923-.265.723c-5.24-1.536-10.195-3.953-15.385-5.637l-.36.405,3.757,4.894-.383.329c-2.179-1.157-3.1-3.57-5.107-5.739-.793,2.335-1.628,4.312-2.114,6.372a41.933,41.933,0,0,0-.752,5.845,6.162,6.162,0,0,1-6.047,5.616,6,6,0,0,1-1.916-11.723,6.46,6.46,0,0,1,7.006,2.3c.2-.526.346-.864.464-1.211.809-2.4,1.62-4.8,2.411-7.212.158-.481.455-1.064.314-1.47-1.03-2.981-2.155-5.929-3.284-8.98a6.773,6.773,0,0,1-5.608,2.31c-3.132-.27-5.858-3.17-5.581-6.157a6.07,6.07,0,0,1,6.61-5.681c3.45.391,5.471,2.581,5.638,6.11C629.853,497.985,631.07,502.411,632.832,504.875Zm26.438-9.376c-7.845-4.38-22.806,1.555-24.764,9.6Zm-35.723,2.83a4.98,4.98,0,1,0,.161-9.958,4.983,4.983,0,1,0-.161,9.958Zm.021,25.817a4.964,4.964,0,0,0,5.047-4.9,5.072,5.072,0,1,0-10.144.073A4.938,4.938,0,0,0,623.568,524.145Z" transform="translate(0 0)" fill="#222222" stroke="#222222" stroke-width="1"/><ellipse cx="1.776" cy="0.303" rx="1.776" ry="0.303" transform="translate(641.018 516.177)" fill="#222222" stroke="#222222" stroke-width="1"/><path d="M669.628,528.5l2.479.111-.016.531h-2.519Z" transform="translate(-15.809 -12.458)" fill="#222222" stroke="#222222" stroke-width="1"/><path d="M684.628,528.5l2.479.111-.016.531h-2.519Z" transform="translate(-20.353 -12.458)" fill="#222222" stroke="#222222" stroke-width="1"/><path d="M660.629,528.5l2.479.111-.016.531h-2.519Z" transform="translate(-13.084 -12.458)" fill="#222222" stroke="#222222" stroke-width="1"/><path d="M677.628,528.5l2.479.111-.016.531h-2.519Z" transform="translate(-18.232 -12.458)" fill="#222222" stroke="#222222" stroke-width="1"/></g></svg>