<svg xmlns="http://www.w3.org/2000/svg" width="38.403" height="52.307" viewBox="0 0 38.403 52.307"><g transform="translate(-827.049 -423.246)"><path d="M836.753,437.452c-1.559-5.324-.652-9.558,3.67-12.484a9.2,9.2,0,0,1,10.2-.34c4.713,2.785,5.979,7.174,4.138,12.826,1.687,0,3.008-.054,4.323.01,3.786.184,6.392,1.61,6.353,6.307-.069,8.4-.086,16.792.011,25.186.054,4.64-2.311,6.409-6.178,6.479q-13.065.236-26.136,0c-3.51-.062-6.144-1.779-6.086-6.337.106-8.314.007-16.631.037-24.946.017-4.731,1.956-6.635,6.691-6.7C834.64,437.441,835.5,437.452,836.753,437.452Zm5.507,5.043c-2.611-1.818-4.858-4.654-9.055-3.949-3.3.554-4.87,1.827-4.876,5.2q-.02,12.583,0,25.164c0,3.561,1.174,5.152,4.7,5.22,8.94.173,17.886.144,26.827.017,2.827-.039,4.3-1.756,4.308-4.4.029-8.867.01-17.735.011-26.6a3.959,3.959,0,0,0-3.383-4.246c-3.889-.943-7.363-.361-10.237,2.611-.413.428-.774.908-1.16,1.364a8.6,8.6,0,0,0,1.459,1.073,12.056,12.056,0,0,1,2.854,20.482,12.449,12.449,0,0,1-16.017-.14c-4.858-4.371-5.871-10.735-2.056-15.868C837.311,446.175,839.875,444.584,842.259,442.494Zm3.436-1.164a8.336,8.336,0,1,0,.438-16.665,8.34,8.34,0,1,0-.438,16.665Zm-3.162,6.8a7.33,7.33,0,0,0-4.521,8.021,7.91,7.91,0,0,0,7.917,6.263,7.721,7.721,0,0,0,7.629-6.291A7.034,7.034,0,0,0,849.1,448.1c0,2.234.049,4.259-.012,6.282-.087,2.9-1.014,3.974-3.3,3.976s-3.224-1.139-3.257-3.984C842.515,452.4,842.533,450.431,842.533,448.133Zm6.608-2.678A8.478,8.478,0,0,0,850.517,447a9.036,9.036,0,0,1,4.242,9.221,9.114,9.114,0,0,1-18-.6c-.25-3.906,1.188-6.8,4.66-8.7.432-.237.612-.937.909-1.423-.566-.046-1.277-.333-1.672-.095a13.854,13.854,0,0,0-3.215,2.433,10.417,10.417,0,0,0-1.528,12.23,10.649,10.649,0,0,0,10.354,5.975,10.857,10.857,0,0,0,10.225-7.965C858.148,452.471,854.919,446.414,849.141,445.455Zm-1.323-3.344c-1.582,1.1-3.812-.771-4.012,1.7a88.517,88.517,0,0,0,.051,11.716c.03.567,1.383,1.434,2.16,1.474a2.417,2.417,0,0,0,1.72-1.661C847.893,451.211,847.818,447.07,847.818,442.111Z" transform="translate(0)" fill="#222222"/><path d="M849.468,446.411c5.778.958,9.007,7.016,7.355,12.63a10.858,10.858,0,0,1-10.225,7.965,10.649,10.649,0,0,1-10.354-5.975,10.417,10.417,0,0,1,1.528-12.23,13.854,13.854,0,0,1,3.215-2.433c.395-.238,1.105.049,1.672.095-.3.486-.476,1.187-.909,1.423-3.473,1.9-4.91,4.793-4.66,8.7a9.114,9.114,0,0,0,18,.6,9.036,9.036,0,0,0-4.242-9.221A8.477,8.477,0,0,1,849.468,446.411Z" transform="translate(-0.327 -0.956)" fill="#222222"/><path d="M848.537,442.928c0,4.959.075,9.1-.081,13.232a2.417,2.417,0,0,1-1.72,1.661c-.777-.04-2.131-.907-2.16-1.474a88.517,88.517,0,0,1-.051-11.716C844.725,442.157,846.955,444.024,848.537,442.928Z" transform="translate(-0.718 -0.817)" fill="#222222"/><path d="M835.3,466.627c1.031.067,1.945,1.223,2.129,2.862a2.978,2.978,0,0,1-3.239,3.043c-1.705-.148-2.866-.977-2.936-2.831C831.2,468.022,832.753,466.567,835.3,466.627Zm-.977.405c-.8,1.281-1.714,2.1-1.585,2.7.138.643,1.252,1.076,1.94,1.6.465-.636,1.277-1.262,1.295-1.911C835.995,468.817,835.171,468.186,834.328,467.032Z" transform="translate(-0.175 -1.801)" fill="#222222"/><path d="M854.754,472.7c4.465-.536,6.633-3.338,7.7-7.4.855,2.26-.187,3.963-1.378,5.531A5.324,5.324,0,0,1,854.754,472.7Z" transform="translate(-1.15 -1.746)" fill="#222222"/><path d="M845.877,428.495c-2.448.884-4.229,2.352-4.613,5.217l-.99-.525a12.353,12.353,0,0,1,1.007-3.116A3.471,3.471,0,0,1,845.877,428.495Z" transform="translate(-0.549 -0.204)" fill="#222222"/><path d="M834.392,467.05c.843,1.154,1.667,1.785,1.65,2.392-.018.649-.83,1.275-1.295,1.911-.688-.525-1.8-.958-1.94-1.6C832.678,469.153,833.589,468.331,834.392,467.05Z" transform="translate(-0.239 -1.819)" fill="#222222"/></g></svg>