<?xml version="1.0" encoding="UTF-8" standalone="no"?><!-- Generator: Gravit.io --><svg xmlns="http://www.w3.org/2000/svg" xmlns:xlink="http://www.w3.org/1999/xlink" style="isolation:isolate" viewBox="0 0 508 138" width="508pt" height="138pt"><defs><clipPath id="_clipPath_HKb5oTR8jROZYrlIZR62tXpTL0ZxPGyj"><rect width="508" height="138"/></clipPath></defs><g clip-path="url(#_clipPath_HKb5oTR8jROZYrlIZR62tXpTL0ZxPGyj)"><path d=" M 33.406 109.842 C 33.406 111.877 33.919 113.994 36.821 114 L 45.938 113.994 L 52.776 113.994 C 55.773 113.994 56.455 111.994 56.455 109.842 L 56.455 90.7 L 56.455 90.612 C 56.455 87.514 56.454 85.097 59.613 85.097 C 61.512 85.097 62.707 86.006 63.779 87.585 L 79.366 110.589 C 80.885 112.83 82.733 113.997 86.203 113.997 L 102.137 113.997 C 104.837 113.997 106.429 110.998 104.897 108.798 L 90.158 87.641 C 88.425 85.154 88.945 81.73 91.346 79.845 C 103.675 70.162 103.94 60.058 104.02 56.198 L 104.02 56.084 C 103.691 49.377 100.809 42.417 96.108 36.982 C 90.273 30.24 81.745 25.84 71.436 24.253 C 70.332 24.082 69.173 24 67.893 24 L 27.756 24 C 24.365 24 22.71 28.047 25.193 31.302 C 27.064 33.756 28.936 34.822 30.481 35.703 C 30.987 35.992 31.458 36.26 31.883 36.551 C 33.436 37.614 33.427 38.362 33.41 39.77 C 33.408 39.923 33.406 40.085 33.406 40.255 L 33.406 109.842 L 33.406 109.842 Z  M 86.954 55.484 C 86.954 62.277 78.452 67.784 67.965 67.784 C 57.478 67.784 48.977 62.277 48.977 55.484 C 48.977 48.691 57.478 43.184 67.965 43.184 C 78.452 43.184 86.954 48.691 86.954 55.484 Z " fill-rule="evenodd" fill="rgb(34,34,34)"/><path d=" M 67.965 64.07 C 73.578 64.07 78.128 60.226 78.128 55.485 C 78.128 50.743 73.578 46.899 67.965 46.899 C 62.353 46.899 57.803 50.743 57.803 55.485 C 57.803 60.226 62.353 64.07 67.965 64.07 Z " fill="rgb(34,34,34)"/><path d=" M 142.835 60.205 C 139.14 60.205 136.912 61.84 135.747 65.408 L 135.494 60.7 L 130.33 60.7 L 130.33 86.417 L 136.406 86.417 L 136.406 71.849 C 137.165 67.588 139.291 65.854 143.342 65.854 L 144.709 65.854 L 144.709 60.205 L 142.835 60.205 L 142.835 60.205 Z " fill="rgb(34,34,34)"/><path d=" M 153.882 75.318 L 170.64 75.318 L 170.64 71.056 C 170.64 63.971 166.641 60.106 159.198 60.106 C 151.756 60.106 147.807 63.921 147.807 71.007 L 147.807 76.061 C 147.807 83.245 151.806 87.011 159.502 87.011 C 166.236 87.011 170.134 84.137 170.488 78.637 L 164.666 78.637 C 164.413 80.867 162.692 82.205 159.502 82.205 C 155.604 82.205 153.882 80.273 153.882 76.11 L 153.882 75.318 L 153.882 75.318 Z  M 159.401 64.912 C 163.198 64.912 164.869 66.746 164.869 70.908 L 153.882 70.908 C 153.882 66.746 155.553 64.912 159.401 64.912 Z " fill="rgb(34,34,34)"/><path d=" M 185.818 87.011 C 193.007 87.011 196.653 84.286 196.653 78.885 C 196.653 73.98 194.02 71.651 187.185 70.908 C 182.882 70.412 181.363 69.619 181.363 67.588 C 181.363 65.755 182.882 64.664 185.767 64.664 C 188.805 64.664 190.223 65.804 190.223 68.182 L 196.096 68.182 C 196.096 62.881 192.552 60.106 185.818 60.106 C 179.084 60.106 175.388 62.93 175.388 68.232 C 175.388 72.989 177.92 75.07 184.603 75.863 C 189.058 76.358 190.678 77.3 190.678 79.43 C 190.678 81.412 189.058 82.453 185.869 82.453 C 182.274 82.453 180.654 81.214 180.654 78.687 L 174.831 78.687 C 174.831 84.236 178.376 87.011 185.818 87.011 Z " fill="rgb(34,34,34)"/><path d=" M 213.189 81.61 C 210.658 81.61 209.949 80.818 209.949 77.993 L 209.949 65.308 L 215.873 65.308 L 215.873 60.7 L 209.949 60.7 L 209.949 54.11 L 204.38 54.11 L 203.975 60.7 L 199.722 60.7 L 199.722 65.308 L 203.874 65.308 L 203.874 78.191 C 203.874 83.989 206.101 86.417 211.316 86.417 L 216.177 86.417 L 216.177 81.61 L 213.189 81.61 L 213.189 81.61 Z " fill="rgb(34,34,34)"/><path d=" M 234.007 60.205 C 230.312 60.205 228.084 61.84 226.919 65.408 L 226.666 60.7 L 221.502 60.7 L 221.502 86.417 L 227.578 86.417 L 227.578 71.849 C 228.337 67.588 230.463 65.854 234.514 65.854 L 235.881 65.854 L 235.881 60.205 L 234.007 60.205 L 234.007 60.205 Z " fill="rgb(34,34,34)"/><path d=" M 241.522 56.588 L 248.002 56.588 L 248.002 50.989 L 241.522 50.989 L 241.522 56.588 L 241.522 56.588 Z  M 241.724 86.417 L 247.8 86.417 L 247.8 60.7 L 241.724 60.7 L 241.724 86.417 L 241.724 86.417 Z " fill="rgb(34,34,34)"/><path d=" M 265.298 87.011 C 272.285 87.011 276.032 83.642 276.183 77.002 L 270.361 77.002 C 270.159 80.52 268.589 82.056 265.349 82.056 C 261.805 82.056 260.134 80.223 260.134 76.011 L 260.134 71.106 C 260.134 66.894 261.805 65.061 265.349 65.061 C 268.589 65.061 270.108 66.597 270.361 70.065 L 276.183 70.065 C 276.032 63.426 272.285 60.106 265.298 60.106 C 257.906 60.106 254.059 63.822 254.059 71.007 L 254.059 76.061 C 254.059 83.295 257.906 87.011 265.298 87.011 Z " fill="rgb(34,34,34)"/><path d=" M 292.198 81.61 C 289.667 81.61 288.958 80.818 288.958 77.993 L 288.958 65.308 L 294.882 65.308 L 294.882 60.7 L 288.958 60.7 L 288.958 54.11 L 283.389 54.11 L 282.984 60.7 L 278.731 60.7 L 278.731 65.308 L 282.883 65.308 L 282.883 78.191 C 282.883 83.989 285.11 86.417 290.325 86.417 L 295.186 86.417 L 295.186 81.61 L 292.198 81.61 L 292.198 81.61 Z " fill="rgb(34,34,34)"/><path d=" M 322.553 87.011 C 329.539 87.011 333.286 83.642 333.438 77.002 L 327.616 77.002 C 327.413 80.52 325.844 82.056 322.603 82.056 C 319.059 82.056 317.388 80.223 317.388 76.011 L 317.388 71.106 C 317.388 66.894 319.059 65.061 322.603 65.061 C 325.844 65.061 327.362 66.597 327.616 70.065 L 333.438 70.065 C 333.286 63.426 329.539 60.106 322.553 60.106 C 315.161 60.106 311.313 63.822 311.313 71.007 L 311.313 76.061 C 311.313 83.295 315.161 87.011 322.553 87.011 Z " fill="rgb(34,34,34)"/><path d=" M 349.953 87.011 C 357.649 87.011 361.649 83.245 361.649 75.813 L 361.649 71.304 C 361.649 63.872 357.649 60.106 349.953 60.106 C 342.258 60.106 338.309 63.872 338.309 71.304 L 338.309 75.813 C 338.309 83.245 342.258 87.011 349.953 87.011 Z  M 349.953 82.056 C 346.105 82.056 344.384 80.074 344.384 75.664 L 344.384 71.453 C 344.384 67.043 346.105 65.061 349.953 65.061 C 353.801 65.061 355.573 67.043 355.573 71.453 L 355.573 75.664 C 355.573 80.074 353.801 82.056 349.953 82.056 Z " fill="rgb(34,34,34)"/><path d=" M 381.37 60.106 C 377.927 60.106 375.345 61.345 373.219 64.219 L 373.016 60.7 L 367.852 60.7 L 367.852 86.417 L 373.927 86.417 L 373.927 69.718 C 375.396 66.795 377.319 65.358 379.851 65.358 C 382.332 65.358 383.547 66.795 383.547 69.966 L 383.547 86.417 L 389.622 86.417 L 389.622 69.421 C 389.622 63.277 386.838 60.106 381.37 60.106 Z " fill="rgb(34,34,34)"/><path d=" M 406.905 81.61 C 404.374 81.61 403.665 80.818 403.665 77.993 L 403.665 65.308 L 409.588 65.308 L 409.588 60.7 L 403.665 60.7 L 403.665 54.11 L 398.096 54.11 L 397.691 60.7 L 393.438 60.7 L 393.438 65.308 L 397.589 65.308 L 397.589 78.191 C 397.589 83.989 399.817 86.417 405.032 86.417 L 409.892 86.417 L 409.892 81.61 L 406.905 81.61 L 406.905 81.61 Z " fill="rgb(34,34,34)"/><path d=" M 419.487 75.318 L 436.245 75.318 L 436.245 71.056 C 436.245 63.971 432.246 60.106 424.803 60.106 C 417.361 60.106 413.412 63.921 413.412 71.007 L 413.412 76.061 C 413.412 83.245 417.411 87.011 425.107 87.011 C 431.841 87.011 435.739 84.137 436.094 78.637 L 430.271 78.637 C 430.018 80.867 428.297 82.205 425.107 82.205 C 421.209 82.205 419.487 80.273 419.487 76.11 L 419.487 75.318 L 419.487 75.318 Z  M 425.006 64.912 C 428.803 64.912 430.474 66.746 430.474 70.908 L 419.487 70.908 C 419.487 66.746 421.158 64.912 425.006 64.912 Z " fill="rgb(34,34,34)"/><path d=" M 455.929 60.106 C 452.486 60.106 449.904 61.345 447.778 64.219 L 447.575 60.7 L 442.411 60.7 L 442.411 86.417 L 448.487 86.417 L 448.487 69.718 C 449.955 66.795 451.879 65.358 454.41 65.358 C 456.891 65.358 458.106 66.795 458.106 69.966 L 458.106 86.417 L 464.182 86.417 L 464.182 69.421 C 464.182 63.277 461.397 60.106 455.929 60.106 Z " fill="rgb(34,34,34)"/><path d=" M 481.464 81.61 C 478.933 81.61 478.224 80.818 478.224 77.993 L 478.224 65.308 L 484.148 65.308 L 484.148 60.7 L 478.224 60.7 L 478.224 54.11 L 472.655 54.11 L 472.25 60.7 L 467.997 60.7 L 467.997 65.308 L 472.149 65.308 L 472.149 78.191 C 472.149 83.989 474.376 86.417 479.591 86.417 L 484.452 86.417 L 484.452 81.61 L 481.464 81.61 L 481.464 81.61 Z " fill="rgb(34,34,34)"/></g></svg>