<svg xmlns="http://www.w3.org/2000/svg" width="49.521" height="44.688" viewBox="0 0 49.521 44.688"><g transform="translate(-825.114 -237.029)"><path d="M850.665,281.209q-10.015,0-20.031.008a3.3,3.3,0,0,1-2.741-1.254,2.655,2.655,0,0,1-.636-1.631q-.036-2.75-.025-5.5a.635.635,0,0,0-.455-.719,1.728,1.728,0,0,1-1.155-1.679q-.014-3.758,0-7.516a1.776,1.776,0,0,1,1.255-1.731.464.464,0,0,0,.352-.509q-.014-1.3,0-2.6a.469.469,0,0,0-.353-.51,1.8,1.8,0,0,1-1.25-1.74q-.028-3.758,0-7.516a1.785,1.785,0,0,1,1.25-1.737.48.48,0,0,0,.353-.544c-.006-1.692,0-3.384-.005-5.075a3.269,3.269,0,0,1,.818-2.351,3.066,3.066,0,0,1,2.281-1.066q.465,0,.93,0,19.7,0,39.4-.008A3.37,3.37,0,0,1,873.4,238.7a3.156,3.156,0,0,1,.713,1.768,5.765,5.765,0,0,1,.022.619q0,18.287,0,36.574a3.518,3.518,0,0,1-.689,2.327,3.274,3.274,0,0,1-2.712,1.23Q860.7,281.2,850.665,281.209Zm.026-5.559h17.32c.6,0,.6,0,.6-.584q0-15.693,0-31.386c0-.583,0-.584-.6-.584H838.717c-1.847,0-3.694.005-5.541,0-.313,0-.439.1-.434.421.015.852.012,1.7,0,2.557a.459.459,0,0,0,.36.5,1.772,1.772,0,0,1,1.254,1.7q.038,3.8,0,7.591a1.787,1.787,0,0,1-1.273,1.723.465.465,0,0,0-.343.518c.01.852.013,1.705,0,2.557a.486.486,0,0,0,.377.531,1.765,1.765,0,0,1,1.243,1.7q.026,3.776,0,7.552a1.756,1.756,0,0,1-1.231,1.707.536.536,0,0,0-.391.606c.017.762.005,1.524.006,2.286,0,.609,0,.61.623.61Zm-.008-36.608h-6.161q-6.956,0-13.911,0a1.766,1.766,0,0,0-1.9,1.881c-.008,1.692.006,3.384-.008,5.076,0,.352.137.446.46.436.555-.017,1.111-.019,1.666,0,.348.012.474-.1.468-.467-.019-1.278-.007-2.557-.007-3.836,0-.56,0-.56.565-.56h37.664a1.442,1.442,0,0,0,.194,0c.284-.04.388.071.38.365-.018.7-.006,1.395-.006,2.092q0,16.314,0,32.627c0,.3.038.526-.419.526q-18.987-.021-37.975,0c-.326,0-.416-.1-.412-.416.016-1.33-.006-2.661.014-3.991.005-.367-.13-.474-.472-.462-.516.018-1.033,0-1.55,0-.564,0-.566,0-.566.552q0,2.4,0,4.8a1.8,1.8,0,0,0,2.025,2.033h39.912a1.8,1.8,0,0,0,2.017-2q0-18.329,0-36.657a2.867,2.867,0,0,0-.12-.837,1.742,1.742,0,0,0-1.82-1.163ZM832.9,252.113c0-1.161,0-2.322,0-3.483,0-.493-.164-.658-.648-.659q-2.245-.007-4.49,0c-.511,0-.669.16-.669.677q-.005,3.425,0,6.85c0,.514.149.68.667.684q2.225.017,4.451,0c.542,0,.689-.166.691-.7C832.9,254.358,832.9,253.235,832.9,252.113Zm0,14.584q0-1.684,0-3.367c0-.624-.132-.766-.739-.768q-2.167-.008-4.335,0c-.6,0-.735.142-.736.732q0,3.387,0,6.774c0,.556.152.709.717.711q2.187.007,4.374,0c.562,0,.716-.158.718-.713C832.9,268.941,832.9,267.819,832.9,266.7Zm-1.616-7.317c0-.439-.007-.878,0-1.317.005-.235-.058-.356-.325-.35-.645.014-1.291.012-1.937,0-.236,0-.322.09-.321.318q.007,1.336,0,2.673c0,.217.061.334.309.33.658-.011,1.317-.009,1.976,0,.218,0,.3-.085.3-.3C831.279,260.283,831.284,259.831,831.285,259.379Z" fill="#222222" stroke="#222222" stroke-width="1"/><path d="M913.7,316.1a9.669,9.669,0,1,1-9.618,9.762A9.638,9.638,0,0,1,913.7,316.1Zm-2.819,17.248c.043-.124.094-.253.132-.386.1-.359.182-.727.3-1.079a.761.761,0,1,1,1.459.425c-.092.4-.2.8-.316,1.2-.065.229,0,.319.246.352a8.229,8.229,0,0,0,4.174-.549c.21-.083.249-.189.136-.38-.218-.366-.434-.733-.636-1.108a.747.747,0,1,1,1.293-.739c.22.365.429.736.641,1.105.093.162.2.226.368.089a8.255,8.255,0,0,0,2.6-3.4c.076-.189.035-.286-.167-.335-.388-.1-.775-.2-1.158-.312a.822.822,0,0,1-.663-.58.756.756,0,0,1,.969-.917,12.36,12.36,0,0,1,1.2.313c.251.075.353,0,.383-.256a8.3,8.3,0,0,0-.546-4.1c-.1-.26-.221-.308-.458-.159-.35.219-.71.423-1.073.618a.744.744,0,1,1-.752-1.282c.329-.2.67-.389,1-.587.116-.069.223-.154.36-.249a8.029,8.029,0,0,0-3.785-2.894c-.149.532-.27,1.017-.421,1.493a.754.754,0,0,1-.936.591.732.732,0,0,1-.529-.935c.077-.417.2-.826.31-1.237.064-.237.014-.343-.258-.377a8.275,8.275,0,0,0-4.137.543c-.271.107-.251.233-.129.436a6.641,6.641,0,0,1,.638,1.147.989.989,0,0,1-.091.811.953.953,0,0,1-.75.226c-.182-.019-.379-.248-.5-.429-.27-.4-.5-.836-.735-1.246a.616.616,0,0,0-.163.042,8.085,8.085,0,0,0-2.7,3.468c-.082.2-.012.278.18.329.461.123.922.246,1.374.4a.614.614,0,0,1,.46.683,1.118,1.118,0,0,1-.43.665,1.084,1.084,0,0,1-.706.021c-.439-.084-.868-.217-1.308-.331a.826.826,0,0,0-.078.171,7.783,7.783,0,0,0,.545,4.318c.083.2.2.2.367.106.378-.223.754-.451,1.14-.658a.74.74,0,0,1,1.081.393.768.768,0,0,1-.433.957c-.417.247-.838.487-1.252.727A7.208,7.208,0,0,0,910.885,333.35Z" transform="translate(-66.31 -66.394)" fill="#222222" stroke="#222222" stroke-width="1"/><path d="M1055.715,321.341c0-2.583-.005-5.167,0-7.75a2.642,2.642,0,0,1,1.494-2.406,3.052,3.052,0,0,1,1.224-.295c.655-.047,1.317-.02,1.975-.011.539.007.827.261.834.708.008.472-.27.736-.831.753-.581.017-1.163-.006-1.743.013a1.361,1.361,0,0,0-1.466,1.486c0,.026,0,.052,0,.078q0,7.42,0,14.841a1.359,1.359,0,0,0,.705,1.4,2.227,2.227,0,0,0,.819.175c.554.027,1.111,0,1.666.013s.85.271.848.738-.295.717-.86.724c-.62.007-1.24,0-1.86,0a2.834,2.834,0,0,1-2.822-2.832c.047-2.544.012-5.089.012-7.633Z" transform="translate(-194.424 -61.967)" fill="#222222" stroke="#222222" stroke-width="1"/><path d="M1076.705,334.6q0-3.428,0-6.857c0-.155,0-.31.007-.465a.724.724,0,0,1,.693-.7.77.77,0,0,1,.8.64,2.024,2.024,0,0,1,.009.309q0,7.089,0,14.178a2.089,2.089,0,0,1-.008.309.773.773,0,0,1-.8.644.725.725,0,0,1-.7-.7c-.014-.193-.007-.387-.007-.581Q1076.705,337.99,1076.705,334.6Z" transform="translate(-212.172 -75.245)" fill="#222222" stroke="#222222" stroke-width="1"/><path d="M940.584,356.621a4.009,4.009,0,1,1,8.017-.052,4.062,4.062,0,0,1-3.97,4.029A4,4,0,0,1,940.584,356.621Zm1.526-.049a2.485,2.485,0,0,0,4.97.058,2.518,2.518,0,0,0-2.485-2.533A2.458,2.458,0,0,0,942.11,356.572Z" transform="translate(-97.151 -97.215)" fill="#222222" stroke="#222222" stroke-width="1"/></g></svg>