<svg width="1787.44" height="149.344" viewBox="0.5 13.993 1787.44 149.344" fill="none" xmlns="http://www.w3.org/2000/svg">
<g clip-path="url(#clip0_202_759)">
<path d="M0.5 45.9954C0.5 28.3211 14.8279 13.9932 32.5022 13.9932H117.842C135.516 13.9932 149.844 28.3211 149.844 45.9954V131.335C149.844 149.009 135.516 163.337 117.842 163.337H32.5022C14.8279 163.337 0.5 149.009 0.5 131.335V45.9954Z" fill="#1145C9"/>
<path fill-rule="evenodd" clip-rule="evenodd" d="M100.526 131.331H76.5034C73.9023 131.331 71.791 129.204 71.791 126.584C71.791 123.965 73.9023 121.838 76.5034 121.838H92.1954C94.6443 121.669 96.5814 119.612 96.5814 117.104C96.5814 114.484 94.4697 112.357 91.8685 112.357L67.3138 112.357C64.7163 112.357 62.6075 110.233 62.6075 107.617C62.6075 105.001 64.7163 102.877 67.3138 102.877H70.2778L70.2716 102.871H74.6784C77.2746 102.871 79.3825 100.749 79.3825 98.1341C79.3825 95.5194 77.2746 93.3968 74.6784 93.3968H63.5947V93.3926H40.3523C37.7562 93.3926 35.6482 91.2697 35.6482 88.6546C35.6482 86.0399 37.7562 83.9165 40.3523 83.9165H63.5947V83.9035H72.6953C75.2889 83.9035 77.3948 81.7826 77.3948 79.1701C77.3948 76.5575 75.2889 74.4366 72.6953 74.4366L60.9567 74.4357C58.3593 74.4357 56.2509 72.3119 56.2509 69.6964C56.2509 67.0801 58.3593 64.9562 60.9567 64.9562H83.2733C83.3848 64.9562 83.4947 64.96 83.6038 64.9675H91.5811C94.1814 64.9675 96.2931 62.8412 96.2931 60.2215C96.2931 57.6022 94.1814 55.4759 91.5811 55.4759H79.855C77.4143 55.2975 75.4872 53.2447 75.4872 50.742C75.4872 48.1223 77.5985 45.9956 80.1996 45.9956H98.6711C98.6914 45.9956 98.7114 45.9956 98.7333 45.996H120.512L82.3512 87.9682L128.509 131.335H100.651L100.644 131.329C100.605 131.33 100.566 131.331 100.526 131.331ZM55.3097 121.838C57.9017 121.838 60.006 123.957 60.006 126.567C60.006 129.178 57.9017 131.296 55.3097 131.296H38.0772C35.4856 131.296 33.3814 129.178 33.3814 126.567C33.3814 123.957 35.4856 121.838 38.0772 121.838H55.3097ZM48.4876 102.877C51.0871 102.877 53.1976 105.003 53.1976 107.621C53.1976 110.239 51.0871 112.365 48.4876 112.365C45.8877 112.365 43.7773 110.239 43.7773 107.621C43.7773 105.003 45.8877 102.877 48.4876 102.877ZM23.8777 83.9165C26.4776 83.9165 28.588 86.042 28.588 88.6604C28.588 91.2784 26.4776 93.4039 23.8777 93.4039C21.2782 93.4039 19.1677 91.2784 19.1677 88.6604C19.1677 86.042 21.2782 83.9165 23.8777 83.9165ZM42.131 64.9562C44.7305 64.9562 46.8413 67.0817 46.8413 69.7002C46.8413 72.3182 44.7305 74.4433 42.131 74.4433C39.5315 74.4433 37.4206 72.3182 37.4206 69.7002C37.4206 67.0817 39.5315 64.9562 42.131 64.9562ZM59.0225 45.9956C61.6145 45.9956 63.7184 48.1148 63.7184 50.7249C63.7184 53.3354 61.6145 55.4546 59.0225 55.4546H48.1297C45.5381 55.4546 43.4338 53.3354 43.4338 50.7249C43.4338 48.1148 45.5376 45.9956 48.1297 45.9956H59.0225Z" fill="#FEFBF2"/>
<path d="M1753.62 138.975C1746.72 138.975 1740.69 137.432 1735.51 134.345C1730.34 131.258 1726.34 126.855 1723.53 121.135C1720.71 115.415 1719.3 108.742 1719.3 101.115C1719.3 93.3982 1720.71 86.7251 1723.53 81.0961C1726.34 75.467 1730.34 71.1091 1735.51 68.0222C1740.69 64.8445 1746.72 63.2556 1753.62 63.2556C1760.52 63.2556 1766.56 64.8445 1771.74 68.0222C1776.91 71.1091 1780.91 75.467 1783.72 81.0961C1786.54 86.7251 1787.94 93.3982 1787.94 101.115C1787.94 108.742 1786.54 115.415 1783.72 121.135C1780.91 126.855 1776.91 131.258 1771.74 134.345C1766.56 137.432 1760.52 138.975 1753.62 138.975ZM1753.62 126.446C1759.8 126.446 1764.56 124.222 1767.92 119.773C1771.28 115.233 1772.96 109.014 1772.96 101.115C1772.96 93.2166 1771.28 87.0429 1767.92 82.5941C1764.56 78.0546 1759.8 75.7848 1753.62 75.7848C1747.54 75.7848 1742.77 78.0546 1739.32 82.5941C1735.97 87.0429 1734.29 93.2166 1734.29 101.115C1734.29 109.014 1735.97 115.233 1739.32 119.773C1742.77 124.222 1747.54 126.446 1753.62 126.446Z" fill="#FEFBF2"/>
<path d="M1679.74 137.341V64.8899H1692.95L1693.5 84.0922L1692.27 83.6836C1693.27 77.1467 1695.27 72.3801 1698.26 69.384C1701.35 66.3879 1705.48 64.8899 1710.65 64.8899H1717.6V77.8276H1710.65C1707.02 77.8276 1703.98 78.4177 1701.53 79.598C1699.08 80.7783 1697.22 82.5941 1695.95 85.0455C1694.77 87.4968 1694.18 90.6745 1694.18 94.5785V137.341H1679.74Z" fill="#FEFBF2"/>
<path d="M1597.02 137.341V40.6487H1633.11C1644.18 40.6487 1652.81 43.327 1658.98 48.6837C1665.15 53.9496 1668.24 61.3036 1668.24 70.7459C1668.24 77.0105 1666.83 82.4579 1664.02 87.0883C1661.21 91.6278 1657.16 95.1233 1651.9 97.5746C1646.72 99.9352 1640.46 101.115 1633.11 101.115H1611.72V137.341H1597.02ZM1611.72 87.7692H1632.7C1639.32 87.7692 1644.36 86.3619 1647.81 83.5474C1651.26 80.6421 1652.99 76.3749 1652.99 70.7459C1652.99 65.2077 1651.26 61.0767 1647.81 58.3529C1644.36 55.5384 1639.32 54.1312 1632.7 54.1312H1611.72V87.7692Z" fill="#FEFBF2"/>
<path d="M1524.95 138.975C1518.14 138.975 1512.37 137.931 1507.65 135.843C1503.02 133.755 1499.43 130.895 1496.89 127.263C1494.35 123.541 1492.9 119.274 1492.53 114.462L1507.38 113.781C1508.1 117.776 1509.83 120.953 1512.55 123.314C1515.28 125.674 1519.41 126.855 1524.95 126.855C1529.49 126.855 1533.07 126.128 1535.7 124.676C1538.34 123.223 1539.65 120.908 1539.65 117.73C1539.65 116.005 1539.2 114.553 1538.29 113.372C1537.47 112.101 1535.84 111.057 1533.39 110.24C1530.94 109.332 1527.31 108.47 1522.49 107.652C1515.32 106.291 1509.69 104.702 1505.61 102.886C1501.52 101.07 1498.62 98.7549 1496.89 95.9404C1495.17 93.1259 1494.3 89.7212 1494.3 85.7264C1494.3 79.0987 1496.75 73.6966 1501.66 69.5202C1506.65 65.3438 1513.82 63.2556 1523.18 63.2556C1529.44 63.2556 1534.71 64.3451 1538.97 66.5241C1543.24 68.6123 1546.55 71.4722 1548.91 75.1039C1551.37 78.6447 1552.91 82.6395 1553.54 87.0883L1538.7 87.9054C1538.25 85.3632 1537.34 83.1842 1535.98 81.3684C1534.71 79.4618 1532.98 78.0092 1530.8 77.0105C1528.62 75.921 1526.04 75.3762 1523.04 75.3762C1518.41 75.3762 1514.96 76.2841 1512.69 78.1C1510.42 79.9158 1509.28 82.2763 1509.28 85.1817C1509.28 87.3606 1509.78 89.1311 1510.78 90.4929C1511.87 91.8548 1513.6 92.9897 1515.96 93.8976C1518.32 94.7147 1521.45 95.441 1525.35 96.0766C1532.89 97.3476 1538.79 98.9365 1543.06 100.843C1547.33 102.659 1550.32 104.929 1552.05 107.652C1553.77 110.376 1554.63 113.69 1554.63 117.594C1554.63 122.134 1553.36 125.992 1550.82 129.17C1548.28 132.348 1544.78 134.799 1540.33 136.524C1535.89 138.158 1530.76 138.975 1524.95 138.975Z" fill="#FEFBF2"/>
<path d="M1419.59 157.769V64.8899H1433.21L1433.61 80.4151L1431.98 79.598C1433.8 74.2413 1436.79 70.2012 1440.97 67.4774C1445.15 64.6629 1449.96 63.2556 1455.4 63.2556C1462.49 63.2556 1468.3 65.0261 1472.84 68.5669C1477.47 72.017 1480.87 76.6019 1483.05 82.3217C1485.32 88.0416 1486.46 94.3061 1486.46 101.115C1486.46 107.925 1485.32 114.189 1483.05 119.909C1480.87 125.629 1477.47 130.259 1472.84 133.8C1468.3 137.25 1462.49 138.975 1455.4 138.975C1451.77 138.975 1448.37 138.34 1445.19 137.069C1442.01 135.798 1439.29 134.027 1437.02 131.757C1434.84 129.397 1433.3 126.628 1432.39 123.45L1434.02 121.816V157.769H1419.59ZM1452.82 126.446C1458.63 126.446 1463.17 124.222 1466.44 119.773C1469.79 115.324 1471.47 109.105 1471.47 101.115C1471.47 93.1259 1469.79 86.9067 1466.44 82.4579C1463.17 78.0092 1458.63 75.7848 1452.82 75.7848C1449 75.7848 1445.69 76.7381 1442.88 78.6447C1440.06 80.4605 1437.88 83.275 1436.34 87.0883C1434.79 90.9015 1434.02 95.5772 1434.02 101.115C1434.02 106.654 1434.75 111.329 1436.2 115.143C1437.75 118.956 1439.92 121.816 1442.74 123.722C1445.64 125.538 1449 126.446 1452.82 126.446Z" fill="#FEFBF2"/>
<path d="M1387.63 137.341V64.8899H1402.07V137.341H1387.63ZM1387.36 54.4035V39.9678H1402.34V54.4035H1387.36Z" fill="#FEFBF2"/>
<path d="M1312.59 137.341V40.6487H1327.02V81.2322L1325.25 80.9599C1326.07 76.8743 1327.57 73.5604 1329.74 71.0183C1331.92 68.3853 1334.6 66.4333 1337.78 65.1623C1340.96 63.8912 1344.45 63.2556 1348.27 63.2556C1353.53 63.2556 1357.98 64.4359 1361.61 66.7965C1365.24 69.0663 1367.97 72.2893 1369.78 76.4657C1371.69 80.6421 1372.64 85.4086 1372.64 90.7653V137.341H1358.21V94.5785C1358.21 88.0416 1357.07 83.2296 1354.8 80.1428C1352.62 76.9651 1349.17 75.3762 1344.45 75.3762C1339.19 75.3762 1334.97 77.0559 1331.79 80.4151C1328.61 83.6836 1327.02 88.4955 1327.02 94.8509V137.341H1312.59Z" fill="#FEFBF2"/>
<path d="M1272.37 138.975C1265.56 138.975 1259.8 137.931 1255.08 135.843C1250.45 133.755 1246.86 130.895 1244.32 127.263C1241.78 123.541 1240.32 119.274 1239.96 114.462L1254.81 113.781C1255.53 117.776 1257.26 120.953 1259.98 123.314C1262.7 125.674 1266.83 126.855 1272.37 126.855C1276.91 126.855 1280.5 126.128 1283.13 124.676C1285.76 123.223 1287.08 120.908 1287.08 117.73C1287.08 116.005 1286.63 114.553 1285.72 113.372C1284.9 112.101 1283.27 111.057 1280.82 110.24C1278.37 109.332 1274.73 108.47 1269.92 107.652C1262.75 106.291 1257.12 104.702 1253.03 102.886C1248.95 101.07 1246.04 98.7549 1244.32 95.9404C1242.59 93.1259 1241.73 89.7212 1241.73 85.7264C1241.73 79.0987 1244.18 73.6966 1249.09 69.5202C1254.08 65.3438 1261.25 63.2556 1270.6 63.2556C1276.87 63.2556 1282.13 64.3451 1286.4 66.5241C1290.67 68.6123 1293.98 71.4722 1296.34 75.1039C1298.79 78.6447 1300.34 82.6395 1300.97 87.0883L1286.13 87.9054C1285.67 85.3632 1284.77 83.1842 1283.4 81.3684C1282.13 79.4618 1280.41 78.0092 1278.23 77.0105C1276.05 75.921 1273.46 75.3762 1270.47 75.3762C1265.84 75.3762 1262.39 76.2841 1260.12 78.1C1257.85 79.9158 1256.71 82.2763 1256.71 85.1817C1256.71 87.3606 1257.21 89.1311 1258.21 90.4929C1259.3 91.8548 1261.02 92.9897 1263.38 93.8976C1265.75 94.7147 1268.88 95.441 1272.78 96.0766C1280.32 97.3476 1286.22 98.9365 1290.49 100.843C1294.75 102.659 1297.75 104.929 1299.47 107.652C1301.2 110.376 1302.06 113.69 1302.06 117.594C1302.06 122.134 1300.79 125.992 1298.25 129.17C1295.71 132.348 1292.21 134.799 1287.76 136.524C1283.31 138.158 1278.18 138.975 1272.37 138.975Z" fill="#FEFBF2"/>
<path d="M1200.4 137.341V64.8899H1213.61L1214.15 84.0922L1212.93 83.6836C1213.92 77.1467 1215.92 72.3801 1218.92 69.384C1222 66.3879 1226.14 64.8899 1231.31 64.8899H1238.26V77.8276H1231.31C1227.68 77.8276 1224.64 78.4177 1222.19 79.598C1219.73 80.7783 1217.87 82.5941 1216.6 85.0455C1215.42 87.4968 1214.83 90.6745 1214.83 94.5785V137.341H1200.4Z" fill="#FEFBF2"/>
<path d="M1157.17 138.975C1150.09 138.975 1143.96 137.432 1138.78 134.345C1133.7 131.258 1129.75 126.855 1126.94 121.135C1124.21 115.415 1122.85 108.742 1122.85 101.115C1122.85 93.489 1124.21 86.8613 1126.94 81.2322C1129.75 75.5124 1133.7 71.1091 1138.78 68.0222C1143.87 64.8445 1149.86 63.2556 1156.76 63.2556C1163.3 63.2556 1169.06 64.7991 1174.06 67.886C1179.05 70.8821 1182.91 75.24 1185.63 80.9599C1188.45 86.6797 1189.85 93.5798 1189.85 101.66V105.337H1137.83C1138.19 112.419 1140.06 117.73 1143.42 121.271C1146.87 124.812 1151.5 126.582 1157.31 126.582C1161.57 126.582 1165.11 125.584 1167.93 123.586C1170.74 121.589 1172.7 118.91 1173.78 115.551L1188.77 116.505C1186.86 123.223 1183.09 128.671 1177.46 132.847C1171.92 136.932 1165.16 138.975 1157.17 138.975ZM1137.83 94.4423H1174.6C1174.15 87.9962 1172.29 83.2296 1169.02 80.1428C1165.84 77.0559 1161.75 75.5124 1156.76 75.5124C1151.59 75.5124 1147.32 77.1467 1143.96 80.4151C1140.69 83.5928 1138.65 88.2685 1137.83 94.4423Z" fill="#FEFBF2"/>
<path d="M1085.99 138.975C1081 138.975 1076.55 137.886 1072.65 135.707C1068.84 133.437 1065.88 130.35 1063.8 126.446L1063.39 137.341H1049.91V40.6487H1064.34V75.1039C1066.25 71.9262 1069.06 69.1571 1072.78 66.7965C1076.6 64.4359 1081 63.2556 1085.99 63.2556C1092.26 63.2556 1097.71 64.7991 1102.34 67.886C1106.97 70.9729 1110.51 75.3762 1112.96 81.0961C1115.5 86.7251 1116.77 93.3982 1116.77 101.115C1116.77 108.833 1115.5 115.551 1112.96 121.271C1110.51 126.9 1106.97 131.258 1102.34 134.345C1097.71 137.432 1092.26 138.975 1085.99 138.975ZM1083.68 126.446C1089.22 126.446 1093.62 124.222 1096.89 119.773C1100.16 115.233 1101.79 109.014 1101.79 101.115C1101.79 93.2166 1100.16 87.0429 1096.89 82.5941C1093.62 78.0546 1089.26 75.7848 1083.82 75.7848C1079.73 75.7848 1076.23 76.7835 1073.33 78.7809C1070.42 80.7783 1068.2 83.6836 1066.66 87.4968C1065.11 91.2192 1064.34 95.7588 1064.34 101.115C1064.34 106.291 1065.11 110.785 1066.66 114.598C1068.2 118.411 1070.42 121.362 1073.33 123.45C1076.23 125.447 1079.68 126.446 1083.68 126.446Z" fill="#FEFBF2"/>
<path d="M934.828 137.341V64.8899H948.038L948.446 82.8665L946.812 82.3217C947.629 78.3269 949.036 74.9223 951.034 72.1078C953.122 69.2932 955.664 67.1143 958.66 65.5708C961.656 64.0274 964.925 63.2556 968.466 63.2556C974.64 63.2556 979.678 65.0261 983.582 68.5669C987.486 72.017 989.938 76.7835 990.936 82.8665H988.621C989.438 78.5993 990.8 75.0585 992.707 72.2439C994.704 69.3386 997.246 67.1143 1000.33 65.5708C1003.42 64.0274 1006.92 63.2556 1010.82 63.2556C1015.9 63.2556 1020.22 64.3451 1023.76 66.5241C1027.39 68.6123 1030.11 71.6992 1031.93 75.7848C1033.84 79.8704 1034.79 84.8639 1034.79 90.7653V137.341H1020.35V94.3061C1020.35 88.0416 1019.22 83.3204 1016.95 80.1428C1014.68 76.9651 1011.23 75.3762 1006.6 75.3762C1003.6 75.3762 1000.97 76.148 998.699 77.6914C996.429 79.2348 994.659 81.4592 993.388 84.3645C992.208 87.2698 991.617 90.7653 991.617 94.8509V137.341H977.863V94.8509C977.863 88.6771 976.819 83.9106 974.73 80.5513C972.733 77.1013 969.283 75.3762 964.38 75.3762C961.293 75.3762 958.615 76.148 956.345 77.6914C954.166 79.2348 952.441 81.5046 951.17 84.5007C949.899 87.406 949.263 90.8561 949.263 94.8509V137.341H934.828Z" fill="#FEFBF2"/>
<path d="M891.601 138.975C884.52 138.975 878.391 137.432 873.216 134.345C868.132 131.258 864.182 126.855 861.368 121.135C858.644 115.415 857.282 108.742 857.282 101.115C857.282 93.489 858.644 86.8613 861.368 81.2322C864.182 75.5124 868.132 71.1091 873.216 68.0222C878.3 64.8445 884.293 63.2556 891.193 63.2556C897.73 63.2556 903.495 64.7991 908.488 67.886C913.482 70.8821 917.34 75.24 920.064 80.9599C922.879 86.6797 924.286 93.5798 924.286 101.66V105.337H872.263C872.626 112.419 874.487 117.73 877.846 121.271C881.297 124.812 885.927 126.582 891.737 126.582C896.005 126.582 899.545 125.584 902.36 123.586C905.174 121.589 907.127 118.91 908.216 115.551L923.196 116.505C921.29 123.223 917.522 128.671 911.893 132.847C906.355 136.932 899.591 138.975 891.601 138.975ZM872.263 94.4423H909.033C908.579 87.9962 906.718 83.2296 903.449 80.1428C900.272 77.0559 896.186 75.5124 891.193 75.5124C886.018 75.5124 881.75 77.1467 878.391 80.4151C875.123 83.5928 873.08 88.2685 872.263 94.4423Z" fill="#FEFBF2"/>
<path d="M747.532 137.341V40.6487H767.688L796.423 120.045L825.158 40.6487H845.314V137.341H830.606V66.5241L804.594 137.205H788.252L762.24 66.5241V137.341H747.532Z" fill="#FEFBF2"/>
<path d="M672.448 138.975C665.366 138.975 659.238 137.432 654.062 134.345C648.978 131.258 645.029 126.855 642.214 121.135C639.49 115.415 638.129 108.742 638.129 101.115C638.129 93.489 639.49 86.8613 642.214 81.2322C645.029 75.5124 648.978 71.1091 654.062 68.0222C659.147 64.8445 665.139 63.2556 672.039 63.2556C678.576 63.2556 684.341 64.7991 689.335 67.886C694.328 70.8821 698.187 75.24 700.911 80.9599C703.725 86.6797 705.132 93.5798 705.132 101.66V105.337H653.109C653.472 112.419 655.334 117.73 658.693 121.271C662.143 124.812 666.773 126.582 672.584 126.582C676.851 126.582 680.392 125.584 683.206 123.586C686.021 121.589 687.973 118.91 689.062 115.551L704.043 116.505C702.136 123.223 698.368 128.671 692.739 132.847C687.201 136.932 680.437 138.975 672.448 138.975ZM653.109 94.4423H689.879C689.425 87.9962 687.564 83.2296 684.296 80.1428C681.118 77.0559 677.033 75.5124 672.039 75.5124C666.864 75.5124 662.597 77.1467 659.238 80.4151C655.969 83.5928 653.926 88.2685 653.109 94.4423Z" fill="#FEFBF2"/>
<path d="M601.125 138.975C594.225 138.975 588.188 137.432 583.013 134.345C577.837 131.258 573.843 126.855 571.028 121.135C568.214 115.415 566.806 108.742 566.806 101.115C566.806 93.489 568.214 86.8613 571.028 81.2322C573.843 75.5124 577.837 71.1091 583.013 68.0222C588.188 64.8445 594.225 63.2556 601.125 63.2556C607.027 63.2556 612.247 64.2997 616.787 66.3879C621.417 68.3853 625.14 71.336 627.954 75.24C630.859 79.1441 632.721 83.9106 633.538 89.5396L618.421 90.3567C617.695 85.6356 615.788 82.0494 612.701 79.598C609.614 77.0559 605.756 75.7848 601.125 75.7848C595.042 75.7848 590.276 78.0546 586.826 82.5941C583.466 87.0429 581.787 93.2166 581.787 101.115C581.787 109.014 583.466 115.233 586.826 119.773C590.276 124.222 595.042 126.446 601.125 126.446C605.756 126.446 609.614 125.175 612.701 122.633C615.788 120 617.695 116.051 618.421 110.785L633.538 111.602C632.721 117.14 630.859 121.952 627.954 126.038C625.14 130.123 621.417 133.301 616.787 135.571C612.247 137.84 607.027 138.975 601.125 138.975Z" fill="#FEFBF2"/>
<path d="M496.52 137.341V64.8899H509.73L510.275 84.2283L508.505 83.275C509.322 78.5539 510.865 74.7407 513.135 71.8354C515.405 68.9301 518.174 66.7965 521.442 65.4346C524.711 63.982 528.252 63.2556 532.065 63.2556C537.512 63.2556 542.007 64.4813 545.547 66.9327C549.179 69.2932 551.903 72.5617 553.719 76.7381C555.625 80.8237 556.579 85.4994 556.579 90.7653V137.341H542.143V95.1233C542.143 90.8561 541.689 87.2698 540.781 84.3645C539.873 81.4592 538.375 79.2348 536.287 77.6914C534.199 76.148 531.475 75.3762 528.116 75.3762C523.031 75.3762 518.9 77.0559 515.723 80.4151C512.545 83.7744 510.956 88.6771 510.956 95.1233V137.341H496.52Z" fill="#FEFBF2"/>
<path d="M453.294 138.975C446.212 138.975 440.084 137.432 434.909 134.345C429.824 131.258 425.875 126.855 423.061 121.135C420.337 115.415 418.975 108.742 418.975 101.115C418.975 93.489 420.337 86.8613 423.061 81.2322C425.875 75.5124 429.824 71.1091 434.909 68.0222C439.993 64.8445 445.985 63.2556 452.885 63.2556C459.422 63.2556 465.188 64.7991 470.181 67.886C475.175 70.8821 479.033 75.24 481.757 80.9599C484.571 86.6797 485.979 93.5798 485.979 101.66V105.337H433.955C434.319 112.419 436.18 117.73 439.539 121.271C442.989 124.812 447.62 126.582 453.43 126.582C457.697 126.582 461.238 125.584 464.053 123.586C466.867 121.589 468.819 118.91 469.909 115.551L484.889 116.505C482.983 123.223 479.215 128.671 473.586 132.847C468.047 136.932 461.284 138.975 453.294 138.975ZM433.955 94.4423H470.726C470.272 87.9962 468.411 83.2296 465.142 80.1428C461.964 77.0559 457.879 75.5124 452.885 75.5124C447.71 75.5124 443.443 77.1467 440.084 80.4151C436.815 83.5928 434.773 88.2685 433.955 94.4423Z" fill="#FEFBF2"/>
<path d="M371.768 138.975C365.595 138.975 360.192 137.432 355.562 134.345C351.023 131.258 347.527 126.9 345.076 121.271C342.715 115.551 341.535 108.833 341.535 101.115C341.535 93.3982 342.761 86.7251 345.212 81.0961C347.663 75.3762 351.159 70.9729 355.698 67.886C360.238 64.7991 365.595 63.2556 371.768 63.2556C376.762 63.2556 381.211 64.2997 385.115 66.3879C389.019 68.4761 391.969 71.3814 393.967 75.1039V40.6487H408.402V137.341H394.92L394.511 126.446C392.514 130.35 389.473 133.437 385.387 135.707C381.392 137.886 376.853 138.975 371.768 138.975ZM375.582 126.446C379.486 126.446 382.799 125.447 385.523 123.45C388.247 121.453 390.335 118.547 391.788 114.734C393.24 110.921 393.967 106.381 393.967 101.115C393.967 95.668 393.24 91.0831 391.788 87.3606C390.335 83.5474 388.247 80.6875 385.523 78.7809C382.799 76.7835 379.486 75.7848 375.582 75.7848C369.771 75.7848 365.141 78.0546 361.691 82.5941C358.24 87.0429 356.515 93.2166 356.515 101.115C356.515 108.923 358.24 115.097 361.691 119.637C365.141 124.176 369.771 126.446 375.582 126.446Z" fill="#FEFBF2"/>
<path d="M293.52 138.975C285.984 138.975 279.946 137.25 275.407 133.8C270.958 130.35 268.734 125.493 268.734 119.228C268.734 112.964 270.595 108.106 274.317 104.656C278.131 101.115 283.987 98.5733 291.885 97.0299L316.808 92.2633C316.808 86.6343 315.491 82.4579 312.858 79.7342C310.225 76.9197 306.321 75.5124 301.146 75.5124C296.516 75.5124 292.884 76.5565 290.251 78.6447C287.618 80.6421 285.802 83.6382 284.804 87.633L269.959 86.6797C271.321 79.4164 274.681 73.6966 280.037 69.5202C285.485 65.3438 292.521 63.2556 301.146 63.2556C310.952 63.2556 318.396 65.8886 323.481 71.1545C328.656 76.3295 331.243 83.6382 331.243 93.0805V137.341H318.442L317.897 121.271L319.259 121.816C318.623 125.175 317.08 128.126 314.629 130.668C312.177 133.21 309.09 135.253 305.368 136.796C301.736 138.249 297.787 138.975 293.52 138.975ZM295.835 127.536C300.193 127.536 303.915 126.719 307.002 125.084C310.089 123.359 312.495 120.999 314.22 118.003C315.945 115.006 316.808 111.602 316.808 107.789V103.158L295.562 107.244C291.204 108.061 288.118 109.377 286.302 111.193C284.577 112.918 283.714 115.143 283.714 117.866C283.714 120.953 284.758 123.359 286.847 125.084C289.025 126.719 292.022 127.536 295.835 127.536Z" fill="#FEFBF2"/>
<path d="M192.248 137.341V40.6487H206.956V86.8159L247.676 40.6487H265.516L228.474 82.8665L267.968 137.341H250.672L218.668 93.2166L206.956 106.291V137.341H192.248Z" fill="#FEFBF2"/>
</g>
<defs>
<clipPath id="clip0_202_759">
<rect width="1795" height="177" fill="white"/>
</clipPath>
</defs>
</svg>
