<?xml version="1.0" encoding="UTF-8" standalone="no"?>
<svg
   width="320"
   height="56"
   fill="none"
   version="1.1"
   id="svg6"
   sodipodi:docname="restrict_content_logo.svg"
   inkscape:version="1.1 (c68e22c387, 2021-05-23)"
   xmlns:inkscape="http://www.inkscape.org/namespaces/inkscape"
   xmlns:sodipodi="http://sodipodi.sourceforge.net/DTD/sodipodi-0.dtd"
   xmlns="http://www.w3.org/2000/svg"
   xmlns:svg="http://www.w3.org/2000/svg">
  <defs
     id="defs10" />
  <sodipodi:namedview
     id="namedview8"
     pagecolor="#505050"
     bordercolor="#eeeeee"
     borderopacity="1"
     inkscape:pageshadow="0"
     inkscape:pageopacity="0"
     inkscape:pagecheckerboard="0"
     showgrid="false"
     inkscape:zoom="2.9521708"
     inkscape:cx="141.92946"
     inkscape:cy="-6.7746757"
     inkscape:window-width="1920"
     inkscape:window-height="1019"
     inkscape:window-x="0"
     inkscape:window-y="0"
     inkscape:window-maximized="1"
     inkscape:current-layer="svg6" />
  <path
     fill-rule="evenodd"
     clip-rule="evenodd"
     d="M5.856 53.413c0 1.266.32 2.583 2.126 2.587l5.676-.004h4.257c1.866 0 2.29-1.244 2.29-2.583V41.447c0-1.928 0-3.43 1.967-3.43 1.182 0 1.926.565 2.593 1.547l9.704 14.314c.946 1.394 2.096 2.12 4.257 2.12h9.92c1.68 0 2.672-1.866 1.718-3.235L41.188 39.6a3.574 3.574 0 01.74-4.85c7.675-6.026 7.84-12.313 7.89-14.715v-.07c-.205-4.174-2-8.504-4.926-11.886-3.633-4.195-8.942-6.933-15.36-7.92A14.357 14.357 0 0027.327 0H2.338C.227 0-.803 2.518.743 4.544c1.165 1.526 2.33 2.19 3.292 2.738.315.18.608.346.872.527.967.662.962 1.127.951 2.003l-.002.302v43.299zM39.193 19.59c0 4.227-5.293 7.653-11.822 7.653-6.528 0-11.821-3.426-11.821-7.653 0-4.227 5.293-7.653 11.821-7.653 6.53 0 11.822 3.426 11.822 7.653z"
     fill="#222"
     id="path2" />
  <path
     d="m 27.371,24.933 c 3.494,0 6.327,-2.392 6.327,-5.343 0,-2.95 -2.833,-5.342 -6.327,-5.342 -3.494,0 -6.327,2.392 -6.327,5.342 0,2.95 2.833,5.343 6.327,5.343 z m 46.612,-2.406 c -2.3,0 -3.688,1.018 -4.413,3.238 l -0.157,-2.93 h -3.215 v 16.002 h 3.782 v -9.064 c 0.473,-2.652 1.797,-3.73 4.318,-3.73 h 0.852 v -3.515 h -1.167 z m 6.877,9.403 h 10.434 v -2.65 c 0,-4.41 -2.49,-6.814 -7.124,-6.814 -4.633,0 -7.092,2.374 -7.092,6.783 v 3.144 c 0,4.47 2.49,6.814 7.281,6.814 4.192,0 6.62,-1.788 6.84,-5.21 h -3.625 c -0.157,1.387 -1.229,2.22 -3.215,2.22 -2.427,0 -3.498,-1.203 -3.498,-3.793 v -0.493 z m 3.436,-6.474 c 2.364,0 3.404,1.141 3.404,3.73 h -6.84 c 0,-2.589 1.04,-3.73 3.436,-3.73 z m 16.447,13.751 c 4.476,0 6.745,-1.696 6.745,-5.056 0,-3.053 -1.639,-4.502 -5.894,-4.964 -2.68,-0.308 -3.625,-0.802 -3.625,-2.066 0,-1.14 0.946,-1.819 2.742,-1.819 1.891,0 2.774,0.71 2.774,2.19 h 3.656 c 0,-3.3 -2.206,-5.026 -6.398,-5.026 -4.192,0 -6.493,1.757 -6.493,5.056 0,2.96 1.576,4.255 5.736,4.748 2.774,0.308 3.783,0.894 3.783,2.22 0,1.233 -1.009,1.88 -2.995,1.88 -2.238,0 -3.246,-0.77 -3.246,-2.343 h -3.625 c 0,3.453 2.206,5.18 6.84,5.18 z m 17.04,-3.361 c -1.576,0 -2.017,-0.493 -2.017,-2.25 v -7.893 h 3.688 v -2.867 h -3.688 v -4.1 h -3.467 l -0.252,4.1 h -2.648 v 2.867 h 2.585 v 8.016 c 0,3.607 1.387,5.118 4.633,5.118 h 3.026 v -2.99 h -1.86 z m 12.961,-13.319 c -2.301,0 -3.688,1.018 -4.413,3.238 l -0.157,-2.93 h -3.215 v 16.002 h 3.782 v -9.064 c 0.473,-2.652 1.797,-3.73 4.318,-3.73 h 0.851 v -3.515 h -1.166 z m 4.678,-2.25 h 4.035 v -3.484 h -4.035 z m 0.126,18.56 h 3.782 V 22.836 h -3.782 v 16 z m 14.677,0.37 c 4.349,0 6.682,-2.097 6.776,-6.228 h -3.624 c -0.126,2.19 -1.104,3.145 -3.121,3.145 -2.206,0 -3.246,-1.14 -3.246,-3.762 V 29.31 c 0,-2.62 1.04,-3.761 3.246,-3.761 2.017,0 2.963,0.956 3.121,3.114 h 3.624 c -0.094,-4.131 -2.427,-6.197 -6.776,-6.197 -4.602,0 -6.998,2.312 -6.998,6.783 v 3.144 c 0,4.502 2.396,6.814 6.998,6.814 z m 16.747,-3.361 c -1.576,0 -2.017,-0.493 -2.017,-2.25 v -7.893 h 3.687 v -2.867 h -3.687 v -4.1 h -3.468 l -0.252,4.1 h -2.647 v 2.867 h 2.584 v 8.016 c 0,3.607 1.387,5.118 4.634,5.118 h 3.026 v -2.99 h -1.86 z m 18.897,3.361 c 4.35,0 6.683,-2.097 6.777,-6.228 h -3.625 c -0.126,2.19 -1.103,3.145 -3.12,3.145 -2.206,0 -3.247,-1.14 -3.247,-3.762 V 29.31 c 0,-2.62 1.041,-3.761 3.247,-3.761 2.017,0 2.963,0.956 3.12,3.114 h 3.625 c -0.094,-4.131 -2.427,-6.197 -6.777,-6.197 -4.602,0 -6.997,2.312 -6.997,6.783 v 3.144 c 0,4.502 2.395,6.814 6.997,6.814 z m 17.059,0 c 4.791,0 7.281,-2.343 7.281,-6.968 v -2.805 c 0,-4.625 -2.49,-6.968 -7.281,-6.968 -4.791,0 -7.249,2.343 -7.249,6.968 v 2.805 c 0,4.625 2.458,6.968 7.249,6.968 z m 0,-3.083 c -2.395,0 -3.467,-1.233 -3.467,-3.977 v -2.62 c 0,-2.745 1.072,-3.978 3.467,-3.978 2.396,0 3.499,1.233 3.499,3.977 v 2.62 c 0,2.745 -1.103,3.978 -3.499,3.978 z m 19.559,-13.658 c -2.143,0 -3.751,0.77 -5.075,2.559 l -0.126,-2.19 h -3.215 v 16.002 h 3.783 v -10.39 c 0.914,-1.819 2.111,-2.713 3.688,-2.713 1.544,0 2.3,0.894 2.3,2.867 v 10.236 h 3.783 V 28.262 c 0,-3.823 -1.734,-5.796 -5.138,-5.796 z m 15.898,13.38 c -1.576,0 -2.018,-0.493 -2.018,-2.25 v -7.893 h 3.688 v -2.867 h -3.688 v -4.1 H 232.9 l -0.252,4.1 H 230 v 2.867 h 2.585 v 8.016 c 0,3.607 1.387,5.118 4.633,5.118 h 3.026 v -2.99 h -1.859 z m 7.833,-3.916 h 10.433 v -2.65 c 0,-4.41 -2.49,-6.814 -7.124,-6.814 -4.633,0 -7.092,2.374 -7.092,6.783 v 3.144 c 0,4.47 2.49,6.814 7.282,6.814 4.192,0 6.619,-1.788 6.839,-5.21 h -3.624 c -0.158,1.387 -1.23,2.22 -3.215,2.22 -2.428,0 -3.499,-1.203 -3.499,-3.793 v -0.493 z m 3.435,-6.474 c 2.364,0 3.405,1.141 3.405,3.73 h -6.84 c 0,-2.589 1.04,-3.73 3.435,-3.73 z m 19.252,-2.99 c -2.143,0 -3.751,0.77 -5.074,2.559 l -0.126,-2.19 h -3.216 v 16.002 h 3.783 v -10.39 c 0.914,-1.819 2.112,-2.713 3.688,-2.713 1.544,0 2.301,0.894 2.301,2.867 v 10.236 h 3.782 V 28.262 c 0,-3.823 -1.733,-5.796 -5.138,-5.796 z m 15.898,13.38 c -1.576,0 -2.018,-0.493 -2.018,-2.25 v -7.893 h 3.688 v -2.867 h -3.688 v -4.1 h -3.467 l -0.252,4.1 h -2.648 v 2.867 h 2.585 v 8.016 c 0,3.607 1.387,5.118 4.634,5.118 h 3.025 v -2.99 h -1.859 z"
     fill="#222222"
     id="path4"
     sodipodi:nodetypes="ssssscccccccsccccccsssssccssccsccssscssccsscssccscsccccccccccsscccccccccccscccccccccccccccsccssssccsssscsccccccccccssccccsccssssccsssssssssssssssssssccccccssccsscsccccccccccssccccccsssssccssccsccssccccccssccsscsccccccccccsscccc" />
</svg>
