<svg width="1161.33" height="97.032" viewBox="0.0 8.985 1161.33 97.032" fill="none" xmlns="http://www.w3.org/2000/svg">
<g clip-path="url(#clip0_202_862)">
<path d="M0 29.7778C0 18.2944 9.30908 8.98535 20.7924 8.98535H76.2388C87.7222 8.98535 97.0312 18.2944 97.0312 29.7778V85.2242C97.0312 96.7075 87.7222 106.017 76.2388 106.017H20.7924C9.30908 106.017 0 96.7075 0 85.2242V29.7778Z" fill="#1145C9"/>
<path fill-rule="evenodd" clip-rule="evenodd" d="M64.9887 85.2216H49.3808C47.6908 85.2216 46.319 83.8395 46.319 82.1375C46.319 80.436 47.6908 79.0539 49.3808 79.0539H59.5761C61.1672 78.944 62.4258 77.6078 62.4258 75.9779C62.4258 74.2759 61.0538 72.8944 59.3637 72.8944L43.4101 72.8938C41.7225 72.8938 40.3524 71.5142 40.3524 69.8146C40.3524 68.115 41.7225 66.7348 43.4101 66.7348H45.3359L45.3318 66.731H48.195C49.8818 66.731 51.2514 65.352 51.2514 63.6532C51.2514 61.9544 49.8818 60.5753 48.195 60.5753H40.9938V60.5726H25.8928C24.206 60.5726 22.8364 59.1932 22.8364 57.4942C22.8364 55.7954 24.206 54.4158 25.8928 54.4158H40.9938V54.4073H46.9065C48.5917 54.4073 49.9599 53.0294 49.9599 51.3319C49.9599 49.6345 48.5917 48.2565 46.9065 48.2565L39.2798 48.256C37.5922 48.256 36.2223 46.8761 36.2223 45.1767C36.2223 43.4768 37.5922 42.0969 39.2798 42.0969H53.7792C53.8517 42.0969 53.9231 42.0994 53.994 42.1043H59.177C60.8665 42.1043 62.2385 40.7228 62.2385 39.0207C62.2385 37.3189 60.8665 35.9374 59.177 35.9374H51.5583C49.9726 35.8215 48.7205 34.4878 48.7205 32.8617C48.7205 31.1597 50.0922 29.7779 51.7823 29.7779H63.7835C63.7967 29.7779 63.8096 29.7779 63.8239 29.7781H77.9741L53.1801 57.0482L83.1695 85.2243H65.0698L65.0655 85.2202C65.0402 85.2213 65.0146 85.2216 64.9887 85.2216ZM35.6108 79.0539C37.2949 79.0539 38.6621 80.4308 38.6621 82.1266C38.6621 83.8227 37.2949 85.1993 35.6108 85.1993H24.4146C22.7308 85.1993 21.3636 83.8227 21.3636 82.1266C21.3636 80.4308 22.7308 79.0539 24.4146 79.0539H35.6108ZM31.1784 66.7348C32.8673 66.7348 34.2385 68.1158 34.2385 69.817C34.2385 71.5177 32.8673 72.899 31.1784 72.899C29.4892 72.899 28.118 71.5177 28.118 69.817C28.118 68.1158 29.4892 66.7348 31.1784 66.7348ZM15.1889 54.4158C16.8781 54.4158 18.2493 55.7967 18.2493 57.498C18.2493 59.1989 16.8781 60.5799 15.1889 60.5799C13.5 60.5799 12.1288 59.1989 12.1288 57.498C12.1288 55.7967 13.5 54.4158 15.1889 54.4158ZM27.0484 42.0969C28.7373 42.0969 30.1088 43.4779 30.1088 45.1792C30.1088 46.8801 28.7373 48.2608 27.0484 48.2608C25.3594 48.2608 23.988 46.8801 23.988 45.1792C23.988 43.4779 25.3594 42.0969 27.0484 42.0969ZM38.0231 29.7779C39.7072 29.7779 41.0741 31.1548 41.0741 32.8506C41.0741 34.5467 39.7072 35.9236 38.0231 35.9236H30.9458C29.262 35.9236 27.8949 34.5467 27.8949 32.8506C27.8949 31.1548 29.2617 29.7779 30.9458 29.7779H38.0231Z" fill="#FEFBF2"/>
<path d="M1139.04 90.1882C1134.55 90.1882 1130.63 89.1854 1127.27 87.1798C1123.9 85.1742 1121.31 82.3133 1119.48 78.597C1117.65 74.8807 1116.74 70.5451 1116.74 65.59C1116.74 60.576 1117.65 56.2404 1119.48 52.5831C1121.31 48.9258 1123.9 46.0944 1127.27 44.0888C1130.63 42.0242 1134.55 40.9919 1139.04 40.9919C1143.52 40.9919 1147.44 42.0242 1150.8 44.0888C1154.17 46.0944 1156.76 48.9258 1158.59 52.5831C1160.42 56.2404 1161.33 60.576 1161.33 65.59C1161.33 70.5451 1160.42 74.8807 1158.59 78.597C1156.76 82.3133 1154.17 85.1742 1150.8 87.1798C1147.44 89.1854 1143.52 90.1882 1139.04 90.1882ZM1139.04 82.0478C1143.05 82.0478 1146.14 80.6026 1148.33 77.7122C1150.51 74.7628 1151.6 70.722 1151.6 65.59C1151.6 60.4581 1150.51 56.4468 1148.33 53.5564C1146.14 50.607 1143.05 49.1323 1139.04 49.1323C1135.08 49.1323 1131.99 50.607 1129.74 53.5564C1127.56 56.4468 1126.47 60.4581 1126.47 65.59C1126.47 70.722 1127.56 74.7628 1129.74 77.7122C1131.99 80.6026 1135.08 82.0478 1139.04 82.0478Z" fill="#FEFBF2"/>
<path d="M1091.03 89.1264V42.0537H1099.61L1099.97 54.5297L1099.17 54.2643C1099.82 50.0171 1101.12 46.9202 1103.07 44.9736C1105.07 43.027 1107.76 42.0537 1111.12 42.0537H1115.63V50.4595H1111.12C1108.76 50.4595 1106.78 50.8429 1105.19 51.6098C1103.6 52.3766 1102.39 53.5564 1101.56 55.1491C1100.79 56.7418 1100.41 58.8064 1100.41 61.3429V89.1264H1091.03Z" fill="#FEFBF2"/>
<path d="M1037.28 89.1264V26.3037H1060.73C1067.93 26.3037 1073.53 28.0439 1077.54 31.5242C1081.56 34.9455 1083.56 39.7236 1083.56 45.8584C1083.56 49.9286 1082.65 53.4679 1080.82 56.4763C1078.99 59.4258 1076.36 61.6968 1072.94 63.2895C1069.58 64.8232 1065.51 65.59 1060.73 65.59H1046.84V89.1264H1037.28ZM1046.84 56.9187H1060.47C1064.77 56.9187 1068.05 56.0044 1070.29 54.1758C1072.53 52.2882 1073.65 49.5157 1073.65 45.8584C1073.65 42.2601 1072.53 39.5761 1070.29 37.8065C1068.05 35.9778 1064.77 35.0635 1060.47 35.0635H1046.84V56.9187Z" fill="#FEFBF2"/>
<path d="M990.459 90.1882C986.035 90.1882 982.289 89.5099 979.222 88.1531C976.213 86.7964 973.883 84.9383 972.231 82.5787C970.58 80.1602 969.636 77.3877 969.4 74.2614L979.045 73.8189C979.517 76.4144 980.637 78.479 982.407 80.0127C984.177 81.5464 986.861 82.3133 990.459 82.3133C993.408 82.3133 995.738 81.8414 997.449 80.8976C999.16 79.9537 1000.02 78.4495 1000.02 76.3849C1000.02 75.2642 999.72 74.3203 999.13 73.5535C998.599 72.7276 997.538 72.0493 995.945 71.5184C994.352 70.9285 991.993 70.3681 988.866 69.8372C984.206 68.9524 980.549 67.9201 977.894 66.7403C975.24 65.5606 973.352 64.0564 972.231 62.2277C971.111 60.3991 970.55 58.187 970.55 55.5915C970.55 51.2853 972.143 47.7755 975.328 45.0621C978.573 42.3486 983.233 40.9919 989.309 40.9919C993.379 40.9919 996.8 41.6997 999.573 43.1154C1002.35 44.4722 1004.5 46.3303 1006.03 48.6899C1007.62 50.9904 1008.63 53.5859 1009.04 56.4763L999.396 57.0072C999.101 55.3556 998.511 53.9398 997.626 52.7601C996.8 51.5213 995.679 50.5775 994.264 49.9286C992.848 49.2208 991.167 48.8668 989.22 48.8668C986.212 48.8668 983.97 49.4567 982.496 50.6365C981.021 51.8162 980.283 53.3499 980.283 55.2376C980.283 56.6533 980.608 57.8036 981.257 58.6884C981.965 59.5732 983.085 60.3106 984.619 60.9005C986.153 61.4314 988.188 61.9033 990.724 62.3162C995.62 63.142 999.455 64.1743 1002.23 65.4131C1005 66.5928 1006.95 68.0676 1008.07 69.8372C1009.19 71.6069 1009.75 73.7599 1009.75 76.2964C1009.75 79.2459 1008.92 81.7529 1007.27 83.8175C1005.62 85.8821 1003.35 87.4748 1000.46 88.5955C997.567 89.6573 994.234 90.1882 990.459 90.1882Z" fill="#FEFBF2"/>
<path d="M922.006 102.399V42.0537H930.854L931.12 52.1407L930.058 51.6098C931.238 48.1295 933.184 45.5045 935.898 43.7348C938.611 41.9062 941.738 40.9919 945.277 40.9919C949.878 40.9919 953.653 42.1421 956.603 44.4427C959.611 46.6843 961.823 49.6632 963.239 53.3794C964.714 57.0957 965.451 61.1659 965.451 65.59C965.451 70.0142 964.714 74.0844 963.239 77.8007C961.823 81.5169 959.611 84.5253 956.603 86.8259C953.653 89.0675 949.878 90.1882 945.277 90.1882C942.917 90.1882 940.705 89.7753 938.641 88.9495C936.576 88.1236 934.806 86.9734 933.332 85.4986C931.916 83.9649 930.913 82.1658 930.323 80.1012L931.385 79.0394V102.399H922.006ZM943.596 82.0478C947.371 82.0478 950.32 80.6026 952.444 77.7122C954.627 74.8217 955.718 70.781 955.718 65.59C955.718 60.3991 954.627 56.3584 952.444 53.4679C950.32 50.5775 947.371 49.1323 943.596 49.1323C941.118 49.1323 938.965 49.7517 937.136 50.9904C935.308 52.1702 933.892 53.9988 932.889 56.4763C931.886 58.9538 931.385 61.9918 931.385 65.59C931.385 69.1883 931.857 72.2262 932.801 74.7038C933.804 77.1813 935.219 79.0394 937.048 80.2782C938.936 81.4579 941.118 82.0478 943.596 82.0478Z" fill="#FEFBF2"/>
<path d="M901.244 89.1264V42.0537H910.623V89.1264H901.244ZM901.067 35.2405V25.8613H910.8V35.2405H901.067Z" fill="#FEFBF2"/>
<path d="M852.485 89.1264V26.3037H861.864V52.6716L860.714 52.4946C861.245 49.8401 862.218 47.6871 863.634 46.0354C865.049 44.3247 866.789 43.0565 868.854 42.2306C870.919 41.4048 873.19 40.9919 875.667 40.9919C879.089 40.9919 881.979 41.7587 884.339 43.2924C886.698 44.7671 888.468 46.8612 889.647 49.5747C890.886 52.2882 891.506 55.385 891.506 58.8654V89.1264H882.126V61.3429C882.126 57.0957 881.389 53.9693 879.914 51.9637C878.499 49.8991 876.257 48.8668 873.19 48.8668C869.768 48.8668 867.025 49.9581 864.961 52.1407C862.896 54.2643 861.864 57.3907 861.864 61.5198V89.1264H852.485Z" fill="#FEFBF2"/>
<path d="M826.358 90.1882C821.934 90.1882 818.188 89.5099 815.121 88.1531C812.112 86.7964 809.782 84.9383 808.131 82.5787C806.479 80.1602 805.535 77.3877 805.299 74.2614L814.944 73.8189C815.416 76.4144 816.537 78.479 818.306 80.0127C820.076 81.5464 822.76 82.3133 826.358 82.3133C829.308 82.3133 831.638 81.8414 833.348 80.8976C835.059 79.9537 835.914 78.4495 835.914 76.3849C835.914 75.2642 835.619 74.3203 835.029 73.5535C834.499 72.7276 833.437 72.0493 831.844 71.5184C830.251 70.9285 827.892 70.3681 824.765 69.8372C820.105 68.9524 816.448 67.9201 813.794 66.7403C811.139 65.5606 809.252 64.0564 808.131 62.2277C807.01 60.3991 806.45 58.187 806.45 55.5915C806.45 51.2853 808.042 47.7755 811.228 45.0621C814.472 42.3486 819.132 40.9919 825.208 40.9919C829.278 40.9919 832.699 41.6997 835.472 43.1154C838.244 44.4722 840.397 46.3303 841.931 48.6899C843.524 50.9904 844.527 53.5859 844.94 56.4763L835.295 57.0072C835 55.3556 834.41 53.9398 833.525 52.7601C832.699 51.5213 831.579 50.5775 830.163 49.9286C828.747 49.2208 827.066 48.8668 825.119 48.8668C822.111 48.8668 819.869 49.4567 818.395 50.6365C816.92 51.8162 816.183 53.3499 816.183 55.2376C816.183 56.6533 816.507 57.8036 817.156 58.6884C817.864 59.5732 818.985 60.3106 820.518 60.9005C822.052 61.4314 824.087 61.9033 826.624 62.3162C831.52 63.142 835.354 64.1743 838.126 65.4131C840.899 66.5928 842.845 68.0676 843.966 69.8372C845.087 71.6069 845.647 73.7599 845.647 76.2964C845.647 79.2459 844.822 81.7529 843.17 83.8175C841.518 85.8821 839.247 87.4748 836.357 88.5955C833.466 89.6573 830.133 90.1882 826.358 90.1882Z" fill="#FEFBF2"/>
<path d="M779.594 89.1264V42.0537H788.177L788.53 54.5297L787.734 54.2643C788.383 50.0171 789.681 46.9202 791.627 44.9736C793.633 43.027 796.317 42.0537 799.679 42.0537H804.192V50.4595H799.679C797.32 50.4595 795.344 50.8429 793.751 51.6098C792.158 52.3766 790.949 53.5564 790.123 55.1491C789.356 56.7418 788.973 58.8064 788.973 61.3429V89.1264H779.594Z" fill="#FEFBF2"/>
<path d="M751.509 90.1882C746.908 90.1882 742.926 89.1854 739.564 87.1798C736.26 85.1742 733.694 82.3133 731.866 78.597C730.096 74.8807 729.211 70.5451 729.211 65.59C729.211 60.635 730.096 56.3289 731.866 52.6716C733.694 48.9553 736.26 46.0944 739.564 44.0888C742.867 42.0242 746.76 40.9919 751.243 40.9919C755.49 40.9919 759.236 41.9947 762.481 44.0003C765.725 45.9469 768.232 48.7783 770.002 52.4946C771.83 56.2109 772.745 60.694 772.745 65.944V68.333H738.944C739.18 72.9341 740.389 76.3849 742.572 78.6855C744.814 80.986 747.822 82.1363 751.597 82.1363C754.37 82.1363 756.67 81.4874 758.499 80.1897C760.328 78.8919 761.596 77.1518 762.304 74.9692L772.037 75.5886C770.798 79.9537 768.35 83.493 764.693 86.2065C761.094 88.861 756.7 90.1882 751.509 90.1882ZM738.944 61.2544H762.835C762.54 57.0662 761.33 53.9693 759.207 51.9637C757.142 49.9581 754.488 48.9553 751.243 48.9553C747.881 48.9553 745.109 50.0171 742.926 52.1407C740.802 54.2053 739.475 57.2432 738.944 61.2544Z" fill="#FEFBF2"/>
<path d="M705.265 90.1882C702.02 90.1882 699.13 89.4804 696.593 88.0646C694.116 86.5899 692.199 84.5843 690.842 82.0478L690.577 89.1264H681.817V26.3037H691.196V48.6899C692.435 46.6253 694.263 44.8261 696.682 43.2924C699.159 41.7587 702.02 40.9919 705.265 40.9919C709.335 40.9919 712.874 41.9947 715.883 44.0003C718.891 46.0059 721.192 48.8668 722.784 52.5831C724.436 56.2404 725.262 60.576 725.262 65.59C725.262 70.6041 724.436 74.9692 722.784 78.6855C721.192 82.3428 718.891 85.1742 715.883 87.1798C712.874 89.1854 709.335 90.1882 705.265 90.1882ZM703.761 82.0478C707.359 82.0478 710.22 80.6026 712.343 77.7122C714.467 74.7628 715.529 70.722 715.529 65.59C715.529 60.4581 714.467 56.4468 712.343 53.5564C710.22 50.607 707.388 49.1323 703.849 49.1323C701.195 49.1323 698.924 49.7811 697.036 51.0789C695.148 52.3766 693.703 54.2643 692.7 56.7418C691.697 59.1603 691.196 62.1097 691.196 65.59C691.196 68.9524 691.697 71.8723 692.7 74.3498C693.703 76.8273 695.148 78.7445 697.036 80.1012C698.924 81.3989 701.165 82.0478 703.761 82.0478Z" fill="#FEFBF2"/>
<path d="M607.049 89.1264V42.0537H615.632L615.897 53.7334L614.836 53.3794C615.366 50.7839 616.281 48.5719 617.578 46.7432C618.935 44.9146 620.587 43.4989 622.534 42.4961C624.48 41.4933 626.604 40.9919 628.904 40.9919C632.915 40.9919 636.189 42.1421 638.726 44.4427C641.262 46.6843 642.855 49.7811 643.504 53.7334H642C642.531 50.9609 643.415 48.6604 644.654 46.8317C645.952 44.9441 647.604 43.4989 649.609 42.4961C651.615 41.4933 653.886 40.9919 656.422 40.9919C659.726 40.9919 662.528 41.6997 664.828 43.1154C667.188 44.4722 668.957 46.4778 670.137 49.1323C671.376 51.7868 671.995 55.0311 671.995 58.8654V89.1264H662.616V61.1659C662.616 57.0957 661.879 54.0283 660.404 51.9637C658.929 49.8991 656.688 48.8668 653.679 48.8668C651.733 48.8668 650.022 49.3682 648.547 50.371C647.073 51.3738 645.922 52.819 645.097 54.7067C644.33 56.5943 643.946 58.8654 643.946 61.5198V89.1264H635.01V61.5198C635.01 57.5086 634.331 54.4117 632.974 52.2292C631.677 49.9876 629.435 48.8668 626.25 48.8668C624.244 48.8668 622.504 49.3682 621.029 50.371C619.614 51.3738 618.493 52.8485 617.667 54.7952C616.841 56.6828 616.428 58.9244 616.428 61.5198V89.1264H607.049Z" fill="#FEFBF2"/>
<path d="M578.964 90.1882C574.363 90.1882 570.381 89.1854 567.019 87.1798C563.716 85.1742 561.15 82.3133 559.321 78.597C557.551 74.8807 556.666 70.5451 556.666 65.59C556.666 60.635 557.551 56.3289 559.321 52.6716C561.15 48.9553 563.716 46.0944 567.019 44.0888C570.322 42.0242 574.215 40.9919 578.699 40.9919C582.946 40.9919 586.692 41.9947 589.936 44.0003C593.18 45.9469 595.687 48.7783 597.457 52.4946C599.286 56.2109 600.2 60.694 600.2 65.944V68.333H566.4C566.635 72.9341 567.845 76.3849 570.027 78.6855C572.269 80.986 575.277 82.1363 579.053 82.1363C581.825 82.1363 584.126 81.4874 585.954 80.1897C587.783 78.8919 589.051 77.1518 589.759 74.9692L599.492 75.5886C598.253 79.9537 595.805 83.493 592.148 86.2065C588.55 88.861 584.155 90.1882 578.964 90.1882ZM566.4 61.2544H590.29C589.995 57.0662 588.786 53.9693 586.662 51.9637C584.597 49.9581 581.943 48.9553 578.699 48.9553C575.336 48.9553 572.564 50.0171 570.381 52.1407C568.258 54.2053 566.93 57.2432 566.4 61.2544Z" fill="#FEFBF2"/>
<path d="M485.36 89.1264V26.3037H498.455L517.125 77.8891L535.795 26.3037H548.89V89.1264H539.334V43.1154L522.434 89.038H511.816L494.916 43.1154V89.1264H485.36Z" fill="#FEFBF2"/>
<path d="M436.576 90.1882C431.975 90.1882 427.993 89.1854 424.631 87.1798C421.328 85.1742 418.762 82.3133 416.933 78.597C415.163 74.8807 414.278 70.5451 414.278 65.59C414.278 60.635 415.163 56.3289 416.933 52.6716C418.762 48.9553 421.328 46.0944 424.631 44.0888C427.934 42.0242 431.828 40.9919 436.311 40.9919C440.558 40.9919 444.304 41.9947 447.548 44.0003C450.792 45.9469 453.299 48.7783 455.069 52.4946C456.898 56.2109 457.812 60.694 457.812 65.944V68.333H424.012C424.247 72.9341 425.457 76.3849 427.639 78.6855C429.881 80.986 432.889 82.1363 436.665 82.1363C439.437 82.1363 441.738 81.4874 443.566 80.1897C445.395 78.8919 446.663 77.1518 447.371 74.9692L457.104 75.5886C455.865 79.9537 453.417 83.493 449.76 86.2065C446.162 88.861 441.767 90.1882 436.576 90.1882ZM424.012 61.2544H447.902C447.607 57.0662 446.398 53.9693 444.274 51.9637C442.209 49.9581 439.555 48.9553 436.311 48.9553C432.948 48.9553 430.176 50.0171 427.993 52.1407C425.87 54.2053 424.542 57.2432 424.012 61.2544Z" fill="#FEFBF2"/>
<path d="M390.237 90.1882C385.754 90.1882 381.831 89.1854 378.469 87.1798C375.106 85.1742 372.511 82.3133 370.682 78.597C368.853 74.8807 367.939 70.5451 367.939 65.59C367.939 60.635 368.853 56.3289 370.682 52.6716C372.511 48.9553 375.106 46.0944 378.469 44.0888C381.831 42.0242 385.754 40.9919 390.237 40.9919C394.071 40.9919 397.463 41.6702 400.412 43.027C403.421 44.3247 405.839 46.2418 407.668 48.7783C409.555 51.3148 410.765 54.4117 411.296 58.069L401.474 58.5999C401.002 55.5325 399.763 53.2025 397.758 51.6098C395.752 49.9581 393.245 49.1323 390.237 49.1323C386.285 49.1323 383.188 50.607 380.946 53.5564C378.763 56.4468 377.672 60.4581 377.672 65.59C377.672 70.722 378.763 74.7628 380.946 77.7122C383.188 80.6026 386.285 82.0478 390.237 82.0478C393.245 82.0478 395.752 81.222 397.758 79.5703C399.763 77.8596 401.002 75.2936 401.474 71.8723L411.296 72.4032C410.765 76.0015 409.555 79.1279 407.668 81.7824C405.839 84.4369 403.421 86.5015 400.412 87.9762C397.463 89.4509 394.071 90.1882 390.237 90.1882Z" fill="#FEFBF2"/>
<path d="M322.273 89.1264V42.0537H330.856L331.21 54.6182L330.06 53.9988C330.59 50.9314 331.593 48.4539 333.068 46.5663C334.543 44.6786 336.342 43.2924 338.465 42.4076C340.589 41.4638 342.89 40.9919 345.367 40.9919C348.906 40.9919 351.826 41.7882 354.127 43.3809C356.486 44.9146 358.256 47.0382 359.436 49.7517C360.675 52.4061 361.294 55.444 361.294 58.8654V89.1264H351.915V61.6968C351.915 58.9244 351.62 56.5943 351.03 54.7067C350.44 52.819 349.467 51.3738 348.11 50.371C346.753 49.3682 344.984 48.8668 342.801 48.8668C339.498 48.8668 336.814 49.9581 334.749 52.1407C332.685 54.3233 331.652 57.5086 331.652 61.6968V89.1264H322.273Z" fill="#FEFBF2"/>
<path d="M294.188 90.1882C289.587 90.1882 285.605 89.1854 282.243 87.1798C278.94 85.1742 276.374 82.3133 274.545 78.597C272.775 74.8807 271.89 70.5451 271.89 65.59C271.89 60.635 272.775 56.3289 274.545 52.6716C276.374 48.9553 278.94 46.0944 282.243 44.0888C285.546 42.0242 289.44 40.9919 293.923 40.9919C298.17 40.9919 301.916 41.9947 305.16 44.0003C308.404 45.9469 310.911 48.7783 312.681 52.4946C314.51 56.2109 315.424 60.694 315.424 65.944V68.333H281.624C281.86 72.9341 283.069 76.3849 285.251 78.6855C287.493 80.986 290.501 82.1363 294.277 82.1363C297.049 82.1363 299.35 81.4874 301.178 80.1897C303.007 78.8919 304.275 77.1518 304.983 74.9692L314.716 75.5886C313.477 79.9537 311.029 83.493 307.372 86.2065C303.774 88.861 299.379 90.1882 294.188 90.1882ZM281.624 61.2544H305.514C305.219 57.0662 304.01 53.9693 301.886 51.9637C299.821 49.9581 297.167 48.9553 293.923 48.9553C290.56 48.9553 287.788 50.0171 285.605 52.1407C283.482 54.2053 282.154 57.2432 281.624 61.2544Z" fill="#FEFBF2"/>
<path d="M241.219 90.1882C237.208 90.1882 233.698 89.1854 230.69 87.1798C227.741 85.1742 225.47 82.3428 223.877 78.6855C222.343 74.9692 221.576 70.6041 221.576 65.59C221.576 60.576 222.373 56.2404 223.965 52.5831C225.558 48.8668 227.829 46.0059 230.779 44.0003C233.728 41.9947 237.208 40.9919 241.219 40.9919C244.464 40.9919 247.354 41.6702 249.891 43.027C252.427 44.3837 254.344 46.2713 255.642 48.6899V26.3037H265.021V89.1264H256.262L255.996 82.0478C254.698 84.5843 252.722 86.5899 250.068 88.0646C247.472 89.4804 244.523 90.1882 241.219 90.1882ZM243.697 82.0478C246.234 82.0478 248.387 81.3989 250.156 80.1012C251.926 78.8035 253.283 76.9158 254.226 74.4383C255.17 71.9608 255.642 69.0114 255.642 65.59C255.642 62.0507 255.17 59.0718 254.226 56.6533C253.283 54.1758 251.926 52.3176 250.156 51.0789C248.387 49.7811 246.234 49.1323 243.697 49.1323C239.922 49.1323 236.913 50.607 234.672 53.5564C232.43 56.4468 231.309 60.4581 231.309 65.59C231.309 70.6631 232.43 74.6743 234.672 77.6237C236.913 80.5731 239.922 82.0478 243.697 82.0478Z" fill="#FEFBF2"/>
<path d="M190.38 90.1882C185.484 90.1882 181.561 89.0675 178.612 86.8259C175.721 84.5843 174.276 81.4284 174.276 77.3582C174.276 73.288 175.485 70.1322 177.904 67.8906C180.381 65.5901 184.186 63.9384 189.318 62.9356L205.51 59.8387C205.51 56.1814 204.655 53.4679 202.945 51.6983C201.234 49.8696 198.697 48.9553 195.335 48.9553C192.327 48.9553 189.967 49.6337 188.256 50.9904C186.546 52.2882 185.366 54.2348 184.717 56.8303L175.072 56.2109C175.957 51.4918 178.14 47.7755 181.62 45.0621C185.159 42.3486 189.731 40.9919 195.335 40.9919C201.706 40.9919 206.543 42.7025 209.846 46.1239C213.208 49.4862 214.89 54.2348 214.89 60.3696V89.1264H206.572L206.218 78.6855L207.103 79.0394C206.69 81.222 205.687 83.1391 204.095 84.7908C202.502 86.4425 200.496 87.7697 198.078 88.7725C195.718 89.7163 193.152 90.1882 190.38 90.1882ZM191.884 82.7557C194.716 82.7557 197.134 82.2248 199.14 81.163C201.145 80.0422 202.709 78.5085 203.829 76.5619C204.95 74.6153 205.51 72.4032 205.51 69.9257V66.9173L191.707 69.5718C188.876 70.1027 186.87 70.958 185.69 72.1378C184.57 73.2585 184.009 74.7038 184.009 76.4734C184.009 78.479 184.688 80.0422 186.044 81.163C187.46 82.2248 189.407 82.7557 191.884 82.7557Z" fill="#FEFBF2"/>
<path d="M124.582 89.1264V26.3037H134.138V56.2994L160.594 26.3037H172.186L148.118 53.7334L173.778 89.1264H162.541L141.748 60.4581L134.138 68.9524V89.1264H124.582Z" fill="#FEFBF2"/>
</g>
<defs>
<clipPath id="clip0_202_862">
<rect width="1166" height="115" fill="white"/>
</clipPath>
</defs>
</svg>
