<svg width="1554.13" height="149.344" viewBox="1.0 13.828 1554.13 149.344" fill="none" xmlns="http://www.w3.org/2000/svg">
<g clip-path="url(#clip0_202_782)">
<path d="M1 45.8304C1 28.156 15.3279 13.8281 33.0022 13.8281H118.342C136.016 13.8281 150.344 28.156 150.344 45.8304V131.17C150.344 148.844 136.016 163.172 118.342 163.172H33.0022C15.3279 163.172 1 148.844 1 131.17V45.8304Z" fill="#1145C9"/>
<path fill-rule="evenodd" clip-rule="evenodd" d="M101.026 131.166H77.0034C74.4023 131.166 72.291 129.038 72.291 126.419C72.291 123.8 74.4023 121.673 77.0034 121.673H92.6954C95.1443 121.504 97.0814 119.447 97.0814 116.938C97.0814 114.319 94.9697 112.192 92.3685 112.192L67.8138 112.192C65.2163 112.192 63.1075 110.068 63.1075 107.452C63.1075 104.836 65.2163 102.712 67.8138 102.712H70.7778L70.7716 102.706H75.1784C77.7746 102.706 79.8825 100.584 79.8825 97.969C79.8825 95.3544 77.7746 93.2318 75.1784 93.2318H64.0947V93.2276H40.8523C38.2562 93.2276 36.1482 91.1046 36.1482 88.4895C36.1482 85.8749 38.2562 83.7515 40.8523 83.7515H64.0947V83.7385H73.1953C75.7889 83.7385 77.8948 81.6176 77.8948 79.005C77.8948 76.3924 75.7889 74.2715 73.1953 74.2715L61.4567 74.2707C58.8593 74.2707 56.7509 72.1469 56.7509 69.5314C56.7509 66.915 58.8593 64.7912 61.4567 64.7912H83.7733C83.8848 64.7912 83.9947 64.795 84.1038 64.8025H92.0811C94.6814 64.8025 96.7931 62.6762 96.7931 60.0565C96.7931 57.4372 94.6814 55.3109 92.0811 55.3109H80.355C77.9143 55.1325 75.9872 53.0797 75.9872 50.577C75.9872 47.9573 78.0985 45.8305 80.6996 45.8305H99.1711C99.1914 45.8305 99.2114 45.8305 99.2333 45.8309H121.012L82.8512 87.8032L129.009 131.17H101.151L101.144 131.164C101.105 131.165 101.066 131.166 101.026 131.166ZM55.8097 121.673C58.4017 121.673 60.506 123.792 60.506 126.402C60.506 129.013 58.4017 131.131 55.8097 131.131H38.5772C35.9856 131.131 33.8814 129.013 33.8814 126.402C33.8814 123.792 35.9856 121.673 38.5772 121.673H55.8097ZM48.9876 102.712C51.5871 102.712 53.6976 104.838 53.6976 107.456C53.6976 110.074 51.5871 112.2 48.9876 112.2C46.3877 112.2 44.2773 110.074 44.2773 107.456C44.2773 104.838 46.3877 102.712 48.9876 102.712ZM24.3777 83.7515C26.9776 83.7515 29.088 85.8769 29.088 88.4954C29.088 91.1134 26.9776 93.2389 24.3777 93.2389C21.7782 93.2389 19.6677 91.1134 19.6677 88.4954C19.6677 85.8769 21.7782 83.7515 24.3777 83.7515ZM42.631 64.7912C45.2305 64.7912 47.3413 66.9167 47.3413 69.5351C47.3413 72.1531 45.2305 74.2782 42.631 74.2782C40.0315 74.2782 37.9206 72.1531 37.9206 69.5351C37.9206 66.9167 40.0315 64.7912 42.631 64.7912ZM59.5225 45.8305C62.1145 45.8305 64.2184 47.9498 64.2184 50.5598C64.2184 53.1703 62.1145 55.2896 59.5225 55.2896H48.6297C46.0381 55.2896 43.9338 53.1703 43.9338 50.5598C43.9338 47.9498 46.0376 45.8305 48.6297 45.8305H59.5225Z" fill="#FEFBF2"/>
<path d="M1525.45 138.81C1518.64 138.81 1512.87 137.766 1508.15 135.678C1503.52 133.59 1499.93 130.73 1497.39 127.098C1494.85 123.376 1493.4 119.109 1493.03 114.297L1507.88 113.616C1508.6 117.611 1510.33 120.788 1513.05 123.149C1515.78 125.509 1519.91 126.69 1525.45 126.69C1529.99 126.69 1533.57 125.963 1536.2 124.511C1538.84 123.058 1540.15 120.743 1540.15 117.565C1540.15 115.84 1539.7 114.387 1538.79 113.207C1537.97 111.936 1536.34 110.892 1533.89 110.075C1531.44 109.167 1527.81 108.304 1522.99 107.487C1515.82 106.126 1510.19 104.537 1506.11 102.721C1502.02 100.905 1499.12 98.5899 1497.39 95.7753C1495.67 92.9608 1494.8 89.5562 1494.8 85.5614C1494.8 78.9336 1497.26 73.5316 1502.16 69.3552C1507.15 65.1788 1514.32 63.0906 1523.68 63.0906C1529.94 63.0906 1535.21 64.1801 1539.47 66.3591C1543.74 68.4473 1547.05 71.3072 1549.41 74.9388C1551.87 78.4797 1553.41 82.4745 1554.04 86.9232L1539.2 87.7403C1538.75 85.1982 1537.84 83.0192 1536.48 81.2034C1535.21 79.2968 1533.48 77.8441 1531.3 76.8454C1529.12 75.7559 1526.54 75.2112 1523.54 75.2112C1518.91 75.2112 1515.46 76.1191 1513.19 77.9349C1510.92 79.7507 1509.78 82.1113 1509.78 85.0166C1509.78 87.1956 1510.28 88.966 1511.28 90.3279C1512.37 91.6897 1514.1 92.8246 1516.46 93.7325C1518.82 94.5497 1521.95 95.276 1525.85 95.9115C1533.39 97.1826 1539.29 98.7714 1543.56 100.678C1547.83 102.494 1550.82 104.764 1552.55 107.487C1554.27 110.211 1555.13 113.525 1555.13 117.429C1555.13 121.969 1553.86 125.827 1551.32 129.005C1548.78 132.182 1545.28 134.634 1540.83 136.359C1536.39 137.993 1531.26 138.81 1525.45 138.81Z" fill="#FEFBF2"/>
<path d="M1420.09 157.604V64.7248H1433.71L1434.11 80.2501L1432.48 79.433C1434.3 74.0763 1437.29 70.0361 1441.47 67.3124C1445.65 64.4979 1450.46 63.0906 1455.9 63.0906C1462.99 63.0906 1468.8 64.861 1473.34 68.4019C1477.97 71.8519 1481.37 76.4369 1483.55 82.1567C1485.82 87.8765 1486.95 94.1411 1486.95 100.95C1486.95 107.76 1485.82 114.024 1483.55 119.744C1481.37 125.464 1477.97 130.094 1473.34 133.635C1468.8 137.085 1462.99 138.81 1455.9 138.81C1452.27 138.81 1448.87 138.175 1445.69 136.904C1442.51 135.633 1439.79 133.862 1437.52 131.592C1435.34 129.232 1433.8 126.463 1432.89 123.285L1434.52 121.651V157.604H1420.09ZM1453.32 126.281C1459.13 126.281 1463.67 124.057 1466.94 119.608C1470.29 115.159 1471.97 108.94 1471.97 100.95C1471.97 92.9608 1470.29 86.7416 1466.94 82.2929C1463.67 77.8441 1459.13 75.6198 1453.32 75.6198C1449.5 75.6198 1446.19 76.5731 1443.38 78.4797C1440.56 80.2955 1438.38 83.11 1436.84 86.9232C1435.29 90.7364 1434.52 95.4122 1434.52 100.95C1434.52 106.489 1435.25 111.164 1436.7 114.978C1438.25 118.791 1440.42 121.651 1443.24 123.557C1446.14 125.373 1449.5 126.281 1453.32 126.281Z" fill="#FEFBF2"/>
<path d="M1388.13 137.176V64.7248H1402.57V137.176H1388.13ZM1387.86 54.2385V39.8027H1402.84V54.2385H1387.86Z" fill="#FEFBF2"/>
<path d="M1313.09 137.176V40.4837H1327.52V81.0672L1325.75 80.7948C1326.57 76.7092 1328.07 73.3954 1330.24 70.8532C1332.42 68.2203 1335.1 66.2683 1338.28 64.9972C1341.46 63.7261 1344.95 63.0906 1348.77 63.0906C1354.03 63.0906 1358.48 64.2709 1362.11 66.6315C1365.74 68.9012 1368.47 72.1243 1370.28 76.3007C1372.19 80.4771 1373.14 85.2436 1373.14 90.6003V137.176H1358.71V94.4135C1358.71 87.8765 1357.57 83.0646 1355.3 79.9777C1353.12 76.8 1349.67 75.2112 1344.95 75.2112C1339.69 75.2112 1335.47 76.8908 1332.29 80.2501C1329.11 83.5186 1327.52 88.3305 1327.52 94.6858V137.176H1313.09Z" fill="#FEFBF2"/>
<path d="M1272.87 138.81C1266.06 138.81 1260.3 137.766 1255.58 135.678C1250.95 133.59 1247.36 130.73 1244.82 127.098C1242.28 123.376 1240.82 119.109 1240.46 114.297L1255.31 113.616C1256.03 117.611 1257.76 120.788 1260.48 123.149C1263.2 125.509 1267.33 126.69 1272.87 126.69C1277.41 126.69 1281 125.963 1283.63 124.511C1286.26 123.058 1287.58 120.743 1287.58 117.565C1287.58 115.84 1287.13 114.387 1286.22 113.207C1285.4 111.936 1283.77 110.892 1281.32 110.075C1278.87 109.167 1275.23 108.304 1270.42 107.487C1263.25 106.126 1257.62 104.537 1253.53 102.721C1249.45 100.905 1246.54 98.5899 1244.82 95.7753C1243.09 92.9608 1242.23 89.5562 1242.23 85.5614C1242.23 78.9336 1244.68 73.5316 1249.59 69.3552C1254.58 65.1788 1261.75 63.0906 1271.1 63.0906C1277.37 63.0906 1282.63 64.1801 1286.9 66.3591C1291.17 68.4473 1294.48 71.3072 1296.84 74.9388C1299.29 78.4797 1300.84 82.4745 1301.47 86.9232L1286.63 87.7403C1286.17 85.1982 1285.27 83.0192 1283.9 81.2034C1282.63 79.2968 1280.91 77.8441 1278.73 76.8454C1276.55 75.7559 1273.96 75.2112 1270.97 75.2112C1266.34 75.2112 1262.89 76.1191 1260.62 77.9349C1258.35 79.7507 1257.21 82.1113 1257.21 85.0166C1257.21 87.1956 1257.71 88.966 1258.71 90.3279C1259.8 91.6897 1261.52 92.8246 1263.88 93.7325C1266.25 94.5497 1269.38 95.276 1273.28 95.9115C1280.82 97.1826 1286.72 98.7714 1290.99 100.678C1295.25 102.494 1298.25 104.764 1299.97 107.487C1301.7 110.211 1302.56 113.525 1302.56 117.429C1302.56 121.969 1301.29 125.827 1298.75 129.005C1296.21 132.182 1292.71 134.634 1288.26 136.359C1283.81 137.993 1278.68 138.81 1272.87 138.81Z" fill="#FEFBF2"/>
<path d="M1200.9 137.176V64.7248H1214.11L1214.65 83.9271L1213.43 83.5186C1214.42 76.9816 1216.42 72.2151 1219.42 69.219C1222.5 66.2229 1226.64 64.7248 1231.81 64.7248H1238.76V77.6625H1231.81C1228.18 77.6625 1225.14 78.2527 1222.69 79.433C1220.23 80.6132 1218.37 82.4291 1217.1 84.8804C1215.92 87.3318 1215.33 90.5095 1215.33 94.4135V137.176H1200.9Z" fill="#FEFBF2"/>
<path d="M1157.67 138.81C1150.59 138.81 1144.46 137.267 1139.28 134.18C1134.2 131.093 1130.25 126.69 1127.44 120.97C1124.71 115.25 1123.35 108.577 1123.35 100.95C1123.35 93.324 1124.71 86.6962 1127.44 81.0672C1130.25 75.3474 1134.2 70.944 1139.28 67.8571C1144.37 64.6794 1150.36 63.0906 1157.26 63.0906C1163.8 63.0906 1169.56 64.6341 1174.56 67.7209C1179.55 70.717 1183.41 75.075 1186.13 80.7948C1188.95 86.5147 1190.35 93.4148 1190.35 101.495V105.172H1138.33C1138.69 112.254 1140.56 117.565 1143.92 121.106C1147.37 124.647 1152 126.417 1157.81 126.417C1162.07 126.417 1165.61 125.419 1168.43 123.421C1171.24 121.424 1173.2 118.745 1174.28 115.386L1189.27 116.339C1187.36 123.058 1183.59 128.505 1177.96 132.682C1172.42 136.767 1165.66 138.81 1157.67 138.81ZM1138.33 94.2773H1175.1C1174.65 87.8311 1172.79 83.0646 1169.52 79.9777C1166.34 76.8908 1162.25 75.3474 1157.26 75.3474C1152.09 75.3474 1147.82 76.9816 1144.46 80.2501C1141.19 83.4278 1139.15 88.1035 1138.33 94.2773Z" fill="#FEFBF2"/>
<path d="M1086.49 138.81C1081.5 138.81 1077.05 137.721 1073.15 135.542C1069.34 133.272 1066.38 130.185 1064.3 126.281L1063.89 137.176H1050.41V40.4837H1064.84V74.9388C1066.75 71.7611 1069.56 68.992 1073.28 66.6315C1077.1 64.2709 1081.5 63.0906 1086.49 63.0906C1092.76 63.0906 1098.21 64.6341 1102.84 67.7209C1107.47 70.8078 1111.01 75.2112 1113.46 80.931C1116 86.5601 1117.27 93.2332 1117.27 100.95C1117.27 108.668 1116 115.386 1113.46 121.106C1111.01 126.735 1107.47 131.093 1102.84 134.18C1098.21 137.267 1092.76 138.81 1086.49 138.81ZM1084.18 126.281C1089.72 126.281 1094.12 124.057 1097.39 119.608C1100.66 115.068 1102.29 108.849 1102.29 100.95C1102.29 93.0516 1100.66 86.8778 1097.39 82.4291C1094.12 77.8895 1089.76 75.6198 1084.32 75.6198C1080.23 75.6198 1076.73 76.6185 1073.83 78.6159C1070.92 80.6133 1068.7 83.5186 1067.16 87.3318C1065.61 91.0542 1064.84 95.5938 1064.84 100.95C1064.84 106.125 1065.61 110.62 1067.16 114.433C1068.7 118.246 1070.92 121.197 1073.83 123.285C1076.73 125.282 1080.18 126.281 1084.18 126.281Z" fill="#FEFBF2"/>
<path d="M935.328 137.176V64.7248H948.538L948.946 82.7014L947.312 82.1567C948.129 78.1619 949.536 74.7572 951.534 71.9427C953.622 69.1282 956.164 66.9492 959.16 65.4058C962.156 63.8623 965.425 63.0906 968.966 63.0906C975.14 63.0906 980.178 64.861 984.082 68.4019C987.986 71.8519 990.438 76.6185 991.436 82.7014H989.121C989.938 78.4343 991.3 74.8934 993.207 72.0789C995.204 69.1736 997.746 66.9492 1000.83 65.4058C1003.92 63.8623 1007.42 63.0906 1011.32 63.0906C1016.4 63.0906 1020.72 64.1801 1024.26 66.3591C1027.89 68.4473 1030.61 71.5342 1032.43 75.6198C1034.34 79.7053 1035.29 84.6988 1035.29 90.6003V137.176H1020.85V94.1411C1020.85 87.8765 1019.72 83.1554 1017.45 79.9777C1015.18 76.8 1011.73 75.2112 1007.1 75.2112C1004.1 75.2112 1001.47 75.9829 999.199 77.5264C996.929 79.0698 995.159 81.2942 993.888 84.1995C992.708 87.1048 992.117 90.6002 992.117 94.6858V137.176H978.363V94.6858C978.363 88.5121 977.319 83.7455 975.23 80.3863C973.233 76.9362 969.783 75.2112 964.88 75.2112C961.793 75.2112 959.115 75.9829 956.845 77.5264C954.666 79.0698 952.941 81.3396 951.67 84.3357C950.399 87.241 949.763 90.691 949.763 94.6858V137.176H935.328Z" fill="#FEFBF2"/>
<path d="M892.101 138.81C885.02 138.81 878.891 137.267 873.716 134.18C868.632 131.093 864.682 126.69 861.868 120.97C859.144 115.25 857.782 108.577 857.782 100.95C857.782 93.324 859.144 86.6962 861.868 81.0672C864.682 75.3474 868.632 70.944 873.716 67.8571C878.8 64.6794 884.793 63.0906 891.693 63.0906C898.23 63.0906 903.995 64.6341 908.988 67.7209C913.982 70.717 917.84 75.075 920.564 80.7948C923.379 86.5147 924.786 93.4148 924.786 101.495V105.172H872.763C873.126 112.254 874.987 117.565 878.346 121.106C881.796 124.647 886.427 126.417 892.237 126.417C896.505 126.417 900.045 125.419 902.86 123.421C905.675 121.424 907.627 118.745 908.716 115.386L923.696 116.339C921.79 123.058 918.022 128.505 912.393 132.682C906.855 136.767 900.091 138.81 892.101 138.81ZM872.763 94.2773H909.533C909.079 87.8311 907.218 83.0646 903.949 79.9777C900.772 76.8908 896.686 75.3474 891.693 75.3474C886.518 75.3474 882.25 76.9816 878.891 80.2501C875.623 83.4278 873.58 88.1035 872.763 94.2773Z" fill="#FEFBF2"/>
<path d="M748.032 137.176V40.4837H768.188L796.923 119.88L825.658 40.4837H845.814V137.176H831.106V66.3591L805.094 137.04H788.752L762.74 66.3591V137.176H748.032Z" fill="#FEFBF2"/>
<path d="M672.948 138.81C665.866 138.81 659.738 137.267 654.562 134.18C649.478 131.093 645.529 126.69 642.714 120.97C639.99 115.25 638.629 108.577 638.629 100.95C638.629 93.324 639.99 86.6962 642.714 81.0672C645.529 75.3474 649.478 70.944 654.562 67.8571C659.647 64.6794 665.639 63.0906 672.539 63.0906C679.076 63.0906 684.841 64.6341 689.835 67.7209C694.828 70.717 698.687 75.075 701.411 80.7948C704.225 86.5147 705.632 93.4148 705.632 101.495V105.172H653.609C653.972 112.254 655.834 117.565 659.193 121.106C662.643 124.647 667.273 126.417 673.084 126.417C677.351 126.417 680.892 125.419 683.706 123.421C686.521 121.424 688.473 118.745 689.562 115.386L704.543 116.339C702.636 123.058 698.868 128.505 693.239 132.682C687.701 136.767 680.937 138.81 672.948 138.81ZM653.609 94.2773H690.379C689.926 87.8311 688.064 83.0646 684.796 79.9777C681.618 76.8908 677.533 75.3474 672.539 75.3474C667.364 75.3474 663.097 76.9816 659.738 80.2501C656.469 83.4278 654.426 88.1035 653.609 94.2773Z" fill="#FEFBF2"/>
<path d="M601.625 138.81C594.725 138.81 588.688 137.267 583.513 134.18C578.337 131.093 574.343 126.69 571.528 120.97C568.714 115.25 567.306 108.577 567.306 100.95C567.306 93.324 568.714 86.6962 571.528 81.0672C574.343 75.3474 578.337 70.944 583.513 67.8571C588.688 64.6794 594.725 63.0906 601.625 63.0906C607.527 63.0906 612.747 64.1347 617.287 66.2229C621.917 68.2203 625.64 71.171 628.454 75.075C631.359 78.979 633.221 83.7455 634.038 89.3746L618.921 90.1917C618.195 85.4706 616.288 81.8843 613.201 79.433C610.114 76.8908 606.256 75.6198 601.625 75.6198C595.542 75.6198 590.776 77.8895 587.326 82.4291C583.966 86.8778 582.287 93.0516 582.287 100.95C582.287 108.849 583.966 115.068 587.326 119.608C590.776 124.057 595.542 126.281 601.625 126.281C606.256 126.281 610.114 125.01 613.201 122.468C616.288 119.835 618.195 115.886 618.921 110.62L634.038 111.437C633.221 116.975 631.359 121.787 628.454 125.873C625.64 129.958 621.917 133.136 617.287 135.406C612.747 137.675 607.527 138.81 601.625 138.81Z" fill="#FEFBF2"/>
<path d="M497.02 137.176V64.7248H510.23L510.775 84.0633L509.005 83.11C509.822 78.3889 511.365 74.5757 513.635 71.6703C515.905 68.765 518.674 66.6315 521.942 65.2696C525.211 63.8169 528.752 63.0906 532.565 63.0906C538.012 63.0906 542.507 64.3163 546.047 66.7676C549.679 69.1282 552.403 72.3967 554.219 76.5731C556.125 80.6587 557.079 85.3344 557.079 90.6003V137.176H542.643V94.9582C542.643 90.691 542.189 87.1048 541.281 84.1995C540.373 81.2942 538.875 79.0698 536.787 77.5264C534.699 75.9829 531.975 75.2112 528.616 75.2112C523.531 75.2112 519.4 76.8908 516.223 80.2501C513.045 83.6094 511.456 88.5121 511.456 94.9582V137.176H497.02Z" fill="#FEFBF2"/>
<path d="M453.794 138.81C446.712 138.81 440.584 137.267 435.409 134.18C430.324 131.093 426.375 126.69 423.561 120.97C420.837 115.25 419.475 108.577 419.475 100.95C419.475 93.324 420.837 86.6962 423.561 81.0672C426.375 75.3474 430.324 70.944 435.409 67.8571C440.493 64.6794 446.485 63.0906 453.385 63.0906C459.922 63.0906 465.688 64.6341 470.681 67.7209C475.675 70.717 479.533 75.075 482.257 80.7948C485.071 86.5147 486.479 93.4148 486.479 101.495V105.172H434.455C434.819 112.254 436.68 117.565 440.039 121.106C443.489 124.647 448.119 126.417 453.93 126.417C458.197 126.417 461.738 125.419 464.553 123.421C467.367 121.424 469.319 118.745 470.409 115.386L485.389 116.339C483.483 123.058 479.715 128.505 474.086 132.682C468.547 136.767 461.784 138.81 453.794 138.81ZM434.455 94.2773H471.226C470.772 87.8311 468.911 83.0646 465.642 79.9777C462.464 76.8908 458.379 75.3474 453.385 75.3474C448.21 75.3474 443.943 76.9816 440.584 80.2501C437.315 83.4278 435.273 88.1035 434.455 94.2773Z" fill="#FEFBF2"/>
<path d="M372.268 138.81C366.095 138.81 360.692 137.267 356.062 134.18C351.523 131.093 348.027 126.735 345.576 121.106C343.215 115.386 342.035 108.668 342.035 100.95C342.035 93.2332 343.261 86.5601 345.712 80.931C348.163 75.2112 351.659 70.8078 356.198 67.7209C360.738 64.6341 366.095 63.0906 372.268 63.0906C377.262 63.0906 381.711 64.1347 385.615 66.2229C389.519 68.3111 392.469 71.2164 394.467 74.9388V40.4837H408.902V137.176H395.42L395.011 126.281C393.014 130.185 389.973 133.272 385.887 135.542C381.892 137.721 377.353 138.81 372.268 138.81ZM376.082 126.281C379.986 126.281 383.299 125.282 386.023 123.285C388.747 121.288 390.835 118.382 392.288 114.569C393.74 110.756 394.467 106.216 394.467 100.95C394.467 95.503 393.74 90.918 392.288 87.1956C390.835 83.3824 388.747 80.5225 386.023 78.6159C383.299 76.6185 379.986 75.6198 376.082 75.6198C370.271 75.6198 365.641 77.8895 362.191 82.4291C358.74 86.8778 357.015 93.0516 357.015 100.95C357.015 108.758 358.74 114.932 362.191 119.472C365.641 124.011 370.271 126.281 376.082 126.281Z" fill="#FEFBF2"/>
<path d="M294.02 138.81C286.484 138.81 280.446 137.085 275.907 133.635C271.458 130.185 269.234 125.328 269.234 119.063C269.234 112.799 271.095 107.941 274.817 104.491C278.631 100.95 284.487 98.4083 292.385 96.8648L317.308 92.0983C317.308 86.4693 315.991 82.2929 313.358 79.5692C310.725 76.7546 306.821 75.3474 301.646 75.3474C297.016 75.3474 293.384 76.3915 290.751 78.4797C288.118 80.4771 286.302 83.4732 285.304 87.468L270.459 86.5147C271.821 79.2514 275.181 73.5316 280.537 69.3552C285.985 65.1788 293.021 63.0906 301.646 63.0906C311.452 63.0906 318.896 65.7235 323.981 70.9894C329.156 76.1645 331.743 83.4732 331.743 92.9154V137.176H318.942L318.397 121.106L319.759 121.651C319.123 125.01 317.58 127.961 315.129 130.503C312.677 133.045 309.59 135.088 305.868 136.631C302.236 138.084 298.287 138.81 294.02 138.81ZM296.335 127.371C300.693 127.371 304.415 126.553 307.502 124.919C310.589 123.194 312.995 120.834 314.72 117.838C316.445 114.841 317.308 111.437 317.308 107.624V102.993L296.062 107.079C291.704 107.896 288.618 109.212 286.802 111.028C285.077 112.753 284.214 114.978 284.214 117.701C284.214 120.788 285.258 123.194 287.347 124.919C289.525 126.553 292.522 127.371 296.335 127.371Z" fill="#FEFBF2"/>
<path d="M192.748 137.176V40.4837H207.456V86.6508L248.176 40.4837H266.016L228.974 82.7014L268.468 137.176H251.172L219.168 93.0516L207.456 106.125V137.176H192.748Z" fill="#FEFBF2"/>
</g>
<defs>
<clipPath id="clip0_202_782">
<rect width="1560" height="177" fill="white"/>
</clipPath>
</defs>
</svg>
