<svg width="491.702" height="47.25" viewBox="0.0 4.375 491.702 47.25" fill="none" xmlns="http://www.w3.org/2000/svg">
<g clip-path="url(#clip0_202_716)">
<path d="M0 14.5C0 8.90812 4.53312 4.375 10.125 4.375H37.125C42.7169 4.375 47.25 8.90812 47.25 14.5V41.5C47.25 47.0919 42.7169 51.625 37.125 51.625H10.125C4.53312 51.625 0 47.0919 0 41.5V14.5Z" fill="#1145C9"/>
<path fill-rule="evenodd" clip-rule="evenodd" d="M31.6467 41.4987H24.0463C23.2233 41.4987 22.5553 40.8257 22.5553 39.9969C22.5553 39.1683 23.2233 38.4953 24.0463 38.4953H29.011C29.7858 38.4418 30.3986 37.7912 30.3986 36.9975C30.3986 36.1687 29.7305 35.4959 28.9076 35.4959L21.1388 35.4957C20.317 35.4957 19.6498 34.8238 19.6498 33.9962C19.6498 33.1686 20.317 32.4965 21.1388 32.4965H22.0766L22.0746 32.4946H23.4689C24.2903 32.4946 24.9572 31.8231 24.9572 30.9958C24.9572 30.1686 24.2903 29.4971 23.4689 29.4971H19.9622V29.4957H12.6087C11.7873 29.4957 11.1203 28.8241 11.1203 27.9967C11.1203 27.1694 11.7873 26.4976 12.6087 26.4976H19.9622V26.4935H22.8414C23.662 26.4935 24.3283 25.8225 24.3283 24.9959C24.3283 24.1694 23.662 23.4983 22.8414 23.4983L19.1275 23.4981C18.3058 23.4981 17.6387 22.8261 17.6387 21.9986C17.6387 21.1709 18.3058 20.4989 19.1275 20.4989H26.1881C26.2234 20.4989 26.2582 20.5001 26.2927 20.5025H28.8166C29.6393 20.5025 30.3074 19.8297 30.3074 19.0009C30.3074 18.1722 29.6393 17.4995 28.8166 17.4995H25.1067C24.3345 17.443 23.7248 16.7936 23.7248 16.0018C23.7248 15.1729 24.3927 14.5001 25.2157 14.5001H31.0598C31.0662 14.5001 31.0725 14.5001 31.0795 14.5002H37.97L25.8964 27.7795L40.4999 41.5001H31.6862L31.6841 41.4981C31.6717 41.4986 31.6593 41.4987 31.6467 41.4987ZM17.3409 38.4953C18.161 38.4953 18.8267 39.1658 18.8267 39.9916C18.8267 40.8175 18.161 41.4879 17.3409 41.4879H11.8888C11.0689 41.4879 10.4031 40.8175 10.4031 39.9916C10.4031 39.1658 11.0689 38.4953 11.8888 38.4953H17.3409ZM15.1825 32.4965C16.005 32.4965 16.6727 33.169 16.6727 33.9974C16.6727 34.8256 16.005 35.4982 15.1825 35.4982C14.36 35.4982 13.6922 34.8256 13.6922 33.9974C13.6922 33.169 14.36 32.4965 15.1825 32.4965ZM7.39633 26.4976C8.2189 26.4976 8.88661 27.1701 8.88661 27.9985C8.88661 28.8268 8.2189 29.4993 7.39633 29.4993C6.57389 29.4993 5.90618 28.8268 5.90618 27.9985C5.90618 27.1701 6.57389 26.4976 7.39633 26.4976ZM13.1714 20.4989C13.9938 20.4989 14.6617 21.1714 14.6617 21.9998C14.6617 22.8281 13.9938 23.5005 13.1714 23.5005C12.3489 23.5005 11.6811 22.8281 11.6811 21.9998C11.6811 21.1714 12.3489 20.4989 13.1714 20.4989ZM18.5156 14.5001C19.3357 14.5001 20.0013 15.1705 20.0013 15.9963C20.0013 16.8223 19.3357 17.4927 18.5156 17.4927H15.0693C14.2493 17.4927 13.5836 16.8223 13.5836 15.9963C13.5836 15.1705 14.2492 14.5001 15.0693 14.5001H18.5156Z" fill="#FEFBF2"/>
<path d="M482.308 43.9172C480.154 43.9172 478.33 43.5868 476.836 42.9262C475.371 42.2655 474.237 41.3607 473.433 40.2117C472.628 39.034 472.169 37.6839 472.054 36.1615L476.75 35.946C476.98 37.2099 477.526 38.2153 478.388 38.9622C479.249 39.709 480.556 40.0824 482.308 40.0824C483.745 40.0824 484.879 39.8526 485.712 39.393C486.545 38.9334 486.962 38.2009 486.962 37.1956C486.962 36.6498 486.818 36.1902 486.531 35.8168C486.273 35.4146 485.755 35.0843 484.98 34.8258C484.204 34.5385 483.055 34.2656 481.533 34.0071C479.264 33.5762 477.483 33.0736 476.19 32.4991C474.897 31.9246 473.978 31.1921 473.433 30.3016C472.887 29.4112 472.614 28.334 472.614 27.0701C472.614 24.9732 473.389 23.264 474.941 21.9427C476.52 20.6214 478.79 19.9607 481.748 19.9607C483.73 19.9607 485.396 20.3054 486.746 20.9948C488.097 21.6555 489.145 22.5603 489.892 23.7093C490.667 24.8295 491.156 26.0934 491.357 27.501L486.66 27.7595C486.517 26.9552 486.229 26.2658 485.799 25.6913C485.396 25.0881 484.851 24.6285 484.161 24.3125C483.472 23.9678 482.653 23.7955 481.705 23.7955C480.24 23.7955 479.149 24.0827 478.431 24.6572C477.713 25.2317 477.353 25.9785 477.353 26.8977C477.353 27.5871 477.511 28.1473 477.827 28.5781C478.172 29.009 478.718 29.3681 479.465 29.6553C480.212 29.9138 481.203 30.1436 482.438 30.3447C484.822 30.7469 486.689 31.2495 488.039 31.8528C489.389 32.4273 490.337 33.1454 490.883 34.0071C491.429 34.8689 491.702 35.9173 491.702 37.1525C491.702 38.5887 491.299 39.8095 490.495 40.8149C489.691 41.8203 488.585 42.5958 487.177 43.1416C485.77 43.6587 484.147 43.9172 482.308 43.9172Z" fill="#1E1004"/>
<path d="M448.975 49.8632V20.4777H453.284L453.413 25.3897L452.896 25.1312C453.47 23.4364 454.418 22.1581 455.74 21.2964C457.061 20.4059 458.583 19.9607 460.307 19.9607C462.547 19.9607 464.386 20.5208 465.822 21.6411C467.287 22.7326 468.364 24.1832 469.054 25.9929C469.772 27.8026 470.131 29.7846 470.131 31.9389C470.131 34.0933 469.772 36.0753 469.054 37.885C468.364 39.6946 467.287 41.1596 465.822 42.2799C464.386 43.3714 462.547 43.9172 460.307 43.9172C459.158 43.9172 458.081 43.7161 457.075 43.314C456.07 42.9118 455.208 42.3517 454.49 41.6336C453.801 40.8867 453.312 40.0106 453.025 39.0052L453.542 38.4882V49.8632H448.975ZM459.488 39.9532C461.326 39.9532 462.763 39.2494 463.797 37.8419C464.86 36.4344 465.391 34.4667 465.391 31.9389C465.391 29.4112 464.86 27.4435 463.797 26.036C462.763 24.6285 461.326 23.9247 459.488 23.9247C458.282 23.9247 457.233 24.2263 456.343 24.8295C455.452 25.404 454.763 26.2945 454.275 27.501C453.786 28.7074 453.542 30.1867 453.542 31.9389C453.542 33.6911 453.772 35.1705 454.231 36.3769C454.72 37.5834 455.409 38.4882 456.3 39.0914C457.219 39.6659 458.282 39.9532 459.488 39.9532Z" fill="#1E1004"/>
<path d="M438.865 43.4001V20.4777H443.432V43.4001H438.865ZM438.778 17.16V12.5928H443.518V17.16H438.778Z" fill="#1E1004"/>
<path d="M415.121 43.4001V12.8082H419.688V25.6482L419.128 25.562C419.387 24.2694 419.861 23.221 420.55 22.4167C421.239 21.5836 422.087 20.9661 423.092 20.5639C424.098 20.1618 425.203 19.9607 426.41 19.9607C428.076 19.9607 429.483 20.3341 430.632 21.081C431.781 21.7991 432.643 22.8188 433.218 24.1401C433.821 25.4615 434.123 26.9695 434.123 28.6643V43.4001H429.555V29.8707C429.555 27.8026 429.196 26.2801 428.478 25.3035C427.789 24.2981 426.697 23.7955 425.203 23.7955C423.537 23.7955 422.202 24.3269 421.196 25.3897C420.191 26.4238 419.688 27.9462 419.688 29.9569V43.4001H415.121Z" fill="#1E1004"/>
<path d="M402.399 43.9172C400.244 43.9172 398.42 43.5868 396.926 42.9262C395.462 42.2655 394.327 41.3607 393.523 40.2117C392.718 39.034 392.259 37.6839 392.144 36.1615L396.84 35.946C397.07 37.2099 397.616 38.2153 398.478 38.9622C399.339 39.709 400.646 40.0824 402.399 40.0824C403.835 40.0824 404.969 39.8526 405.802 39.393C406.635 38.9334 407.052 38.2009 407.052 37.1956C407.052 36.6498 406.908 36.1902 406.621 35.8168C406.363 35.4146 405.846 35.0843 405.07 34.8258C404.294 34.5385 403.145 34.2656 401.623 34.0071C399.354 33.5762 397.573 33.0736 396.28 32.4991C394.988 31.9246 394.068 31.1921 393.523 30.3016C392.977 29.4112 392.704 28.334 392.704 27.0701C392.704 24.9732 393.479 23.264 395.031 21.9427C396.611 20.6214 398.88 19.9607 401.838 19.9607C403.82 19.9607 405.486 20.3054 406.837 20.9948C408.187 21.6555 409.235 22.5603 409.982 23.7093C410.757 24.8295 411.246 26.0934 411.447 27.501L406.75 27.7595C406.607 26.9552 406.32 26.2658 405.889 25.6913C405.486 25.0881 404.941 24.6285 404.251 24.3125C403.562 23.9678 402.743 23.7955 401.795 23.7955C400.33 23.7955 399.239 24.0827 398.521 24.6572C397.803 25.2317 397.444 25.9785 397.444 26.8977C397.444 27.5871 397.602 28.1473 397.917 28.5781C398.262 29.009 398.808 29.3681 399.555 29.6553C400.302 29.9138 401.293 30.1436 402.528 30.3447C404.912 30.7469 406.779 31.2495 408.129 31.8528C409.479 32.4273 410.427 33.1454 410.973 34.0071C411.519 34.8689 411.792 35.9173 411.792 37.1525C411.792 38.5887 411.389 39.8095 410.585 40.8149C409.781 41.8203 408.675 42.5958 407.267 43.1416C405.86 43.6587 404.237 43.9172 402.399 43.9172Z" fill="#1E1004"/>
<path d="M379.626 43.4001V20.4777H383.806L383.978 26.553L383.59 26.4238C383.906 24.3556 384.538 22.8475 385.486 21.8996C386.463 20.9517 387.77 20.4777 389.407 20.4777H391.605V24.571H389.407C388.258 24.571 387.296 24.7577 386.52 25.1312C385.745 25.5046 385.156 26.0791 384.754 26.8546C384.38 27.6302 384.194 28.6356 384.194 29.8707V43.4001H379.626Z" fill="#1E1004"/>
<path d="M365.95 43.9172C363.71 43.9172 361.771 43.4289 360.133 42.4522C358.525 41.4756 357.275 40.0824 356.385 38.2728C355.523 36.4631 355.092 34.3518 355.092 31.9389C355.092 29.526 355.523 27.4291 356.385 25.6482C357.275 23.8385 358.525 22.4454 360.133 21.4687C361.742 20.4634 363.638 19.9607 365.821 19.9607C367.889 19.9607 369.713 20.449 371.293 21.4257C372.873 22.3736 374.094 23.7524 374.955 25.562C375.846 27.3717 376.291 29.5548 376.291 32.1113V33.2746H359.832C359.947 35.5152 360.536 37.1956 361.598 38.3158C362.69 39.4361 364.155 39.9962 365.993 39.9962C367.343 39.9962 368.464 39.6803 369.354 39.0483C370.244 38.4164 370.862 37.569 371.207 36.5062L375.946 36.8078C375.343 38.9334 374.151 40.6569 372.37 41.9783C370.618 43.2709 368.478 43.9172 365.95 43.9172ZM359.832 29.8277H371.465C371.322 27.7882 370.733 26.2801 369.699 25.3035C368.693 24.3269 367.401 23.8385 365.821 23.8385C364.184 23.8385 362.833 24.3556 361.771 25.3897C360.737 26.395 360.09 27.8744 359.832 29.8277Z" fill="#1E1004"/>
<path d="M343.431 43.9172C341.851 43.9172 340.444 43.5725 339.209 42.8831C338.002 42.165 337.069 41.1883 336.408 39.9532L336.279 43.4001H332.013V12.8082H336.58V23.7093C337.184 22.7039 338.074 21.8278 339.252 21.081C340.458 20.3341 341.851 19.9607 343.431 19.9607C345.413 19.9607 347.137 20.449 348.602 21.4257C350.067 22.4023 351.187 23.7954 351.963 25.6051C352.767 27.3861 353.169 29.4973 353.169 31.9389C353.169 34.3805 352.767 36.5062 351.963 38.3158C351.187 40.0968 350.067 41.4756 348.602 42.4522C347.137 43.4289 345.413 43.9172 343.431 43.9172ZM342.699 39.9532C344.451 39.9532 345.844 39.2494 346.878 37.8419C347.912 36.4056 348.429 34.438 348.429 31.9389C348.429 29.4399 347.912 27.4866 346.878 26.0791C345.844 24.6428 344.465 23.9247 342.742 23.9247C341.449 23.9247 340.343 24.2407 339.424 24.8726C338.505 25.5046 337.801 26.4238 337.313 27.6302C336.825 28.8079 336.58 30.2442 336.58 31.9389C336.58 33.5762 336.825 34.9981 337.313 36.2046C337.801 37.411 338.505 38.3446 339.424 39.0052C340.343 39.6372 341.435 39.9532 342.699 39.9532Z" fill="#1E1004"/>
<path d="M295.605 43.4001V20.4777H299.784L299.913 26.1652L299.396 25.9929C299.655 24.729 300.1 23.6518 300.732 22.7614C301.393 21.8709 302.197 21.1815 303.145 20.6932C304.093 20.2048 305.127 19.9607 306.247 19.9607C308.2 19.9607 309.795 20.5208 311.03 21.6411C312.265 22.7326 313.04 24.2407 313.356 26.1652H312.624C312.883 24.8152 313.313 23.6949 313.917 22.8044C314.549 21.8852 315.353 21.1815 316.329 20.6932C317.306 20.2048 318.412 19.9607 319.647 19.9607C321.256 19.9607 322.62 20.3054 323.74 20.9948C324.889 21.6555 325.751 22.6321 326.326 23.9247C326.929 25.2173 327.231 26.7972 327.231 28.6643V43.4001H322.663V29.7846C322.663 27.8026 322.304 26.3089 321.586 25.3035C320.868 24.2981 319.776 23.7955 318.312 23.7955C317.364 23.7955 316.531 24.0396 315.812 24.5279C315.094 25.0163 314.534 25.72 314.132 26.6392C313.759 27.5584 313.572 28.6643 313.572 29.9569V43.4001H309.22V29.9569C309.22 28.0036 308.89 26.4956 308.229 25.4328C307.597 24.3412 306.506 23.7955 304.954 23.7955C303.978 23.7955 303.13 24.0396 302.412 24.5279C301.723 25.0163 301.177 25.7344 300.775 26.6823C300.373 27.6015 300.172 28.693 300.172 29.9569V43.4001H295.605Z" fill="#1E1004"/>
<path d="M281.928 43.9172C279.688 43.9172 277.749 43.4289 276.112 42.4522C274.503 41.4756 273.253 40.0824 272.363 38.2728C271.501 36.4631 271.07 34.3518 271.07 31.9389C271.07 29.526 271.501 27.4291 272.363 25.6482C273.253 23.8385 274.503 22.4454 276.112 21.4687C277.72 20.4634 279.616 19.9607 281.799 19.9607C283.867 19.9607 285.691 20.449 287.271 21.4257C288.851 22.3736 290.072 23.7524 290.934 25.562C291.824 27.3717 292.269 29.5548 292.269 32.1113V33.2746H275.81C275.925 35.5152 276.514 37.1956 277.577 38.3158C278.668 39.4361 280.133 39.9962 281.971 39.9962C283.322 39.9962 284.442 39.6803 285.332 39.0483C286.223 38.4164 286.84 37.569 287.185 36.5062L291.925 36.8078C291.321 38.9334 290.129 40.6569 288.348 41.9783C286.596 43.2709 284.456 43.9172 281.928 43.9172ZM275.81 29.8277H287.444C287.3 27.7882 286.711 26.2801 285.677 25.3035C284.672 24.3269 283.379 23.8385 281.799 23.8385C280.162 23.8385 278.812 24.3556 277.749 25.3897C276.715 26.395 276.069 27.8744 275.81 29.8277Z" fill="#1E1004"/>
<path d="M236.347 43.4001V12.8082H242.724L251.815 37.9281L260.907 12.8082H267.284V43.4001H262.63V20.9948L254.401 43.357H249.23L241.001 20.9948V43.4001H236.347Z" fill="#1E1004"/>
<path d="M212.592 43.9172C210.351 43.9172 208.412 43.4289 206.775 42.4522C205.166 41.4756 203.917 40.0824 203.026 38.2728C202.164 36.4631 201.734 34.3518 201.734 31.9389C201.734 29.526 202.164 27.4291 203.026 25.6482C203.917 23.8385 205.166 22.4454 206.775 21.4687C208.383 20.4634 210.279 19.9607 212.462 19.9607C214.531 19.9607 216.355 20.449 217.934 21.4257C219.514 22.3736 220.735 23.7524 221.597 25.562C222.487 27.3717 222.933 29.5548 222.933 32.1113V33.2746H206.473C206.588 35.5152 207.177 37.1956 208.24 38.3158C209.331 39.4361 210.796 39.9962 212.635 39.9962C213.985 39.9962 215.105 39.6803 215.996 39.0483C216.886 38.4164 217.504 37.569 217.848 36.5062L222.588 36.8078C221.985 38.9334 220.793 40.6569 219.012 41.9783C217.259 43.2709 215.119 43.9172 212.592 43.9172ZM206.473 29.8277H218.107C217.963 27.7882 217.374 26.2801 216.34 25.3035C215.335 24.3269 214.042 23.8385 212.462 23.8385C210.825 23.8385 209.475 24.3556 208.412 25.3897C207.378 26.395 206.732 27.8744 206.473 29.8277Z" fill="#1E1004"/>
<path d="M190.026 43.9172C187.843 43.9172 185.933 43.4289 184.296 42.4522C182.658 41.4756 181.395 40.0824 180.504 38.2728C179.614 36.4631 179.168 34.3518 179.168 31.9389C179.168 29.526 179.614 27.4291 180.504 25.6482C181.395 23.8385 182.658 22.4454 184.296 21.4687C185.933 20.4634 187.843 19.9607 190.026 19.9607C191.893 19.9607 193.545 20.291 194.981 20.9517C196.446 21.5836 197.624 22.5172 198.515 23.7524C199.434 24.9875 200.023 26.4956 200.281 28.2765L195.498 28.535C195.269 27.0414 194.665 25.9067 193.689 25.1312C192.712 24.3269 191.491 23.9247 190.026 23.9247C188.102 23.9247 186.594 24.6428 185.502 26.0791C184.439 27.4866 183.908 29.4399 183.908 31.9389C183.908 34.438 184.439 36.4056 185.502 37.8419C186.594 39.2494 188.102 39.9532 190.026 39.9532C191.491 39.9532 192.712 39.551 193.689 38.7467C194.665 37.9137 195.269 36.6642 195.498 34.9981L200.281 35.2567C200.023 37.0089 199.434 38.5313 198.515 39.8239C197.624 41.1165 196.446 42.1219 194.981 42.84C193.545 43.5581 191.893 43.9172 190.026 43.9172Z" fill="#1E1004"/>
<path d="M156.931 43.4001V20.4777H161.11L161.283 26.5961L160.723 26.2945C160.981 24.8008 161.47 23.5944 162.188 22.6752C162.906 21.756 163.782 21.081 164.816 20.6501C165.85 20.1905 166.97 19.9607 168.177 19.9607C169.9 19.9607 171.322 20.3485 172.442 21.124C173.591 21.8709 174.453 22.905 175.028 24.2263C175.631 25.5189 175.932 26.9983 175.932 28.6643V43.4001H171.365V30.0431C171.365 28.693 171.222 27.5584 170.934 26.6392C170.647 25.72 170.173 25.0163 169.512 24.5279C168.852 24.0396 167.99 23.7955 166.927 23.7955C165.319 23.7955 164.012 24.3269 163.006 25.3897C162.001 26.4525 161.498 28.0036 161.498 30.0431V43.4001H156.931Z" fill="#1E1004"/>
<path d="M143.255 43.9172C141.014 43.9172 139.075 43.4289 137.438 42.4522C135.829 41.4756 134.58 40.0824 133.689 38.2728C132.828 36.4631 132.397 34.3518 132.397 31.9389C132.397 29.526 132.828 27.4291 133.689 25.6482C134.58 23.8385 135.829 22.4454 137.438 21.4687C139.047 20.4634 140.943 19.9607 143.126 19.9607C145.194 19.9607 147.018 20.449 148.598 21.4257C150.178 22.3736 151.398 23.7524 152.26 25.562C153.151 27.3717 153.596 29.5548 153.596 32.1113V33.2746H137.136C137.251 35.5152 137.84 37.1956 138.903 38.3158C139.995 39.4361 141.46 39.9962 143.298 39.9962C144.648 39.9962 145.768 39.6803 146.659 39.0483C147.549 38.4164 148.167 37.569 148.511 36.5062L153.251 36.8078C152.648 38.9334 151.456 40.6569 149.675 41.9783C147.923 43.2709 145.783 43.9172 143.255 43.9172ZM137.136 29.8277H148.77C148.626 27.7882 148.038 26.2801 147.003 25.3035C145.998 24.3269 144.705 23.8385 143.126 23.8385C141.488 23.8385 140.138 24.3556 139.075 25.3897C138.041 26.395 137.395 27.8744 137.136 29.8277Z" fill="#1E1004"/>
<path d="M117.461 43.9172C115.508 43.9172 113.799 43.4289 112.334 42.4522C110.898 41.4756 109.792 40.0968 109.016 38.3158C108.269 36.5062 107.896 34.3805 107.896 31.9389C107.896 29.4973 108.284 27.3861 109.059 25.6051C109.835 23.7954 110.941 22.4023 112.377 21.4257C113.813 20.449 115.508 19.9607 117.461 19.9607C119.041 19.9607 120.449 20.291 121.684 20.9517C122.919 21.6124 123.853 22.5316 124.485 23.7093V12.8082H129.052V43.4001H124.786L124.657 39.9532C124.025 41.1883 123.063 42.165 121.77 42.8831C120.506 43.5725 119.07 43.9172 117.461 43.9172ZM118.668 39.9532C119.903 39.9532 120.951 39.6372 121.813 39.0052C122.675 38.3733 123.336 37.4541 123.795 36.2477C124.255 35.0412 124.485 33.605 124.485 31.9389C124.485 30.2154 124.255 28.7648 123.795 27.5871C123.336 26.3807 122.675 25.4759 121.813 24.8726C120.951 24.2407 119.903 23.9247 118.668 23.9247C116.829 23.9247 115.365 24.6428 114.273 26.0791C113.181 27.4866 112.636 29.4399 112.636 31.9389C112.636 34.4093 113.181 36.3626 114.273 37.7988C115.365 39.235 116.829 39.9532 118.668 39.9532Z" fill="#1E1004"/>
<path d="M92.7048 43.9172C90.3206 43.9172 88.4104 43.3714 86.9742 42.2799C85.5667 41.1883 84.8629 39.6515 84.8629 37.6695C84.8629 35.6875 85.4518 34.1507 86.6295 33.0592C87.8359 31.9389 89.6887 31.1346 92.1877 30.6463L100.073 29.1383C100.073 27.3573 99.6562 26.036 98.8232 25.1742C97.9902 24.2838 96.755 23.8385 95.1177 23.8385C93.6527 23.8385 92.5037 24.1689 91.6707 24.8295C90.8377 25.4615 90.2632 26.4094 89.9472 27.6733L85.2507 27.3717C85.6816 25.0737 86.7444 23.264 88.4392 21.9427C90.1626 20.6214 92.3888 19.9607 95.1177 19.9607C98.22 19.9607 100.575 20.7937 102.184 22.4597C103.821 24.0971 104.64 26.4094 104.64 29.3968V43.4001H100.59L100.417 38.3158L100.848 38.4882C100.647 39.551 100.159 40.4846 99.3833 41.2889C98.6077 42.0932 97.6311 42.7395 96.4534 43.2278C95.3044 43.6874 94.0549 43.9172 92.7048 43.9172ZM93.4373 40.2979C94.8161 40.2979 95.9938 40.0393 96.9704 39.5223C97.9471 38.9765 98.7083 38.2297 99.2541 37.2817C99.7998 36.3338 100.073 35.2567 100.073 34.0502V32.5852L93.3511 33.8779C91.9723 34.1364 90.9957 34.5529 90.4212 35.1274C89.8754 35.6732 89.6025 36.3769 89.6025 37.2387C89.6025 38.2153 89.9329 38.9765 90.5935 39.5223C91.2829 40.0393 92.2308 40.2979 93.4373 40.2979Z" fill="#1E1004"/>
<path d="M60.6641 43.4001V12.8082H65.3175V27.4148L78.2006 12.8082H83.845L72.1253 26.1652L84.6206 43.4001H79.1485L69.023 29.4399L65.3175 33.5762V43.4001H60.6641Z" fill="#1E1004"/>
</g>
<defs>
<clipPath id="clip0_202_716">
<rect width="493" height="56" fill="white"/>
</clipPath>
</defs>
</svg>
