<svg width="810" height="268" viewBox="0 0 810 268" fill="none" xmlns="http://www.w3.org/2000/svg">
<mask id="mask0_14_66" style="mask-type:alpha" maskUnits="userSpaceOnUse" x="0" y="0" width="810" height="268">
<rect x="0.5" y="0.5" width="809" height="267" rx="7.5" fill="white" stroke="#7B61FF"/>
</mask>
<g mask="url(#mask0_14_66)">
<rect x="580.309" y="-163" width="414" height="187" transform="rotate(27.4868 580.309 -163)" fill="#F5F8FB"/>
</g>
<g clip-path="url(#clip0_14_66)" filter="url(#filter0_d_14_66)">
<path d="M786 16H643.73C642.741 16 641.792 16.393 641.092 17.0925C640.393 17.792 640 18.7407 640 19.73V46.27C640 47.2593 640.393 48.208 641.092 48.9075C641.792 49.607 642.741 50 643.73 50H786C787.061 50 788.078 49.5786 788.828 48.8284C789.579 48.0783 790 47.0609 790 46V20C790 18.9391 789.579 17.9217 788.828 17.1716C788.078 16.4214 787.061 16 786 16V16ZM789 46C789 46.7956 788.684 47.5587 788.121 48.1213C787.559 48.6839 786.796 49 786 49H643.73C643.007 48.9974 642.314 48.7089 641.803 48.1975C641.291 47.6861 641.003 46.9932 641 46.27V19.73C641.003 19.0068 641.291 18.3139 641.803 17.8025C642.314 17.2911 643.007 17.0026 643.73 17H786C786.796 17 787.559 17.3161 788.121 17.8787C788.684 18.4413 789 19.2044 789 20V46Z" fill="#635BFF"/>
<path d="M657.07 27.24H652.77V38H654.69V33.84H657.07C659.47 33.84 660.97 32.68 660.97 30.54C660.97 28.4 659.47 27.24 657.07 27.24ZM656.97 32.24H654.69V28.94H657C658.38 28.94 659.11 29.53 659.11 30.59C659.11 31.65 658.35 32.19 657 32.19L656.97 32.24Z" fill="#635BFF"/>
<path d="M665.1 30C664.574 29.9939 664.053 30.0978 663.57 30.3051C663.087 30.5124 662.652 30.8185 662.294 31.2037C661.937 31.5888 661.663 32.0446 661.492 32.5417C661.321 33.0387 661.255 33.5661 661.3 34.09C661.253 34.6167 661.316 35.1474 661.486 35.6484C661.655 36.1493 661.927 36.6095 662.284 36.9996C662.641 37.3898 663.075 37.7013 663.559 37.9145C664.043 38.1277 664.566 38.2377 665.095 38.2377C665.624 38.2377 666.147 38.1277 666.631 37.9145C667.115 37.7013 667.549 37.3898 667.906 36.9996C668.263 36.6095 668.535 36.1493 668.704 35.6484C668.874 35.1474 668.937 34.6167 668.89 34.09C668.936 33.5667 668.872 33.0395 668.702 32.5424C668.532 32.0453 668.26 31.5894 667.902 31.2041C667.545 30.8187 667.112 30.5125 666.629 30.3051C666.146 30.0977 665.625 29.9938 665.1 30ZM665.1 36.67C663.88 36.67 663.1 35.67 663.1 34.09C663.1 32.51 663.86 31.51 665.1 31.51C666.34 31.51 667.1 32.51 667.1 34.09C667.1 35.67 666.31 36.66 665.1 36.66V36.67Z" fill="#635BFF"/>
<path d="M676.78 35.35L675.37 30.13H673.89L672.49 35.35L671.07 30.13H669.22L671.59 38.01H673.15L674.59 32.85L676.03 38.01H677.59L679.96 30.13H678.18L676.78 35.35Z" fill="#635BFF"/>
<path d="M684 30C683.481 30.0096 682.97 30.1246 682.497 30.3379C682.024 30.5513 681.599 30.8585 681.248 31.241C680.897 31.6235 680.628 32.0733 680.457 32.563C680.285 33.0528 680.215 33.5723 680.25 34.09C680.208 34.6157 680.277 35.1444 680.451 35.6422C680.625 36.14 680.901 36.596 681.262 36.9809C681.622 37.3659 682.059 37.6714 682.544 37.8778C683.03 38.0843 683.553 38.1872 684.08 38.18C684.805 38.2191 685.524 38.0297 686.136 37.6386C686.747 37.2476 687.221 36.6744 687.49 36L686 35.38C685.883 35.7664 685.638 36.1016 685.306 36.3306C684.973 36.5595 684.573 36.6686 684.17 36.64C683.883 36.6468 683.598 36.5954 683.332 36.4888C683.065 36.3821 682.823 36.2226 682.62 36.0197C682.417 35.8168 682.258 35.5748 682.151 35.3085C682.045 35.0421 681.993 34.7568 682 34.47H687.52V33.87C687.54 31.71 686.32 30 684 30ZM682.07 33.13C682.14 32.6708 682.374 32.2526 682.729 31.9529C683.084 31.6532 683.536 31.4923 684 31.5C684.221 31.4813 684.443 31.5099 684.652 31.5837C684.86 31.6576 685.051 31.775 685.211 31.9283C685.371 32.0815 685.496 32.2671 685.579 32.4726C685.661 32.678 685.699 32.8987 685.69 33.12L682.07 33.13Z" fill="#635BFF"/>
<path d="M690.69 31.3V30.13H688.89V38H690.69V33.87C690.674 33.6032 690.715 33.336 690.81 33.0861C690.904 32.8361 691.051 32.6092 691.24 32.4202C691.429 32.2311 691.656 32.0844 691.906 31.9895C692.156 31.8947 692.423 31.854 692.69 31.87C692.91 31.8545 693.13 31.8545 693.35 31.87V30.07C693.21 30.07 693.05 30.07 692.84 30.07C692.401 30.0473 691.966 30.1511 691.584 30.3692C691.203 30.5873 690.893 30.9104 690.69 31.3Z" fill="#635BFF"/>
<path d="M697.48 30C696.961 30.0096 696.45 30.1246 695.977 30.3379C695.504 30.5513 695.079 30.8585 694.728 31.241C694.377 31.6235 694.108 32.0733 693.937 32.563C693.765 33.0528 693.695 33.5723 693.73 34.09C693.688 34.6157 693.757 35.1444 693.931 35.6422C694.105 36.14 694.381 36.596 694.742 36.9809C695.102 37.3659 695.539 37.6714 696.024 37.8778C696.51 38.0843 697.033 38.1872 697.56 38.18C698.278 38.2106 698.988 38.0172 699.592 37.6267C700.196 37.2361 700.663 36.6677 700.93 36L699.39 35.41C699.273 35.7964 699.028 36.1316 698.696 36.3606C698.363 36.5895 697.963 36.6986 697.56 36.67C697.279 36.6674 697.001 36.609 696.743 36.4982C696.485 36.3874 696.251 36.2263 696.056 36.0244C695.861 35.8225 695.707 35.5837 695.605 35.322C695.503 35.0603 695.453 34.7809 695.46 34.5H701V33.9C701 31.71 699.76 30 697.48 30ZM695.55 33.13C695.622 32.6744 695.856 32.2599 696.208 31.9624C696.561 31.6649 697.009 31.5043 697.47 31.51C697.691 31.4913 697.913 31.5199 698.122 31.5937C698.33 31.6676 698.521 31.785 698.681 31.9383C698.841 32.0915 698.966 32.2771 699.049 32.4826C699.131 32.688 699.169 32.9087 699.16 33.13H695.55Z" fill="#635BFF"/>
<path d="M707.56 31C707.283 30.6744 706.935 30.4154 706.544 30.2423C706.153 30.0692 705.728 29.9864 705.3 30C703.09 30 701.83 31.85 701.83 34.09C701.83 36.33 703.09 38.18 705.3 38.18C705.728 38.1958 706.154 38.114 706.545 37.9407C706.937 37.7675 707.284 37.5073 707.56 37.18V38H709.36V27.24H707.56V31ZM707.56 34.35C707.6 34.6351 707.579 34.9256 707.496 35.2016C707.414 35.4775 707.273 35.7325 707.083 35.949C706.893 36.1654 706.659 36.3384 706.396 36.4559C706.133 36.5734 705.848 36.6328 705.56 36.63C704.25 36.63 703.56 35.63 703.56 34.11C703.56 32.59 704.26 31.59 705.56 31.59C706.67 31.59 707.56 32.4 707.56 33.88V34.35Z" fill="#635BFF"/>
<path d="M719.31 30C718.874 29.9809 718.44 30.061 718.04 30.2343C717.64 30.4075 717.284 30.6693 717 31V27.24H715.2V38H717V37.17C717.279 37.4964 717.628 37.7558 718.021 37.9289C718.414 38.102 718.841 38.1844 719.27 38.17C721.47 38.17 722.73 36.31 722.73 34.08C722.73 31.85 721.51 30 719.31 30ZM719 36.6C718.712 36.6028 718.427 36.5434 718.164 36.4259C717.901 36.3084 717.667 36.1354 717.477 35.919C717.287 35.7025 717.146 35.4475 717.064 35.1716C716.981 34.8956 716.96 34.6051 717 34.32V33.85C717 32.37 717.84 31.56 719 31.56C720.3 31.56 721 32.56 721 34.08C721 35.6 720.25 36.6 719 36.6Z" fill="#635BFF"/>
<path d="M726.93 35.66L725 30.13H723.1L726 37.72L725.7 38.46C725.649 38.7135 725.502 38.9375 725.289 39.0848C725.077 39.2321 724.815 39.2913 724.56 39.25C724.36 39.2646 724.16 39.2646 723.96 39.25V40.76C724.202 40.7959 724.446 40.8127 724.69 40.81C725.314 40.8554 725.935 40.68 726.443 40.3144C726.951 39.9489 727.315 39.4164 727.47 38.81L730.71 30.19H728.82L726.93 35.66Z" fill="#635BFF"/>
<path d="M765 28.43C764.605 28.4277 764.214 28.5034 763.848 28.6527C763.483 28.802 763.15 29.022 762.87 29.3L762.73 28.61H760.34V41.53L763.06 40.94V37.81C763.601 38.2631 764.284 38.5109 764.99 38.51C766.93 38.51 768.71 36.92 768.71 33.4C768.71 30.18 766.91 28.43 765 28.43ZM764.35 36.06C764.111 36.0738 763.873 36.0342 763.651 35.9443C763.43 35.8543 763.231 35.7162 763.07 35.54V31.43C763.232 31.2473 763.433 31.1031 763.658 31.008C763.883 30.9128 764.126 30.8691 764.37 30.88C765.37 30.88 766.05 32.01 766.05 33.46C766.05 34.91 765.36 36.06 764.35 36.06Z" fill="#635BFF"/>
<path d="M773.73 28.43C771.11 28.43 769.52 30.69 769.52 33.54C769.52 36.91 771.4 38.62 774.08 38.62C775.126 38.6371 776.159 38.3857 777.08 37.89V35.64C776.243 36.0621 775.317 36.2748 774.38 36.26C773.3 36.26 772.38 35.87 772.24 34.56H777.62C777.62 34.41 777.62 33.82 777.62 33.56C777.71 30.69 776.35 28.43 773.73 28.43ZM772.26 32.5C772.26 31.24 773.03 30.71 773.71 30.71C774.39 30.71 775.11 31.24 775.11 32.5H772.26Z" fill="#635BFF"/>
<path d="M753 29.36L752.83 28.54H750.51V38.25H753.19V31.67C753.432 31.3761 753.758 31.1632 754.124 31.0595C754.491 30.9559 754.88 30.9665 755.24 31.09V28.54C754.831 28.3797 754.377 28.3746 753.965 28.5257C753.552 28.6767 753.209 28.9735 753 29.36Z" fill="#635BFF"/>
<path d="M739.46 31.46C739.46 31.02 739.82 30.85 740.39 30.85C741.335 30.8703 742.261 31.1173 743.09 31.57V28.94C742.233 28.5933 741.315 28.42 740.39 28.43C738.18 28.43 736.71 29.61 736.71 31.59C736.71 34.69 740.85 34.19 740.85 35.52C740.85 36.04 740.41 36.21 739.85 36.21C738.793 36.1483 737.766 35.84 736.85 35.31V38C737.794 38.4211 738.816 38.6391 739.85 38.64C742.11 38.64 743.67 37.49 743.67 35.48C743.62 32.12 739.46 32.72 739.46 31.46Z" fill="#635BFF"/>
<path d="M747.28 26.24L744.63 26.82V35.75C744.616 36.1263 744.68 36.5015 744.816 36.8526C744.952 37.2036 745.158 37.5233 745.422 37.7919C745.686 38.0605 746.002 38.2725 746.351 38.4148C746.699 38.5572 747.073 38.627 747.45 38.62C748.107 38.6494 748.762 38.5226 749.36 38.25V36C749.01 36.15 747.3 36.66 747.3 35V31H749.36V28.66H747.3L747.28 26.24Z" fill="#635BFF"/>
<path d="M756.25 27.7L758.98 27.13V24.97L756.25 25.54V27.7Z" fill="#635BFF"/>
<path d="M758.98 28.61H756.25V38.25H758.98V28.61Z" fill="#635BFF"/>
</g>
<path d="M708.7 140L867.245 223.319L863.534 247.352L704.988 164.032L708.7 140Z" fill="#7EB3F3"/>
<path d="M690.7 105L849.245 188.319L845.534 212.352L686.988 129.032L690.7 105Z" fill="#BDEEFD"/>
<path d="M745.7 108L904.245 191.319L900.534 215.352L741.988 132.032L745.7 108Z" fill="#3A3F62"/>
<defs>
<filter id="filter0_d_14_66" x="616" y="0" width="198" height="82" filterUnits="userSpaceOnUse" color-interpolation-filters="sRGB">
<feFlood flood-opacity="0" result="BackgroundImageFix"/>
<feColorMatrix in="SourceAlpha" type="matrix" values="0 0 0 0 0 0 0 0 0 0 0 0 0 0 0 0 0 0 127 0" result="hardAlpha"/>
<feOffset dy="8"/>
<feGaussianBlur stdDeviation="12"/>
<feComposite in2="hardAlpha" operator="out"/>
<feColorMatrix type="matrix" values="0 0 0 0 0.117647 0 0 0 0 0.137255 0 0 0 0 0.152941 0 0 0 0.6 0"/>
<feBlend mode="normal" in2="BackgroundImageFix" result="effect1_dropShadow_14_66"/>
<feBlend mode="normal" in="SourceGraphic" in2="effect1_dropShadow_14_66" result="shape"/>
</filter>
<clipPath id="clip0_14_66">
<rect width="150" height="34" fill="white" transform="translate(640 16)"/>
</clipPath>
</defs>
</svg>
