<svg xmlns="http://www.w3.org/2000/svg" width="46.797" height="43.472" viewBox="0 0 46.797 43.472"><g transform="translate(-585.252 -337.898)"><path d="M588.128,348.784c0-1.6.08-2.9-.022-4.18-.11-1.388.442-1.783,1.781-1.771,6.111.054,12.239.311,18.325-.08,3.955-.254,7.857-1.445,11.762-2.308,2.392-.528,4.746-1.231,7.43-1.937.777,2.822,1.47,5.556,2.31,8.244a12.465,12.465,0,0,0,1.356,2.1,2.954,2.954,0,0,1,.439,1.374c.025,9.686,0,19.372.039,29.057,0,1.176-.359,1.585-1.561,1.582q-21.354-.048-42.709,0c-1.259,0-1.513-.514-1.509-1.632.03-9.62.054-19.242-.019-28.862C585.739,348.681,586.675,348.64,588.128,348.784Zm.075,1.344c.857.9,1.328,1.415,1.827,1.906q6.109,6.023,12.224,12.038c1.662,1.639,3.323,3.28,4.953,4.95,1.039,1.064,1.927.989,2.975-.049,6.046-5.992,12.129-11.947,18.188-17.925a3.81,3.81,0,0,0,.469-.92Zm14.607,15.491-14.216,13.552.321.462h40.31l-14.7-13.985c-1.249,1.452-2.278,2.8-3.461,3.987-1.672,1.682-3.232,1.662-4.85-.033C605.056,368.391,604.029,367.056,602.81,365.619Zm-15.675,12.952a3.781,3.781,0,0,0,.776-.355c4.274-3.987,8.525-8,12.82-11.964.942-.869.684-1.446-.1-2.22-4.069-4.022-8.1-8.085-12.154-12.119a11.319,11.319,0,0,0-1.344-.96Zm42.967.352v-28c-4.885,4.8-9.414,9.215-13.873,13.7-.208.209.038,1.2.369,1.554,1.066,1.128,2.288,2.105,3.419,3.174C623.262,372.416,626.492,375.495,630.1,378.923Zm-13.2-32.228,6.626-1.722c1.582,4.164,1.737,4.261,5.453,3.479-.609-2.246-1.323-4.461-1.788-6.728-.347-1.692-1.142-1.83-2.616-1.427-6.5,1.778-13.029,3.46-19.544,5.188-3.457.916-6.907,1.855-10.361,2.784l.073.364H616.9Zm-27.475,1.744,15.1-3.974-.088-.552c-4.69,0-9.381-.02-14.071.043-.318,0-.858.6-.9.961A32.805,32.805,0,0,0,589.429,348.439Zm33.754.3c0-2.3-.274-2.535-2.167-2.051a13.192,13.192,0,0,0-2.033.628c-.279.122-.435.522-.648.8.277.209.545.585.832.6C620.5,348.778,621.847,348.742,623.183,348.742Z" transform="translate(0 0)" fill="#222222" stroke="#222222" stroke-width="1"/></g></svg>