<svg xmlns="http://www.w3.org/2000/svg" width="48.771" height="31.036" viewBox="0 0 48.771 31.036"><path d="M34.753,20.8A6.651,6.651,0,1,0,28.1,14.151,6.623,6.623,0,0,0,34.753,20.8Zm-17.735,0a6.651,6.651,0,1,0-6.651-6.651A6.623,6.623,0,0,0,17.018,20.8Zm0,4.434c-5.165,0-15.518,2.594-15.518,7.759v5.542H32.536V32.994C32.536,27.829,22.183,25.235,17.018,25.235Zm17.735,0c-.643,0-1.374.044-2.15.111,2.572,1.862,4.367,4.367,4.367,7.648v5.542h13.3V32.994C50.271,27.829,39.918,25.235,34.753,25.235Z" transform="translate(-1.5 -7.5)" fill="#222222"/></svg>