<svg xmlns="http://www.w3.org/2000/svg" width="47.5" height="36" viewBox="0 0 47.5 36"><g transform="translate(-652.087 -334.245)"><path d="M22.047,8.414,14.737.539a1.688,1.688,0,0,0-2.473,0L4.953,8.414A1.689,1.689,0,0,0,6.189,11.25h4.5V30.375h-5.9a.844.844,0,0,0-.6.247L.249,34.56A.844.844,0,0,0,.845,36h13.78a1.687,1.687,0,0,0,1.688-1.687V11.25h4.5a1.689,1.689,0,0,0,1.237-2.836Z" transform="translate(652.087 334.245)" fill="#222222"/><path d="M22.047,8.414,14.737.539a1.688,1.688,0,0,0-2.473,0L4.953,8.414A1.689,1.689,0,0,0,6.189,11.25h4.5V30.375h-5.9a.844.844,0,0,0-.6.247L.249,34.56A.844.844,0,0,0,.845,36h13.78a1.687,1.687,0,0,0,1.688-1.687V11.25h4.5a1.689,1.689,0,0,0,1.237-2.836Z" transform="translate(699.587 370.245) rotate(180)" fill="#222222"/></g></svg>