<svg xmlns="http://www.w3.org/2000/svg" width="48.811" height="47.977" viewBox="0 0 48.811 47.977"><g transform="translate(-783.877 -581.604)"><path d="M831.4,620.911c-.651.05-1.458.162-2.265.165-6.012.016-12.024-.017-18.036.042a8.539,8.539,0,0,0-2.3.7,11.673,11.673,0,0,0,1.313,2.1c1.162,1.211,1.418,2.526.431,3.828a2.709,2.709,0,0,1-3.959.711,2.823,2.823,0,0,1-.734-3.977c.2-.285.55-.466.741-.755.387-.585.711-1.212,1.061-1.822a6.327,6.327,0,0,0-2.019-.78c-6.083-.063-12.167-.034-18.25-.046-.811,0-1.622-.083-2.074-.109a22.47,22.47,0,0,0,.671-3.69c.052-8.946.032-17.893.024-26.839a4.211,4.211,0,0,0-1.038-2.706c-.847-1.14-.591-3.193-.512-4.836.014-.289,1.5-.723,2.3-.726,14.314-.044,28.629,0,42.942-.069,1.788-.008,2.754.313,2.433,2.321-.227,1.423.674,3.2-1.434,4.015-.26.1-.265,1.045-.266,1.6-.015,9.3-.035,18.609.028,27.913A11.334,11.334,0,0,0,831.4,620.911Zm-23.208-.945c6.3,0,12.605-.059,18.906.037,1.792.027,2.328-.538,2.313-2.311q-.109-13.642,0-27.285c.018-1.942-.736-2.449-2.53-2.443q-18.8.071-37.6,0c-1.6-.005-2.289.417-2.275,2.184q.115,13.857,0,27.715c-.014,1.758.652,2.151,2.27,2.131C795.587,619.921,801.89,619.967,808.193,619.967Zm0-33.115c6.877,0,13.755-.011,20.631.011,1.167,0,2.117,0,2.141-1.607.022-1.552-.706-1.962-2.1-1.96q-20.631.032-41.263,0c-1.358,0-2.159.333-2.141,1.919.017,1.569.9,1.655,2.1,1.65C794.438,586.837,801.315,586.852,808.193,586.852Zm2.679,39.192c-1.314-.8-2.062-1.617-2.672-1.524-.648.1-1.166,1.061-1.74,1.646.609.541,1.181,1.454,1.835,1.516C808.908,627.739,809.606,626.9,810.871,626.044Z" transform="translate(0 0)" fill="#222222" stroke="#222222" stroke-width="1"/><path d="M808.373,587.047c-6.877,0-13.755-.015-20.631.014-1.2.005-2.084-.081-2.1-1.65-.018-1.585.783-1.921,2.141-1.919q20.631.03,41.263,0c1.394,0,2.123.408,2.1,1.96-.023,1.6-.974,1.61-2.141,1.607C822.128,587.035,815.251,587.047,808.373,587.047Z" transform="translate(-0.181 -0.195)" fill="#222222" stroke="#222222" stroke-width="1"/><path d="M814.48,632.966c-1.265.854-1.964,1.7-2.577,1.638-.653-.062-1.226-.975-1.835-1.516.574-.585,1.092-1.547,1.74-1.646C812.418,631.349,813.166,632.168,814.48,632.966Z" transform="translate(-3.609 -6.922)" fill="#222222" stroke="#222222" stroke-width="1"/><path d="M809.67,601.24c.242,4.981-4.416,8.788-8.9,8.7a9.135,9.135,0,0,1-8.927-8.833,8.9,8.9,0,0,1,9.055-8.623A8.518,8.518,0,0,1,809.67,601.24Zm-9.656-7.544c-3.851.645-6.345,3.052-6.772,5.94a7.7,7.7,0,0,0,3.746,8.222,7.012,7.012,0,0,0,8.45-.953C800.327,604.027,798.875,599.413,800.014,593.7Zm1.266.081c-1.351,6.465-.353,7.722,5.617,7.232.142-.012.357.037.414-.038.39-.5,1.118-1.087,1.054-1.549A7.019,7.019,0,0,0,801.28,593.777Zm5.26,13,2.2-4.357h-6.2Z" transform="translate(-1.051 -1.457)" fill="#222222" stroke="#222222" stroke-width="1"/><path d="M805.883,621.533h-12.89C794.6,620.351,804.163,620.322,805.883,621.533Z" transform="translate(-1.212 -5.407)" fill="#222222" stroke="#222222" stroke-width="1"/><ellipse cx="0.35" cy="6.995" rx="0.35" ry="6.995" transform="translate(822.254 604.945)" fill="#222222" stroke="#222222" stroke-width="1"/><ellipse cx="5.997" cy="0.352" rx="5.997" ry="0.352" transform="translate(790.182 612.36)" fill="#222222" stroke="#222222" stroke-width="1"/><path d="M832.388,621.392v-6.481l.559-.011v6.486Z" transform="translate(-6.741 -4.602)" fill="#222222" stroke="#222222" stroke-width="1"/><path d="M821.623,615.57v5.95l-.507.015v-5.914Z" transform="translate(-5.159 -4.696)" fill="#222222" stroke="#222222" stroke-width="1"/><ellipse cx="0.392" cy="3.079" rx="0.392" ry="3.079" transform="translate(819.132 611.575)" fill="#222222" stroke="#222222" stroke-width="1"/><path d="M826.2,598.657h-4.957l-.011-.4h4.941Z" transform="translate(-5.174 -2.266)" fill="#222222" stroke="#222222" stroke-width="1"/><path d="M800.224,593.893c-1.139,5.717.314,10.332,5.424,13.21a7.012,7.012,0,0,1-8.45.953,7.7,7.7,0,0,1-3.746-8.222C793.879,596.945,796.374,594.538,800.224,593.893Z" transform="translate(-1.262 -1.654)" fill="#222222" stroke="#222222" stroke-width="1"/></g></svg>