<svg xmlns="http://www.w3.org/2000/svg" viewBox="0 0 686 177.33"><defs><style>.cls-1{fill:#fff;fill-rule:evenodd;}.cls-2{fill:#fff;}</style></defs><g id="Layer_2" data-name="Layer 2"><g id="Layer_1-2" data-name="Layer 1"><path class="cls-1" d="M24.83,177.33H177.25V24.84H24.83Zm136.88-15.57H109.39l-14-46.47A26.62,26.62,0,0,0,82.78,65.23h0l0,96.51H40.37V40.13h74.91a46.46,46.46,0,0,1,25,85.6ZM152.42,12.47H12.47v140H0V0H152.42Z"/><path class="cls-2" d="M686,110.89v7.92c-.62.17-1.41.4-2.37.57a18.54,18.54,0,0,1-3.23.29c-3.33,0-5.93-.86-7.69-2.5S670,113,670,109.44V96.13h-4v-7h4v-6h10v6h6v7h-6V108.3a3.14,3.14,0,0,0,.81,2.31,3,3,0,0,0,2.25.79,12.08,12.08,0,0,0,1.56-.12A6,6,0,0,0,686,110.89Z"/><path class="cls-2" d="M663,100.28v18.85H653V102.06a6,6,0,0,0-1-3.77,3.85,3.85,0,0,0-3.13-1.19,4.66,4.66,0,0,0-3.51,1.35,5.67,5.67,0,0,0-1.37,4.23v16.45H634v-29h10v4.71A9.94,9.94,0,0,1,647.55,91a10.45,10.45,0,0,1,6-1.61A9.27,9.27,0,0,1,660.4,92C662.11,93.85,663,96.56,663,100.28Z"/><path class="cls-2" d="M619.59,109.13H629a10.85,10.85,0,0,1-4.43,7.79q-3.78,2.7-10.42,2.7a19.74,19.74,0,0,1-6.4-1,12.85,12.85,0,0,1-5-2.88,13.33,13.33,0,0,1-3.31-4.73,20.46,20.46,0,0,1-1.47-6.42v-.45a21.13,21.13,0,0,1,1.47-6.42,15.59,15.59,0,0,1,3.36-4.85,14.55,14.55,0,0,1,5-3.1,17.65,17.65,0,0,1,6.22-1.07,17.4,17.4,0,0,1,5.72.9,14.09,14.09,0,0,1,4.76,2.76,13.81,13.81,0,0,1,3.25,4.74A17.55,17.55,0,0,1,629,103.9v2.23H608.38a7.25,7.25,0,0,0,1.85,4.93,5.74,5.74,0,0,0,4.26,1.63,5.62,5.62,0,0,0,3.7-1A4.4,4.4,0,0,0,619.59,109.13Zm-11.1-8h10.77A6.31,6.31,0,0,0,617.85,97a4.76,4.76,0,0,0-3.75-1.41A5.12,5.12,0,0,0,610.34,97,7.22,7.22,0,0,0,608.49,101.13Z"/><path class="cls-2" d="M595,110.89v7.92c-.62.17-1.41.4-2.37.57a18.54,18.54,0,0,1-3.23.29c-3.33,0-5.93-.86-7.69-2.5S579,113,579,109.44V96.13h-4v-7h4v-6h10v6h6v7h-6V108.3a3.14,3.14,0,0,0,.81,2.31,3,3,0,0,0,2.25.79,12.08,12.08,0,0,0,1.56-.12A6,6,0,0,0,595,110.89Z"/><path class="cls-2" d="M572,100.28v18.85H562V102.06a6,6,0,0,0-1-3.77,3.85,3.85,0,0,0-3.13-1.19,4.66,4.66,0,0,0-3.51,1.35,5.67,5.67,0,0,0-1.37,4.23v16.45H543v-29h10v4.71A9.94,9.94,0,0,1,556.55,91a10.45,10.45,0,0,1,6-1.61A9.27,9.27,0,0,1,569.4,92C571.11,93.85,572,96.56,572,100.28Z"/><path class="cls-2" d="M538,103.85v.45a15.41,15.41,0,0,1-1.23,6.41,14.32,14.32,0,0,1-3.36,4.83,14.62,14.62,0,0,1-5.09,3,18,18,0,0,1-6.32,1.07,19,19,0,0,1-6.27-1,14.44,14.44,0,0,1-5.09-2.92,13.93,13.93,0,0,1-3.41-4.73,15.28,15.28,0,0,1-1.23-6.35v-.45a15.76,15.76,0,0,1,1.23-6.41,14.89,14.89,0,0,1,3.41-4.84,14.64,14.64,0,0,1,5.09-3.09,17.64,17.64,0,0,1,6.33-1.07,19.25,19.25,0,0,1,6.32,1,15.09,15.09,0,0,1,5,3,14.73,14.73,0,0,1,3.36,4.78A15.24,15.24,0,0,1,538,103.85Zm-10,.57V104a10.18,10.18,0,0,0-1.51-5.94A5.21,5.21,0,0,0,522,96a5.36,5.36,0,0,0-4.52,2,9.84,9.84,0,0,0-1.51,5.88v.41a10.33,10.33,0,0,0,1.51,6.06,6,6,0,0,0,9,0A10.18,10.18,0,0,0,528,104.42Z"/><path class="cls-2" d="M490.89,104.13h11.33a16.7,16.7,0,0,1-1.78,6.7,14.6,14.6,0,0,1-3.88,4.84,17.7,17.7,0,0,1-5.73,2.91,24.34,24.34,0,0,1-7.11,1,26.68,26.68,0,0,1-9.11-1.43,16.61,16.61,0,0,1-10.33-10.38A25.77,25.77,0,0,1,463,99.51v-.43a20.24,20.24,0,0,1,1.56-8.19,17.54,17.54,0,0,1,4.22-6.38,18.58,18.58,0,0,1,6.44-4.06A22.66,22.66,0,0,1,483.28,79a26,26,0,0,1,7.11.88,16.92,16.92,0,0,1,5.67,2.75,14.14,14.14,0,0,1,3.88,4.72,18.76,18.76,0,0,1,1.78,6.76H490a7.19,7.19,0,0,0-2-4.62,6.58,6.58,0,0,0-4.67-1.59,7.24,7.24,0,0,0-6.05,2.86C475.78,92.7,475,95.45,475,99v.44c0,3.57.72,6.32,2.22,8.24a7.53,7.53,0,0,0,6.28,2.86,7.89,7.89,0,0,0,5-1.59A7.13,7.13,0,0,0,490.89,104.13Z"/><path class="cls-2" d="M449,110.89v7.94a24.32,24.32,0,0,1-2.37.58,18.59,18.59,0,0,1-3.23.28c-3.33,0-5.93-.86-7.69-2.51S433,113,433,109.41V96.13h-4v-7h4v-6h10v6h6v7h-6V108.3a3.14,3.14,0,0,0,.81,2.31,3,3,0,0,0,2.25.79,12.08,12.08,0,0,0,1.56-.12A6,6,0,0,0,449,110.89Z"/><path class="cls-2" d="M417.6,107.13h8.8c-.17,4-1.42,7.18-3.83,9.53s-5.9,3.63-10.54,3.63a17.38,17.38,0,0,1-6-1,12.7,12.7,0,0,1-4.75-3.08,13.64,13.64,0,0,1-3.17-5,19.42,19.42,0,0,1-1.15-7v-.48a18.83,18.83,0,0,1,1.2-7,15.51,15.51,0,0,1,3.28-5.19,15.05,15.05,0,0,1,4.86-3.26,15.81,15.81,0,0,1,5.91-1.08,20.45,20.45,0,0,1,5.08.66A11.47,11.47,0,0,1,421.64,90,12.43,12.43,0,0,1,424.81,94a15.92,15.92,0,0,1,1.42,6.09h-9.18a6.3,6.3,0,0,0-1.36-3.44,4.17,4.17,0,0,0-3.23-1.15,4.66,4.66,0,0,0-4,2,10.74,10.74,0,0,0-1.42,6v.48a11.19,11.19,0,0,0,1.42,6.22,4.76,4.76,0,0,0,4.21,2.11,4.51,4.51,0,0,0,3.39-1.33A6.23,6.23,0,0,0,417.6,107.13Z"/><rect class="cls-2" x="382" y="90.13" width="10" height="29"/><path class="cls-2" d="M391.13,77.71a4.94,4.94,0,0,1,1.56,3.77,4.76,4.76,0,0,1-1.56,3.72,5.72,5.72,0,0,1-4,1.47,5.59,5.59,0,0,1-3.9-1.47,4.76,4.76,0,0,1-1.56-3.72,4.94,4.94,0,0,1,1.56-3.77,5.59,5.59,0,0,1,3.9-1.47A5.72,5.72,0,0,1,391.13,77.71Z"/><path class="cls-2" d="M377,89.74v9.4c-2.93,0-5.11.4-6.66,1.41s-2.34,2.71-2.34,5.07v13.51H358v-29h10V96a10,10,0,0,1,3.57-4.79A8.8,8.8,0,0,1,377,89.74Z"/><path class="cls-2" d="M353,110.89v7.68c-.58.16-1.33.37-2.23.53a17.11,17.11,0,0,1-3,.27c-3.12,0-5.56-.8-7.21-2.36s-2.54-4-2.54-7.28V96.13h-4v-7h3v-6h10v6h6v7h-6V108.3a3.14,3.14,0,0,0,.81,2.31,3,3,0,0,0,2.25.79,12.08,12.08,0,0,0,1.56-.12A6,6,0,0,0,353,110.89Z"/><path class="cls-2" d="M330.48,105.15a9.3,9.3,0,0,1,.7,3.87c0,3.38-1.13,5.83-3.45,7.41s-5.39,2.39-9.33,2.39-7.17-.81-9.43-2.45a8.83,8.83,0,0,1-3.51-7.24h8.9a4.32,4.32,0,0,0,1.08,2.4,4.25,4.25,0,0,0,2.91.81,4.77,4.77,0,0,0,2.64-.6,2.13,2.13,0,0,0,.81-1.74,1.71,1.71,0,0,0-1.13-1.58,15.51,15.51,0,0,0-4.1-1,30.38,30.38,0,0,1-4.85-1,9.12,9.12,0,0,1-3.34-1.69,6,6,0,0,1-1.89-2.61,10.14,10.14,0,0,1-.65-3.82,8.61,8.61,0,0,1,1-4.14,9.22,9.22,0,0,1,2.64-2.94,11.9,11.9,0,0,1,3.83-1.74,18.44,18.44,0,0,1,4.64-.54,21.92,21.92,0,0,1,4.8.49A11.16,11.16,0,0,1,326.49,91a8.65,8.65,0,0,1,2.64,2.83,10.78,10.78,0,0,1,1.24,4.3h-8.73A3.59,3.59,0,0,0,320.56,96a4.77,4.77,0,0,0-4.91-.06,1.85,1.85,0,0,0-.81,1.58,1.62,1.62,0,0,0,1.08,1.53,14.23,14.23,0,0,0,3.67.81,45.1,45.1,0,0,1,5.12,1,10.48,10.48,0,0,1,3.61,1.64A6.85,6.85,0,0,1,330.48,105.15Z"/><path class="cls-2" d="M292.8,109.13h9.37a10.82,10.82,0,0,1-4.4,7.79q-3.76,2.7-10.38,2.7a19.44,19.44,0,0,1-6.35-1,12.81,12.81,0,0,1-5-2.88,13.54,13.54,0,0,1-3.29-4.73,34.47,34.47,0,0,1-1.78-6.42v-.45a36.78,36.78,0,0,1,1.78-6.42,15.57,15.57,0,0,1,3.35-4.85,14.32,14.32,0,0,1,5-3.1,17.48,17.48,0,0,1,6.19-1.07,17.22,17.22,0,0,1,5.69.9,14.09,14.09,0,0,1,4.74,2.76A13.77,13.77,0,0,1,301,97.09a15.23,15.23,0,0,1,1,6.81v2.23H281.65c.17,2.39.78,3.86,1.84,4.93a5.68,5.68,0,0,0,4.24,1.63,5.58,5.58,0,0,0,3.68-1A4.39,4.39,0,0,0,292.8,109.13Zm-11-8h10.71a6.36,6.36,0,0,0-1.4-4.11,4.7,4.7,0,0,0-3.73-1.41A5.06,5.06,0,0,0,283.6,97,7.21,7.21,0,0,0,281.76,101.13Z"/><path class="cls-2" d="M261,102.94l9.32,16.19H258.52l-7.9-14H248v14H236v-40h15.69c5.27,0,9.3,1.06,12.11,3.13s4.2,5.32,4.2,9.57v.83a10.18,10.18,0,0,1-2,6.62A12.6,12.6,0,0,1,261,102.94Zm-4-10.87v-.23a4.52,4.52,0,0,0-1.38-3.66,6.63,6.63,0,0,0-4.05-1.05H248v10h3.51a5.81,5.81,0,0,0,4.16-1.28A5,5,0,0,0,257,92.07Z"/></g></g></svg>