<?xml version="1.0" encoding="UTF-8" standalone="no"?>
<!DOCTYPE svg PUBLIC "-//W3C//DTD SVG 1.1//EN" "http://www.w3.org/Graphics/SVG/1.1/DTD/svg11.dtd">
<svg width="100%" height="100%" viewBox="0 0 219 99" version="1.1" xmlns="http://www.w3.org/2000/svg" xmlns:xlink="http://www.w3.org/1999/xlink" xml:space="preserve" xmlns:serif="http://www.serif.com/" style="fill-rule:evenodd;clip-rule:evenodd;stroke-linejoin:round;stroke-miterlimit:2;">
    <g id="logo" transform="matrix(0.119366,0,0,0.119366,-46,0)">
        <g id="Icon" transform="matrix(1.00119,0,0,1.00119,1011.17,0)">
            <path d="M81.592,582.676L582.404,582.676L582.404,81.629L81.592,81.629L81.592,582.676ZM531.356,531.512L359.422,531.512L313.463,378.82C340.828,364.038 359.422,335.091 359.422,301.799C359.422,253.482 320.275,214.317 271.982,214.317C271.958,214.317 271.934,214.32 271.934,214.32L271.982,531.437L132.64,531.437L132.64,131.864L378.792,131.864C463.052,131.864 531.359,200.2 531.359,284.499C531.359,338.548 503.256,385.995 460.902,413.119L531.356,531.512ZM500.812,40.983L40.963,40.983L40.963,501.045L0,501.045L0,0L500.812,0L500.812,40.983Z" style="fill:rgb(42,118,210);"/>
        </g>
        <g id="Text" transform="matrix(1,0,0,1,-387.934,419.2)">
            <g transform="matrix(3.70655,0,0,3.70655,1944.74,-52.5986)">
                <g transform="matrix(49.5,0,0,50,94.4759,122.449)">
                    <path d="M0.073,-0.715L0.345,-0.715C0.443,-0.715 0.515,-0.694 0.562,-0.653C0.609,-0.611 0.632,-0.552 0.632,-0.476L0.632,-0.472C0.632,-0.397 0.608,-0.339 0.56,-0.3C0.512,-0.261 0.443,-0.241 0.354,-0.241L0.277,-0.241L0.277,0L0.073,0L0.073,-0.715ZM0.336,-0.381C0.37,-0.381 0.395,-0.389 0.412,-0.404C0.429,-0.419 0.437,-0.441 0.437,-0.471L0.437,-0.475C0.437,-0.506 0.428,-0.528 0.411,-0.541C0.394,-0.554 0.369,-0.561 0.337,-0.561L0.277,-0.561L0.277,-0.381L0.336,-0.381Z" style="fill:rgb(34,34,34);fill-rule:nonzero;"/>
                </g>
                <g transform="matrix(49.5,0,0,50,126.948,122.449)">
                    <path d="M0.057,-0.523L0.236,-0.523L0.236,-0.419C0.253,-0.458 0.275,-0.487 0.303,-0.504C0.33,-0.522 0.364,-0.531 0.405,-0.53L0.405,-0.363C0.35,-0.364 0.309,-0.356 0.28,-0.338C0.251,-0.32 0.236,-0.29 0.236,-0.248L0.236,0L0.057,0L0.057,-0.523Z" style="fill:rgb(34,34,34);fill-rule:nonzero;"/>
                </g>
                <g transform="matrix(49.5,0,0,50,148.082,122.449)">
                    <path d="M0.316,-0.121C0.35,-0.121 0.376,-0.133 0.393,-0.156C0.41,-0.18 0.419,-0.214 0.419,-0.258L0.419,-0.265C0.419,-0.309 0.41,-0.343 0.393,-0.367C0.376,-0.39 0.35,-0.402 0.316,-0.402C0.282,-0.402 0.256,-0.391 0.238,-0.368C0.221,-0.345 0.212,-0.311 0.212,-0.267L0.212,-0.26C0.212,-0.214 0.221,-0.18 0.238,-0.156C0.255,-0.133 0.281,-0.121 0.316,-0.121ZM0.315,0.012C0.275,0.012 0.237,0.006 0.203,-0.006C0.168,-0.018 0.137,-0.035 0.112,-0.058C0.086,-0.081 0.066,-0.109 0.051,-0.142C0.036,-0.175 0.029,-0.213 0.029,-0.255L0.029,-0.263C0.029,-0.305 0.036,-0.343 0.051,-0.377C0.066,-0.41 0.086,-0.439 0.112,-0.463C0.137,-0.487 0.168,-0.505 0.203,-0.518C0.237,-0.531 0.275,-0.537 0.316,-0.537C0.356,-0.537 0.394,-0.531 0.429,-0.519C0.464,-0.506 0.494,-0.488 0.519,-0.465C0.544,-0.442 0.564,-0.413 0.579,-0.38C0.594,-0.347 0.601,-0.309 0.601,-0.268L0.601,-0.26C0.601,-0.217 0.594,-0.179 0.579,-0.146C0.564,-0.112 0.544,-0.083 0.519,-0.06C0.493,-0.037 0.463,-0.019 0.428,-0.007C0.393,0.006 0.355,0.012 0.315,0.012Z" style="fill:rgb(34,34,34);fill-rule:nonzero;"/>
                </g>
            </g>
            <g transform="matrix(3.70655,0,0,3.70655,1167.15,-52.5654)">
                <g transform="matrix(49.75,0,0,50,94.4759,122.449)">
                    <path d="M0.409,0.012C0.346,0.012 0.292,0.003 0.245,-0.014C0.198,-0.031 0.16,-0.056 0.129,-0.088C0.098,-0.12 0.074,-0.159 0.059,-0.203C0.044,-0.249 0.036,-0.298 0.036,-0.353L0.036,-0.361C0.036,-0.416 0.045,-0.466 0.064,-0.51C0.082,-0.556 0.107,-0.594 0.14,-0.626C0.173,-0.658 0.211,-0.683 0.256,-0.7C0.301,-0.717 0.349,-0.726 0.401,-0.726C0.448,-0.726 0.49,-0.721 0.529,-0.71C0.568,-0.699 0.602,-0.682 0.631,-0.66C0.66,-0.637 0.683,-0.609 0.701,-0.574C0.718,-0.539 0.729,-0.498 0.733,-0.451L0.522,-0.451C0.518,-0.488 0.506,-0.516 0.486,-0.535C0.466,-0.554 0.438,-0.564 0.402,-0.564C0.356,-0.564 0.32,-0.547 0.293,-0.512C0.266,-0.477 0.252,-0.427 0.252,-0.362L0.252,-0.354C0.252,-0.289 0.265,-0.239 0.292,-0.204C0.318,-0.17 0.356,-0.152 0.405,-0.152C0.441,-0.152 0.471,-0.162 0.495,-0.181C0.518,-0.2 0.533,-0.229 0.538,-0.269L0.742,-0.269C0.739,-0.223 0.728,-0.182 0.71,-0.147C0.692,-0.112 0.669,-0.082 0.64,-0.059C0.611,-0.036 0.576,-0.018 0.537,-0.006C0.498,0.006 0.455,0.012 0.409,0.012Z" style="fill:rgb(34,34,34);fill-rule:nonzero;"/>
                </g>
                <g transform="matrix(49.75,0,0,50,132.685,122.449)">
                    <path d="M0.316,-0.121C0.35,-0.121 0.376,-0.133 0.393,-0.156C0.41,-0.18 0.419,-0.214 0.419,-0.258L0.419,-0.265C0.419,-0.309 0.41,-0.343 0.393,-0.367C0.376,-0.39 0.35,-0.402 0.316,-0.402C0.282,-0.402 0.256,-0.391 0.238,-0.368C0.221,-0.345 0.212,-0.311 0.212,-0.267L0.212,-0.26C0.212,-0.214 0.221,-0.18 0.238,-0.156C0.255,-0.133 0.281,-0.121 0.316,-0.121ZM0.315,0.012C0.275,0.012 0.237,0.006 0.203,-0.006C0.168,-0.018 0.137,-0.035 0.112,-0.058C0.086,-0.081 0.066,-0.109 0.051,-0.142C0.036,-0.175 0.029,-0.213 0.029,-0.255L0.029,-0.263C0.029,-0.305 0.036,-0.343 0.051,-0.377C0.066,-0.41 0.086,-0.439 0.112,-0.463C0.137,-0.487 0.168,-0.505 0.203,-0.518C0.237,-0.531 0.275,-0.537 0.316,-0.537C0.356,-0.537 0.394,-0.531 0.429,-0.519C0.464,-0.506 0.494,-0.488 0.519,-0.465C0.544,-0.442 0.564,-0.413 0.579,-0.38C0.594,-0.347 0.601,-0.309 0.601,-0.268L0.601,-0.26C0.601,-0.217 0.594,-0.179 0.579,-0.146C0.564,-0.112 0.544,-0.083 0.519,-0.06C0.493,-0.037 0.463,-0.019 0.428,-0.007C0.393,0.006 0.355,0.012 0.315,0.012Z" style="fill:rgb(34,34,34);fill-rule:nonzero;"/>
                </g>
                <g transform="matrix(49.75,0,0,50,163.829,122.449)">
                    <path d="M0.057,-0.523L0.236,-0.523L0.236,-0.438C0.25,-0.466 0.271,-0.489 0.3,-0.508C0.328,-0.527 0.364,-0.537 0.408,-0.537C0.459,-0.537 0.5,-0.521 0.532,-0.489C0.563,-0.456 0.579,-0.407 0.579,-0.34L0.579,0L0.4,0L0.4,-0.303C0.4,-0.333 0.394,-0.355 0.382,-0.37C0.37,-0.384 0.351,-0.391 0.325,-0.391C0.298,-0.391 0.277,-0.383 0.261,-0.367C0.244,-0.351 0.236,-0.326 0.236,-0.292L0.236,0L0.057,0L0.057,-0.523Z" style="fill:rgb(34,34,34);fill-rule:nonzero;"/>
                </g>
                <g transform="matrix(49.75,0,0,50,195.072,122.449)">
                    <path d="M0.265,0.012C0.206,0.012 0.16,-0.003 0.129,-0.032C0.097,-0.061 0.081,-0.106 0.081,-0.168L0.081,-0.401L0.018,-0.401L0.018,-0.523L0.081,-0.523L0.081,-0.632L0.26,-0.632L0.26,-0.523L0.363,-0.523L0.363,-0.401L0.26,-0.401L0.26,-0.185C0.26,-0.167 0.265,-0.153 0.274,-0.144C0.282,-0.135 0.296,-0.13 0.313,-0.13C0.323,-0.13 0.332,-0.131 0.34,-0.132C0.348,-0.133 0.356,-0.136 0.364,-0.139L0.364,-0.003C0.353,0 0.339,0.004 0.322,0.007C0.305,0.01 0.286,0.012 0.265,0.012Z" style="fill:rgb(34,34,34);fill-rule:nonzero;"/>
                </g>
                <g transform="matrix(49.75,0,0,50,214.623,122.449)">
                    <path d="M0.313,0.012C0.272,0.012 0.234,0.006 0.199,-0.006C0.164,-0.017 0.135,-0.034 0.11,-0.057C0.085,-0.08 0.065,-0.108 0.051,-0.141C0.036,-0.174 0.029,-0.212 0.029,-0.255L0.029,-0.263C0.029,-0.305 0.036,-0.343 0.051,-0.377C0.066,-0.41 0.086,-0.439 0.111,-0.463C0.136,-0.487 0.166,-0.505 0.201,-0.518C0.236,-0.531 0.273,-0.537 0.312,-0.537C0.348,-0.537 0.382,-0.532 0.414,-0.521C0.446,-0.51 0.474,-0.494 0.499,-0.472C0.523,-0.45 0.542,-0.422 0.557,-0.388C0.571,-0.354 0.578,-0.314 0.578,-0.267L0.578,-0.22L0.21,-0.22C0.213,-0.185 0.224,-0.159 0.243,-0.14C0.262,-0.121 0.287,-0.111 0.319,-0.111C0.349,-0.111 0.371,-0.117 0.385,-0.129C0.398,-0.141 0.407,-0.156 0.41,-0.173L0.578,-0.173C0.57,-0.114 0.544,-0.068 0.499,-0.036C0.454,-0.004 0.392,0.012 0.313,0.012ZM0.404,-0.321C0.403,-0.353 0.394,-0.377 0.379,-0.394C0.364,-0.411 0.341,-0.419 0.312,-0.419C0.285,-0.419 0.262,-0.411 0.245,-0.394C0.228,-0.377 0.217,-0.353 0.212,-0.321L0.404,-0.321Z" style="fill:rgb(34,34,34);fill-rule:nonzero;"/>
                </g>
                <g transform="matrix(49.75,0,0,50,244.573,122.449)">
                    <path d="M0.057,-0.523L0.236,-0.523L0.236,-0.438C0.25,-0.466 0.271,-0.489 0.3,-0.508C0.328,-0.527 0.364,-0.537 0.408,-0.537C0.459,-0.537 0.5,-0.521 0.532,-0.489C0.563,-0.456 0.579,-0.407 0.579,-0.34L0.579,0L0.4,0L0.4,-0.303C0.4,-0.333 0.394,-0.355 0.382,-0.37C0.37,-0.384 0.351,-0.391 0.325,-0.391C0.298,-0.391 0.277,-0.383 0.261,-0.367C0.244,-0.351 0.236,-0.326 0.236,-0.292L0.236,0L0.057,0L0.057,-0.523Z" style="fill:rgb(34,34,34);fill-rule:nonzero;"/>
                </g>
                <g transform="matrix(49.75,0,0,50,275.816,122.449)">
                    <path d="M0.265,0.012C0.206,0.012 0.16,-0.003 0.129,-0.032C0.097,-0.061 0.081,-0.106 0.081,-0.168L0.081,-0.401L0.018,-0.401L0.018,-0.523L0.081,-0.523L0.081,-0.632L0.26,-0.632L0.26,-0.523L0.363,-0.523L0.363,-0.401L0.26,-0.401L0.26,-0.185C0.26,-0.167 0.265,-0.153 0.274,-0.144C0.282,-0.135 0.296,-0.13 0.313,-0.13C0.323,-0.13 0.332,-0.131 0.34,-0.132C0.348,-0.133 0.356,-0.136 0.364,-0.139L0.364,-0.003C0.353,0 0.339,0.004 0.322,0.007C0.305,0.01 0.286,0.012 0.265,0.012Z" style="fill:rgb(34,34,34);fill-rule:nonzero;"/>
                </g>
            </g>
            <g transform="matrix(3.70655,0,0,3.70655,413.847,-52.5654)">
                <g transform="matrix(49.5,0,0,50,94.4759,122.449)">
                    <path d="M0.073,-0.715L0.353,-0.715C0.447,-0.715 0.519,-0.696 0.569,-0.659C0.619,-0.621 0.644,-0.564 0.644,-0.488L0.644,-0.484C0.644,-0.433 0.632,-0.392 0.608,-0.363C0.583,-0.333 0.552,-0.311 0.515,-0.296L0.686,0L0.47,0L0.325,-0.256L0.277,-0.256L0.277,0L0.073,0L0.073,-0.715ZM0.343,-0.389C0.378,-0.389 0.404,-0.396 0.421,-0.411C0.438,-0.426 0.446,-0.447 0.446,-0.476L0.446,-0.48C0.446,-0.509 0.437,-0.53 0.42,-0.543C0.403,-0.555 0.377,-0.561 0.344,-0.561L0.277,-0.561L0.277,-0.389L0.343,-0.389Z" style="fill:rgb(34,34,34);fill-rule:nonzero;"/>
                </g>
                <g transform="matrix(49.5,0,0,50,127.925,122.449)">
                    <path d="M0.313,0.012C0.272,0.012 0.234,0.006 0.199,-0.006C0.164,-0.017 0.135,-0.034 0.11,-0.057C0.085,-0.08 0.065,-0.108 0.051,-0.141C0.036,-0.174 0.029,-0.212 0.029,-0.255L0.029,-0.263C0.029,-0.305 0.036,-0.343 0.051,-0.377C0.066,-0.41 0.086,-0.439 0.111,-0.463C0.136,-0.487 0.166,-0.505 0.201,-0.518C0.236,-0.531 0.273,-0.537 0.312,-0.537C0.348,-0.537 0.382,-0.532 0.414,-0.521C0.446,-0.51 0.474,-0.494 0.499,-0.472C0.523,-0.45 0.542,-0.422 0.557,-0.388C0.571,-0.354 0.578,-0.314 0.578,-0.267L0.578,-0.22L0.21,-0.22C0.213,-0.185 0.224,-0.159 0.243,-0.14C0.262,-0.121 0.287,-0.111 0.319,-0.111C0.349,-0.111 0.371,-0.117 0.385,-0.129C0.398,-0.141 0.407,-0.156 0.41,-0.173L0.578,-0.173C0.57,-0.114 0.544,-0.068 0.499,-0.036C0.454,-0.004 0.392,0.012 0.313,0.012ZM0.404,-0.321C0.403,-0.353 0.394,-0.377 0.379,-0.394C0.364,-0.411 0.341,-0.419 0.312,-0.419C0.285,-0.419 0.262,-0.411 0.245,-0.394C0.228,-0.377 0.217,-0.353 0.212,-0.321L0.404,-0.321Z" style="fill:rgb(34,34,34);fill-rule:nonzero;"/>
                </g>
                <g transform="matrix(49.5,0,0,50,157.974,122.449)">
                    <path d="M0.262,0.012C0.187,0.012 0.129,-0.003 0.087,-0.033C0.046,-0.063 0.024,-0.107 0.022,-0.166L0.187,-0.166C0.19,-0.147 0.197,-0.132 0.207,-0.122C0.218,-0.112 0.236,-0.107 0.261,-0.107C0.283,-0.107 0.299,-0.111 0.31,-0.118C0.32,-0.126 0.325,-0.137 0.325,-0.15C0.325,-0.163 0.318,-0.172 0.304,-0.179C0.289,-0.186 0.264,-0.192 0.228,-0.197C0.193,-0.202 0.163,-0.208 0.138,-0.216C0.113,-0.223 0.092,-0.234 0.076,-0.247C0.06,-0.26 0.048,-0.276 0.041,-0.295C0.033,-0.314 0.029,-0.338 0.029,-0.365C0.029,-0.394 0.035,-0.419 0.047,-0.441C0.059,-0.462 0.075,-0.48 0.096,-0.495C0.116,-0.509 0.14,-0.52 0.167,-0.527C0.194,-0.534 0.223,-0.537 0.253,-0.537C0.285,-0.537 0.315,-0.534 0.342,-0.528C0.369,-0.522 0.392,-0.512 0.412,-0.499C0.432,-0.486 0.448,-0.468 0.461,-0.447C0.473,-0.426 0.481,-0.399 0.484,-0.368L0.322,-0.368C0.319,-0.385 0.312,-0.398 0.302,-0.407C0.291,-0.416 0.276,-0.42 0.255,-0.42C0.236,-0.42 0.221,-0.416 0.211,-0.408C0.201,-0.401 0.196,-0.391 0.196,-0.379C0.196,-0.366 0.203,-0.357 0.216,-0.351C0.229,-0.345 0.252,-0.34 0.284,-0.336C0.32,-0.331 0.352,-0.325 0.379,-0.318C0.406,-0.311 0.428,-0.301 0.446,-0.288C0.464,-0.275 0.477,-0.258 0.486,-0.239C0.495,-0.22 0.499,-0.196 0.499,-0.168C0.499,-0.106 0.478,-0.061 0.435,-0.032C0.392,-0.003 0.335,0.012 0.262,0.012Z" style="fill:rgb(34,34,34);fill-rule:nonzero;"/>
                </g>
                <g transform="matrix(49.5,0,0,50,183.665,122.449)">
                    <path d="M0.265,0.012C0.206,0.012 0.16,-0.003 0.129,-0.032C0.097,-0.061 0.081,-0.106 0.081,-0.168L0.081,-0.401L0.018,-0.401L0.018,-0.523L0.081,-0.523L0.081,-0.632L0.26,-0.632L0.26,-0.523L0.363,-0.523L0.363,-0.401L0.26,-0.401L0.26,-0.185C0.26,-0.167 0.265,-0.153 0.274,-0.144C0.282,-0.135 0.296,-0.13 0.313,-0.13C0.323,-0.13 0.332,-0.131 0.34,-0.132C0.348,-0.133 0.356,-0.136 0.364,-0.139L0.364,-0.003C0.353,0 0.339,0.004 0.322,0.007C0.305,0.01 0.286,0.012 0.265,0.012Z" style="fill:rgb(34,34,34);fill-rule:nonzero;"/>
                </g>
                <g transform="matrix(49.5,0,0,50,203.118,122.449)">
                    <path d="M0.057,-0.523L0.236,-0.523L0.236,-0.419C0.253,-0.458 0.275,-0.487 0.303,-0.504C0.33,-0.522 0.364,-0.531 0.405,-0.53L0.405,-0.363C0.35,-0.364 0.309,-0.356 0.28,-0.338C0.251,-0.32 0.236,-0.29 0.236,-0.248L0.236,0L0.057,0L0.057,-0.523Z" style="fill:rgb(34,34,34);fill-rule:nonzero;"/>
                </g>
                <g transform="matrix(49.5,0,0,50,224.502,122.449)">
                    <path d="M0.062,-0.523L0.241,-0.523L0.241,0L0.062,0L0.062,-0.523ZM0.151,-0.573C0.123,-0.573 0.1,-0.582 0.081,-0.599C0.062,-0.616 0.053,-0.638 0.053,-0.665C0.053,-0.692 0.062,-0.714 0.081,-0.732C0.1,-0.749 0.123,-0.758 0.151,-0.758C0.179,-0.758 0.203,-0.749 0.222,-0.732C0.241,-0.714 0.25,-0.692 0.25,-0.665C0.25,-0.638 0.241,-0.616 0.222,-0.599C0.203,-0.582 0.179,-0.573 0.151,-0.573Z" style="fill:rgb(34,34,34);fill-rule:nonzero;"/>
                </g>
                <g transform="matrix(49.5,0,0,50,239.303,122.449)">
                    <path d="M0.304,0.012C0.265,0.012 0.228,0.006 0.195,-0.005C0.162,-0.016 0.133,-0.033 0.108,-0.056C0.083,-0.078 0.064,-0.106 0.05,-0.139C0.036,-0.172 0.029,-0.211 0.029,-0.255L0.029,-0.263C0.029,-0.306 0.036,-0.345 0.051,-0.379C0.066,-0.413 0.086,-0.442 0.111,-0.465C0.136,-0.488 0.166,-0.506 0.2,-0.519C0.233,-0.531 0.269,-0.537 0.308,-0.537C0.34,-0.537 0.371,-0.533 0.401,-0.526C0.43,-0.519 0.457,-0.507 0.48,-0.49C0.503,-0.473 0.523,-0.45 0.538,-0.423C0.553,-0.396 0.561,-0.362 0.564,-0.322L0.396,-0.322C0.392,-0.347 0.384,-0.366 0.371,-0.379C0.358,-0.392 0.338,-0.398 0.312,-0.398C0.28,-0.398 0.255,-0.387 0.238,-0.365C0.221,-0.342 0.212,-0.309 0.212,-0.265L0.212,-0.257C0.212,-0.211 0.221,-0.177 0.238,-0.154C0.255,-0.131 0.281,-0.119 0.315,-0.119C0.34,-0.119 0.361,-0.126 0.377,-0.141C0.393,-0.156 0.403,-0.177 0.406,-0.206L0.567,-0.206C0.564,-0.14 0.541,-0.087 0.497,-0.048C0.453,-0.008 0.389,0.012 0.304,0.012Z" style="fill:rgb(34,34,34);fill-rule:nonzero;"/>
                </g>
                <g transform="matrix(49.5,0,0,50,268.359,122.449)">
                    <path d="M0.265,0.012C0.206,0.012 0.16,-0.003 0.129,-0.032C0.097,-0.061 0.081,-0.106 0.081,-0.168L0.081,-0.401L0.018,-0.401L0.018,-0.523L0.081,-0.523L0.081,-0.632L0.26,-0.632L0.26,-0.523L0.363,-0.523L0.363,-0.401L0.26,-0.401L0.26,-0.185C0.26,-0.167 0.265,-0.153 0.274,-0.144C0.282,-0.135 0.296,-0.13 0.313,-0.13C0.323,-0.13 0.332,-0.131 0.34,-0.132C0.348,-0.133 0.356,-0.136 0.364,-0.139L0.364,-0.003C0.353,0 0.339,0.004 0.322,0.007C0.305,0.01 0.286,0.012 0.265,0.012Z" style="fill:rgb(34,34,34);fill-rule:nonzero;"/>
                </g>
            </g>
        </g>
    </g>
</svg>
