<?xml version="1.0" encoding="UTF-8" standalone="no"?>
<svg
   width="1262"
   height="210"
   viewBox="0 0 1262 210"
   fill="none"
   version="1.1"
   id="svg19"
   sodipodi:docname="In-app banner RCP (2).svg"
   inkscape:version="1.4 (e7c3feb100, 2024-10-09)"
   xmlns:inkscape="http://www.inkscape.org/namespaces/inkscape"
   xmlns:sodipodi="http://sodipodi.sourceforge.net/DTD/sodipodi-0.dtd"
   xmlns="http://www.w3.org/2000/svg"
   xmlns:svg="http://www.w3.org/2000/svg">
  <sodipodi:namedview
     id="namedview19"
     pagecolor="#ffffff"
     bordercolor="#999999"
     borderopacity="1"
     inkscape:showpageshadow="2"
     inkscape:pageopacity="0"
     inkscape:pagecheckerboard="0"
     inkscape:deskcolor="#d1d1d1"
     inkscape:zoom="1.9104596"
     inkscape:cx="493.33679"
     inkscape:cy="104.94857"
     inkscape:window-width="2560"
     inkscape:window-height="1403"
     inkscape:window-x="2560"
     inkscape:window-y="0"
     inkscape:window-maximized="1"
     inkscape:current-layer="g19" />
  <g
     clip-path="url(#clip0_1977_3477)"
     id="g19">
    <rect
       width="1262"
       height="210"
       fill="#222222"
       id="rect1" />
    <path
       d="M1139.61 38.1305C1093.01 -30.574 1008.65 -66.5335 914.695 -2.83872C783.089 87.5832 958.063 244.019 1052.43 285.399C1146.8 326.78 1258.02 331.148 1295.16 265.954C1332.3 200.76 1294.68 150.607 1256.24 135.08C1217.8 119.552 1186.22 106.795 1139.62 38.091L1139.61 38.1305Z"
       fill="#F9E26E"
       id="path1" />
    <path
       d="M48.96 71.384C43.424 71.384 40.896 69.208 40.896 64.44H45.568C45.568 66.552 46.752 67.48 49.088 67.48C51.2 67.48 52.256 66.712 52.256 65.144C52.256 63.352 51.104 62.584 47.872 62.072C43.04 61.304 41.216 59.512 41.216 55.544C41.216 51.096 43.936 48.856 49.12 48.856C54.24 48.856 56.768 51.032 56.768 55.608H52.096C52.096 53.72 51.104 52.76 49.024 52.76C47.04 52.76 46.016 53.624 46.016 55.064C46.016 56.696 47.136 57.432 50.208 57.88C55.296 58.616 57.056 60.568 57.056 64.664C57.056 69.176 54.4 71.384 48.96 71.384ZM66.9518 53.912C71.6878 53.912 73.8638 55.896 73.8638 60.248V71H69.8638L69.7038 68.92C68.5518 70.552 66.8878 71.384 64.6798 71.384C61.3838 71.384 59.3997 69.528 59.3997 66.2C59.3997 62.68 61.6078 60.728 66.0558 60.728H69.1278V60.184C69.1278 58.456 68.4558 57.624 66.7598 57.624C65.1278 57.624 64.4878 58.36 64.4238 59.512H59.8478C60.1038 55.8 62.3438 53.912 66.9518 53.912ZM66.1198 67.672C67.4638 67.672 68.4558 67.032 69.1278 65.784V63.864H66.9198C64.7758 63.864 64.0718 64.6 64.0718 65.816C64.0718 67.032 64.7758 67.672 66.1198 67.672ZM86.8265 54.296H91.5945L86.1545 71H81.0985L75.6585 54.296H80.6505L83.7225 65.688L86.8265 54.296ZM97.676 64.12V64.44C97.676 66.616 98.54 67.672 100.588 67.672C102.188 67.672 103.116 67.032 103.212 65.88H107.724C107.532 69.496 105.068 71.384 100.556 71.384C95.5 71.384 92.94 68.984 92.94 64.28V61.016C92.94 56.376 95.5 53.912 100.364 53.912C105.26 53.912 107.82 56.44 107.82 61.08V64.12H97.676ZM100.524 57.624C98.508 57.624 97.676 58.552 97.676 60.792H103.34C103.34 58.552 102.508 57.624 100.524 57.624ZM135.083 62.68V66.552H132.843V71H128.107V66.552H117.963V62.392L127.787 49.24H132.843V62.68H135.083ZM122.507 62.68H128.107V54.904L122.507 62.68ZM145.474 71.384C140.322 71.384 137.602 68.856 137.602 64.056V56.184C137.602 51.352 140.322 48.856 145.474 48.856C150.626 48.856 153.346 51.352 153.346 56.184V64.056C153.346 68.856 150.626 71.384 145.474 71.384ZM145.474 67.384C147.682 67.384 148.61 66.328 148.61 63.864V56.376C148.61 53.912 147.682 52.856 145.474 52.856C143.266 52.856 142.338 53.912 142.338 56.376V63.864C142.338 66.328 143.266 67.384 145.474 67.384ZM160.856 61.08C157.688 61.08 155.992 59.608 155.992 56.792V53.144C155.992 50.328 157.688 48.856 160.856 48.856C164.024 48.856 165.72 50.328 165.72 53.144V56.792C165.72 59.608 164.024 61.08 160.856 61.08ZM159.352 71.384L172.408 48.856H175.768L162.744 71.384H159.352ZM160.856 58.264C161.848 58.264 162.328 57.752 162.328 56.632V53.272C162.328 52.184 161.848 51.672 160.856 51.672C159.864 51.672 159.384 52.184 159.384 53.272V56.632C159.384 57.752 159.864 58.264 160.856 58.264ZM174.264 71.384C171.096 71.384 169.4 69.912 169.4 67.096V63.448C169.4 60.632 171.096 59.16 174.264 59.16C177.432 59.16 179.128 60.632 179.128 63.448V67.096C179.128 69.912 177.432 71.384 174.264 71.384ZM174.264 68.568C175.256 68.568 175.736 68.056 175.736 66.936V63.576C175.736 62.488 175.256 61.976 174.264 61.976C173.272 61.976 172.792 62.488 172.792 63.576V66.936C172.792 68.056 173.272 68.568 174.264 68.568ZM197.523 71.384C192.851 71.384 190.387 68.888 190.387 64.088V61.4C190.387 56.6 192.851 54.104 197.523 54.104C202.195 54.104 204.659 56.6 204.659 61.4V64.088C204.659 68.888 202.195 71.384 197.523 71.384ZM197.523 68.92C200.435 68.92 201.843 67.32 201.843 63.992V61.464C201.843 58.136 200.435 56.568 197.523 56.568C194.611 56.568 193.203 58.136 193.203 61.464V63.992C193.203 67.32 194.611 68.92 197.523 68.92ZM217.125 54.104C220.581 54.104 222.309 56.184 222.309 60.152V71H219.493V60.408C219.493 57.816 218.533 56.696 216.581 56.696C214.629 56.696 213.125 57.848 211.941 60.28V71H209.125V54.488H211.525L211.621 57.08C213.061 55.032 214.821 54.104 217.125 54.104ZM248.932 71L243.748 62.168H238.98V71H236.1V49.24H244.452C249.412 49.24 251.46 51.128 251.46 55.704C251.46 59.416 250.116 61.368 246.948 61.976L252.26 71H248.932ZM238.98 51.864V59.544H244.196C247.46 59.544 248.58 58.488 248.58 55.704C248.58 52.92 247.46 51.864 244.196 51.864H238.98ZM258.203 63.512V64.248C258.203 67.48 259.547 68.952 262.491 68.952C264.987 68.952 266.299 67.864 266.491 66.072H269.211C268.987 69.592 266.523 71.384 262.555 71.384C257.915 71.384 255.387 68.92 255.387 64.376V61.112C255.387 56.568 257.851 54.104 262.363 54.104C266.875 54.104 269.339 56.568 269.339 61.112V63.512H258.203ZM262.427 56.536C259.515 56.536 258.203 58.008 258.203 61.176H266.619C266.619 58.008 265.307 56.536 262.427 56.536ZM279.188 71.384C274.644 71.384 272.404 69.624 272.404 66.136H275.092C275.092 68.024 276.436 68.984 279.188 68.984C281.748 68.984 283.028 68.12 283.028 66.552C283.028 64.92 281.908 64.216 278.708 63.832C274.388 63.32 272.788 62.04 272.788 59.096C272.788 55.896 275.06 54.104 279.156 54.104C283.252 54.104 285.428 55.864 285.428 59.192H282.676C282.676 57.432 281.492 56.504 279.124 56.504C276.82 56.504 275.54 57.368 275.54 58.872C275.54 60.376 276.66 60.984 279.7 61.304C284.116 61.784 285.78 63.192 285.78 66.328C285.78 69.656 283.54 71.384 279.188 71.384ZM295.479 68.568H297.367V71H294.807C291.639 71 290.295 69.464 290.295 65.848V56.792H287.447V54.488H290.359L290.583 50.136H293.111V54.488H297.175V56.792H293.111V65.88C293.111 68.024 293.591 68.568 295.479 68.568ZM307.858 54.168H308.978V56.952H308.146C305.458 56.952 303.954 58.328 303.41 61.496V71H300.594V54.488H302.994L303.122 57.56C303.954 55.224 305.458 54.168 307.858 54.168ZM311.934 51.512V48.376H315.006V51.512H311.934ZM312.062 71V54.488H314.878V71H312.062ZM326.235 71.384C321.755 71.384 319.355 68.952 319.355 64.376V61.112C319.355 56.536 321.755 54.104 326.235 54.104C330.395 54.104 332.699 56.216 332.827 60.216H330.107C329.915 57.56 328.571 56.568 326.267 56.568C323.483 56.568 322.171 58.008 322.171 61.176V64.312C322.171 67.48 323.483 68.92 326.267 68.92C328.571 68.92 329.915 67.928 330.107 65.272H332.827C332.699 69.272 330.395 71.384 326.235 71.384ZM342.729 68.568H344.617V71H342.057C338.889 71 337.545 69.464 337.545 65.848V56.792H334.697V54.488H337.609L337.833 50.136H340.361V54.488H344.425V56.792H340.361V65.88C340.361 68.024 340.841 68.568 342.729 68.568ZM363.769 71.384C358.297 71.384 355.641 68.504 355.641 62.776V57.464C355.641 51.736 358.297 48.856 363.769 48.856C368.889 48.856 371.513 51.352 371.705 56.408H368.889C368.729 53.048 367.097 51.48 363.769 51.48C360.121 51.48 358.521 53.336 358.521 57.528V62.712C358.521 66.904 360.121 68.76 363.769 68.76C367.097 68.76 368.729 67.192 368.889 63.864H371.705C371.513 68.888 368.889 71.384 363.769 71.384ZM382.523 71.384C377.851 71.384 375.387 68.888 375.387 64.088V61.4C375.387 56.6 377.851 54.104 382.523 54.104C387.195 54.104 389.659 56.6 389.659 61.4V64.088C389.659 68.888 387.195 71.384 382.523 71.384ZM382.523 68.92C385.435 68.92 386.843 67.32 386.843 63.992V61.464C386.843 58.136 385.435 56.568 382.523 56.568C379.611 56.568 378.203 58.136 378.203 61.464V63.992C378.203 67.32 379.611 68.92 382.523 68.92ZM402.125 54.104C405.581 54.104 407.309 56.184 407.309 60.152V71H404.493V60.408C404.493 57.816 403.533 56.696 401.581 56.696C399.629 56.696 398.125 57.848 396.941 60.28V71H394.125V54.488H396.525L396.621 57.08C398.061 55.032 399.821 54.104 402.125 54.104ZM418.073 68.568H419.961V71H417.401C414.233 71 412.889 69.464 412.889 65.848V56.792H410.041V54.488H412.953L413.177 50.136H415.705V54.488H419.769V56.792H415.705V65.88C415.705 68.024 416.185 68.568 418.073 68.568ZM425.234 63.512V64.248C425.234 67.48 426.578 68.952 429.522 68.952C432.018 68.952 433.33 67.864 433.522 66.072H436.242C436.018 69.592 433.554 71.384 429.586 71.384C424.946 71.384 422.418 68.92 422.418 64.376V61.112C422.418 56.568 424.882 54.104 429.394 54.104C433.906 54.104 436.37 56.568 436.37 61.112V63.512H425.234ZM429.458 56.536C426.546 56.536 425.234 58.008 425.234 61.176H433.65C433.65 58.008 432.338 56.536 429.458 56.536ZM448.781 54.104C452.237 54.104 453.965 56.184 453.965 60.152V71H451.149V60.408C451.149 57.816 450.189 56.696 448.237 56.696C446.285 56.696 444.781 57.848 443.597 60.28V71H440.781V54.488H443.181L443.277 57.08C444.717 55.032 446.477 54.104 448.781 54.104ZM464.729 68.568H466.617V71H464.057C460.889 71 459.545 69.464 459.545 65.848V56.792H456.697V54.488H459.609L459.833 50.136H462.361V54.488H466.425V56.792H462.361V65.88C462.361 68.024 462.841 68.568 464.729 68.568ZM486.761 49.24C491.849 49.24 494.025 51.256 494.025 55.928C494.025 60.6 491.849 62.584 486.761 62.584H481.449V71H478.569V49.24H486.761ZM486.569 59.96C489.929 59.96 491.145 58.84 491.145 55.928C491.145 53.016 489.929 51.864 486.569 51.864H481.449V59.96H486.569ZM505.139 54.168H506.259V56.952H505.427C502.739 56.952 501.235 58.328 500.691 61.496V71H497.875V54.488H500.275L500.403 57.56C501.235 55.224 502.739 54.168 505.139 54.168ZM515.585 71.384C510.913 71.384 508.449 68.888 508.449 64.088V61.4C508.449 56.6 510.913 54.104 515.585 54.104C520.257 54.104 522.721 56.6 522.721 61.4V64.088C522.721 68.888 520.257 71.384 515.585 71.384ZM515.585 68.92C518.497 68.92 519.905 67.32 519.905 63.992V61.464C519.905 58.136 518.497 56.568 515.585 56.568C512.673 56.568 511.265 58.136 511.265 61.464V63.992C511.265 67.32 512.673 68.92 515.585 68.92Z"
       fill="#F9FAF9"
       id="path2" />
    <path
       d="M44.29 85.48L48.976 97.756H49.064L53.706 85.48H56.302V100H54.718L54.74 87.086H54.674L49.702 100H48.272L43.344 87.086H43.278L43.3 100H41.694V85.48H44.29ZM65.3105 98.438C64.5185 99.626 63.4185 100.22 62.0545 100.22C60.1625 100.22 58.8205 99.076 58.8205 97.404C58.8205 95.732 60.1405 94.786 62.5605 94.324C64.5845 93.95 65.4425 93.488 65.4425 92.41C65.4425 91.332 64.5845 90.606 63.1325 90.606C61.8125 90.606 60.5585 91.2 59.5025 92.212V90.496C60.5145 89.77 61.8565 89.33 63.1985 89.33C65.4645 89.33 66.9825 90.584 66.9825 92.52V97.03C66.9825 97.998 67.1145 99.12 67.3785 100H65.7285L65.5305 98.438H65.3105ZM65.4425 94.324C64.9365 94.852 64.2545 95.16 62.8025 95.49C61.0645 95.886 60.3825 96.436 60.3825 97.382C60.3825 98.372 61.1305 98.988 62.3405 98.988C64.1225 98.988 65.4425 97.646 65.4425 95.622V94.324ZM77.3952 100L72.0272 94.632H71.8072V97.03C71.8072 98.152 71.8512 99.12 72.0052 100H70.2892V89.55C70.2892 88.296 70.2452 87.02 70.1132 85.48H71.8072V94.258H72.0272L76.6032 89.55H78.4732L73.6552 94.434L79.3092 100H77.3952ZM84.3745 89.33C87.1905 89.33 88.9945 91.31 88.9945 94.104C88.9945 94.412 88.9725 94.72 88.9285 95.182H80.9865C81.0965 97.404 82.6805 98.944 84.9465 98.944C86.3105 98.944 87.5645 98.394 88.4005 97.47V99.23C87.5425 99.846 86.1785 100.22 84.8365 100.22C81.8005 100.22 79.4245 98.152 79.4245 94.72C79.4245 91.794 81.2725 89.33 84.3745 89.33ZM87.5645 94.038C87.5865 92.036 86.3325 90.628 84.4405 90.628C82.5265 90.628 81.1845 92.036 81.0525 94.038H87.5645ZM96.155 103.85L97.915 99.714L93.779 89.55H95.473L98.707 97.866H98.795L101.985 89.55H103.635L97.739 103.85H96.155ZM109.406 89.33C112.442 89.33 114.466 91.596 114.466 94.764C114.466 97.91 112.442 100.22 109.406 100.22C106.392 100.22 104.368 97.91 104.368 94.764C104.368 91.574 106.392 89.33 109.406 89.33ZM109.406 90.672C107.316 90.672 105.908 92.3 105.908 94.742C105.908 97.184 107.316 98.878 109.406 98.878C111.518 98.878 112.926 97.184 112.926 94.742C112.926 92.3 111.518 90.672 109.406 90.672ZM120.561 100.22C118.383 100.22 116.865 98.768 116.865 96.59V92.52C116.865 91.42 116.777 90.54 116.689 89.55H118.383V96.238C118.383 97.976 119.307 98.9 120.891 98.9C122.805 98.9 124.081 97.404 124.081 95.27V89.55H125.599V97.03C125.599 98.064 125.665 99.076 125.797 100H124.169V98.174H123.949C123.311 99.428 122.167 100.22 120.561 100.22ZM128.898 100V92.52C128.898 91.574 128.832 90.562 128.7 89.55H130.35V91.728H130.57C131.054 90.166 132.22 89.396 133.496 89.396C134.002 89.396 134.552 89.506 134.904 89.748V91.332C134.42 90.936 133.98 90.76 133.408 90.76C131.538 90.76 130.416 92.41 130.416 94.94V97.03C130.416 98.086 130.46 98.834 130.614 100H128.898ZM142.383 97.932V100.198C142.383 101.254 142.449 102.42 142.581 103.3H140.865V92.52C140.865 91.618 140.799 90.518 140.689 89.55H142.383V91.618H142.603C143.373 90.144 144.737 89.33 146.343 89.33C148.851 89.33 150.941 91.266 150.941 94.786C150.941 98.284 148.851 100.22 146.365 100.22C144.715 100.22 143.351 99.406 142.603 97.932H142.383ZM146.013 90.65C143.879 90.65 142.317 92.366 142.317 94.786C142.317 97.162 143.857 98.9 146.035 98.9C148.081 98.9 149.379 97.294 149.379 94.764C149.379 92.234 148.081 90.65 146.013 90.65ZM157.041 100.22C154.863 100.22 153.345 98.768 153.345 96.59V92.52C153.345 91.42 153.257 90.54 153.169 89.55H154.863V96.238C154.863 97.976 155.787 98.9 157.371 98.9C159.285 98.9 160.561 97.404 160.561 95.27V89.55H162.079V97.03C162.079 98.064 162.145 99.076 162.277 100H160.649V98.174H160.429C159.791 99.428 158.647 100.22 157.041 100.22ZM165.379 100V92.52C165.379 91.574 165.313 90.562 165.181 89.55H166.831V91.728H167.051C167.535 90.166 168.701 89.396 169.977 89.396C170.483 89.396 171.033 89.506 171.385 89.748V91.332C170.901 90.936 170.461 90.76 169.889 90.76C168.019 90.76 166.897 92.41 166.897 94.94V97.03C166.897 98.086 166.941 98.834 167.095 100H165.379ZM180.798 99.23C179.83 99.912 178.686 100.22 177.542 100.22C174.484 100.22 172.108 98.064 172.108 94.764C172.108 91.596 174.242 89.33 177.432 89.33C178.708 89.33 179.764 89.66 180.666 90.32V92.08C179.874 91.178 178.686 90.672 177.432 90.672C175.1 90.672 173.67 92.454 173.67 94.786C173.67 97.096 175.166 98.878 177.564 98.878C178.818 98.878 180.006 98.372 180.798 97.47V99.23ZM183.013 85.48H184.707V91.354H184.927C185.565 90.056 186.775 89.33 188.293 89.33C190.493 89.33 192.055 90.914 192.055 93.114V97.03C192.055 98.152 192.121 99.098 192.231 100H190.537V93.51C190.537 91.772 189.459 90.65 187.875 90.65C186.027 90.65 184.707 92.146 184.707 94.258V100H183.189V89.55C183.189 88.274 183.123 86.646 183.013 85.48ZM200.855 98.438C200.063 99.626 198.963 100.22 197.599 100.22C195.707 100.22 194.365 99.076 194.365 97.404C194.365 95.732 195.685 94.786 198.105 94.324C200.129 93.95 200.987 93.488 200.987 92.41C200.987 91.332 200.129 90.606 198.677 90.606C197.357 90.606 196.103 91.2 195.047 92.212V90.496C196.059 89.77 197.401 89.33 198.743 89.33C201.009 89.33 202.527 90.584 202.527 92.52V97.03C202.527 97.998 202.659 99.12 202.923 100H201.273L201.075 98.438H200.855ZM200.987 94.324C200.481 94.852 199.799 95.16 198.347 95.49C196.609 95.886 195.927 96.436 195.927 97.382C195.927 98.372 196.675 98.988 197.885 98.988C199.667 98.988 200.987 97.646 200.987 95.622V94.324ZM210.986 97.118C210.986 96.128 210.304 95.534 208.742 95.402C206.674 95.204 205.354 94.126 205.354 92.388C205.354 90.474 206.894 89.33 208.962 89.33C209.952 89.33 210.942 89.616 211.756 90.188V91.904C211.008 91.024 209.974 90.562 208.918 90.562C207.708 90.562 206.784 91.222 206.784 92.322C206.784 93.356 207.554 93.972 209.072 94.104C211.184 94.258 212.482 95.336 212.482 97.074C212.482 98.922 210.964 100.22 208.72 100.22C207.51 100.22 206.278 99.846 205.332 99.164V97.426C206.146 98.372 207.4 98.966 208.698 98.966C210.062 98.966 210.986 98.306 210.986 97.118ZM219.039 89.33C221.855 89.33 223.659 91.31 223.659 94.104C223.659 94.412 223.637 94.72 223.593 95.182H215.651C215.761 97.404 217.345 98.944 219.611 98.944C220.975 98.944 222.229 98.394 223.065 97.47V99.23C222.207 99.846 220.843 100.22 219.501 100.22C216.465 100.22 214.089 98.152 214.089 94.72C214.089 91.794 215.937 89.33 219.039 89.33ZM222.229 94.038C222.251 92.036 220.997 90.628 219.105 90.628C217.191 90.628 215.849 92.036 215.717 94.038H222.229ZM231.779 91.618H231.999C232.747 90.144 234.111 89.33 235.739 89.33C238.467 89.33 240.337 91.53 240.337 94.786C240.337 98.02 238.467 100.22 235.761 100.22C234.111 100.22 232.747 99.406 231.999 97.932H231.779L231.625 100H230.261V89.55C230.261 88.45 230.195 86.998 230.085 85.48H231.779V91.618ZM235.409 98.9C237.477 98.9 238.775 97.294 238.775 94.764C238.775 92.234 237.477 90.65 235.409 90.65C233.275 90.65 231.713 92.366 231.713 94.786C231.713 97.162 233.253 98.9 235.409 98.9ZM247.183 89.33C249.999 89.33 251.803 91.31 251.803 94.104C251.803 94.412 251.781 94.72 251.737 95.182H243.795C243.905 97.404 245.489 98.944 247.755 98.944C249.119 98.944 250.373 98.394 251.209 97.47V99.23C250.351 99.846 248.987 100.22 247.645 100.22C244.609 100.22 242.233 98.152 242.233 94.72C242.233 91.794 244.081 89.33 247.183 89.33ZM250.373 94.038C250.395 92.036 249.141 90.628 247.249 90.628C245.335 90.628 243.993 92.036 243.861 94.038H250.373ZM253.271 89.55H255.141V88.274C255.141 86.558 256.373 85.37 258.177 85.37C258.771 85.37 259.299 85.502 259.761 85.7V87.174C259.321 86.8 258.815 86.624 258.331 86.624C257.363 86.624 256.659 87.262 256.659 88.516V89.55H259.585V90.804H256.659V97.03C256.659 97.998 256.725 99.054 256.857 100H255.141V90.804H253.271V89.55ZM265.146 89.33C268.182 89.33 270.206 91.596 270.206 94.764C270.206 97.91 268.182 100.22 265.146 100.22C262.132 100.22 260.108 97.91 260.108 94.764C260.108 91.574 262.132 89.33 265.146 89.33ZM265.146 90.672C263.056 90.672 261.648 92.3 261.648 94.742C261.648 97.184 263.056 98.878 265.146 98.878C267.258 98.878 268.666 97.184 268.666 94.742C268.666 92.3 267.258 90.672 265.146 90.672ZM272.8 100V92.52C272.8 91.574 272.734 90.562 272.602 89.55H274.252V91.728H274.472C274.956 90.166 276.122 89.396 277.398 89.396C277.904 89.396 278.454 89.506 278.806 89.748V91.332C278.322 90.936 277.882 90.76 277.31 90.76C275.44 90.76 274.318 92.41 274.318 94.94V97.03C274.318 98.086 274.362 98.834 274.516 100H272.8ZM284.48 89.33C287.296 89.33 289.1 91.31 289.1 94.104C289.1 94.412 289.078 94.72 289.034 95.182H281.092C281.202 97.404 282.786 98.944 285.052 98.944C286.416 98.944 287.67 98.394 288.506 97.47V99.23C287.648 99.846 286.284 100.22 284.942 100.22C281.906 100.22 279.53 98.152 279.53 94.72C279.53 91.794 281.378 89.33 284.48 89.33ZM287.67 94.038C287.692 92.036 286.438 90.628 284.546 90.628C282.632 90.628 281.29 92.036 281.158 94.038H287.67ZM298.673 85.48H300.015V97.03C300.015 97.998 300.081 99.054 300.191 100H298.453V87.284L295.087 89.418H294.933V87.812L298.673 85.48ZM303.474 88.626V86.712C304.53 85.788 305.938 85.26 307.456 85.26C310.206 85.26 311.966 87.042 311.966 89.616C311.966 92.3 310.316 94.368 306.796 97.272L305.432 98.46V98.548H311.988V100H303.21V98.592L305.168 96.898C308.886 93.818 310.316 91.772 310.316 89.704C310.316 87.878 309.106 86.646 307.302 86.646C305.916 86.646 304.596 87.35 303.474 88.626ZM318.521 85.04H319.907L314.297 100.44H312.911L318.521 85.04ZM327.449 96.194C327.449 94.456 326.107 93.334 324.347 93.334H323.511V91.992H324.325C325.975 91.992 327.251 90.848 327.251 89.176C327.251 87.57 326.063 86.58 324.479 86.58C323.093 86.58 321.883 87.328 320.981 88.516V86.646C322.015 85.7 323.291 85.26 324.589 85.26C326.987 85.26 328.769 86.734 328.769 89.066C328.769 90.87 327.669 92.234 325.997 92.608V92.652C327.801 93.026 329.011 94.412 329.011 96.326C329.011 98.812 327.053 100.22 324.677 100.22C323.357 100.22 321.993 99.78 320.893 98.834V96.986C321.861 98.196 323.137 98.878 324.523 98.878C326.239 98.878 327.449 97.822 327.449 96.194ZM335.58 85.04H336.966L331.356 100.44H329.97L335.58 85.04ZM337.849 88.626V86.712C338.905 85.788 340.313 85.26 341.831 85.26C344.581 85.26 346.341 87.042 346.341 89.616C346.341 92.3 344.691 94.368 341.171 97.272L339.807 98.46V98.548H346.363V100H337.585V98.592L339.543 96.898C343.261 93.818 344.691 91.772 344.691 89.704C344.691 87.878 343.481 86.646 341.677 86.646C340.291 86.646 338.971 87.35 337.849 88.626ZM355.393 100H353.875V96.084H347.517V94.06L353.919 85.48H355.393V94.698H357.703V96.084H355.393V100ZM353.875 87.79L348.705 94.698H353.875V87.79Z"
       fill="#F9FAF9"
       id="path3" />
    <rect
       x="40"
       y="125"
       width="136"
       height="44"
       rx="22"
       stroke="#F9FAF9"
       id="rect3" />
    <path
       d="M71.133 153.192C70.237 153.192 69.3783 153.075 68.557 152.84C67.7357 152.595 67.0743 152.28 66.573 151.896L67.453 149.944C67.933 150.285 68.4983 150.568 69.149 150.792C69.8103 151.005 70.477 151.112 71.149 151.112C71.661 151.112 72.0717 151.064 72.381 150.968C72.701 150.861 72.9357 150.717 73.085 150.536C73.2343 150.355 73.309 150.147 73.309 149.912C73.309 149.613 73.1917 149.379 72.957 149.208C72.7223 149.027 72.413 148.883 72.029 148.776C71.645 148.659 71.2183 148.552 70.749 148.456C70.2903 148.349 69.8263 148.221 69.357 148.072C68.8983 147.923 68.477 147.731 68.093 147.496C67.709 147.261 67.3943 146.952 67.149 146.568C66.9143 146.184 66.797 145.693 66.797 145.096C66.797 144.456 66.9677 143.875 67.309 143.352C67.661 142.819 68.1837 142.397 68.877 142.088C69.581 141.768 70.461 141.608 71.517 141.608C72.221 141.608 72.9143 141.693 73.597 141.864C74.2797 142.024 74.8823 142.269 75.405 142.6L74.605 144.568C74.0823 144.269 73.5597 144.051 73.037 143.912C72.5143 143.763 72.0023 143.688 71.501 143.688C70.9997 143.688 70.589 143.747 70.269 143.864C69.949 143.981 69.7197 144.136 69.581 144.328C69.4423 144.509 69.373 144.723 69.373 144.968C69.373 145.256 69.4903 145.491 69.725 145.672C69.9597 145.843 70.269 145.981 70.653 146.088C71.037 146.195 71.4583 146.301 71.917 146.408C72.3863 146.515 72.8503 146.637 73.309 146.776C73.7783 146.915 74.205 147.101 74.589 147.336C74.973 147.571 75.2823 147.88 75.517 148.264C75.7623 148.648 75.885 149.133 75.885 149.72C75.885 150.349 75.709 150.925 75.357 151.448C75.005 151.971 74.477 152.392 73.773 152.712C73.0797 153.032 72.1997 153.192 71.133 153.192ZM82.7121 144.264C83.3948 144.264 84.0028 144.403 84.5361 144.68C85.0801 144.947 85.5068 145.363 85.8161 145.928C86.1255 146.483 86.2801 147.197 86.2801 148.072V153H83.7841V148.456C83.7841 147.763 83.6295 147.251 83.3201 146.92C83.0215 146.589 82.5948 146.424 82.0401 146.424C81.6455 146.424 81.2881 146.509 80.9681 146.68C80.6588 146.84 80.4135 147.091 80.2321 147.432C80.0615 147.773 79.9761 148.211 79.9761 148.744V153H77.4801V141.128H79.9761V146.776L79.4161 146.056C79.7255 145.48 80.1681 145.037 80.7441 144.728C81.3201 144.419 81.9761 144.264 82.7121 144.264ZM92.7011 153.128C91.7838 153.128 90.9678 152.936 90.2531 152.552C89.5491 152.168 88.9891 151.645 88.5731 150.984C88.1678 150.312 87.9651 149.549 87.9651 148.696C87.9651 147.832 88.1678 147.069 88.5731 146.408C88.9891 145.736 89.5491 145.213 90.2531 144.84C90.9678 144.456 91.7838 144.264 92.7011 144.264C93.6078 144.264 94.4185 144.456 95.1331 144.84C95.8478 145.213 96.4078 145.731 96.8131 146.392C97.2185 147.053 97.4211 147.821 97.4211 148.696C97.4211 149.549 97.2185 150.312 96.8131 150.984C96.4078 151.645 95.8478 152.168 95.1331 152.552C94.4185 152.936 93.6078 153.128 92.7011 153.128ZM92.7011 151.08C93.1171 151.08 93.4905 150.984 93.8211 150.792C94.1518 150.6 94.4131 150.328 94.6051 149.976C94.7971 149.613 94.8931 149.187 94.8931 148.696C94.8931 148.195 94.7971 147.768 94.6051 147.416C94.4131 147.064 94.1518 146.792 93.8211 146.6C93.4905 146.408 93.1171 146.312 92.7011 146.312C92.2851 146.312 91.9118 146.408 91.5811 146.6C91.2505 146.792 90.9838 147.064 90.7811 147.416C90.5891 147.768 90.4931 148.195 90.4931 148.696C90.4931 149.187 90.5891 149.613 90.7811 149.976C90.9838 150.328 91.2505 150.6 91.5811 150.792C91.9118 150.984 92.2851 151.08 92.7011 151.08ZM104.178 153.128C103.452 153.128 102.818 152.968 102.274 152.648C101.73 152.328 101.303 151.843 100.994 151.192C100.695 150.531 100.546 149.699 100.546 148.696C100.546 147.683 100.69 146.851 100.978 146.2C101.266 145.549 101.682 145.064 102.226 144.744C102.77 144.424 103.42 144.264 104.178 144.264C104.988 144.264 105.714 144.451 106.354 144.824C107.004 145.187 107.516 145.699 107.89 146.36C108.274 147.021 108.466 147.8 108.466 148.696C108.466 149.603 108.274 150.387 107.89 151.048C107.516 151.709 107.004 152.221 106.354 152.584C105.714 152.947 104.988 153.128 104.178 153.128ZM99.0895 156.104V144.392H101.474V146.152L101.426 148.712L101.586 151.256V156.104H99.0895ZM103.746 151.08C104.162 151.08 104.53 150.984 104.85 150.792C105.18 150.6 105.442 150.328 105.634 149.976C105.836 149.613 105.938 149.187 105.938 148.696C105.938 148.195 105.836 147.768 105.634 147.416C105.442 147.064 105.18 146.792 104.85 146.6C104.53 146.408 104.162 146.312 103.746 146.312C103.33 146.312 102.956 146.408 102.626 146.6C102.295 146.792 102.034 147.064 101.842 147.416C101.65 147.768 101.554 148.195 101.554 148.696C101.554 149.187 101.65 149.613 101.842 149.976C102.034 150.328 102.295 150.6 102.626 150.792C102.956 150.984 103.33 151.08 103.746 151.08ZM119.9 144.264C120.582 144.264 121.19 144.403 121.724 144.68C122.268 144.947 122.694 145.363 123.004 145.928C123.313 146.483 123.468 147.197 123.468 148.072V153H120.972V148.456C120.972 147.763 120.817 147.251 120.508 146.92C120.209 146.589 119.782 146.424 119.228 146.424C118.833 146.424 118.476 146.509 118.156 146.68C117.846 146.84 117.601 147.091 117.42 147.432C117.249 147.773 117.164 148.211 117.164 148.744V153H114.668V144.392H117.052V146.776L116.604 146.056C116.913 145.48 117.356 145.037 117.932 144.728C118.508 144.419 119.164 144.264 119.9 144.264ZM129.889 153.128C128.971 153.128 128.155 152.936 127.441 152.552C126.737 152.168 126.177 151.645 125.761 150.984C125.355 150.312 125.153 149.549 125.153 148.696C125.153 147.832 125.355 147.069 125.761 146.408C126.177 145.736 126.737 145.213 127.441 144.84C128.155 144.456 128.971 144.264 129.889 144.264C130.795 144.264 131.606 144.456 132.321 144.84C133.035 145.213 133.595 145.731 134.001 146.392C134.406 147.053 134.609 147.821 134.609 148.696C134.609 149.549 134.406 150.312 134.001 150.984C133.595 151.645 133.035 152.168 132.321 152.552C131.606 152.936 130.795 153.128 129.889 153.128ZM129.889 151.08C130.305 151.08 130.678 150.984 131.009 150.792C131.339 150.6 131.601 150.328 131.793 149.976C131.985 149.613 132.081 149.187 132.081 148.696C132.081 148.195 131.985 147.768 131.793 147.416C131.601 147.064 131.339 146.792 131.009 146.6C130.678 146.408 130.305 146.312 129.889 146.312C129.473 146.312 129.099 146.408 128.769 146.6C128.438 146.792 128.171 147.064 127.969 147.416C127.777 147.768 127.681 148.195 127.681 148.696C127.681 149.187 127.777 149.613 127.969 149.976C128.171 150.328 128.438 150.6 128.769 150.792C129.099 150.984 129.473 151.08 129.889 151.08ZM138.011 153L134.907 144.392H137.259L139.835 151.8H138.715L141.403 144.392H143.515L146.123 151.8H145.003L147.659 144.392H149.867L146.747 153H144.331L142.043 146.648H142.779L140.411 153H138.011Z"
       fill="#F9FAF9"
       id="path4" />
    <path
       fill-rule="evenodd"
       clip-rule="evenodd"
       d="M1004.95 222C998.632 221.986 997.504 217.365 997.504 212.94L997.518 61.3655V60.3078L997.519 60.2747C997.546 57.2896 997.562 55.6509 994.178 53.3491C993.375 52.8014 992.487 52.2857 991.541 51.7367C991.405 51.6579 991.268 51.5784 991.13 51.4981C986.628 49.198 982.696 45.922 979.621 41.909C974.179 34.8111 977.784 26.0014 985.188 26.0014H1072.71C1075.3 25.9818 1077.88 26.1633 1080.44 26.5442C1102.91 30.0096 1121.52 39.5848 1134.24 54.2816C1144.4 65.8671 1150.49 80.4655 1151.56 95.8389V96.0894C1151.38 104.44 1150.79 126.485 1123.92 147.584C1121.4 149.552 1119.73 152.407 1119.25 155.566C1118.77 158.725 1119.51 161.949 1121.33 164.577L1153.46 210.657C1154.22 211.747 1154.65 213.023 1154.73 214.346C1154.81 215.668 1154.52 216.986 1153.9 218.156C1153.28 219.325 1152.34 220.301 1151.2 220.977C1150.06 221.652 1148.76 222.001 1147.44 221.986H1112.64C1105.07 221.986 1101.05 219.439 1097.74 214.568L1063.74 164.466C1061.4 161.028 1058.82 159.038 1054.65 159.038C1047.77 159.038 1047.77 164.312 1047.77 171.062V212.954C1047.77 217.644 1046.28 222 1039.74 222H1004.95ZM1072.87 121.308C1095.73 121.308 1114.27 109.318 1114.29 94.5306C1114.29 94.5353 1114.29 94.5399 1114.29 94.5446V94.5167C1114.29 94.5214 1114.29 94.526 1114.29 94.5306C1114.27 79.7289 1095.73 67.7118 1072.87 67.7118C1050 67.7118 1031.46 79.7226 1031.46 94.5167C1031.46 109.311 1050 121.308 1072.87 121.308ZM1095.04 94.5444C1095.04 104.899 1085.11 113.249 1072.87 113.249C1060.63 113.249 1050.71 104.899 1050.71 94.5444C1050.71 84.1899 1060.62 75.8395 1072.87 75.8395C1085.11 75.8395 1095.04 84.1899 1095.04 94.5444Z"
       fill="#222222"
       id="path5" />
    <path
       d="M794.193 119.254C794.956 119.254 795.693 119.214 796.424 119.263C798.212 119.382 799.996 119.545 801.782 119.685C802.326 119.727 802.652 119.908 802.74 120.535C802.875 121.492 803.459 122.196 804.248 122.776C805.867 123.966 807.615 124.274 809.547 123.736C811.146 123.291 812.224 122.007 812.288 120.351C812.315 119.649 812.303 118.941 812.241 118.241C812.142 117.134 810.786 115.708 809.676 115.527C808.911 115.402 808.138 115.266 807.366 115.25C805.968 115.221 804.705 115.65 803.723 116.677C803.193 117.232 802.62 117.258 801.897 117.17C800.53 117.005 799.146 116.942 797.767 116.901C794.854 116.814 791.939 116.767 789.025 116.706C788.8 116.701 788.576 116.711 788.352 116.705C787.044 116.672 786.771 117.147 786.483 118.555C786.476 118.591 786.483 118.629 786.485 118.666C786.569 119.893 786.558 121.106 785.835 122.197C786.555 122.864 787.383 123.128 788.169 123.418C788.774 123.642 789.393 123.07 789.425 122.368C789.452 121.778 789.423 121.185 789.469 120.597C789.494 120.279 789.565 119.937 789.72 119.664C789.985 119.197 790.454 119.208 790.91 119.347C791.362 119.483 791.4 119.846 791.367 120.243C791.305 120.981 791.213 121.719 791.207 122.458C791.199 123.469 791.248 123.493 792.211 123.717C792.538 123.793 792.862 123.896 793.193 123.942C794.219 124.086 794.569 123.685 794.395 122.687C794.249 121.851 794.167 121.004 794.086 120.159C794.063 119.914 794.141 119.659 794.193 119.254L794.193 119.254ZM808.113 121.336C807.038 121.209 806.28 120.935 805.83 120.172C805.564 119.72 805.629 119.218 805.985 118.836C806.572 118.206 807.286 117.875 808.182 118.12C808.538 118.218 808.898 118.324 809.263 118.358C809.771 118.406 810.096 118.643 810.24 119.116C810.394 119.619 810.295 120.139 809.886 120.418C809.29 120.824 808.598 121.092 808.113 121.336Z"
       fill="#F9FAF9"
       id="path6" />
    <path
       d="M776.229 110C773.437 110.136 771.818 112.729 772.813 114.974C773.109 115.644 773.5 116.293 773.954 116.868C774.515 117.576 774.651 118.189 774.289 119.089C773.572 120.871 773.047 122.729 772.437 124.553C772.333 124.866 772.195 125.169 772.082 125.48C771.841 126.143 772.143 126.621 772.835 126.579C774.465 126.48 776.093 126.336 777.722 126.214C778.131 126.183 778.541 126.161 778.951 126.149C779.212 126.14 779.475 126.176 779.735 126.159C780.765 126.094 781.24 125.352 780.882 124.412C780.278 122.821 779.702 121.22 779.083 119.634C778.777 118.853 778.845 118.182 779.255 117.421C779.67 116.652 779.962 115.778 780.118 114.916C780.538 112.599 778.415 109.972 776.229 110Z"
       fill="#F9FAF9"
       id="path7" />
    <path
       d="M668.611 177.184C668.647 175.174 668.294 173.199 667.779 171.257C667.676 170.866 667.491 170.494 667.323 170.124C667.205 169.866 667.01 169.696 666.701 169.654L666.695 169.653C666.706 169.601 666.715 169.548 666.725 169.496C667.043 167.795 667.235 166.082 667.282 164.348C667.334 162.401 667.086 160.504 666.4 158.685C665.488 156.267 663.952 154.411 661.396 153.562C660.97 153.42 660.528 153.329 660.09 153.225C657.124 152.524 654.432 153.027 652.058 154.994C650.021 156.681 648.628 158.789 647.732 161.255C647.085 163.035 646.731 164.886 646.317 166.722C646.315 166.73 646.314 166.736 646.312 166.744C645.822 166.728 645.457 166.943 645.208 167.46C644.769 168.371 644.269 169.252 643.849 170.17C643.029 171.961 642.363 173.808 642.116 175.774C641.857 177.838 642.085 179.879 642.473 181.913C643.261 186.045 645.813 188.707 649.6 190.309C651.357 191.052 653.208 191.451 655.133 191.525C657.027 191.597 658.828 191.257 660.554 190.503C662.319 189.732 663.673 188.447 664.903 187.018C667.338 184.187 668.547 180.886 668.613 177.184L668.611 177.184ZM648.343 161.536C649.213 159.053 650.623 156.95 652.717 155.324C654.13 154.227 655.741 153.631 657.541 153.589C658.808 153.56 660.036 153.816 661.223 154.233C662.017 154.512 662.766 154.908 663.4 155.471C664.576 156.516 665.401 157.789 665.913 159.277C666.621 161.34 666.74 163.461 666.568 165.605C666.461 166.925 666.297 168.261 666.077 169.568C665.481 169.484 664.885 169.396 664.289 169.308C664.496 167.944 664.688 166.569 664.753 165.189C664.836 163.414 664.602 161.657 664.056 159.96C663.565 158.436 662.706 157.147 661.243 156.372C659.373 155.381 656.962 155.124 655.014 156.029C652.653 157.127 651.132 158.966 650.225 161.361C649.7 162.748 649.278 164.157 648.988 165.611C648.913 166.09 648.837 166.57 648.764 167.049C648.761 167.069 648.758 167.088 648.754 167.109C648.516 167.072 648.278 167.036 648.04 166.999L648.039 167.005C647.693 166.952 647.345 166.909 647 166.851C647.055 166.579 647.102 166.317 647.161 166.042C647.489 164.523 647.827 163.009 648.343 161.537L648.343 161.536ZM649.413 167.211C649.542 166.527 649.656 165.839 649.8 165.158C650.217 163.193 650.806 161.29 651.857 159.551C652.775 158.032 654.149 157.054 655.768 156.442C657.662 155.724 659.493 156.2 661.182 157.114C662.483 157.819 663.159 159.077 663.546 160.465C664.139 162.586 664.276 164.746 663.999 166.929C663.902 167.694 663.773 168.454 663.651 169.215C662.665 169.074 662.687 169.182 662.342 169.934C661.998 170.683 661.434 171.138 660.568 171.151C660.236 171.156 659.902 171.188 659.571 171.17C657.096 171.037 654.677 170.596 652.302 169.894C651.551 169.672 651.03 169.233 650.83 168.459C650.786 168.29 650.703 168.13 650.668 167.96C650.586 167.564 650.336 167.356 649.95 167.295C649.771 167.266 649.592 167.238 649.412 167.211L649.413 167.211ZM664.354 186.527C663.561 187.437 662.744 188.33 661.721 189.005C659.515 190.46 657.093 191.015 654.463 190.784C652.908 190.647 651.384 190.346 649.969 189.719C647.918 188.812 645.981 187.708 644.752 185.722C644.113 184.688 643.614 183.595 643.315 182.417C642.825 180.483 642.623 178.515 642.719 176.526C642.777 175.317 643.081 174.149 643.458 172.999C644.041 171.22 644.804 169.52 645.717 167.886C646.019 167.345 646.037 167.343 646.648 167.435C647.615 167.581 648.58 167.749 649.549 167.886C650.157 167.972 650.177 168.65 650.396 169.088C650.687 169.673 651.236 170.216 651.871 170.418C652.607 170.652 653.335 170.899 654.097 171.041C655.634 171.331 657.184 171.565 658.736 171.767C659.371 171.85 660.025 171.805 660.669 171.792C661.741 171.77 662.46 171.207 662.929 170.286C662.994 170.16 663.052 169.968 663.186 169.898C663.199 169.89 663.213 169.885 663.229 169.88C663.327 169.852 663.431 169.867 663.532 169.883C664.366 170.017 665.193 170.121 666.033 170.209C666.502 170.259 666.796 170.476 666.916 170.923C667.083 171.541 667.279 172.154 667.398 172.782C667.764 174.694 668.033 176.619 667.804 178.57C667.454 181.561 666.349 184.24 664.355 186.527L664.354 186.527Z"
       fill="#F9FAF9"
       id="path8" />
    <path
       d="M654.207 184.622C653.821 184.56 653.435 184.492 653.053 184.405C652.595 184.301 652.47 184.081 652.614 183.634C652.934 182.635 653.262 181.639 653.608 180.649C653.719 180.334 653.738 180.095 653.517 179.794C653.27 179.456 653.103 179.047 652.96 178.648C652.472 177.279 653.467 176.004 654.739 175.772C656.275 175.491 657.651 176.597 657.585 178.136C657.55 178.95 657.235 179.658 656.492 180.086C656.145 180.286 656.004 180.534 656.005 180.928C656.006 181.917 655.975 182.907 655.957 183.897C655.953 184.156 655.957 184.609 655.687 184.758C655.568 184.823 655.421 184.805 655.286 184.784C654.927 184.73 654.566 184.678 654.207 184.621L654.207 184.622ZM655.283 184.124C655.31 183.956 655.293 183.826 655.296 183.713C655.318 182.723 655.353 181.734 655.346 180.745C655.341 180.2 655.533 179.855 656.035 179.586C657.103 179.014 657.24 177.661 656.366 176.825C655.855 176.337 655.269 176.318 654.62 176.468C653.937 176.625 653.255 177.469 653.519 178.315C653.671 178.801 653.835 179.28 654.207 179.647C654.449 179.887 654.467 180.133 654.354 180.442C654.126 181.061 653.92 181.689 653.718 182.317C653.566 182.793 653.435 183.275 653.28 183.804C653.958 183.908 654.614 184.02 655.284 184.123L655.283 184.124Z"
       fill="#F9FAF9"
       id="path9" />
    <path
       d="M644.801 171.331C644.995 171.347 644.814 171.923 644.787 171.999C644.359 173.191 644.062 174.414 643.872 175.664C643.506 178.073 643.724 180.421 644.625 182.697C644.782 183.095 644.935 183.494 645.083 183.894C645.136 184.038 645.214 184.232 645.011 184.286C644.794 184.344 644.592 183.801 644.528 183.658C644.41 183.392 644.321 183.115 644.219 182.843C644.032 182.34 643.853 181.832 643.707 181.314C643.108 179.199 643.142 177.053 643.578 174.915C643.811 173.77 644.088 172.633 644.546 171.557C644.577 171.485 644.612 171.407 644.682 171.368C644.732 171.339 644.771 171.328 644.801 171.33L644.801 171.331Z"
       fill="#F9FAF9"
       id="path10" />
    <path
       d="M646.318 186.616C646.286 186.619 646.252 186.613 646.223 186.6C645.916 186.461 645.727 186.071 645.551 185.799C645.435 185.619 645.252 185.389 645.282 185.159C645.294 185.071 645.368 184.985 645.457 184.993C645.573 185.003 645.63 185.128 645.685 185.212C645.766 185.334 645.846 185.456 645.924 185.579C646.078 185.819 646.228 186.062 646.374 186.307C646.424 186.39 646.471 186.502 646.406 186.574C646.384 186.6 646.352 186.613 646.317 186.616L646.318 186.616Z"
       fill="#F9FAF9"
       id="path11" />
    <path
       d="M707.34 41.6696C706.911 39.3367 705.813 36.5794 703.283 35.8819C703.233 35.853 703.183 35.8246 703.134 35.7971C701.949 35.1383 700.652 34.9593 699.311 34.9732C697.581 34.9908 695.865 35.428 694.211 35.893C693.363 36.1314 692.516 36.3842 691.682 36.6695C690.979 36.9099 690.237 37.097 689.558 37.4038C689.056 36.4237 688.612 35.4121 688.191 34.3985C687.535 32.8214 686.815 31.2186 686.31 29.5868C685.915 28.3121 686.415 27.3588 687.505 26.672C688.171 26.252 688.932 25.9548 689.665 25.6706C690.074 25.5118 690.496 25.3716 690.925 25.2774C691.163 25.2253 691.405 25.2182 691.644 25.1946C691.654 25.2096 691.665 25.224 691.677 25.2389C692.159 25.8184 692.544 26.4617 692.911 27.1168C693.093 27.4425 693.214 27.8271 693.423 28.1347C693.569 28.35 693.627 28.5937 693.752 28.8054C693.741 28.8628 693.738 28.9231 693.745 28.9866C693.792 29.3989 694.214 29.6199 694.594 29.4893C695.055 29.33 695.469 29.2808 695.833 28.9348C696.045 28.7327 696.318 28.3925 696.359 28.0644C696.388 28.0563 696.417 28.0466 696.446 28.039C696.404 27.9098 696.363 27.781 696.32 27.6529C695.898 26.3634 695.408 25.1707 694.78 23.968C694.34 23.123 693.923 22.2359 693.06 21.7461C692.106 21.204 690.773 21.6555 689.805 21.9041C688.303 22.2898 686.873 22.9667 685.551 23.7617C684.498 24.3947 683.526 25.2055 683.147 26.4087C682.439 28.6613 683.905 31.1078 684.665 33.162C685.133 34.4274 685.596 35.6939 686.094 36.9485C686.291 37.4475 686.484 37.9677 686.695 38.4819C686.389 38.5217 686.102 38.6679 685.813 38.7905C685.742 38.8207 685.672 38.8502 685.602 38.8796C684.994 38.9543 684.528 39.2956 684.249 39.7747C682.8 40.2761 682.567 42.1998 682.526 43.4959C682.462 45.4988 682.781 47.5053 683.179 49.4625C683.92 53.1075 685.03 57.1765 688.242 59.4459C689.88 60.6032 691.879 61.0734 693.865 61.1487C696.277 61.2408 698.777 60.9057 701.054 60.0965C703.065 59.3818 704.897 58.1224 706.065 56.3275C707.392 54.2908 707.611 51.9991 707.667 49.6384C707.73 46.9814 707.823 44.2951 707.34 41.6679L707.34 41.6696ZM685.131 31.1641C684.723 30.1037 684.282 29.0356 684.175 27.8955C684.067 26.7522 684.635 25.8609 685.534 25.1913C686.762 24.2744 688.26 23.6289 689.714 23.1636C690.347 22.9613 691.018 22.8039 691.678 22.7153C692.069 22.6627 692.426 22.7048 692.735 22.9563C693.034 23.2004 693.232 23.5979 693.412 23.9299C693.717 24.4919 694.028 25.0572 694.302 25.6346C694.675 26.4207 694.941 27.2518 695.208 28.0812C695.195 28.0919 695.181 28.1011 695.166 28.1108C694.937 28.2046 694.694 28.3292 694.459 28.3096C694.458 28.3097 694.458 28.3097 694.456 28.3099C694.39 27.7577 694.071 27.1448 693.88 26.7326C693.528 25.9764 693.067 25.2493 692.533 24.6065C692.363 24.4014 692.128 24.3733 691.931 24.4456C691.297 24.1883 690.444 24.451 689.83 24.616C688.946 24.8535 688.043 25.2186 687.236 25.6499C685.955 26.335 685.089 27.3796 685.127 28.8689C685.147 29.6904 685.504 30.474 685.792 31.2286C686.16 32.1898 686.531 33.1497 686.913 34.1049C687.642 35.9261 688.384 37.7581 689.313 39.4899C689.315 39.495 689.319 39.4995 689.321 39.5046C689.009 39.6563 688.695 39.7742 688.338 39.8575C688.134 39.25 687.863 38.6604 687.628 38.0661C687.307 37.2535 687.01 36.4313 686.718 35.6079C686.193 34.1259 685.695 32.6331 685.13 31.1652L685.131 31.1641ZM685.52 39.9167C685.699 39.881 685.874 39.8181 686.054 39.7541C686.383 39.6361 686.786 39.5558 687.083 39.3588C687.29 39.7882 687.521 40.202 687.792 40.5816C687.958 40.8146 688.216 40.7657 688.36 40.6009C689.082 40.6733 689.846 40.3185 690.424 39.9274C690.683 39.752 690.655 39.4823 690.5 39.3075C690.511 39.1797 690.48 39.038 690.39 38.8909C690.249 38.6615 690.114 38.4287 689.982 38.1939C690.516 38.1248 691.041 37.9671 691.562 37.8372C692.352 37.64 693.133 37.4152 693.917 37.1965C695.438 36.7729 696.981 36.4101 698.558 36.2784C699.783 36.176 700.997 36.2655 702.121 36.7751C702.653 37.0168 703.978 37.688 703.95 38.4042C703.933 38.8122 703.4 39.0546 703.083 39.1972C702.385 39.5105 701.638 39.724 700.894 39.9004C699.388 40.2569 697.848 40.4503 696.326 40.7179C693.889 41.1459 691.621 42.181 689.199 42.6647C688.142 42.8757 686.586 43.1638 685.761 42.2647C685.101 41.5448 684.827 40.5644 685.52 39.9167ZM706.34 47.6068C706.334 48.8428 706.349 50.0932 706.266 51.3264C706.122 53.4784 705.364 55.5868 703.736 57.0735C702.075 58.5898 699.841 59.3056 697.657 59.6703C695.509 60.0286 693.165 60.154 691.058 59.5095C689.205 58.9424 687.757 57.7325 686.71 56.1334C685.665 54.5362 685.094 52.6623 684.625 50.8309C684.149 48.9685 683.797 47.0586 683.646 45.1418C683.57 44.1738 683.558 43.1936 683.724 42.2335C683.772 41.9565 683.847 41.646 683.976 41.3675C684.072 42.1075 684.431 42.8001 684.963 43.3313C686.576 44.9409 689.629 43.9478 691.487 43.4152C692.673 43.0752 693.838 42.6662 695.026 42.333C696.321 41.9694 697.686 41.8324 699.011 41.6107C700.506 41.3608 702.017 41.0637 703.427 40.4954C704.084 40.231 704.748 39.8086 705.076 39.21C705.754 40.4951 706.018 42.0686 706.171 43.4525C706.324 44.8301 706.346 46.2212 706.34 47.6063L706.34 47.6068Z"
       fill="#F9FAF9"
       id="path12" />
    <path
       d="M699.278 36.8973C698.784 36.8636 698.087 36.8251 697.629 37.0943C697.352 37.167 697.1 37.3146 696.91 37.5487C696.684 37.8269 696.631 38.2256 696.78 38.5129C696.825 38.805 697.055 39.0082 697.358 39.0909C698.213 39.3244 699.228 39.0824 699.642 38.3467L699.642 38.3457C699.651 38.3311 699.659 38.3156 699.666 38.3002C699.762 38.1133 699.821 37.8967 699.829 37.6489C699.841 37.317 699.67 36.9241 699.278 36.8973Z"
       fill="#F9FAF9"
       id="path13" />
    <path
       d="M699.86 53.2173C699.734 53.1061 699.617 52.9874 699.506 52.8648C699.459 52.7486 699.404 52.6327 699.35 52.5128C699.177 52.1229 698.983 51.74 698.796 51.356C698.426 50.6002 698.039 49.8594 697.807 49.0547C698.355 48.7009 698.782 48.1798 698.934 47.621C699.287 46.3217 698.016 45.0373 696.677 44.8495C696.493 44.8237 696.282 44.8247 696.068 44.8536C695.542 44.816 694.972 45.1392 694.629 45.4732C694.249 45.8426 694.078 46.3442 694.055 46.8388C694.008 47.8575 694.522 48.9923 695.607 49.3896C695.868 49.4846 696.138 49.5228 696.409 49.5136C696.407 49.6618 696.407 49.8092 696.403 49.9539C696.386 50.4506 696.373 50.9473 696.363 51.4443C696.345 52.3803 696.353 53.3165 696.398 54.2502C696.413 54.5505 696.755 54.658 697.027 54.5891C697.917 54.3633 698.837 54.2628 699.722 54.0159C700.127 53.903 700.103 53.4346 699.859 53.2184L699.86 53.2173ZM697.861 47.0965C697.868 47.058 697.873 47.019 697.877 46.9796C697.887 47.0303 697.894 47.081 697.897 47.1314C697.885 47.1273 697.872 47.1239 697.86 47.1209C697.861 47.1127 697.861 47.1046 697.862 47.0964L697.861 47.0965ZM697.385 48.1228C697.389 48.1191 697.392 48.1155 697.396 48.1123C697.407 48.1192 697.418 48.1261 697.429 48.1324C697.375 48.1789 697.317 48.2227 697.257 48.2635C697.302 48.219 697.344 48.1717 697.385 48.1233L697.385 48.1228Z"
       fill="#F9FAF9"
       id="path14" />
    <path
       d="M686.921 45.6152C686.487 45.6131 686.107 45.5899 685.805 45.2376C685.505 44.8873 684.929 45.3019 685.222 45.6692C685.481 45.9928 685.822 46.2263 686.23 46.3247C686.525 46.3959 687.256 46.5067 687.395 46.1194C687.52 45.7727 687.25 45.6165 686.921 45.6152Z"
       fill="#F9FAF9"
       id="path15" />
    <path
       d="M686.882 47.5069C686.512 47.4081 686.105 47.4656 685.723 47.4286C685.26 47.3828 685.143 48.0738 685.609 48.1403C686.018 48.1987 686.454 48.235 686.866 48.2088C687.298 48.1808 687.246 47.6038 686.882 47.507L686.882 47.5069Z"
       fill="#F9FAF9"
       id="path16" />
    <path
       d="M687.28 50.3737C687.086 50.2096 686.82 50.1585 686.613 50.0057C686.256 49.7421 685.833 50.2639 686.182 50.5418C686.316 50.6499 686.463 50.7408 686.617 50.8197C686.78 50.903 686.929 50.9463 687.112 50.9467C687.416 50.9472 687.473 50.5378 687.279 50.3733L687.28 50.3737Z"
       fill="#F9FAF9"
       id="path17" />
    <path
       d="M930.571 59.4668C927.381 60.0548 924.185 60.6092 920.985 61.1427C917.868 62.0088 914.694 62.6755 911.53 63.3472C909.327 63.8145 907.143 64.3682 904.943 64.843C903.814 65.086 902.684 65.3214 901.553 65.5472C900.341 65.7897 898.928 65.8722 897.797 66.3742C897.684 66.424 897.586 66.4392 897.499 66.4317C897.356 66.6246 897.106 66.7205 896.853 66.5421C896.295 66.1479 895.835 65.6669 895.367 65.1857C893.632 65.4586 891.898 65.7322 890.165 66.0126C886.318 66.635 882.515 67.4779 878.675 68.1166C878.036 68.2226 877.379 67.3622 877.998 66.8782C880.082 65.2533 882.158 63.6165 884.261 62.0152C886.279 60.4784 888.266 58.6981 890.515 57.5143C890.598 57.4708 890.678 57.4598 890.749 57.4704C890.772 57.4682 890.794 57.463 890.818 57.4624C893.082 57.4346 895.347 57.3982 897.611 57.3581C897.28 56.3896 896.88 55.4532 896.612 54.4453C896.291 53.2356 895.957 52.0454 895.803 50.8015C895.785 50.656 895.854 50.521 895.957 50.4326L895.87 50.3207C895.895 50.3019 895.919 50.2846 895.944 50.2666C896.189 50.0773 896.359 49.8624 896.467 49.6366C897.16 49.078 897.863 48.5331 898.594 48.0173C899.128 47.6414 899.664 47.2701 900.198 46.8972C900.271 46.8459 900.34 46.7949 900.408 46.7437C900.472 46.3216 900.826 45.9628 901.33 46.166C901.411 46.1982 901.491 46.2305 901.572 46.2635C901.588 46.2647 901.602 46.2651 901.618 46.2671C901.696 46.2764 901.757 46.3083 901.802 46.3556C911.392 50.2082 920.965 54.1083 930.617 57.8051C931.357 58.088 931.485 59.2979 930.573 59.4663L930.571 59.4668ZM897.228 65.5418C897.308 65.4672 897.421 65.424 897.572 65.4381C898.768 65.5516 900.064 65.1963 901.246 65.0062C902.388 64.8227 903.527 64.6308 904.666 64.4301C906.939 64.0294 909.227 63.641 911.471 63.0979C912.86 62.7619 914.242 62.3965 915.622 62.0228C909.189 63.0554 902.745 64.0298 896.311 65.0389C896.626 65.188 896.933 65.3515 897.229 65.5434L897.228 65.5418ZM896.631 50.8437C897.051 51.8777 897.35 52.9428 897.653 54.0196C897.967 55.1289 898.11 56.2429 898.353 57.3484C905.67 57.2146 912.985 57.0353 920.303 56.9168C916.543 55.9186 912.778 54.9394 909.009 53.9737C904.896 52.9194 900.735 51.9642 896.631 50.8437ZM900.976 47.6656C900.93 47.6985 900.884 47.7328 900.838 47.7679C900.323 48.1665 899.807 48.566 899.289 48.9614C898.767 49.3599 898.234 49.7404 897.694 50.1097C901.571 51.0271 905.425 52.0812 909.284 53.038C913.574 54.1018 917.867 55.1485 922.168 56.1691C915.12 53.2965 908.042 50.4946 900.976 47.6656ZM925.604 57.5773C925.547 57.8695 925.313 58.1398 924.959 58.1465C913.569 58.3698 902.175 58.3889 890.785 58.6093C890.694 58.6109 890.616 58.595 890.547 58.5651C888.921 60.2622 886.905 61.6592 885.086 63.1287C883.783 64.1806 882.469 65.2171 881.153 66.2513C883.59 65.8936 886.035 65.5814 888.462 65.1523C891.818 64.56 895.163 63.9143 898.518 63.318C905.228 62.1265 911.94 60.9359 918.655 59.7632C921.523 59.2618 924.391 58.7423 927.265 58.2636C926.711 58.0343 926.158 57.8052 925.604 57.5773Z"
       fill="#222222"
       id="path18" />
    <path
       d="M861.374 55.0685C852.237 52.6498 842.917 50.8186 833.443 50.5556C823.991 50.2936 814.513 51.1954 805.278 53.237C795.991 55.2911 786.872 58.401 778.395 62.7364C775.033 64.4562 771.623 66.5264 769.013 69.3109C771.471 70.1508 773.828 71.2435 775.877 72.7257C779.484 75.334 781.984 79.5198 781.226 84.0891C780.52 88.3427 776.658 90.8792 772.475 90.3566C768.228 89.826 764.862 86.8352 763.905 82.6651C762.913 78.3477 764.388 73.6812 767.048 70.2407C767.182 70.0673 767.32 69.8971 767.459 69.728C766.291 69.3689 765.119 69.0616 763.973 68.7879C759.648 67.7533 755.197 67.2764 750.75 67.3194C733.132 67.4873 715.464 75.9909 705.682 90.8882C696.18 105.36 694.437 124.451 701.06 140.421C701.852 142.331 702.742 144.221 703.668 146.07C703.857 146.448 703.334 146.716 703.101 146.38C697.899 138.912 695.803 129.344 695.817 120.344C695.832 111.292 698.074 102.223 702.381 94.2513C711.335 77.6869 729.194 67.6814 747.748 66.5629C752.428 66.2812 757.139 66.5744 761.743 67.4575C763.824 67.8562 765.979 68.3469 768.081 69.0067C771.557 65.1629 776.315 62.6741 780.962 60.5137C785.512 58.3986 790.207 56.5916 794.998 55.1009C804.531 52.1355 814.487 50.5105 824.457 50.1268C834.369 49.7458 844.532 50.4459 854.226 52.5988C856.69 53.1463 859.119 53.7856 861.522 54.5525C861.852 54.6579 861.707 55.1569 861.372 55.0683L861.374 55.0685ZM768.379 70.0223C767.533 71.0183 766.788 72.1005 766.182 73.2855C764.173 77.2067 763.624 82.6273 766.593 86.2417C769.289 89.5244 775.04 90.8988 778.31 87.6526C781.697 84.2895 780.396 78.583 777.485 75.4076C775.086 72.7904 771.789 71.1599 768.379 70.0223Z"
       fill="#F9FAF9"
       id="path19" />
  </g>
  <defs
     id="defs19">
    <clipPath
       id="clip0_1977_3477">
      <rect
         width="1262"
         height="210"
         fill="white"
         id="rect19" />
    </clipPath>
  </defs>
</svg>
