<?xml version="1.0" encoding="UTF-8" standalone="no"?>
<svg
   width="428"
   height="400"
   viewBox="0 0 428 400"
   fill="none"
   version="1.1"
   id="svg21"
   sodipodi:docname="In-app banner RCP.svg"
   inkscape:version="1.4 (e7c3feb100, 2024-10-09)"
   xmlns:inkscape="http://www.inkscape.org/namespaces/inkscape"
   xmlns:sodipodi="http://sodipodi.sourceforge.net/DTD/sodipodi-0.dtd"
   xmlns="http://www.w3.org/2000/svg"
   xmlns:svg="http://www.w3.org/2000/svg">
  <sodipodi:namedview
     id="namedview21"
     pagecolor="#ffffff"
     bordercolor="#999999"
     borderopacity="1"
     inkscape:showpageshadow="2"
     inkscape:pageopacity="0"
     inkscape:pagecheckerboard="0"
     inkscape:deskcolor="#d1d1d1"
     inkscape:zoom="2.9675"
     inkscape:cx="214.15333"
     inkscape:cy="173.04128"
     inkscape:window-width="2560"
     inkscape:window-height="1403"
     inkscape:window-x="2560"
     inkscape:window-y="0"
     inkscape:window-maximized="1"
     inkscape:current-layer="g20" />
  <g
     clip-path="url(#clip0_1977_3540)"
     id="g20">
    <rect
       width="428"
       height="400"
       fill="#222222"
       id="rect1" />
    <path
       d="M426.605 242.13C380.009 173.426 295.651 137.466 201.695 201.161C70.0888 291.583 245.063 448.019 339.43 489.399C433.797 530.78 545.016 535.148 582.158 469.954C619.3 404.76 581.675 354.607 543.236 339.08C504.797 323.552 473.217 310.795 426.621 242.091L426.605 242.13Z"
       fill="#F9E26E"
       id="path1" />
    <rect
       x="40"
       y="161"
       width="136"
       height="44"
       rx="22"
       stroke="#F9FAF9"
       id="rect2" />
    <path
       d="M71.133 189.192C70.237 189.192 69.3783 189.075 68.557 188.84C67.7357 188.595 67.0743 188.28 66.573 187.896L67.453 185.944C67.933 186.285 68.4983 186.568 69.149 186.792C69.8103 187.005 70.477 187.112 71.149 187.112C71.661 187.112 72.0717 187.064 72.381 186.968C72.701 186.861 72.9357 186.717 73.085 186.536C73.2343 186.355 73.309 186.147 73.309 185.912C73.309 185.613 73.1917 185.379 72.957 185.208C72.7223 185.027 72.413 184.883 72.029 184.776C71.645 184.659 71.2183 184.552 70.749 184.456C70.2903 184.349 69.8263 184.221 69.357 184.072C68.8983 183.923 68.477 183.731 68.093 183.496C67.709 183.261 67.3943 182.952 67.149 182.568C66.9143 182.184 66.797 181.693 66.797 181.096C66.797 180.456 66.9677 179.875 67.309 179.352C67.661 178.819 68.1837 178.397 68.877 178.088C69.581 177.768 70.461 177.608 71.517 177.608C72.221 177.608 72.9143 177.693 73.597 177.864C74.2797 178.024 74.8823 178.269 75.405 178.6L74.605 180.568C74.0823 180.269 73.5597 180.051 73.037 179.912C72.5143 179.763 72.0023 179.688 71.501 179.688C70.9997 179.688 70.589 179.747 70.269 179.864C69.949 179.981 69.7197 180.136 69.581 180.328C69.4423 180.509 69.373 180.723 69.373 180.968C69.373 181.256 69.4903 181.491 69.725 181.672C69.9597 181.843 70.269 181.981 70.653 182.088C71.037 182.195 71.4583 182.301 71.917 182.408C72.3863 182.515 72.8503 182.637 73.309 182.776C73.7783 182.915 74.205 183.101 74.589 183.336C74.973 183.571 75.2823 183.88 75.517 184.264C75.7623 184.648 75.885 185.133 75.885 185.72C75.885 186.349 75.709 186.925 75.357 187.448C75.005 187.971 74.477 188.392 73.773 188.712C73.0797 189.032 72.1997 189.192 71.133 189.192ZM82.7121 180.264C83.3948 180.264 84.0028 180.403 84.5361 180.68C85.0801 180.947 85.5068 181.363 85.8161 181.928C86.1255 182.483 86.2801 183.197 86.2801 184.072V189H83.7841V184.456C83.7841 183.763 83.6295 183.251 83.3201 182.92C83.0215 182.589 82.5948 182.424 82.0401 182.424C81.6455 182.424 81.2881 182.509 80.9681 182.68C80.6588 182.84 80.4135 183.091 80.2321 183.432C80.0615 183.773 79.9761 184.211 79.9761 184.744V189H77.4801V177.128H79.9761V182.776L79.4161 182.056C79.7255 181.48 80.1681 181.037 80.7441 180.728C81.3201 180.419 81.9761 180.264 82.7121 180.264ZM92.7011 189.128C91.7838 189.128 90.9678 188.936 90.2531 188.552C89.5491 188.168 88.9891 187.645 88.5731 186.984C88.1678 186.312 87.9651 185.549 87.9651 184.696C87.9651 183.832 88.1678 183.069 88.5731 182.408C88.9891 181.736 89.5491 181.213 90.2531 180.84C90.9678 180.456 91.7838 180.264 92.7011 180.264C93.6078 180.264 94.4185 180.456 95.1331 180.84C95.8478 181.213 96.4078 181.731 96.8131 182.392C97.2185 183.053 97.4211 183.821 97.4211 184.696C97.4211 185.549 97.2185 186.312 96.8131 186.984C96.4078 187.645 95.8478 188.168 95.1331 188.552C94.4185 188.936 93.6078 189.128 92.7011 189.128ZM92.7011 187.08C93.1171 187.08 93.4905 186.984 93.8211 186.792C94.1518 186.6 94.4131 186.328 94.6051 185.976C94.7971 185.613 94.8931 185.187 94.8931 184.696C94.8931 184.195 94.7971 183.768 94.6051 183.416C94.4131 183.064 94.1518 182.792 93.8211 182.6C93.4905 182.408 93.1171 182.312 92.7011 182.312C92.2851 182.312 91.9118 182.408 91.5811 182.6C91.2505 182.792 90.9838 183.064 90.7811 183.416C90.5891 183.768 90.4931 184.195 90.4931 184.696C90.4931 185.187 90.5891 185.613 90.7811 185.976C90.9838 186.328 91.2505 186.6 91.5811 186.792C91.9118 186.984 92.2851 187.08 92.7011 187.08ZM104.178 189.128C103.452 189.128 102.818 188.968 102.274 188.648C101.73 188.328 101.303 187.843 100.994 187.192C100.695 186.531 100.546 185.699 100.546 184.696C100.546 183.683 100.69 182.851 100.978 182.2C101.266 181.549 101.682 181.064 102.226 180.744C102.77 180.424 103.42 180.264 104.178 180.264C104.988 180.264 105.714 180.451 106.354 180.824C107.004 181.187 107.516 181.699 107.89 182.36C108.274 183.021 108.466 183.8 108.466 184.696C108.466 185.603 108.274 186.387 107.89 187.048C107.516 187.709 107.004 188.221 106.354 188.584C105.714 188.947 104.988 189.128 104.178 189.128ZM99.0895 192.104V180.392H101.474V182.152L101.426 184.712L101.586 187.256V192.104H99.0895ZM103.746 187.08C104.162 187.08 104.53 186.984 104.85 186.792C105.18 186.6 105.442 186.328 105.634 185.976C105.836 185.613 105.938 185.187 105.938 184.696C105.938 184.195 105.836 183.768 105.634 183.416C105.442 183.064 105.18 182.792 104.85 182.6C104.53 182.408 104.162 182.312 103.746 182.312C103.33 182.312 102.956 182.408 102.626 182.6C102.295 182.792 102.034 183.064 101.842 183.416C101.65 183.768 101.554 184.195 101.554 184.696C101.554 185.187 101.65 185.613 101.842 185.976C102.034 186.328 102.295 186.6 102.626 186.792C102.956 186.984 103.33 187.08 103.746 187.08ZM119.9 180.264C120.582 180.264 121.19 180.403 121.724 180.68C122.268 180.947 122.694 181.363 123.004 181.928C123.313 182.483 123.468 183.197 123.468 184.072V189H120.972V184.456C120.972 183.763 120.817 183.251 120.508 182.92C120.209 182.589 119.782 182.424 119.228 182.424C118.833 182.424 118.476 182.509 118.156 182.68C117.846 182.84 117.601 183.091 117.42 183.432C117.249 183.773 117.164 184.211 117.164 184.744V189H114.668V180.392H117.052V182.776L116.604 182.056C116.913 181.48 117.356 181.037 117.932 180.728C118.508 180.419 119.164 180.264 119.9 180.264ZM129.889 189.128C128.971 189.128 128.155 188.936 127.441 188.552C126.737 188.168 126.177 187.645 125.761 186.984C125.355 186.312 125.153 185.549 125.153 184.696C125.153 183.832 125.355 183.069 125.761 182.408C126.177 181.736 126.737 181.213 127.441 180.84C128.155 180.456 128.971 180.264 129.889 180.264C130.795 180.264 131.606 180.456 132.321 180.84C133.035 181.213 133.595 181.731 134.001 182.392C134.406 183.053 134.609 183.821 134.609 184.696C134.609 185.549 134.406 186.312 134.001 186.984C133.595 187.645 133.035 188.168 132.321 188.552C131.606 188.936 130.795 189.128 129.889 189.128ZM129.889 187.08C130.305 187.08 130.678 186.984 131.009 186.792C131.339 186.6 131.601 186.328 131.793 185.976C131.985 185.613 132.081 185.187 132.081 184.696C132.081 184.195 131.985 183.768 131.793 183.416C131.601 183.064 131.339 182.792 131.009 182.6C130.678 182.408 130.305 182.312 129.889 182.312C129.473 182.312 129.099 182.408 128.769 182.6C128.438 182.792 128.171 183.064 127.969 183.416C127.777 183.768 127.681 184.195 127.681 184.696C127.681 185.187 127.777 185.613 127.969 185.976C128.171 186.328 128.438 186.6 128.769 186.792C129.099 186.984 129.473 187.08 129.889 187.08ZM138.011 189L134.907 180.392H137.259L139.835 187.8H138.715L141.403 180.392H143.515L146.123 187.8H145.003L147.659 180.392H149.867L146.747 189H144.331L142.043 182.648H142.779L140.411 189H138.011Z"
       fill="#F9FAF9"
       id="path2" />
    <path
       d="M47.84 67.336C42.996 67.336 40.784 65.432 40.784 61.26H44.872C44.872 63.108 45.908 63.92 47.952 63.92C49.8 63.92 50.724 63.248 50.724 61.876C50.724 60.308 49.716 59.636 46.888 59.188C42.66 58.516 41.064 56.948 41.064 53.476C41.064 49.584 43.444 47.624 47.98 47.624C52.46 47.624 54.672 49.528 54.672 53.532H50.584C50.584 51.88 49.716 51.04 47.896 51.04C46.16 51.04 45.264 51.796 45.264 53.056C45.264 54.484 46.244 55.128 48.932 55.52C53.384 56.164 54.924 57.872 54.924 61.456C54.924 65.404 52.6 67.336 47.84 67.336ZM63.5828 52.048C67.7268 52.048 69.6308 53.784 69.6308 57.592V67H66.1308L65.9908 65.18C64.9828 66.608 63.5268 67.336 61.5948 67.336C58.7108 67.336 56.9748 65.712 56.9748 62.8C56.9748 59.72 58.9068 58.012 62.7988 58.012H65.4868V57.536C65.4868 56.024 64.8988 55.296 63.4148 55.296C61.9868 55.296 61.4268 55.94 61.3708 56.948H57.3668C57.5908 53.7 59.5508 52.048 63.5828 52.048ZM62.8548 64.088C64.0308 64.088 64.8988 63.528 65.4868 62.436V60.756H63.5548C61.6788 60.756 61.0628 61.4 61.0628 62.464C61.0628 63.528 61.6788 64.088 62.8548 64.088ZM80.9732 52.384H85.1452L80.3852 67H75.9612L71.2012 52.384H75.5692L78.2572 62.352L80.9732 52.384ZM90.4665 60.98V61.26C90.4665 63.164 91.2225 64.088 93.0145 64.088C94.4145 64.088 95.2265 63.528 95.3105 62.52H99.2585C99.0905 65.684 96.9345 67.336 92.9865 67.336C88.5625 67.336 86.3225 65.236 86.3225 61.12V58.264C86.3225 54.204 88.5625 52.048 92.8185 52.048C97.1025 52.048 99.3425 54.26 99.3425 58.32V60.98H90.4665ZM92.9585 55.296C91.1945 55.296 90.4665 56.108 90.4665 58.068H95.4225C95.4225 56.108 94.6945 55.296 92.9585 55.296ZM123.198 59.72V63.108H121.238V67H117.094V63.108H108.218V59.468L116.814 47.96H121.238V59.72H123.198ZM112.194 59.72H117.094V52.916L112.194 59.72ZM132.289 67.336C127.781 67.336 125.401 65.124 125.401 60.924V54.036C125.401 49.808 127.781 47.624 132.289 47.624C136.797 47.624 139.177 49.808 139.177 54.036V60.924C139.177 65.124 136.797 67.336 132.289 67.336ZM132.289 63.836C134.221 63.836 135.033 62.912 135.033 60.756V54.204C135.033 52.048 134.221 51.124 132.289 51.124C130.357 51.124 129.545 52.048 129.545 54.204V60.756C129.545 62.912 130.357 63.836 132.289 63.836ZM145.749 58.32C142.977 58.32 141.493 57.032 141.493 54.568V51.376C141.493 48.912 142.977 47.624 145.749 47.624C148.521 47.624 150.005 48.912 150.005 51.376V54.568C150.005 57.032 148.521 58.32 145.749 58.32ZM144.433 67.336L155.857 47.624H158.797L147.401 67.336H144.433ZM145.749 55.856C146.617 55.856 147.037 55.408 147.037 54.428V51.488C147.037 50.536 146.617 50.088 145.749 50.088C144.881 50.088 144.461 50.536 144.461 51.488V54.428C144.461 55.408 144.881 55.856 145.749 55.856ZM157.481 67.336C154.709 67.336 153.225 66.048 153.225 63.584V60.392C153.225 57.928 154.709 56.64 157.481 56.64C160.253 56.64 161.737 57.928 161.737 60.392V63.584C161.737 66.048 160.253 67.336 157.481 67.336ZM157.481 64.872C158.349 64.872 158.769 64.424 158.769 63.444V60.504C158.769 59.552 158.349 59.104 157.481 59.104C156.613 59.104 156.193 59.552 156.193 60.504V63.444C156.193 64.424 156.613 64.872 157.481 64.872ZM177.832 67.336C173.744 67.336 171.588 65.152 171.588 60.952V58.6C171.588 54.4 173.744 52.216 177.832 52.216C181.92 52.216 184.076 54.4 184.076 58.6V60.952C184.076 65.152 181.92 67.336 177.832 67.336ZM177.832 65.18C180.38 65.18 181.612 63.78 181.612 60.868V58.656C181.612 55.744 180.38 54.372 177.832 54.372C175.284 54.372 174.052 55.744 174.052 58.656V60.868C174.052 63.78 175.284 65.18 177.832 65.18ZM194.984 52.216C198.008 52.216 199.52 54.036 199.52 57.508V67H197.056V57.732C197.056 55.464 196.216 54.484 194.508 54.484C192.8 54.484 191.484 55.492 190.448 57.62V67H187.984V52.552H190.084L190.168 54.82C191.428 53.028 192.968 52.216 194.984 52.216ZM53.804 101L49.268 93.272H45.096V101H42.576V81.96H49.884C54.224 81.96 56.016 83.612 56.016 87.616C56.016 90.864 54.84 92.572 52.068 93.104L56.716 101H53.804ZM45.096 84.256V90.976H49.66C52.516 90.976 53.496 90.052 53.496 87.616C53.496 85.18 52.516 84.256 49.66 84.256H45.096ZM61.9155 94.448V95.092C61.9155 97.92 63.0915 99.208 65.6675 99.208C67.8515 99.208 68.9995 98.256 69.1675 96.688H71.5475C71.3515 99.768 69.1955 101.336 65.7235 101.336C61.6635 101.336 59.4515 99.18 59.4515 95.204V92.348C59.4515 88.372 61.6075 86.216 65.5555 86.216C69.5035 86.216 71.6595 88.372 71.6595 92.348V94.448H61.9155ZM65.6115 88.344C63.0635 88.344 61.9155 89.632 61.9155 92.404H69.2795C69.2795 89.632 68.1315 88.344 65.6115 88.344ZM80.2773 101.336C76.3013 101.336 74.3413 99.796 74.3413 96.744H76.6933C76.6933 98.396 77.8693 99.236 80.2773 99.236C82.5173 99.236 83.6373 98.48 83.6373 97.108C83.6373 95.68 82.6573 95.064 79.8573 94.728C76.0773 94.28 74.6773 93.16 74.6773 90.584C74.6773 87.784 76.6653 86.216 80.2493 86.216C83.8333 86.216 85.7373 87.756 85.7373 90.668H83.3293C83.3293 89.128 82.2933 88.316 80.2213 88.316C78.2053 88.316 77.0853 89.072 77.0853 90.388C77.0853 91.704 78.0653 92.236 80.7253 92.516C84.5893 92.936 86.0453 94.168 86.0453 96.912C86.0453 99.824 84.0853 101.336 80.2773 101.336ZM94.5326 98.872H96.1846V101H93.9446C91.1726 101 89.9966 99.656 89.9966 96.492V88.568H87.5046V86.552H90.0526L90.2486 82.744H92.4606V86.552H96.0166V88.568H92.4606V96.52C92.4606 98.396 92.8806 98.872 94.5326 98.872ZM105.364 86.272H106.344V88.708H105.616C103.264 88.708 101.948 89.912 101.472 92.684V101H99.0076V86.552H101.108L101.22 89.24C101.948 87.196 103.264 86.272 105.364 86.272ZM108.931 83.948V81.204H111.619V83.948H108.931ZM109.043 101V86.552H111.507V101H109.043ZM121.444 101.336C117.524 101.336 115.424 99.208 115.424 95.204V92.348C115.424 88.344 117.524 86.216 121.444 86.216C125.084 86.216 127.1 88.064 127.212 91.564H124.832C124.664 89.24 123.488 88.372 121.472 88.372C119.036 88.372 117.888 89.632 117.888 92.404V95.148C117.888 97.92 119.036 99.18 121.472 99.18C123.488 99.18 124.664 98.312 124.832 95.988H127.212C127.1 99.488 125.084 101.336 121.444 101.336ZM135.876 98.872H137.528V101H135.288C132.516 101 131.34 99.656 131.34 96.492V88.568H128.848V86.552H131.396L131.592 82.744H133.804V86.552H137.36V88.568H133.804V96.52C133.804 98.396 134.224 98.872 135.876 98.872ZM154.286 101.336C149.498 101.336 147.174 98.816 147.174 93.804V89.156C147.174 84.144 149.498 81.624 154.286 81.624C158.766 81.624 161.062 83.808 161.23 88.232H158.766C158.626 85.292 157.198 83.92 154.286 83.92C151.094 83.92 149.694 85.544 149.694 89.212V93.748C149.694 97.416 151.094 99.04 154.286 99.04C157.198 99.04 158.626 97.668 158.766 94.756H161.23C161.062 99.152 158.766 101.336 154.286 101.336ZM170.695 101.336C166.607 101.336 164.451 99.152 164.451 94.952V92.6C164.451 88.4 166.607 86.216 170.695 86.216C174.783 86.216 176.939 88.4 176.939 92.6V94.952C176.939 99.152 174.783 101.336 170.695 101.336ZM170.695 99.18C173.243 99.18 174.475 97.78 174.475 94.868V92.656C174.475 89.744 173.243 88.372 170.695 88.372C168.147 88.372 166.915 89.744 166.915 92.656V94.868C166.915 97.78 168.147 99.18 170.695 99.18ZM187.847 86.216C190.871 86.216 192.383 88.036 192.383 91.508V101H189.919V91.732C189.919 89.464 189.079 88.484 187.371 88.484C185.663 88.484 184.347 89.492 183.311 91.62V101H180.847V86.552H182.947L183.031 88.82C184.291 87.028 185.831 86.216 187.847 86.216ZM201.802 98.872H203.454V101H201.214C198.442 101 197.266 99.656 197.266 96.492V88.568H194.774V86.552H197.322L197.518 82.744H199.73V86.552H203.286V88.568H199.73V96.52C199.73 98.396 200.15 98.872 201.802 98.872ZM208.068 94.448V95.092C208.068 97.92 209.244 99.208 211.82 99.208C214.004 99.208 215.152 98.256 215.32 96.688H217.7C217.504 99.768 215.348 101.336 211.876 101.336C207.816 101.336 205.604 99.18 205.604 95.204V92.348C205.604 88.372 207.76 86.216 211.708 86.216C215.656 86.216 217.812 88.372 217.812 92.348V94.448H208.068ZM211.764 88.344C209.216 88.344 208.068 89.632 208.068 92.404H215.432C215.432 89.632 214.284 88.344 211.764 88.344ZM228.672 86.216C231.696 86.216 233.208 88.036 233.208 91.508V101H230.744V91.732C230.744 89.464 229.904 88.484 228.196 88.484C226.488 88.484 225.172 89.492 224.136 91.62V101H221.672V86.552H223.772L223.856 88.82C225.116 87.028 226.656 86.216 228.672 86.216ZM242.626 98.872H244.278V101H242.038C239.266 101 238.09 99.656 238.09 96.492V88.568H235.598V86.552H238.146L238.342 82.744H240.554V86.552H244.11V88.568H240.554V96.52C240.554 98.396 240.974 98.872 242.626 98.872ZM261.904 81.96C266.356 81.96 268.26 83.724 268.26 87.812C268.26 91.9 266.356 93.636 261.904 93.636H257.256V101H254.736V81.96H261.904ZM261.736 91.34C264.676 91.34 265.74 90.36 265.74 87.812C265.74 85.264 264.676 84.256 261.736 84.256H257.256V91.34H261.736ZM277.985 86.272H278.965V88.708H278.237C275.885 88.708 274.569 89.912 274.093 92.684V101H271.629V86.552H273.729L273.841 89.24C274.569 87.196 275.885 86.272 277.985 86.272ZM287.125 101.336C283.037 101.336 280.881 99.152 280.881 94.952V92.6C280.881 88.4 283.037 86.216 287.125 86.216C291.213 86.216 293.369 88.4 293.369 92.6V94.952C293.369 99.152 291.213 101.336 287.125 101.336ZM287.125 99.18C289.673 99.18 290.905 97.78 290.905 94.868V92.656C290.905 89.744 289.673 88.372 287.125 88.372C284.577 88.372 283.345 89.744 283.345 92.656V94.868C283.345 97.78 284.577 99.18 287.125 99.18Z"
       fill="#F9FAF9"
       id="path3" />
    <path
       d="M44.29 117.48L48.976 129.756H49.064L53.706 117.48H56.302V132H54.718L54.74 119.086H54.674L49.702 132H48.272L43.344 119.086H43.278L43.3 132H41.694V117.48H44.29ZM65.3105 130.438C64.5185 131.626 63.4185 132.22 62.0545 132.22C60.1625 132.22 58.8205 131.076 58.8205 129.404C58.8205 127.732 60.1405 126.786 62.5605 126.324C64.5845 125.95 65.4425 125.488 65.4425 124.41C65.4425 123.332 64.5845 122.606 63.1325 122.606C61.8125 122.606 60.5585 123.2 59.5025 124.212V122.496C60.5145 121.77 61.8565 121.33 63.1985 121.33C65.4645 121.33 66.9825 122.584 66.9825 124.52V129.03C66.9825 129.998 67.1145 131.12 67.3785 132H65.7285L65.5305 130.438H65.3105ZM65.4425 126.324C64.9365 126.852 64.2545 127.16 62.8025 127.49C61.0645 127.886 60.3825 128.436 60.3825 129.382C60.3825 130.372 61.1305 130.988 62.3405 130.988C64.1225 130.988 65.4425 129.646 65.4425 127.622V126.324ZM77.3952 132L72.0272 126.632H71.8072V129.03C71.8072 130.152 71.8512 131.12 72.0052 132H70.2892V121.55C70.2892 120.296 70.2452 119.02 70.1132 117.48H71.8072V126.258H72.0272L76.6032 121.55H78.4732L73.6552 126.434L79.3092 132H77.3952ZM84.3745 121.33C87.1905 121.33 88.9945 123.31 88.9945 126.104C88.9945 126.412 88.9725 126.72 88.9285 127.182H80.9865C81.0965 129.404 82.6805 130.944 84.9465 130.944C86.3105 130.944 87.5645 130.394 88.4005 129.47V131.23C87.5425 131.846 86.1785 132.22 84.8365 132.22C81.8005 132.22 79.4245 130.152 79.4245 126.72C79.4245 123.794 81.2725 121.33 84.3745 121.33ZM87.5645 126.038C87.5865 124.036 86.3325 122.628 84.4405 122.628C82.5265 122.628 81.1845 124.036 81.0525 126.038H87.5645ZM96.155 135.85L97.915 131.714L93.779 121.55H95.473L98.707 129.866H98.795L101.985 121.55H103.635L97.739 135.85H96.155ZM109.406 121.33C112.442 121.33 114.466 123.596 114.466 126.764C114.466 129.91 112.442 132.22 109.406 132.22C106.392 132.22 104.368 129.91 104.368 126.764C104.368 123.574 106.392 121.33 109.406 121.33ZM109.406 122.672C107.316 122.672 105.908 124.3 105.908 126.742C105.908 129.184 107.316 130.878 109.406 130.878C111.518 130.878 112.926 129.184 112.926 126.742C112.926 124.3 111.518 122.672 109.406 122.672ZM120.561 132.22C118.383 132.22 116.865 130.768 116.865 128.59V124.52C116.865 123.42 116.777 122.54 116.689 121.55H118.383V128.238C118.383 129.976 119.307 130.9 120.891 130.9C122.805 130.9 124.081 129.404 124.081 127.27V121.55H125.599V129.03C125.599 130.064 125.665 131.076 125.797 132H124.169V130.174H123.949C123.311 131.428 122.167 132.22 120.561 132.22ZM128.898 132V124.52C128.898 123.574 128.832 122.562 128.7 121.55H130.35V123.728H130.57C131.054 122.166 132.22 121.396 133.496 121.396C134.002 121.396 134.552 121.506 134.904 121.748V123.332C134.42 122.936 133.98 122.76 133.408 122.76C131.538 122.76 130.416 124.41 130.416 126.94V129.03C130.416 130.086 130.46 130.834 130.614 132H128.898ZM142.383 129.932V132.198C142.383 133.254 142.449 134.42 142.581 135.3H140.865V124.52C140.865 123.618 140.799 122.518 140.689 121.55H142.383V123.618H142.603C143.373 122.144 144.737 121.33 146.343 121.33C148.851 121.33 150.941 123.266 150.941 126.786C150.941 130.284 148.851 132.22 146.365 132.22C144.715 132.22 143.351 131.406 142.603 129.932H142.383ZM146.013 122.65C143.879 122.65 142.317 124.366 142.317 126.786C142.317 129.162 143.857 130.9 146.035 130.9C148.081 130.9 149.379 129.294 149.379 126.764C149.379 124.234 148.081 122.65 146.013 122.65ZM157.041 132.22C154.863 132.22 153.345 130.768 153.345 128.59V124.52C153.345 123.42 153.257 122.54 153.169 121.55H154.863V128.238C154.863 129.976 155.787 130.9 157.371 130.9C159.285 130.9 160.561 129.404 160.561 127.27V121.55H162.079V129.03C162.079 130.064 162.145 131.076 162.277 132H160.649V130.174H160.429C159.791 131.428 158.647 132.22 157.041 132.22ZM165.379 132V124.52C165.379 123.574 165.313 122.562 165.181 121.55H166.831V123.728H167.051C167.535 122.166 168.701 121.396 169.977 121.396C170.483 121.396 171.033 121.506 171.385 121.748V123.332C170.901 122.936 170.461 122.76 169.889 122.76C168.019 122.76 166.897 124.41 166.897 126.94V129.03C166.897 130.086 166.941 130.834 167.095 132H165.379ZM180.798 131.23C179.83 131.912 178.686 132.22 177.542 132.22C174.484 132.22 172.108 130.064 172.108 126.764C172.108 123.596 174.242 121.33 177.432 121.33C178.708 121.33 179.764 121.66 180.666 122.32V124.08C179.874 123.178 178.686 122.672 177.432 122.672C175.1 122.672 173.67 124.454 173.67 126.786C173.67 129.096 175.166 130.878 177.564 130.878C178.818 130.878 180.006 130.372 180.798 129.47V131.23ZM183.013 117.48H184.707V123.354H184.927C185.565 122.056 186.775 121.33 188.293 121.33C190.493 121.33 192.055 122.914 192.055 125.114V129.03C192.055 130.152 192.121 131.098 192.231 132H190.537V125.51C190.537 123.772 189.459 122.65 187.875 122.65C186.027 122.65 184.707 124.146 184.707 126.258V132H183.189V121.55C183.189 120.274 183.123 118.646 183.013 117.48ZM200.855 130.438C200.063 131.626 198.963 132.22 197.599 132.22C195.707 132.22 194.365 131.076 194.365 129.404C194.365 127.732 195.685 126.786 198.105 126.324C200.129 125.95 200.987 125.488 200.987 124.41C200.987 123.332 200.129 122.606 198.677 122.606C197.357 122.606 196.103 123.2 195.047 124.212V122.496C196.059 121.77 197.401 121.33 198.743 121.33C201.009 121.33 202.527 122.584 202.527 124.52V129.03C202.527 129.998 202.659 131.12 202.923 132H201.273L201.075 130.438H200.855ZM200.987 126.324C200.481 126.852 199.799 127.16 198.347 127.49C196.609 127.886 195.927 128.436 195.927 129.382C195.927 130.372 196.675 130.988 197.885 130.988C199.667 130.988 200.987 129.646 200.987 127.622V126.324ZM210.986 129.118C210.986 128.128 210.304 127.534 208.742 127.402C206.674 127.204 205.354 126.126 205.354 124.388C205.354 122.474 206.894 121.33 208.962 121.33C209.952 121.33 210.942 121.616 211.756 122.188V123.904C211.008 123.024 209.974 122.562 208.918 122.562C207.708 122.562 206.784 123.222 206.784 124.322C206.784 125.356 207.554 125.972 209.072 126.104C211.184 126.258 212.482 127.336 212.482 129.074C212.482 130.922 210.964 132.22 208.72 132.22C207.51 132.22 206.278 131.846 205.332 131.164V129.426C206.146 130.372 207.4 130.966 208.698 130.966C210.062 130.966 210.986 130.306 210.986 129.118ZM219.039 121.33C221.855 121.33 223.659 123.31 223.659 126.104C223.659 126.412 223.637 126.72 223.593 127.182H215.651C215.761 129.404 217.345 130.944 219.611 130.944C220.975 130.944 222.229 130.394 223.065 129.47V131.23C222.207 131.846 220.843 132.22 219.501 132.22C216.465 132.22 214.089 130.152 214.089 126.72C214.089 123.794 215.937 121.33 219.039 121.33ZM222.229 126.038C222.251 124.036 220.997 122.628 219.105 122.628C217.191 122.628 215.849 124.036 215.717 126.038H222.229ZM231.779 123.618H231.999C232.747 122.144 234.111 121.33 235.739 121.33C238.467 121.33 240.337 123.53 240.337 126.786C240.337 130.02 238.467 132.22 235.761 132.22C234.111 132.22 232.747 131.406 231.999 129.932H231.779L231.625 132H230.261V121.55C230.261 120.45 230.195 118.998 230.085 117.48H231.779V123.618ZM235.409 130.9C237.477 130.9 238.775 129.294 238.775 126.764C238.775 124.234 237.477 122.65 235.409 122.65C233.275 122.65 231.713 124.366 231.713 126.786C231.713 129.162 233.253 130.9 235.409 130.9ZM247.183 121.33C249.999 121.33 251.803 123.31 251.803 126.104C251.803 126.412 251.781 126.72 251.737 127.182H243.795C243.905 129.404 245.489 130.944 247.755 130.944C249.119 130.944 250.373 130.394 251.209 129.47V131.23C250.351 131.846 248.987 132.22 247.645 132.22C244.609 132.22 242.233 130.152 242.233 126.72C242.233 123.794 244.081 121.33 247.183 121.33ZM250.373 126.038C250.395 124.036 249.141 122.628 247.249 122.628C245.335 122.628 243.993 124.036 243.861 126.038H250.373ZM253.271 121.55H255.141V120.274C255.141 118.558 256.373 117.37 258.177 117.37C258.771 117.37 259.299 117.502 259.761 117.7V119.174C259.321 118.8 258.815 118.624 258.331 118.624C257.363 118.624 256.659 119.262 256.659 120.516V121.55H259.585V122.804H256.659V129.03C256.659 129.998 256.725 131.054 256.857 132H255.141V122.804H253.271V121.55ZM265.146 121.33C268.182 121.33 270.206 123.596 270.206 126.764C270.206 129.91 268.182 132.22 265.146 132.22C262.132 132.22 260.108 129.91 260.108 126.764C260.108 123.574 262.132 121.33 265.146 121.33ZM265.146 122.672C263.056 122.672 261.648 124.3 261.648 126.742C261.648 129.184 263.056 130.878 265.146 130.878C267.258 130.878 268.666 129.184 268.666 126.742C268.666 124.3 267.258 122.672 265.146 122.672ZM272.8 132V124.52C272.8 123.574 272.734 122.562 272.602 121.55H274.252V123.728H274.472C274.956 122.166 276.122 121.396 277.398 121.396C277.904 121.396 278.454 121.506 278.806 121.748V123.332C278.322 122.936 277.882 122.76 277.31 122.76C275.44 122.76 274.318 124.41 274.318 126.94V129.03C274.318 130.086 274.362 130.834 274.516 132H272.8ZM284.48 121.33C287.296 121.33 289.1 123.31 289.1 126.104C289.1 126.412 289.078 126.72 289.034 127.182H281.092C281.202 129.404 282.786 130.944 285.052 130.944C286.416 130.944 287.67 130.394 288.506 129.47V131.23C287.648 131.846 286.284 132.22 284.942 132.22C281.906 132.22 279.53 130.152 279.53 126.72C279.53 123.794 281.378 121.33 284.48 121.33ZM287.67 126.038C287.692 124.036 286.438 122.628 284.546 122.628C282.632 122.628 281.29 124.036 281.158 126.038H287.67ZM298.673 117.48H300.015V129.03C300.015 129.998 300.081 131.054 300.191 132H298.453V119.284L295.087 121.418H294.933V119.812L298.673 117.48ZM303.474 120.626V118.712C304.53 117.788 305.938 117.26 307.456 117.26C310.206 117.26 311.966 119.042 311.966 121.616C311.966 124.3 310.316 126.368 306.796 129.272L305.432 130.46V130.548H311.988V132H303.21V130.592L305.168 128.898C308.886 125.818 310.316 123.772 310.316 121.704C310.316 119.878 309.106 118.646 307.302 118.646C305.916 118.646 304.596 119.35 303.474 120.626ZM318.521 117.04H319.907L314.297 132.44H312.911L318.521 117.04ZM327.449 128.194C327.449 126.456 326.107 125.334 324.347 125.334H323.511V123.992H324.325C325.975 123.992 327.251 122.848 327.251 121.176C327.251 119.57 326.063 118.58 324.479 118.58C323.093 118.58 321.883 119.328 320.981 120.516V118.646C322.015 117.7 323.291 117.26 324.589 117.26C326.987 117.26 328.769 118.734 328.769 121.066C328.769 122.87 327.669 124.234 325.997 124.608V124.652C327.801 125.026 329.011 126.412 329.011 128.326C329.011 130.812 327.053 132.22 324.677 132.22C323.357 132.22 321.993 131.78 320.893 130.834V128.986C321.861 130.196 323.137 130.878 324.523 130.878C326.239 130.878 327.449 129.822 327.449 128.194ZM335.58 117.04H336.966L331.356 132.44H329.97L335.58 117.04ZM337.849 120.626V118.712C338.905 117.788 340.313 117.26 341.831 117.26C344.581 117.26 346.341 119.042 346.341 121.616C346.341 124.3 344.691 126.368 341.171 129.272L339.807 130.46V130.548H346.363V132H337.585V130.592L339.543 128.898C343.261 125.818 344.691 123.772 344.691 121.704C344.691 119.878 343.481 118.646 341.677 118.646C340.291 118.646 338.971 119.35 337.849 120.626ZM355.393 132H353.875V128.084H347.517V126.06L353.919 117.48H355.393V126.698H357.703V128.084H355.393V132ZM353.875 119.79L348.705 126.698H353.875V119.79Z"
       fill="#F9FAF9"
       id="path4" />
    <path
       d="M215.571 280.467C212.381 281.055 209.185 281.609 205.985 282.143C202.868 283.009 199.694 283.676 196.53 284.347C194.327 284.814 192.143 285.368 189.943 285.843C188.814 286.086 187.684 286.321 186.553 286.547C185.341 286.79 183.928 286.872 182.797 287.374C182.684 287.424 182.586 287.439 182.499 287.432C182.356 287.625 182.106 287.721 181.853 287.542C181.295 287.148 180.835 286.667 180.367 286.186C178.632 286.459 176.898 286.732 175.165 287.013C171.318 287.635 167.515 288.478 163.675 289.117C163.036 289.223 162.379 288.362 162.998 287.878C165.082 286.253 167.158 284.617 169.26 283.015C171.279 281.478 173.266 279.698 175.515 278.514C175.598 278.471 175.678 278.46 175.749 278.47C175.772 278.468 175.794 278.463 175.818 278.462C178.082 278.435 180.347 278.398 182.611 278.358C182.28 277.39 181.88 276.453 181.612 275.445C181.291 274.236 180.957 273.045 180.803 271.801C180.785 271.656 180.854 271.521 180.957 271.433L180.87 271.321C180.894 271.302 180.919 271.285 180.944 271.267C181.189 271.077 181.359 270.862 181.467 270.637C182.16 270.078 182.863 269.533 183.594 269.017C184.128 268.641 184.663 268.27 185.198 267.897C185.271 267.846 185.34 267.795 185.408 267.744C185.472 267.322 185.826 266.963 186.33 267.166C186.411 267.198 186.491 267.23 186.572 267.263C186.588 267.265 186.602 267.265 186.618 267.267C186.696 267.276 186.757 267.308 186.802 267.356C196.392 271.208 205.965 275.108 215.617 278.805C216.357 279.088 216.485 280.298 215.573 280.466L215.571 280.467ZM182.228 286.542C182.308 286.467 182.421 286.424 182.571 286.438C183.768 286.552 185.064 286.196 186.246 286.006C187.388 285.823 188.527 285.631 189.666 285.43C191.939 285.029 194.227 284.641 196.471 284.098C197.86 283.762 199.242 283.397 200.622 283.023C194.189 284.055 187.745 285.03 181.311 286.039C181.625 286.188 181.933 286.351 182.229 286.543L182.228 286.542ZM181.631 271.844C182.051 272.878 182.35 273.943 182.653 275.02C182.967 276.129 183.11 277.243 183.353 278.348C190.67 278.215 197.985 278.035 205.303 277.917C201.543 276.919 197.778 275.939 194.009 274.974C189.896 273.919 185.735 272.964 181.631 271.844ZM185.976 268.666C185.93 268.698 185.884 268.733 185.838 268.768C185.323 269.167 184.807 269.566 184.289 269.961C183.767 270.36 183.234 270.74 182.694 271.11C186.571 272.027 190.425 273.081 194.284 274.038C198.574 275.102 202.867 276.148 207.168 277.169C200.12 274.296 193.042 271.495 185.976 268.666ZM210.604 278.577C210.547 278.87 210.313 279.14 209.959 279.147C198.569 279.37 187.175 279.389 175.785 279.609C175.694 279.611 175.616 279.595 175.547 279.565C173.921 281.262 171.905 282.659 170.086 284.129C168.783 285.181 167.469 286.217 166.153 287.251C168.59 286.894 171.035 286.581 173.462 286.152C176.818 285.56 180.163 284.914 183.518 284.318C190.228 283.127 196.94 281.936 203.655 280.763C206.523 280.262 209.391 279.742 212.265 279.264C211.711 279.034 211.158 278.805 210.604 278.577Z"
       fill="#222222"
       id="path5" />
    <path
       d="M146.374 272.069C137.237 269.65 127.917 267.819 118.443 267.556C108.991 267.294 99.5129 268.195 90.2782 270.237C80.9915 272.291 71.8723 275.401 63.3947 279.736C60.0325 281.456 56.6227 283.526 54.0134 286.311C56.4711 287.151 58.8284 288.244 60.8773 289.726C64.4839 292.334 66.9843 296.52 66.2257 301.089C65.5204 305.343 61.6584 307.879 57.4749 307.357C53.2283 306.826 49.8624 303.835 48.9048 299.665C47.9131 295.348 49.388 290.681 52.0476 287.241C52.1817 287.067 52.3199 286.897 52.4589 286.728C51.291 286.369 50.1192 286.062 48.9733 285.788C44.6476 284.753 40.1971 284.276 35.7503 284.319C18.1323 284.487 0.46449 292.991 -9.31764 307.888C-18.8196 322.36 -20.5635 341.451 -13.9398 357.421C-13.1481 359.331 -12.2576 361.221 -11.3325 363.07C-11.1428 363.448 -11.6656 363.716 -11.8992 363.38C-17.1014 355.912 -19.1967 346.344 -19.1825 337.344C-19.168 328.292 -16.9265 319.223 -12.6188 311.251C-3.66514 294.687 14.1939 284.681 32.7477 283.563C37.4277 283.281 42.1391 283.574 46.7427 284.458C48.8236 284.856 50.9789 285.347 53.0813 286.007C56.5569 282.163 61.3154 279.674 65.9619 277.514C70.5119 275.399 75.2075 273.592 79.9979 272.101C89.531 269.136 99.4874 267.51 109.457 267.127C119.369 266.746 129.532 267.446 139.226 269.599C141.69 270.146 144.119 270.786 146.522 271.552C146.852 271.658 146.707 272.157 146.372 272.068L146.374 272.069ZM53.3786 287.022C52.5332 288.018 51.7884 289.1 51.1816 290.285C49.173 294.207 48.6238 299.627 51.5925 303.242C54.2887 306.524 60.0405 307.899 63.3101 304.653C66.6974 301.29 65.3959 295.583 62.4852 292.408C60.0856 289.79 56.7894 288.16 53.3786 287.022Z"
       fill="#F9FAF9"
       id="path6" />
    <path
       d="M45.2522 244.16C44.9036 242.262 44.0092 240.017 41.9507 239.45C41.9099 239.426 41.8691 239.403 41.8293 239.381C40.8646 238.844 39.8088 238.699 38.7171 238.71C37.309 238.724 35.9129 239.08 34.5664 239.459C33.876 239.653 33.1868 239.858 32.5082 240.091C31.9359 240.286 31.3317 240.439 30.7797 240.688C30.3706 239.891 30.0095 239.067 29.6665 238.242C29.1328 236.959 28.547 235.654 28.1355 234.326C27.8141 233.289 28.2214 232.513 29.1084 231.954C29.6508 231.612 30.2702 231.37 30.8664 231.139C31.1996 231.009 31.5424 230.895 31.8922 230.819C32.0857 230.776 32.2824 230.77 32.4772 230.751C32.4857 230.763 32.4945 230.775 32.5043 230.787C32.8961 231.259 33.21 231.782 33.5085 232.316C33.6569 232.581 33.7548 232.894 33.9251 233.144C34.0443 233.319 34.0911 233.518 34.1926 233.69C34.1842 233.737 34.1813 233.786 34.1871 233.837C34.2251 234.173 34.5692 234.353 34.8779 234.247C35.2536 234.117 35.5907 234.077 35.8866 233.795C36.0592 233.631 36.2816 233.354 36.3149 233.087C36.3385 233.08 36.362 233.072 36.3857 233.066C36.3512 232.961 36.3176 232.856 36.2832 232.752C35.9396 231.702 35.5406 230.732 35.0298 229.753C34.6712 229.065 34.3319 228.343 33.6294 227.944C32.8529 227.503 31.7686 227.871 30.9802 228.073C29.7581 228.387 28.5943 228.938 27.5182 229.585C26.6609 230.1 25.8696 230.76 25.5616 231.739C24.9851 233.573 26.1782 235.564 26.7967 237.236C27.1775 238.266 27.5549 239.297 27.9596 240.318C28.1205 240.724 28.2775 241.147 28.4494 241.566C28.1998 241.598 27.9662 241.717 27.7313 241.817C27.6733 241.842 27.6161 241.866 27.5594 241.89C27.065 241.95 26.6857 242.228 26.4583 242.618C25.2788 243.026 25.089 244.592 25.0557 245.647C25.0041 247.277 25.2637 248.91 25.5871 250.503C26.1901 253.47 27.0943 256.782 29.7083 258.629C31.0413 259.571 32.6687 259.953 34.2845 260.015C36.2483 260.09 38.2828 259.817 40.1357 259.158C41.7728 258.577 43.2636 257.551 44.2149 256.091C45.2947 254.433 45.4733 252.568 45.5186 250.646C45.5695 248.484 45.6452 246.297 45.2525 244.159L45.2522 244.16ZM27.1762 235.61C26.8439 234.747 26.4852 233.877 26.398 232.949C26.3105 232.019 26.7728 231.293 27.5038 230.748C28.504 230.002 29.7226 229.477 30.9067 229.098C31.4217 228.933 31.9679 228.805 32.5045 228.733C32.823 228.69 33.1135 228.725 33.3651 228.929C33.6089 229.128 33.7697 229.452 33.916 229.722C34.1642 230.179 34.4172 230.639 34.6402 231.109C34.9442 231.749 35.1608 232.426 35.3782 233.101C35.3672 233.109 35.3557 233.117 35.3437 233.125C35.1571 233.201 34.9592 233.302 34.7685 233.286C34.7676 233.287 34.7671 233.287 34.7663 233.287C34.7123 232.837 34.4528 232.338 34.2968 232.003C34.0108 231.387 33.6351 230.796 33.2007 230.272C33.062 230.106 32.8709 230.083 32.7108 230.141C32.1947 229.932 31.5003 230.146 31.0009 230.28C30.2815 230.474 29.546 230.771 28.8897 231.122C27.8469 231.679 27.1423 232.53 27.1725 233.742C27.1891 234.41 27.4795 235.048 27.7144 235.662C28.014 236.445 28.3157 237.226 28.6268 238.003C29.2198 239.486 29.824 240.977 30.5796 242.386C30.5818 242.39 30.5845 242.394 30.5867 242.398C30.3328 242.522 30.0766 242.618 29.7861 242.685C29.6202 242.191 29.3996 241.711 29.2087 241.227C28.9476 240.566 28.7056 239.897 28.4679 239.227C28.0405 238.02 27.6352 236.805 27.1754 235.611L27.1762 235.61ZM27.4925 242.734C27.6382 242.705 27.7811 242.653 27.9273 242.601C28.1955 242.505 28.523 242.44 28.7648 242.28C28.9334 242.629 29.1214 242.966 29.3418 243.275C29.4772 243.464 29.687 243.425 29.8044 243.291C30.3922 243.349 31.0138 243.061 31.484 242.742C31.6949 242.6 31.6723 242.38 31.5458 242.238C31.5553 242.134 31.5299 242.018 31.4564 241.899C31.3417 241.712 31.232 241.523 31.1248 241.331C31.5594 241.275 31.9862 241.147 32.4108 241.041C33.0536 240.881 33.6889 240.698 34.3271 240.52C35.5652 240.175 36.8209 239.88 38.1049 239.772C39.1015 239.689 40.0896 239.762 41.0046 240.177C41.4377 240.373 42.5161 240.92 42.4929 241.503C42.4794 241.835 42.0457 242.032 41.7874 242.148C41.2192 242.403 40.6111 242.577 40.0059 242.72C38.7803 243.011 37.5267 243.168 36.2876 243.386C34.3047 243.734 32.4584 244.577 30.4868 244.97C29.627 245.142 28.3605 245.376 27.6891 244.645C27.1517 244.059 26.9284 243.261 27.4925 242.734ZM44.4382 248.993C44.4336 249.999 44.4457 251.016 44.3783 252.02C44.2609 253.772 43.6441 255.488 42.3189 256.698C40.9671 257.932 39.1491 258.515 37.371 258.811C35.623 259.103 33.7147 259.205 32.0004 258.68C30.4919 258.219 29.3133 257.234 28.4617 255.933C27.6111 254.633 27.1459 253.107 26.7644 251.617C26.3769 250.101 26.0903 248.547 25.9675 246.986C25.9055 246.199 25.896 245.401 26.0312 244.619C26.07 244.394 26.1315 244.141 26.2358 243.914C26.3146 244.517 26.6068 245.08 27.0398 245.513C28.3524 246.823 30.8373 246.015 32.3493 245.581C33.3147 245.304 34.2627 244.972 35.2297 244.7C36.2839 244.404 37.3949 244.293 38.4733 244.112C39.6901 243.909 40.9199 243.667 42.0675 243.205C42.602 242.989 43.1429 242.646 43.4099 242.158C43.9611 243.204 44.1765 244.485 44.3012 245.611C44.4253 246.733 44.4433 247.865 44.4382 248.992L44.4382 248.993Z"
       fill="#F9FAF9"
       id="path7" />
    <path
       d="M38.6908 240.276C38.2885 240.249 37.7216 240.217 37.348 240.437C37.1231 240.496 36.918 240.616 36.7635 240.806C36.5793 241.033 36.5361 241.357 36.6575 241.591C36.6937 241.829 36.881 241.994 37.1277 242.062C37.8234 242.252 38.6502 242.055 38.9866 241.456L38.9865 241.455C38.994 241.443 39.0006 241.431 39.0067 241.418C39.0848 241.266 39.1323 241.09 39.1392 240.888C39.1486 240.618 39.0095 240.298 38.6908 240.276Z"
       fill="#F9FAF9"
       id="path8" />
    <path
       d="M39.1639 253.559C39.0614 253.469 38.9666 253.372 38.8764 253.272C38.8378 253.178 38.7929 253.083 38.7495 252.986C38.6081 252.668 38.4508 252.357 38.2979 252.044C37.9968 251.429 37.682 250.826 37.493 250.171C37.9391 249.883 38.2873 249.459 38.4106 249.004C38.6982 247.947 37.6636 246.901 36.5737 246.749C36.424 246.728 36.2525 246.728 36.0781 246.752C35.6497 246.721 35.1858 246.984 34.9064 247.256C34.5975 247.557 34.4583 247.965 34.4395 248.368C34.4011 249.197 34.82 250.12 35.7029 250.444C35.9149 250.521 36.1353 250.552 36.3553 250.545C36.3539 250.665 36.3542 250.785 36.3502 250.903C36.3369 251.307 36.3263 251.712 36.3183 252.116C36.3034 252.878 36.3097 253.64 36.3468 254.4C36.3589 254.644 36.6368 254.732 36.8584 254.676C37.5829 254.492 38.3313 254.41 39.052 254.209C39.3814 254.117 39.3622 253.736 39.1631 253.56L39.1639 253.559ZM37.5373 248.577C37.5426 248.546 37.547 248.514 37.5505 248.482C37.5587 248.524 37.5638 248.565 37.5662 248.606C37.5565 248.602 37.5464 248.6 37.5368 248.597C37.5374 248.591 37.5376 248.584 37.5377 248.577L37.5373 248.577ZM37.1495 249.413C37.1528 249.41 37.1555 249.407 37.1588 249.404C37.1674 249.41 37.1765 249.415 37.1855 249.421C37.1419 249.458 37.0949 249.494 37.0454 249.527C37.0821 249.491 37.1163 249.452 37.1496 249.413L37.1495 249.413Z"
       fill="#F9FAF9"
       id="path9" />
    <path
       d="M28.6331 247.372C28.2798 247.37 27.9707 247.351 27.7249 247.064C27.4802 246.779 27.0114 247.117 27.2506 247.416C27.4613 247.679 27.7388 247.869 28.0708 247.949C28.3106 248.007 28.9055 248.097 29.0189 247.782C29.1205 247.5 28.9012 247.373 28.6331 247.372Z"
       fill="#F9FAF9"
       id="path10" />
    <path
       d="M28.6017 248.911C28.2998 248.831 27.9689 248.878 27.658 248.848C27.2808 248.81 27.1856 249.373 27.5652 249.427C27.8979 249.474 28.253 249.504 28.5882 249.483C28.9396 249.46 28.8976 248.99 28.6012 248.911L28.6017 248.911Z"
       fill="#F9FAF9"
       id="path11" />
    <path
       d="M28.9251 251.245C28.7676 251.111 28.5509 251.07 28.3824 250.945C28.092 250.731 27.7475 251.155 28.0312 251.382C28.141 251.469 28.2607 251.544 28.3859 251.608C28.5183 251.676 28.6393 251.711 28.7889 251.711C29.036 251.711 29.0826 251.378 28.9246 251.244L28.9251 251.245Z"
       fill="#F9FAF9"
       id="path12" />
    <path
       d="M115.193 313.254C115.956 313.254 116.693 313.214 117.424 313.263C119.212 313.382 120.996 313.545 122.782 313.685C123.326 313.727 123.652 313.908 123.74 314.535C123.875 315.492 124.459 316.196 125.248 316.776C126.867 317.966 128.615 318.274 130.547 317.736C132.146 317.291 133.224 316.007 133.288 314.351C133.315 313.649 133.303 312.941 133.241 312.241C133.142 311.134 131.786 309.708 130.676 309.527C129.911 309.402 129.138 309.266 128.366 309.25C126.968 309.221 125.704 309.65 124.723 310.677C124.193 311.232 123.62 311.258 122.897 311.17C121.53 311.005 120.146 310.942 118.767 310.901C115.854 310.814 112.939 310.767 110.025 310.706C109.8 310.701 109.576 310.711 109.352 310.705C108.043 310.672 107.771 311.147 107.483 312.555C107.476 312.591 107.483 312.629 107.485 312.666C107.569 313.893 107.558 315.106 106.835 316.197C107.555 316.864 108.383 317.128 109.169 317.418C109.774 317.642 110.393 317.07 110.425 316.368C110.452 315.778 110.423 315.185 110.469 314.597C110.494 314.279 110.565 313.937 110.72 313.664C110.985 313.197 111.454 313.208 111.91 313.347C112.362 313.483 112.4 313.846 112.367 314.243C112.305 314.981 112.213 315.719 112.207 316.458C112.199 317.469 112.248 317.493 113.211 317.717C113.538 317.793 113.861 317.896 114.193 317.942C115.219 318.086 115.568 317.685 115.394 316.687C115.249 315.851 115.167 315.004 115.086 314.159C115.063 313.914 115.141 313.659 115.193 313.254L115.193 313.254ZM129.113 315.336C128.038 315.209 127.28 314.935 126.83 314.172C126.564 313.72 126.629 313.218 126.985 312.836C127.572 312.206 128.286 311.875 129.182 312.12C129.538 312.218 129.898 312.324 130.263 312.358C130.77 312.406 131.095 312.643 131.24 313.116C131.394 313.619 131.295 314.139 130.886 314.418C130.29 314.824 129.598 315.092 129.113 315.336Z"
       fill="#F9FAF9"
       id="path13" />
    <path
       d="M97.2285 304C94.437 304.136 92.8184 306.729 93.8126 308.974C94.1092 309.644 94.4995 310.293 94.9543 310.868C95.5149 311.576 95.6513 312.189 95.289 313.089C94.5716 314.871 94.0472 316.729 93.4374 318.553C93.3327 318.866 93.1948 319.169 93.0818 319.48C92.8411 320.143 93.1431 320.621 93.8347 320.579C95.4653 320.48 97.093 320.336 98.7222 320.214C99.1313 320.183 99.5412 320.161 99.9512 320.149C100.212 320.14 100.475 320.176 100.735 320.159C101.765 320.094 102.24 319.352 101.882 318.412C101.278 316.821 100.702 315.22 100.083 313.634C99.7773 312.853 99.8447 312.182 100.255 311.421C100.67 310.652 100.962 309.778 101.118 308.916C101.538 306.599 99.415 303.972 97.2285 304Z"
       fill="#F9FAF9"
       id="path14" />
    <path
       d="M70.164 359.221C70.1965 357.383 69.8736 355.576 69.4028 353.801C69.3084 353.443 69.14 353.103 68.9855 352.764C68.878 352.529 68.6999 352.373 68.4169 352.335L68.4116 352.334C68.4217 352.286 68.4303 352.238 68.4388 352.191C68.7294 350.635 68.9056 349.068 68.9483 347.483C68.9963 345.702 68.7695 343.967 68.1419 342.304C67.3081 340.093 65.9033 338.395 63.5657 337.619C63.1766 337.49 62.7718 337.406 62.3719 337.311C59.6596 336.67 57.1977 337.13 55.0263 338.929C53.1635 340.471 51.8904 342.399 51.0707 344.654C50.4789 346.282 50.1551 347.974 49.7763 349.653C49.7751 349.661 49.7737 349.667 49.772 349.674C49.3238 349.659 48.9905 349.855 48.7622 350.329C48.3608 351.161 47.9037 351.967 47.5198 352.806C46.7702 354.445 46.1606 356.134 45.9353 357.931C45.6985 359.819 45.907 361.685 46.2619 363.545C46.9824 367.324 49.3154 369.758 52.7787 371.223C54.3858 371.903 56.0785 372.267 57.8382 372.335C59.5703 372.401 61.2176 372.09 62.7961 371.4C64.4101 370.695 65.648 369.52 66.7726 368.213C68.9993 365.625 70.1051 362.606 70.1651 359.221L70.164 359.221ZM51.6292 344.911C52.4252 342.64 53.7145 340.717 55.6289 339.231C56.9211 338.227 58.3948 337.682 60.0405 337.644C61.1988 337.617 62.3219 337.852 63.4074 338.233C64.1339 338.488 64.8191 338.85 65.3988 339.365C66.4742 340.321 67.2287 341.484 67.6961 342.845C68.3438 344.732 68.4527 346.672 68.295 348.632C68.1977 349.839 68.0479 351.061 67.8469 352.256C67.3016 352.179 66.7564 352.098 66.2116 352.019C66.4008 350.771 66.5767 349.514 66.6358 348.252C66.7116 346.629 66.4981 345.021 65.9982 343.47C65.549 342.077 64.7642 340.898 63.4261 340.189C61.7156 339.283 59.5108 339.048 57.7301 339.875C55.5704 340.88 54.1801 342.561 53.3503 344.752C52.8702 346.019 52.4848 347.308 52.2191 348.638C52.1508 349.076 52.0813 349.514 52.0146 349.953C52.0118 349.971 52.0084 349.989 52.005 350.007C51.7872 349.973 51.5697 349.941 51.3518 349.907L51.351 349.912C51.0348 349.864 50.7165 349.825 50.401 349.772C50.4518 349.523 50.4941 349.283 50.5486 349.032C50.8484 347.643 51.1574 346.258 51.6296 344.912L51.6292 344.911ZM52.6076 350.1C52.7258 349.475 52.8298 348.846 52.9618 348.224C53.3427 346.426 53.8813 344.686 54.8427 343.096C55.6824 341.707 56.939 340.813 58.4195 340.253C60.1516 339.597 61.8257 340.032 63.3698 340.868C64.5595 341.512 65.1784 342.663 65.5323 343.931C66.0738 345.871 66.1995 347.846 65.9464 349.843C65.8574 350.543 65.7397 351.238 65.628 351.933C64.7262 351.805 64.7463 351.903 64.4305 352.591C64.1164 353.276 63.6009 353.692 62.8089 353.704C62.5051 353.708 62.1997 353.737 61.8969 353.721C59.6341 353.6 57.4213 353.196 55.25 352.554C54.5628 352.351 54.0867 351.95 53.9038 351.242C53.8637 351.087 53.788 350.941 53.7555 350.786C53.6803 350.424 53.452 350.234 53.099 350.177C52.9349 350.151 52.7712 350.126 52.607 350.1L52.6076 350.1ZM66.2712 367.764C65.5461 368.597 64.7989 369.413 63.863 370.031C61.8461 371.361 59.631 371.869 57.2255 371.657C55.804 371.532 54.4104 371.257 53.1159 370.684C51.2411 369.854 49.4694 368.844 48.3454 367.028C47.7608 366.083 47.3046 365.083 47.0318 364.006C46.5834 362.237 46.3982 360.438 46.486 358.619C46.5392 357.513 46.8179 356.445 47.1626 355.393C47.6955 353.767 48.3927 352.212 49.2277 350.718C49.504 350.223 49.5206 350.222 50.0794 350.306C50.964 350.44 51.8462 350.593 52.7321 350.718C53.2885 350.797 53.3067 351.417 53.5066 351.817C53.7731 352.352 54.2745 352.849 54.8552 353.034C55.5282 353.247 56.1945 353.473 56.8908 353.604C58.2971 353.868 59.7139 354.082 61.1331 354.267C61.714 354.343 62.3118 354.302 62.9015 354.29C63.8809 354.269 64.5386 353.755 64.9681 352.913C65.0269 352.797 65.0803 352.622 65.2025 352.558C65.2149 352.551 65.2277 352.546 65.242 352.542C65.3315 352.516 65.4272 352.53 65.5191 352.544C66.2814 352.667 67.0383 352.762 67.806 352.843C68.2354 352.888 68.5042 353.087 68.6141 353.495C68.7665 354.06 68.9456 354.621 69.0548 355.195C69.3894 356.944 69.6351 358.704 69.4259 360.489C69.1055 363.223 68.095 365.673 66.2717 367.765L66.2712 367.764Z"
       fill="#F9FAF9"
       id="path15" />
    <path
       d="M56.9921 366.022C56.6385 365.966 56.2859 365.903 55.9364 365.824C55.5176 365.729 55.4036 365.528 55.535 365.119C55.8276 364.205 56.1274 363.294 56.4443 362.389C56.5453 362.101 56.563 361.883 56.3611 361.607C56.1346 361.298 55.9818 360.924 55.8515 360.559C55.4047 359.307 56.315 358.141 57.4782 357.929C58.8829 357.673 60.1409 358.684 60.0803 360.091C60.0485 360.836 59.761 361.483 59.0813 361.875C58.7639 362.057 58.6354 362.284 58.6359 362.644C58.6368 363.549 58.6083 364.454 58.5922 365.36C58.5879 365.596 58.5924 366.011 58.3449 366.146C58.236 366.206 58.1021 366.189 57.9788 366.17C57.6503 366.121 57.3203 366.074 56.9917 366.021L56.9921 366.022ZM57.9761 365.567C58 365.414 57.9849 365.294 57.9874 365.191C58.0077 364.286 58.0399 363.381 58.033 362.477C58.0291 361.979 58.2045 361.663 58.6635 361.417C59.64 360.894 59.765 359.657 58.9663 358.893C58.4989 358.446 57.9624 358.429 57.3692 358.566C56.745 358.709 56.1213 359.481 56.3625 360.255C56.5011 360.699 56.6516 361.137 56.9914 361.473C57.2129 361.693 57.229 361.918 57.1257 362.2C56.9172 362.766 56.7292 363.34 56.5449 363.915C56.4057 364.35 56.2858 364.791 56.1441 365.274C56.7642 365.369 57.3635 365.472 57.9767 365.567L57.9761 365.567Z"
       fill="#F9FAF9"
       id="path16" />
    <path
       d="M48.3901 353.868C48.5678 353.883 48.4019 354.41 48.3775 354.479C47.9858 355.569 47.7142 356.687 47.5403 357.83C47.2061 360.034 47.4049 362.181 48.2289 364.262C48.3729 364.626 48.5129 364.991 48.6483 365.357C48.6969 365.488 48.7677 365.665 48.5821 365.715C48.3841 365.768 48.1988 365.272 48.141 365.141C48.0331 364.898 47.9513 364.644 47.8585 364.396C47.6866 363.935 47.5236 363.471 47.3896 362.998C46.8423 361.063 46.8736 359.101 47.2718 357.146C47.4851 356.099 47.7379 355.059 48.1572 354.075C48.1855 354.009 48.2178 353.938 48.281 353.902C48.3269 353.876 48.3628 353.866 48.3902 353.868L48.3901 353.868Z"
       fill="#F9FAF9"
       id="path17" />
    <path
       d="M49.7773 367.846C49.7481 367.849 49.7174 367.843 49.6909 367.831C49.4104 367.704 49.2368 367.348 49.0764 367.099C48.9703 366.934 48.8024 366.723 48.8303 366.513C48.8412 366.433 48.909 366.354 48.99 366.361C49.0958 366.371 49.1481 366.486 49.1988 366.562C49.2728 366.673 49.3458 366.785 49.4175 366.897C49.5584 367.117 49.6952 367.339 49.829 367.564C49.8743 367.64 49.9171 367.742 49.8584 367.808C49.8379 367.831 49.8082 367.843 49.7768 367.846L49.7773 367.846Z"
       fill="#F9FAF9"
       id="path18" />
    <path
       fill-rule="evenodd"
       clip-rule="evenodd"
       d="M258.95 407C252.632 406.986 251.504 402.365 251.504 397.94L251.518 246.366V245.308L251.519 245.275C251.546 242.29 251.562 240.651 248.178 238.349C247.375 237.801 246.487 237.286 245.541 236.737C245.405 236.658 245.268 236.578 245.13 236.498C240.628 234.198 236.696 230.922 233.621 226.909C228.179 219.811 231.784 211.001 239.188 211.001H326.714C329.299 210.982 331.881 211.163 334.438 211.544C356.915 215.01 375.522 224.585 388.243 239.282C398.405 250.867 404.486 265.465 405.556 280.839V281.089C405.375 289.44 404.791 311.485 377.916 332.584C375.398 334.552 373.728 337.407 373.247 340.566C372.766 343.725 373.51 346.949 375.327 349.577L407.463 395.657C408.216 396.747 408.655 398.023 408.731 399.346C408.808 400.668 408.519 401.986 407.897 403.156C407.275 404.325 406.343 405.301 405.204 405.977C404.064 406.652 402.761 407.001 401.436 406.986H366.643C359.072 406.986 355.05 404.439 351.737 399.568L317.737 349.466C315.399 346.028 312.824 344.038 308.649 344.038C301.774 344.038 301.774 349.312 301.774 356.062V397.954C301.774 402.644 300.285 407 293.744 407H258.95ZM326.867 306.308C349.726 306.308 368.274 294.318 368.285 279.531C368.285 279.535 368.285 279.54 368.285 279.545V279.517C368.285 279.521 368.285 279.526 368.285 279.531C368.274 264.729 349.726 252.712 326.867 252.712C304.001 252.712 285.463 264.723 285.463 279.517C285.463 294.311 304.001 306.308 326.867 306.308ZM349.037 279.544C349.037 289.899 339.114 298.249 326.866 298.249C314.633 298.249 304.71 289.899 304.71 279.544C304.71 269.19 314.619 260.839 326.866 260.839C339.114 260.839 349.037 269.19 349.037 279.544Z"
       fill="#222222"
       id="path19" />
  </g>
  <defs
     id="defs21">
    <clipPath
       id="clip0_1977_3540">
      <rect
         width="428"
         height="400"
         fill="white"
         id="rect21" />
    </clipPath>
  </defs>
</svg>
