<?xml version="1.0" encoding="UTF-8" standalone="no"?>
<svg
   width="768"
   height="238"
   viewBox="0 0 768 238"
   fill="none"
   version="1.1"
   id="svg23"
   sodipodi:docname="In-app banner RCP (1).svg"
   inkscape:version="1.4 (e7c3feb100, 2024-10-09)"
   xmlns:inkscape="http://www.inkscape.org/namespaces/inkscape"
   xmlns:sodipodi="http://sodipodi.sourceforge.net/DTD/sodipodi-0.dtd"
   xmlns="http://www.w3.org/2000/svg"
   xmlns:svg="http://www.w3.org/2000/svg">
  <sodipodi:namedview
     id="namedview23"
     pagecolor="#ffffff"
     bordercolor="#999999"
     borderopacity="1"
     inkscape:showpageshadow="2"
     inkscape:pageopacity="0"
     inkscape:pagecheckerboard="0"
     inkscape:deskcolor="#d1d1d1"
     inkscape:zoom="3.1393229"
     inkscape:cx="210.07715"
     inkscape:cy="118.9747"
     inkscape:window-width="2560"
     inkscape:window-height="1403"
     inkscape:window-x="2560"
     inkscape:window-y="0"
     inkscape:window-maximized="1"
     inkscape:current-layer="g22" />
  <g
     clip-path="url(#clip0_1977_3507)"
     id="g22">
    <rect
       width="771"
       height="238"
       fill="#222222"
       id="rect1" />
    <path
       d="M733.896 102.773C702 34.0334 631.274 -10.7474 537.274 32.8482C405.428 94.9975 540.112 261.624 619.059 312.758C698.007 363.892 797.57 384.153 840.603 330.867C883.636 277.581 857.099 226.873 824.746 207.241C792.393 187.609 765.813 171.48 733.916 102.74L733.896 102.773Z"
       fill="#F9E26E"
       id="path1" />
    <path
       d="M47.84 67.336C42.996 67.336 40.784 65.432 40.784 61.26H44.872C44.872 63.108 45.908 63.92 47.952 63.92C49.8 63.92 50.724 63.248 50.724 61.876C50.724 60.308 49.716 59.636 46.888 59.188C42.66 58.516 41.064 56.948 41.064 53.476C41.064 49.584 43.444 47.624 47.98 47.624C52.46 47.624 54.672 49.528 54.672 53.532H50.584C50.584 51.88 49.716 51.04 47.896 51.04C46.16 51.04 45.264 51.796 45.264 53.056C45.264 54.484 46.244 55.128 48.932 55.52C53.384 56.164 54.924 57.872 54.924 61.456C54.924 65.404 52.6 67.336 47.84 67.336ZM63.5828 52.048C67.7268 52.048 69.6308 53.784 69.6308 57.592V67H66.1308L65.9908 65.18C64.9828 66.608 63.5268 67.336 61.5948 67.336C58.7108 67.336 56.9748 65.712 56.9748 62.8C56.9748 59.72 58.9068 58.012 62.7988 58.012H65.4868V57.536C65.4868 56.024 64.8988 55.296 63.4148 55.296C61.9868 55.296 61.4268 55.94 61.3708 56.948H57.3668C57.5908 53.7 59.5508 52.048 63.5828 52.048ZM62.8548 64.088C64.0308 64.088 64.8988 63.528 65.4868 62.436V60.756H63.5548C61.6788 60.756 61.0628 61.4 61.0628 62.464C61.0628 63.528 61.6788 64.088 62.8548 64.088ZM80.9732 52.384H85.1452L80.3852 67H75.9612L71.2012 52.384H75.5692L78.2572 62.352L80.9732 52.384ZM90.4665 60.98V61.26C90.4665 63.164 91.2225 64.088 93.0145 64.088C94.4145 64.088 95.2265 63.528 95.3105 62.52H99.2585C99.0905 65.684 96.9345 67.336 92.9865 67.336C88.5625 67.336 86.3225 65.236 86.3225 61.12V58.264C86.3225 54.204 88.5625 52.048 92.8185 52.048C97.1025 52.048 99.3425 54.26 99.3425 58.32V60.98H90.4665ZM92.9585 55.296C91.1945 55.296 90.4665 56.108 90.4665 58.068H95.4225C95.4225 56.108 94.6945 55.296 92.9585 55.296ZM123.198 59.72V63.108H121.238V67H117.094V63.108H108.218V59.468L116.814 47.96H121.238V59.72H123.198ZM112.194 59.72H117.094V52.916L112.194 59.72ZM132.289 67.336C127.781 67.336 125.401 65.124 125.401 60.924V54.036C125.401 49.808 127.781 47.624 132.289 47.624C136.797 47.624 139.177 49.808 139.177 54.036V60.924C139.177 65.124 136.797 67.336 132.289 67.336ZM132.289 63.836C134.221 63.836 135.033 62.912 135.033 60.756V54.204C135.033 52.048 134.221 51.124 132.289 51.124C130.357 51.124 129.545 52.048 129.545 54.204V60.756C129.545 62.912 130.357 63.836 132.289 63.836ZM145.749 58.32C142.977 58.32 141.493 57.032 141.493 54.568V51.376C141.493 48.912 142.977 47.624 145.749 47.624C148.521 47.624 150.005 48.912 150.005 51.376V54.568C150.005 57.032 148.521 58.32 145.749 58.32ZM144.433 67.336L155.857 47.624H158.797L147.401 67.336H144.433ZM145.749 55.856C146.617 55.856 147.037 55.408 147.037 54.428V51.488C147.037 50.536 146.617 50.088 145.749 50.088C144.881 50.088 144.461 50.536 144.461 51.488V54.428C144.461 55.408 144.881 55.856 145.749 55.856ZM157.481 67.336C154.709 67.336 153.225 66.048 153.225 63.584V60.392C153.225 57.928 154.709 56.64 157.481 56.64C160.253 56.64 161.737 57.928 161.737 60.392V63.584C161.737 66.048 160.253 67.336 157.481 67.336ZM157.481 64.872C158.349 64.872 158.769 64.424 158.769 63.444V60.504C158.769 59.552 158.349 59.104 157.481 59.104C156.613 59.104 156.193 59.552 156.193 60.504V63.444C156.193 64.424 156.613 64.872 157.481 64.872ZM177.832 67.336C173.744 67.336 171.588 65.152 171.588 60.952V58.6C171.588 54.4 173.744 52.216 177.832 52.216C181.92 52.216 184.076 54.4 184.076 58.6V60.952C184.076 65.152 181.92 67.336 177.832 67.336ZM177.832 65.18C180.38 65.18 181.612 63.78 181.612 60.868V58.656C181.612 55.744 180.38 54.372 177.832 54.372C175.284 54.372 174.052 55.744 174.052 58.656V60.868C174.052 63.78 175.284 65.18 177.832 65.18ZM194.984 52.216C198.008 52.216 199.52 54.036 199.52 57.508V67H197.056V57.732C197.056 55.464 196.216 54.484 194.508 54.484C192.8 54.484 191.484 55.492 190.448 57.62V67H187.984V52.552H190.084L190.168 54.82C191.428 53.028 192.968 52.216 194.984 52.216ZM222.816 67L218.28 59.272H214.108V67H211.588V47.96H218.896C223.236 47.96 225.028 49.612 225.028 53.616C225.028 56.864 223.852 58.572 221.08 59.104L225.728 67H222.816ZM214.108 50.256V56.976H218.672C221.528 56.976 222.508 56.052 222.508 53.616C222.508 51.18 221.528 50.256 218.672 50.256H214.108ZM230.927 60.448V61.092C230.927 63.92 232.103 65.208 234.679 65.208C236.863 65.208 238.011 64.256 238.179 62.688H240.559C240.363 65.768 238.207 67.336 234.735 67.336C230.675 67.336 228.463 65.18 228.463 61.204V58.348C228.463 54.372 230.619 52.216 234.567 52.216C238.515 52.216 240.671 54.372 240.671 58.348V60.448H230.927ZM234.623 54.344C232.075 54.344 230.927 55.632 230.927 58.404H238.291C238.291 55.632 237.143 54.344 234.623 54.344ZM249.289 67.336C245.313 67.336 243.353 65.796 243.353 62.744H245.705C245.705 64.396 246.881 65.236 249.289 65.236C251.529 65.236 252.649 64.48 252.649 63.108C252.649 61.68 251.669 61.064 248.869 60.728C245.089 60.28 243.689 59.16 243.689 56.584C243.689 53.784 245.677 52.216 249.261 52.216C252.845 52.216 254.749 53.756 254.749 56.668H252.341C252.341 55.128 251.305 54.316 249.233 54.316C247.217 54.316 246.097 55.072 246.097 56.388C246.097 57.704 247.077 58.236 249.737 58.516C253.601 58.936 255.057 60.168 255.057 62.912C255.057 65.824 253.097 67.336 249.289 67.336ZM263.544 64.872H265.196V67H262.956C260.184 67 259.008 65.656 259.008 62.492V54.568H256.516V52.552H259.064L259.26 48.744H261.472V52.552H265.028V54.568H261.472V62.52C261.472 64.396 261.892 64.872 263.544 64.872ZM274.375 52.272H275.355V54.708H274.627C272.275 54.708 270.959 55.912 270.483 58.684V67H268.019V52.552H270.119L270.231 55.24C270.959 53.196 272.275 52.272 274.375 52.272ZM277.942 49.948V47.204H280.63V49.948H277.942ZM278.054 67V52.552H280.518V67H278.054ZM290.456 67.336C286.536 67.336 284.436 65.208 284.436 61.204V58.348C284.436 54.344 286.536 52.216 290.456 52.216C294.096 52.216 296.112 54.064 296.224 57.564H293.844C293.676 55.24 292.5 54.372 290.484 54.372C288.048 54.372 286.9 55.632 286.9 58.404V61.148C286.9 63.92 288.048 65.18 290.484 65.18C292.5 65.18 293.676 64.312 293.844 61.988H296.224C296.112 65.488 294.096 67.336 290.456 67.336ZM304.888 64.872H306.54V67H304.3C301.528 67 300.352 65.656 300.352 62.492V54.568H297.86V52.552H300.408L300.604 48.744H302.816V52.552H306.372V54.568H302.816V62.52C302.816 64.396 303.236 64.872 304.888 64.872ZM323.298 67.336C318.51 67.336 316.186 64.816 316.186 59.804V55.156C316.186 50.144 318.51 47.624 323.298 47.624C327.778 47.624 330.074 49.808 330.242 54.232H327.778C327.638 51.292 326.21 49.92 323.298 49.92C320.106 49.92 318.706 51.544 318.706 55.212V59.748C318.706 63.416 320.106 65.04 323.298 65.04C326.21 65.04 327.638 63.668 327.778 60.756H330.242C330.074 65.152 327.778 67.336 323.298 67.336ZM339.707 67.336C335.619 67.336 333.463 65.152 333.463 60.952V58.6C333.463 54.4 335.619 52.216 339.707 52.216C343.795 52.216 345.951 54.4 345.951 58.6V60.952C345.951 65.152 343.795 67.336 339.707 67.336ZM339.707 65.18C342.255 65.18 343.487 63.78 343.487 60.868V58.656C343.487 55.744 342.255 54.372 339.707 54.372C337.159 54.372 335.927 55.744 335.927 58.656V60.868C335.927 63.78 337.159 65.18 339.707 65.18ZM356.859 52.216C359.883 52.216 361.395 54.036 361.395 57.508V67H358.931V57.732C358.931 55.464 358.091 54.484 356.383 54.484C354.675 54.484 353.359 55.492 352.323 57.62V67H349.859V52.552H351.959L352.043 54.82C353.303 53.028 354.843 52.216 356.859 52.216ZM370.814 64.872H372.466V67H370.226C367.454 67 366.278 65.656 366.278 62.492V54.568H363.786V52.552H366.334L366.53 48.744H368.742V52.552H372.298V54.568H368.742V62.52C368.742 64.396 369.162 64.872 370.814 64.872ZM377.08 60.448V61.092C377.08 63.92 378.256 65.208 380.832 65.208C383.016 65.208 384.164 64.256 384.332 62.688H386.712C386.516 65.768 384.36 67.336 380.888 67.336C376.828 67.336 374.616 65.18 374.616 61.204V58.348C374.616 54.372 376.772 52.216 380.72 52.216C384.668 52.216 386.824 54.372 386.824 58.348V60.448H377.08ZM380.776 54.344C378.228 54.344 377.08 55.632 377.08 58.404H384.444C384.444 55.632 383.296 54.344 380.776 54.344ZM397.683 52.216C400.707 52.216 402.219 54.036 402.219 57.508V67H399.755V57.732C399.755 55.464 398.915 54.484 397.207 54.484C395.499 54.484 394.183 55.492 393.147 57.62V67H390.683V52.552H392.783L392.867 54.82C394.127 53.028 395.667 52.216 397.683 52.216ZM411.638 64.872H413.29V67H411.05C408.278 67 407.102 65.656 407.102 62.492V54.568H404.61V52.552H407.158L407.354 48.744H409.566V52.552H413.122V54.568H409.566V62.52C409.566 64.396 409.986 64.872 411.638 64.872ZM430.916 47.96C435.368 47.96 437.272 49.724 437.272 53.812C437.272 57.9 435.368 59.636 430.916 59.636H426.268V67H423.748V47.96H430.916ZM430.748 57.34C433.688 57.34 434.752 56.36 434.752 53.812C434.752 51.264 433.688 50.256 430.748 50.256H426.268V57.34H430.748ZM446.996 52.272H447.976V54.708H447.248C444.896 54.708 443.58 55.912 443.104 58.684V67H440.64V52.552H442.74L442.852 55.24C443.58 53.196 444.896 52.272 446.996 52.272ZM456.137 67.336C452.049 67.336 449.893 65.152 449.893 60.952V58.6C449.893 54.4 452.049 52.216 456.137 52.216C460.225 52.216 462.381 54.4 462.381 58.6V60.952C462.381 65.152 460.225 67.336 456.137 67.336ZM456.137 65.18C458.685 65.18 459.917 63.78 459.917 60.868V58.656C459.917 55.744 458.685 54.372 456.137 54.372C453.589 54.372 452.357 55.744 452.357 58.656V60.868C452.357 63.78 453.589 65.18 456.137 65.18Z"
       fill="#F9FAF9"
       id="path2" />
    <path
       d="M44.29 85.48L48.976 97.756H49.064L53.706 85.48H56.302V100H54.718L54.74 87.086H54.674L49.702 100H48.272L43.344 87.086H43.278L43.3 100H41.694V85.48H44.29ZM65.3105 98.438C64.5185 99.626 63.4185 100.22 62.0545 100.22C60.1625 100.22 58.8205 99.076 58.8205 97.404C58.8205 95.732 60.1405 94.786 62.5605 94.324C64.5845 93.95 65.4425 93.488 65.4425 92.41C65.4425 91.332 64.5845 90.606 63.1325 90.606C61.8125 90.606 60.5585 91.2 59.5025 92.212V90.496C60.5145 89.77 61.8565 89.33 63.1985 89.33C65.4645 89.33 66.9825 90.584 66.9825 92.52V97.03C66.9825 97.998 67.1145 99.12 67.3785 100H65.7285L65.5305 98.438H65.3105ZM65.4425 94.324C64.9365 94.852 64.2545 95.16 62.8025 95.49C61.0645 95.886 60.3825 96.436 60.3825 97.382C60.3825 98.372 61.1305 98.988 62.3405 98.988C64.1225 98.988 65.4425 97.646 65.4425 95.622V94.324ZM77.3952 100L72.0272 94.632H71.8072V97.03C71.8072 98.152 71.8512 99.12 72.0052 100H70.2892V89.55C70.2892 88.296 70.2452 87.02 70.1132 85.48H71.8072V94.258H72.0272L76.6032 89.55H78.4732L73.6552 94.434L79.3092 100H77.3952ZM84.3745 89.33C87.1905 89.33 88.9945 91.31 88.9945 94.104C88.9945 94.412 88.9725 94.72 88.9285 95.182H80.9865C81.0965 97.404 82.6805 98.944 84.9465 98.944C86.3105 98.944 87.5645 98.394 88.4005 97.47V99.23C87.5425 99.846 86.1785 100.22 84.8365 100.22C81.8005 100.22 79.4245 98.152 79.4245 94.72C79.4245 91.794 81.2725 89.33 84.3745 89.33ZM87.5645 94.038C87.5865 92.036 86.3325 90.628 84.4405 90.628C82.5265 90.628 81.1845 92.036 81.0525 94.038H87.5645ZM96.155 103.85L97.915 99.714L93.779 89.55H95.473L98.707 97.866H98.795L101.985 89.55H103.635L97.739 103.85H96.155ZM109.406 89.33C112.442 89.33 114.466 91.596 114.466 94.764C114.466 97.91 112.442 100.22 109.406 100.22C106.392 100.22 104.368 97.91 104.368 94.764C104.368 91.574 106.392 89.33 109.406 89.33ZM109.406 90.672C107.316 90.672 105.908 92.3 105.908 94.742C105.908 97.184 107.316 98.878 109.406 98.878C111.518 98.878 112.926 97.184 112.926 94.742C112.926 92.3 111.518 90.672 109.406 90.672ZM120.561 100.22C118.383 100.22 116.865 98.768 116.865 96.59V92.52C116.865 91.42 116.777 90.54 116.689 89.55H118.383V96.238C118.383 97.976 119.307 98.9 120.891 98.9C122.805 98.9 124.081 97.404 124.081 95.27V89.55H125.599V97.03C125.599 98.064 125.665 99.076 125.797 100H124.169V98.174H123.949C123.311 99.428 122.167 100.22 120.561 100.22ZM128.898 100V92.52C128.898 91.574 128.832 90.562 128.7 89.55H130.35V91.728H130.57C131.054 90.166 132.22 89.396 133.496 89.396C134.002 89.396 134.552 89.506 134.904 89.748V91.332C134.42 90.936 133.98 90.76 133.408 90.76C131.538 90.76 130.416 92.41 130.416 94.94V97.03C130.416 98.086 130.46 98.834 130.614 100H128.898ZM142.383 97.932V100.198C142.383 101.254 142.449 102.42 142.581 103.3H140.865V92.52C140.865 91.618 140.799 90.518 140.689 89.55H142.383V91.618H142.603C143.373 90.144 144.737 89.33 146.343 89.33C148.851 89.33 150.941 91.266 150.941 94.786C150.941 98.284 148.851 100.22 146.365 100.22C144.715 100.22 143.351 99.406 142.603 97.932H142.383ZM146.013 90.65C143.879 90.65 142.317 92.366 142.317 94.786C142.317 97.162 143.857 98.9 146.035 98.9C148.081 98.9 149.379 97.294 149.379 94.764C149.379 92.234 148.081 90.65 146.013 90.65ZM157.041 100.22C154.863 100.22 153.345 98.768 153.345 96.59V92.52C153.345 91.42 153.257 90.54 153.169 89.55H154.863V96.238C154.863 97.976 155.787 98.9 157.371 98.9C159.285 98.9 160.561 97.404 160.561 95.27V89.55H162.079V97.03C162.079 98.064 162.145 99.076 162.277 100H160.649V98.174H160.429C159.791 99.428 158.647 100.22 157.041 100.22ZM165.379 100V92.52C165.379 91.574 165.313 90.562 165.181 89.55H166.831V91.728H167.051C167.535 90.166 168.701 89.396 169.977 89.396C170.483 89.396 171.033 89.506 171.385 89.748V91.332C170.901 90.936 170.461 90.76 169.889 90.76C168.019 90.76 166.897 92.41 166.897 94.94V97.03C166.897 98.086 166.941 98.834 167.095 100H165.379ZM180.798 99.23C179.83 99.912 178.686 100.22 177.542 100.22C174.484 100.22 172.108 98.064 172.108 94.764C172.108 91.596 174.242 89.33 177.432 89.33C178.708 89.33 179.764 89.66 180.666 90.32V92.08C179.874 91.178 178.686 90.672 177.432 90.672C175.1 90.672 173.67 92.454 173.67 94.786C173.67 97.096 175.166 98.878 177.564 98.878C178.818 98.878 180.006 98.372 180.798 97.47V99.23ZM183.013 85.48H184.707V91.354H184.927C185.565 90.056 186.775 89.33 188.293 89.33C190.493 89.33 192.055 90.914 192.055 93.114V97.03C192.055 98.152 192.121 99.098 192.231 100H190.537V93.51C190.537 91.772 189.459 90.65 187.875 90.65C186.027 90.65 184.707 92.146 184.707 94.258V100H183.189V89.55C183.189 88.274 183.123 86.646 183.013 85.48ZM200.855 98.438C200.063 99.626 198.963 100.22 197.599 100.22C195.707 100.22 194.365 99.076 194.365 97.404C194.365 95.732 195.685 94.786 198.105 94.324C200.129 93.95 200.987 93.488 200.987 92.41C200.987 91.332 200.129 90.606 198.677 90.606C197.357 90.606 196.103 91.2 195.047 92.212V90.496C196.059 89.77 197.401 89.33 198.743 89.33C201.009 89.33 202.527 90.584 202.527 92.52V97.03C202.527 97.998 202.659 99.12 202.923 100H201.273L201.075 98.438H200.855ZM200.987 94.324C200.481 94.852 199.799 95.16 198.347 95.49C196.609 95.886 195.927 96.436 195.927 97.382C195.927 98.372 196.675 98.988 197.885 98.988C199.667 98.988 200.987 97.646 200.987 95.622V94.324ZM210.986 97.118C210.986 96.128 210.304 95.534 208.742 95.402C206.674 95.204 205.354 94.126 205.354 92.388C205.354 90.474 206.894 89.33 208.962 89.33C209.952 89.33 210.942 89.616 211.756 90.188V91.904C211.008 91.024 209.974 90.562 208.918 90.562C207.708 90.562 206.784 91.222 206.784 92.322C206.784 93.356 207.554 93.972 209.072 94.104C211.184 94.258 212.482 95.336 212.482 97.074C212.482 98.922 210.964 100.22 208.72 100.22C207.51 100.22 206.278 99.846 205.332 99.164V97.426C206.146 98.372 207.4 98.966 208.698 98.966C210.062 98.966 210.986 98.306 210.986 97.118ZM219.039 89.33C221.855 89.33 223.659 91.31 223.659 94.104C223.659 94.412 223.637 94.72 223.593 95.182H215.651C215.761 97.404 217.345 98.944 219.611 98.944C220.975 98.944 222.229 98.394 223.065 97.47V99.23C222.207 99.846 220.843 100.22 219.501 100.22C216.465 100.22 214.089 98.152 214.089 94.72C214.089 91.794 215.937 89.33 219.039 89.33ZM222.229 94.038C222.251 92.036 220.997 90.628 219.105 90.628C217.191 90.628 215.849 92.036 215.717 94.038H222.229ZM231.779 91.618H231.999C232.747 90.144 234.111 89.33 235.739 89.33C238.467 89.33 240.337 91.53 240.337 94.786C240.337 98.02 238.467 100.22 235.761 100.22C234.111 100.22 232.747 99.406 231.999 97.932H231.779L231.625 100H230.261V89.55C230.261 88.45 230.195 86.998 230.085 85.48H231.779V91.618ZM235.409 98.9C237.477 98.9 238.775 97.294 238.775 94.764C238.775 92.234 237.477 90.65 235.409 90.65C233.275 90.65 231.713 92.366 231.713 94.786C231.713 97.162 233.253 98.9 235.409 98.9ZM247.183 89.33C249.999 89.33 251.803 91.31 251.803 94.104C251.803 94.412 251.781 94.72 251.737 95.182H243.795C243.905 97.404 245.489 98.944 247.755 98.944C249.119 98.944 250.373 98.394 251.209 97.47V99.23C250.351 99.846 248.987 100.22 247.645 100.22C244.609 100.22 242.233 98.152 242.233 94.72C242.233 91.794 244.081 89.33 247.183 89.33ZM250.373 94.038C250.395 92.036 249.141 90.628 247.249 90.628C245.335 90.628 243.993 92.036 243.861 94.038H250.373ZM253.271 89.55H255.141V88.274C255.141 86.558 256.373 85.37 258.177 85.37C258.771 85.37 259.299 85.502 259.761 85.7V87.174C259.321 86.8 258.815 86.624 258.331 86.624C257.363 86.624 256.659 87.262 256.659 88.516V89.55H259.585V90.804H256.659V97.03C256.659 97.998 256.725 99.054 256.857 100H255.141V90.804H253.271V89.55ZM265.146 89.33C268.182 89.33 270.206 91.596 270.206 94.764C270.206 97.91 268.182 100.22 265.146 100.22C262.132 100.22 260.108 97.91 260.108 94.764C260.108 91.574 262.132 89.33 265.146 89.33ZM265.146 90.672C263.056 90.672 261.648 92.3 261.648 94.742C261.648 97.184 263.056 98.878 265.146 98.878C267.258 98.878 268.666 97.184 268.666 94.742C268.666 92.3 267.258 90.672 265.146 90.672ZM272.8 100V92.52C272.8 91.574 272.734 90.562 272.602 89.55H274.252V91.728H274.472C274.956 90.166 276.122 89.396 277.398 89.396C277.904 89.396 278.454 89.506 278.806 89.748V91.332C278.322 90.936 277.882 90.76 277.31 90.76C275.44 90.76 274.318 92.41 274.318 94.94V97.03C274.318 98.086 274.362 98.834 274.516 100H272.8ZM284.48 89.33C287.296 89.33 289.1 91.31 289.1 94.104C289.1 94.412 289.078 94.72 289.034 95.182H281.092C281.202 97.404 282.786 98.944 285.052 98.944C286.416 98.944 287.67 98.394 288.506 97.47V99.23C287.648 99.846 286.284 100.22 284.942 100.22C281.906 100.22 279.53 98.152 279.53 94.72C279.53 91.794 281.378 89.33 284.48 89.33ZM287.67 94.038C287.692 92.036 286.438 90.628 284.546 90.628C282.632 90.628 281.29 92.036 281.158 94.038H287.67ZM298.673 85.48H300.015V97.03C300.015 97.998 300.081 99.054 300.191 100H298.453V87.284L295.087 89.418H294.933V87.812L298.673 85.48ZM303.474 88.626V86.712C304.53 85.788 305.938 85.26 307.456 85.26C310.206 85.26 311.966 87.042 311.966 89.616C311.966 92.3 310.316 94.368 306.796 97.272L305.432 98.46V98.548H311.988V100H303.21V98.592L305.168 96.898C308.886 93.818 310.316 91.772 310.316 89.704C310.316 87.878 309.106 86.646 307.302 86.646C305.916 86.646 304.596 87.35 303.474 88.626ZM318.521 85.04H319.907L314.297 100.44H312.911L318.521 85.04ZM327.449 96.194C327.449 94.456 326.107 93.334 324.347 93.334H323.511V91.992H324.325C325.975 91.992 327.251 90.848 327.251 89.176C327.251 87.57 326.063 86.58 324.479 86.58C323.093 86.58 321.883 87.328 320.981 88.516V86.646C322.015 85.7 323.291 85.26 324.589 85.26C326.987 85.26 328.769 86.734 328.769 89.066C328.769 90.87 327.669 92.234 325.997 92.608V92.652C327.801 93.026 329.011 94.412 329.011 96.326C329.011 98.812 327.053 100.22 324.677 100.22C323.357 100.22 321.993 99.78 320.893 98.834V96.986C321.861 98.196 323.137 98.878 324.523 98.878C326.239 98.878 327.449 97.822 327.449 96.194ZM335.58 85.04H336.966L331.356 100.44H329.97L335.58 85.04ZM337.849 88.626V86.712C338.905 85.788 340.313 85.26 341.831 85.26C344.581 85.26 346.341 87.042 346.341 89.616C346.341 92.3 344.691 94.368 341.171 97.272L339.807 98.46V98.548H346.363V100H337.585V98.592L339.543 96.898C343.261 93.818 344.691 91.772 344.691 89.704C344.691 87.878 343.481 86.646 341.677 86.646C340.291 86.646 338.971 87.35 337.849 88.626ZM355.393 100H353.875V96.084H347.517V94.06L353.919 85.48H355.393V94.698H357.703V96.084H355.393V100ZM353.875 87.79L348.705 94.698H353.875V87.79Z"
       fill="#F9FAF9"
       id="path3" />
    <path
       fill-rule="evenodd"
       clip-rule="evenodd"
       d="M571.95 252C565.632 251.986 564.504 247.365 564.504 242.94L564.518 91.3655V90.3078L564.519 90.2747C564.546 87.2896 564.562 85.6509 561.178 83.3491C560.375 82.8014 559.487 82.2857 558.541 81.7367C558.405 81.6579 558.268 81.5784 558.13 81.4981C553.628 79.198 549.696 75.922 546.621 71.909C541.179 64.8111 544.784 56.0014 552.188 56.0014H639.714C642.299 55.9818 644.881 56.1633 647.438 56.5442C669.915 60.0096 688.522 69.5848 701.243 84.2816C711.405 95.8671 717.486 110.465 718.556 125.839V126.089C718.375 134.44 717.791 156.485 690.916 177.584C688.398 179.552 686.728 182.407 686.247 185.566C685.766 188.725 686.51 191.949 688.327 194.577L720.463 240.657C721.216 241.747 721.655 243.023 721.731 244.346C721.808 245.668 721.519 246.986 720.897 248.156C720.275 249.325 719.343 250.301 718.204 250.977C717.064 251.652 715.761 252.001 714.436 251.986H679.643C672.072 251.986 668.05 249.439 664.737 244.568L630.737 194.466C628.399 191.028 625.824 189.038 621.649 189.038C614.774 189.038 614.774 194.312 614.774 201.062V242.954C614.774 247.644 613.285 252 606.744 252H571.95ZM639.867 151.308C662.726 151.308 681.274 139.318 681.285 124.531C681.285 124.535 681.285 124.54 681.285 124.545V124.517C681.285 124.521 681.285 124.526 681.285 124.531C681.274 109.729 662.726 97.7118 639.867 97.7118C617.001 97.7118 598.463 109.723 598.463 124.517C598.463 139.311 617.001 151.308 639.867 151.308ZM662.037 124.544C662.037 134.899 652.114 143.249 639.866 143.249C627.633 143.249 617.71 134.899 617.71 124.544C617.71 114.19 627.619 105.839 639.866 105.839C652.114 105.839 662.037 114.19 662.037 124.544Z"
       fill="#222222"
       id="path5" />
    <path
       d="M369.611 206.184C369.647 204.174 369.294 202.199 368.779 200.257C368.676 199.866 368.491 199.494 368.323 199.124C368.205 198.866 368.01 198.696 367.701 198.654L367.695 198.653C367.706 198.601 367.715 198.548 367.725 198.496C368.042 196.795 368.235 195.082 368.282 193.348C368.334 191.401 368.086 189.504 367.4 187.685C366.488 185.267 364.952 183.411 362.396 182.562C361.97 182.42 361.528 182.329 361.09 182.225C358.124 181.524 355.432 182.027 353.058 183.994C351.021 185.681 349.628 187.789 348.732 190.255C348.085 192.035 347.731 193.886 347.316 195.722C347.315 195.73 347.314 195.736 347.312 195.744C346.822 195.728 346.457 195.943 346.208 196.46C345.769 197.371 345.269 198.252 344.849 199.17C344.029 200.961 343.363 202.808 343.116 204.774C342.857 206.838 343.085 208.879 343.473 210.913C344.261 215.045 346.813 217.707 350.6 219.309C352.357 220.052 354.208 220.451 356.132 220.525C358.027 220.597 359.828 220.257 361.554 219.503C363.319 218.732 364.673 217.447 365.903 216.018C368.338 213.187 369.547 209.886 369.612 206.184L369.611 206.184ZM349.343 190.536C350.213 188.053 351.623 185.95 353.717 184.324C355.13 183.227 356.741 182.631 358.541 182.589C359.808 182.56 361.036 182.816 362.223 183.233C363.017 183.512 363.766 183.908 364.4 184.471C365.576 185.516 366.401 186.789 366.913 188.277C367.621 190.34 367.74 192.461 367.567 194.605C367.461 195.925 367.297 197.261 367.077 198.568C366.481 198.484 365.885 198.396 365.289 198.308C365.496 196.944 365.688 195.569 365.753 194.189C365.836 192.414 365.602 190.657 365.056 188.96C364.565 187.436 363.706 186.147 362.243 185.372C360.373 184.381 357.962 184.124 356.014 185.029C353.653 186.127 352.132 187.966 351.225 190.361C350.7 191.748 350.278 193.157 349.988 194.611C349.913 195.09 349.837 195.57 349.764 196.049C349.761 196.069 349.757 196.088 349.754 196.109C349.515 196.072 349.278 196.036 349.039 195.999L349.039 196.005C348.693 195.952 348.345 195.909 348 195.851C348.055 195.579 348.102 195.317 348.161 195.042C348.489 193.523 348.827 192.009 349.343 190.537L349.343 190.536ZM350.413 196.211C350.542 195.527 350.656 194.839 350.8 194.158C351.217 192.193 351.806 190.29 352.857 188.551C353.775 187.032 355.149 186.054 356.768 185.442C358.662 184.724 360.493 185.2 362.182 186.114C363.483 186.819 364.159 188.077 364.546 189.465C365.139 191.586 365.276 193.746 364.999 195.929C364.902 196.694 364.773 197.454 364.651 198.215C363.665 198.074 363.687 198.182 363.341 198.934C362.998 199.683 362.434 200.138 361.568 200.151C361.236 200.156 360.902 200.188 360.571 200.17C358.096 200.037 355.677 199.596 353.302 198.894C352.551 198.672 352.03 198.233 351.83 197.459C351.786 197.29 351.703 197.13 351.668 196.96C351.586 196.564 351.336 196.356 350.95 196.295C350.771 196.266 350.592 196.238 350.412 196.211L350.413 196.211ZM365.354 215.527C364.561 216.437 363.744 217.33 362.721 218.005C360.515 219.46 358.093 220.015 355.463 219.784C353.908 219.647 352.384 219.346 350.969 218.719C348.918 217.812 346.981 216.708 345.752 214.722C345.113 213.688 344.614 212.595 344.315 211.417C343.825 209.483 343.622 207.515 343.718 205.526C343.777 204.317 344.081 203.149 344.458 201.999C345.041 200.22 345.804 198.52 346.717 196.886C347.019 196.345 347.037 196.343 347.648 196.435C348.615 196.581 349.58 196.749 350.549 196.886C351.157 196.972 351.177 197.65 351.396 198.088C351.687 198.673 352.236 199.216 352.871 199.418C353.607 199.652 354.335 199.899 355.097 200.041C356.634 200.331 358.184 200.565 359.736 200.767C360.371 200.85 361.025 200.805 361.669 200.792C362.74 200.77 363.46 200.207 363.929 199.286C363.994 199.16 364.052 198.968 364.186 198.898C364.199 198.89 364.213 198.885 364.229 198.88C364.327 198.852 364.431 198.867 364.532 198.883C365.366 199.017 366.193 199.121 367.033 199.209C367.502 199.259 367.796 199.476 367.916 199.923C368.083 200.541 368.279 201.154 368.398 201.782C368.764 203.694 369.033 205.619 368.804 207.57C368.454 210.561 367.349 213.24 365.355 215.527L365.354 215.527Z"
       fill="#F9FAF9"
       id="path6" />
    <path
       d="M355.207 213.622C354.821 213.56 354.435 213.492 354.053 213.405C353.595 213.301 353.47 213.081 353.614 212.634C353.934 211.635 354.262 210.639 354.608 209.649C354.719 209.334 354.738 209.095 354.517 208.794C354.27 208.456 354.103 208.047 353.96 207.648C353.472 206.279 354.467 205.004 355.739 204.772C357.275 204.491 358.651 205.597 358.584 207.136C358.55 207.95 358.235 208.658 357.492 209.086C357.145 209.286 357.004 209.534 357.005 209.928C357.006 210.917 356.975 211.907 356.957 212.897C356.953 213.156 356.957 213.609 356.687 213.758C356.568 213.823 356.421 213.805 356.286 213.784C355.927 213.73 355.566 213.678 355.207 213.621L355.207 213.622ZM356.283 213.124C356.31 212.956 356.293 212.825 356.296 212.713C356.318 211.723 356.353 210.734 356.346 209.745C356.341 209.2 356.533 208.855 357.035 208.586C358.103 208.014 358.24 206.661 357.366 205.825C356.855 205.337 356.268 205.318 355.62 205.468C354.937 205.625 354.255 206.469 354.519 207.315C354.67 207.801 354.835 208.28 355.207 208.647C355.449 208.887 355.466 209.133 355.353 209.442C355.125 210.061 354.92 210.689 354.718 211.317C354.566 211.793 354.435 212.275 354.28 212.804C354.958 212.908 355.614 213.02 356.284 213.123L356.283 213.124Z"
       fill="#F9FAF9"
       id="path7" />
    <path
       d="M345.801 200.331C345.995 200.347 345.814 200.923 345.787 200.999C345.359 202.191 345.062 203.414 344.872 204.664C344.506 207.073 344.724 209.421 345.625 211.697C345.782 212.095 345.935 212.494 346.083 212.894C346.136 213.038 346.214 213.232 346.011 213.286C345.794 213.344 345.592 212.801 345.528 212.658C345.41 212.392 345.321 212.115 345.219 211.843C345.032 211.34 344.853 210.832 344.707 210.314C344.108 208.199 344.142 206.053 344.578 203.915C344.811 202.77 345.088 201.633 345.546 200.557C345.577 200.485 345.612 200.407 345.682 200.368C345.732 200.339 345.771 200.328 345.801 200.33L345.801 200.331Z"
       fill="#F9FAF9"
       id="path8" />
    <path
       d="M347.318 215.616C347.286 215.619 347.252 215.613 347.223 215.6C346.916 215.461 346.727 215.071 346.551 214.799C346.435 214.619 346.252 214.389 346.282 214.159C346.294 214.071 346.368 213.985 346.457 213.993C346.572 214.003 346.63 214.128 346.685 214.212C346.766 214.334 346.846 214.456 346.924 214.579C347.078 214.819 347.228 215.062 347.374 215.307C347.424 215.391 347.471 215.502 347.406 215.574C347.384 215.6 347.352 215.613 347.317 215.616L347.318 215.616Z"
       fill="#F9FAF9"
       id="path9" />
    <path
       d="M542.571 108.467C539.381 109.055 536.185 109.609 532.985 110.143C529.868 111.009 526.694 111.676 523.53 112.347C521.327 112.814 519.143 113.368 516.943 113.843C515.814 114.086 514.684 114.321 513.553 114.547C512.341 114.79 510.928 114.872 509.797 115.374C509.684 115.424 509.586 115.439 509.499 115.432C509.356 115.625 509.106 115.721 508.853 115.542C508.295 115.148 507.835 114.667 507.367 114.186C505.632 114.459 503.898 114.732 502.165 115.013C498.318 115.635 494.515 116.478 490.675 117.117C490.036 117.223 489.379 116.362 489.998 115.878C492.082 114.253 494.158 112.617 496.26 111.015C498.279 109.478 500.266 107.698 502.515 106.514C502.598 106.471 502.678 106.46 502.749 106.47C502.772 106.468 502.794 106.463 502.818 106.462C505.082 106.435 507.347 106.398 509.611 106.358C509.28 105.39 508.88 104.453 508.612 103.445C508.291 102.236 507.957 101.045 507.803 99.8015C507.785 99.656 507.854 99.521 507.957 99.4326L507.87 99.3207C507.894 99.3019 507.919 99.2846 507.944 99.2666C508.189 99.0773 508.359 98.8624 508.467 98.6366C509.16 98.078 509.863 97.5331 510.594 97.0173C511.128 96.6414 511.663 96.2701 512.198 95.8972C512.271 95.8459 512.34 95.7949 512.408 95.7437C512.472 95.3216 512.826 94.9628 513.33 95.166C513.411 95.1982 513.491 95.2305 513.572 95.2635C513.588 95.2647 513.602 95.2651 513.618 95.2671C513.696 95.2764 513.757 95.3083 513.802 95.3556C523.392 99.2082 532.965 103.108 542.617 106.805C543.357 107.088 543.485 108.298 542.573 108.466L542.571 108.467ZM509.228 114.542C509.308 114.467 509.421 114.424 509.571 114.438C510.768 114.552 512.064 114.196 513.246 114.006C514.388 113.823 515.527 113.631 516.666 113.43C518.939 113.029 521.227 112.641 523.471 112.098C524.86 111.762 526.242 111.397 527.622 111.023C521.189 112.055 514.745 113.03 508.311 114.039C508.625 114.188 508.933 114.351 509.229 114.543L509.228 114.542ZM508.631 99.8437C509.051 100.878 509.35 101.943 509.653 103.02C509.967 104.129 510.11 105.243 510.353 106.348C517.67 106.215 524.985 106.035 532.303 105.917C528.543 104.919 524.778 103.939 521.009 102.974C516.896 101.919 512.735 100.964 508.631 99.8437ZM512.976 96.6656C512.93 96.6985 512.884 96.7328 512.838 96.7679C512.323 97.1665 511.807 97.566 511.289 97.9614C510.767 98.3599 510.234 98.7404 509.694 99.1097C513.571 100.027 517.425 101.081 521.284 102.038C525.574 103.102 529.867 104.148 534.168 105.169C527.12 102.296 520.042 99.4946 512.976 96.6656ZM537.604 106.577C537.547 106.87 537.313 107.14 536.959 107.147C525.569 107.37 514.175 107.389 502.785 107.609C502.694 107.611 502.616 107.595 502.547 107.565C500.921 109.262 498.905 110.659 497.086 112.129C495.783 113.181 494.469 114.217 493.153 115.251C495.59 114.894 498.035 114.581 500.462 114.152C503.818 113.56 507.163 112.914 510.518 112.318C517.228 111.127 523.94 109.936 530.655 108.763C533.523 108.262 536.391 107.742 539.265 107.264C538.711 107.034 538.158 106.805 537.604 106.577Z"
       fill="#222222"
       id="path10" />
    <path
       d="M475.374 105.069C466.237 102.65 456.917 100.819 447.443 100.556C437.991 100.294 428.513 101.195 419.278 103.237C409.991 105.291 400.872 108.401 392.395 112.736C389.033 114.456 385.623 116.526 383.013 119.311C385.471 120.151 387.828 121.244 389.877 122.726C393.484 125.334 395.984 129.52 395.226 134.089C394.52 138.343 390.658 140.879 386.475 140.357C382.228 139.826 378.862 136.835 377.905 132.665C376.913 128.348 378.388 123.681 381.048 120.241C381.182 120.067 381.32 119.897 381.459 119.728C380.291 119.369 379.119 119.062 377.973 118.788C373.648 117.753 369.197 117.276 364.75 117.319C347.132 117.487 329.464 125.991 319.682 140.888C310.18 155.36 308.437 174.451 315.06 190.421C315.852 192.331 316.742 194.221 317.668 196.07C317.857 196.448 317.334 196.716 317.101 196.38C311.899 188.912 309.803 179.344 309.817 170.344C309.832 161.292 312.074 152.223 316.381 144.251C325.335 127.687 343.194 117.681 361.748 116.563C366.428 116.281 371.139 116.574 375.743 117.458C377.824 117.856 379.979 118.347 382.081 119.007C385.557 115.163 390.315 112.674 394.962 110.514C399.512 108.399 404.207 106.592 408.998 105.101C418.531 102.136 428.487 100.51 438.457 100.127C448.369 99.7458 458.532 100.446 468.226 102.599C470.69 103.146 473.119 103.786 475.522 104.552C475.852 104.658 475.707 105.157 475.372 105.068L475.374 105.069ZM382.379 120.022C381.533 121.018 380.788 122.1 380.182 123.285C378.173 127.207 377.624 132.627 380.593 136.242C383.289 139.524 389.04 140.899 392.31 137.653C395.697 134.29 394.396 128.583 391.485 125.408C389.086 122.79 385.789 121.16 382.379 120.022Z"
       fill="#F9FAF9"
       id="path11" />
    <path
       d="M441.193 150.254C441.956 150.254 442.693 150.214 443.424 150.263C445.212 150.382 446.996 150.545 448.782 150.685C449.326 150.727 449.652 150.908 449.74 151.535C449.875 152.492 450.459 153.196 451.248 153.776C452.867 154.966 454.615 155.274 456.547 154.736C458.146 154.291 459.224 153.007 459.288 151.351C459.315 150.649 459.303 149.941 459.241 149.241C459.142 148.134 457.786 146.708 456.676 146.527C455.911 146.402 455.138 146.266 454.366 146.25C452.968 146.221 451.705 146.65 450.723 147.677C450.193 148.232 449.62 148.258 448.897 148.17C447.53 148.005 446.146 147.942 444.767 147.901C441.854 147.814 438.939 147.767 436.025 147.706C435.8 147.701 435.576 147.711 435.352 147.705C434.044 147.672 433.771 148.147 433.483 149.555C433.476 149.591 433.483 149.629 433.485 149.666C433.569 150.893 433.558 152.106 432.835 153.197C433.555 153.864 434.383 154.128 435.169 154.418C435.774 154.642 436.393 154.07 436.425 153.368C436.452 152.778 436.423 152.185 436.469 151.597C436.494 151.279 436.565 150.937 436.72 150.664C436.985 150.197 437.454 150.208 437.91 150.347C438.362 150.483 438.4 150.846 438.367 151.243C438.305 151.981 438.213 152.719 438.207 153.458C438.199 154.469 438.248 154.493 439.211 154.717C439.538 154.793 439.862 154.896 440.193 154.942C441.219 155.086 441.569 154.685 441.395 153.687C441.249 152.851 441.167 152.004 441.086 151.159C441.063 150.914 441.141 150.659 441.193 150.254L441.193 150.254ZM455.113 152.336C454.038 152.209 453.28 151.935 452.83 151.172C452.564 150.72 452.629 150.218 452.985 149.836C453.572 149.206 454.286 148.875 455.182 149.12C455.538 149.218 455.898 149.324 456.263 149.358C456.771 149.406 457.096 149.643 457.24 150.116C457.394 150.619 457.295 151.139 456.886 151.418C456.29 151.824 455.598 152.092 455.113 152.336Z"
       fill="#F9FAF9"
       id="path12" />
    <path
       d="M423.229 141C420.437 141.136 418.818 143.729 419.813 145.974C420.109 146.644 420.5 147.293 420.954 147.868C421.515 148.576 421.651 149.189 421.289 150.089C420.572 151.871 420.047 153.729 419.437 155.553C419.333 155.866 419.195 156.169 419.082 156.48C418.841 157.143 419.143 157.621 419.835 157.579C421.465 157.48 423.093 157.336 424.722 157.214C425.131 157.183 425.541 157.161 425.951 157.149C426.212 157.14 426.475 157.176 426.735 157.159C427.765 157.094 428.24 156.352 427.882 155.412C427.278 153.821 426.702 152.22 426.083 150.634C425.777 149.853 425.845 149.182 426.255 148.421C426.67 147.652 426.962 146.778 427.118 145.916C427.538 143.599 425.415 140.972 423.229 141Z"
       fill="#F9FAF9"
       id="path13" />
    <path
       d="M277.34 159.67C276.911 157.337 275.813 154.579 273.283 153.882C273.233 153.853 273.183 153.825 273.134 153.797C271.949 153.138 270.652 152.959 269.311 152.973C267.581 152.991 265.865 153.428 264.211 153.893C263.363 154.131 262.516 154.384 261.682 154.67C260.979 154.91 260.237 155.097 259.558 155.404C259.056 154.424 258.612 153.412 258.191 152.399C257.535 150.821 256.815 149.219 256.31 147.587C255.915 146.312 256.415 145.359 257.505 144.672C258.171 144.252 258.932 143.955 259.665 143.671C260.074 143.512 260.496 143.372 260.925 143.277C261.163 143.225 261.405 143.218 261.644 143.195C261.654 143.21 261.665 143.224 261.677 143.239C262.159 143.818 262.544 144.462 262.911 145.117C263.093 145.443 263.214 145.827 263.423 146.135C263.569 146.35 263.627 146.594 263.752 146.805C263.741 146.863 263.738 146.923 263.745 146.987C263.792 147.399 264.214 147.62 264.594 147.489C265.055 147.33 265.469 147.281 265.833 146.935C266.045 146.733 266.318 146.393 266.359 146.064C266.388 146.056 266.417 146.047 266.446 146.039C266.404 145.91 266.362 145.781 266.32 145.653C265.898 144.363 265.408 143.171 264.78 141.968C264.34 141.123 263.923 140.236 263.06 139.746C262.106 139.204 260.773 139.655 259.805 139.904C258.303 140.29 256.873 140.967 255.551 141.762C254.498 142.395 253.526 143.205 253.147 144.409C252.439 146.661 253.905 149.108 254.665 151.162C255.133 152.427 255.596 153.694 256.094 154.948C256.291 155.448 256.484 155.968 256.695 156.482C256.389 156.522 256.102 156.668 255.813 156.791C255.742 156.821 255.672 156.85 255.602 156.88C254.994 156.954 254.528 157.296 254.249 157.775C252.8 158.276 252.567 160.2 252.526 161.496C252.462 163.499 252.781 165.505 253.179 167.463C253.919 171.107 255.03 175.176 258.242 177.446C259.88 178.603 261.879 179.073 263.864 179.149C266.277 179.241 268.777 178.906 271.053 178.096C273.065 177.382 274.897 176.122 276.065 174.328C277.392 172.291 277.611 169.999 277.667 167.638C277.73 164.981 277.823 162.295 277.34 159.668L277.34 159.67ZM255.131 149.164C254.723 148.104 254.282 147.036 254.175 145.895C254.067 144.752 254.635 143.861 255.534 143.191C256.762 142.274 258.26 141.629 259.714 141.164C260.347 140.961 261.018 140.804 261.678 140.715C262.069 140.663 262.426 140.705 262.735 140.956C263.034 141.2 263.232 141.598 263.412 141.93C263.717 142.492 264.028 143.057 264.302 143.635C264.675 144.421 264.941 145.252 265.208 146.081C265.195 146.092 265.181 146.101 265.166 146.111C264.937 146.205 264.694 146.329 264.459 146.31C264.458 146.31 264.458 146.31 264.456 146.31C264.39 145.758 264.071 145.145 263.88 144.733C263.528 143.976 263.067 143.249 262.533 142.606C262.363 142.401 262.128 142.373 261.931 142.446C261.297 142.188 260.444 142.451 259.83 142.616C258.946 142.854 258.043 143.219 257.236 143.65C255.955 144.335 255.089 145.38 255.126 146.869C255.147 147.69 255.504 148.474 255.792 149.229C256.16 150.19 256.531 151.15 256.913 152.105C257.642 153.926 258.384 155.758 259.313 157.49C259.315 157.495 259.319 157.499 259.321 157.505C259.009 157.656 258.695 157.774 258.338 157.858C258.134 157.25 257.863 156.66 257.628 156.066C257.307 155.254 257.01 154.431 256.718 153.608C256.193 152.126 255.695 150.633 255.13 149.165L255.131 149.164ZM255.52 157.917C255.699 157.881 255.874 157.818 256.054 157.754C256.383 157.636 256.786 157.556 257.083 157.359C257.29 157.788 257.521 158.202 257.792 158.582C257.958 158.815 258.216 158.766 258.36 158.601C259.082 158.673 259.846 158.319 260.424 157.927C260.683 157.752 260.655 157.482 260.5 157.307C260.511 157.18 260.48 157.038 260.39 156.891C260.249 156.661 260.114 156.429 259.982 156.194C260.516 156.125 261.041 155.967 261.562 155.837C262.352 155.64 263.133 155.415 263.917 155.196C265.438 154.773 266.981 154.41 268.558 154.278C269.783 154.176 270.997 154.266 272.121 154.775C272.653 155.017 273.978 155.688 273.95 156.404C273.933 156.812 273.4 157.055 273.083 157.197C272.385 157.511 271.638 157.724 270.894 157.9C269.388 158.257 267.848 158.45 266.326 158.718C263.889 159.146 261.621 160.181 259.199 160.665C258.142 160.876 256.586 161.164 255.761 160.265C255.101 159.545 254.827 158.564 255.52 157.917ZM276.34 165.607C276.334 166.843 276.349 168.093 276.266 169.326C276.122 171.478 275.364 173.587 273.736 175.074C272.075 176.59 269.841 177.306 267.657 177.67C265.509 178.029 263.164 178.154 261.058 177.509C259.205 176.942 257.757 175.732 256.71 174.133C255.665 172.536 255.094 170.662 254.625 168.831C254.149 166.968 253.797 165.059 253.646 163.142C253.57 162.174 253.558 161.194 253.724 160.234C253.772 159.956 253.847 159.646 253.976 159.368C254.072 160.107 254.431 160.8 254.963 161.331C256.576 162.941 259.629 161.948 261.487 161.415C262.673 161.075 263.838 160.666 265.026 160.333C266.321 159.969 267.686 159.832 269.011 159.611C270.506 159.361 272.017 159.064 273.427 158.495C274.084 158.231 274.748 157.809 275.076 157.21C275.754 158.495 276.018 160.069 276.171 161.453C276.324 162.83 276.346 164.221 276.34 165.606L276.34 165.607Z"
       fill="#F9FAF9"
       id="path14" />
    <path
       d="M269.278 154.897C268.784 154.864 268.087 154.825 267.628 155.094C267.352 155.167 267.1 155.315 266.91 155.549C266.684 155.827 266.631 156.226 266.78 156.513C266.825 156.805 267.055 157.008 267.358 157.091C268.213 157.324 269.228 157.082 269.642 156.347L269.642 156.346C269.651 156.331 269.659 156.316 269.666 156.3C269.762 156.113 269.821 155.897 269.829 155.649C269.841 155.317 269.67 154.924 269.278 154.897Z"
       fill="#F9FAF9"
       id="path15" />
    <path
       d="M269.86 171.217C269.734 171.106 269.617 170.987 269.506 170.865C269.459 170.749 269.404 170.633 269.35 170.513C269.177 170.123 268.983 169.74 268.796 169.356C268.426 168.6 268.039 167.859 267.807 167.055C268.355 166.701 268.782 166.18 268.934 165.621C269.287 164.322 268.016 163.037 266.677 162.849C266.493 162.824 266.282 162.825 266.068 162.854C265.542 162.816 264.972 163.139 264.629 163.473C264.249 163.843 264.078 164.344 264.055 164.839C264.008 165.857 264.522 166.992 265.607 167.39C265.868 167.485 266.138 167.523 266.409 167.514C266.407 167.662 266.407 167.809 266.402 167.954C266.386 168.451 266.373 168.947 266.363 169.444C266.345 170.38 266.353 171.317 266.398 172.25C266.413 172.55 266.755 172.658 267.027 172.589C267.917 172.363 268.837 172.263 269.722 172.016C270.127 171.903 270.103 171.435 269.859 171.218L269.86 171.217ZM267.861 165.096C267.868 165.058 267.873 165.019 267.877 164.98C267.887 165.03 267.894 165.081 267.897 165.131C267.885 165.127 267.872 165.124 267.86 165.121C267.861 165.113 267.861 165.105 267.862 165.096L267.861 165.096ZM267.385 166.123C267.389 166.119 267.392 166.115 267.396 166.112C267.407 166.119 267.418 166.126 267.429 166.132C267.375 166.179 267.317 166.223 267.257 166.264C267.302 166.219 267.344 166.172 267.385 166.123L267.385 166.123Z"
       fill="#F9FAF9"
       id="path16" />
    <path
       d="M256.921 163.615C256.487 163.613 256.107 163.59 255.805 163.238C255.505 162.887 254.928 163.302 255.222 163.669C255.481 163.993 255.822 164.226 256.23 164.325C256.525 164.396 257.256 164.507 257.395 164.119C257.52 163.773 257.25 163.617 256.921 163.615Z"
       fill="#F9FAF9"
       id="path17" />
    <path
       d="M256.882 165.507C256.511 165.408 256.105 165.466 255.723 165.429C255.259 165.383 255.142 166.074 255.609 166.14C256.018 166.199 256.454 166.235 256.866 166.209C257.298 166.181 257.246 165.604 256.882 165.507L256.882 165.507Z"
       fill="#F9FAF9"
       id="path18" />
    <path
       d="M257.28 168.374C257.086 168.21 256.82 168.159 256.613 168.006C256.256 167.742 255.833 168.264 256.182 168.542C256.316 168.65 256.463 168.741 256.617 168.82C256.78 168.903 256.929 168.946 257.112 168.947C257.416 168.947 257.473 168.538 257.279 168.373L257.28 168.374Z"
       fill="#F9FAF9"
       id="path19" />
    <rect
       x="39.5"
       y="151.5"
       width="136"
       height="44"
       rx="22"
       stroke="#f9faf9"
       id="rect3-3" />
    <path
       d="m 70.633,179.692 c -0.896,0 -1.7547,-0.117 -2.576,-0.352 -0.8213,-0.245 -1.4827,-0.56 -1.984,-0.944 l 0.88,-1.952 c 0.48,0.341 1.0453,0.624 1.696,0.848 0.6613,0.213 1.328,0.32 2,0.32 0.512,0 0.9227,-0.048 1.232,-0.144 0.32,-0.107 0.5547,-0.251 0.704,-0.432 0.1493,-0.181 0.224,-0.389 0.224,-0.624 0,-0.299 -0.1173,-0.533 -0.352,-0.704 -0.2347,-0.181 -0.544,-0.325 -0.928,-0.432 -0.384,-0.117 -0.8107,-0.224 -1.28,-0.32 -0.4587,-0.107 -0.9227,-0.235 -1.392,-0.384 -0.4587,-0.149 -0.88,-0.341 -1.264,-0.576 -0.384,-0.235 -0.6987,-0.544 -0.944,-0.928 -0.2347,-0.384 -0.352,-0.875 -0.352,-1.472 0,-0.64 0.1707,-1.221 0.512,-1.744 0.352,-0.533 0.8747,-0.955 1.568,-1.264 0.704,-0.32 1.584,-0.48 2.64,-0.48 0.704,0 1.3973,0.085 2.08,0.256 0.6827,0.16 1.2853,0.405 1.808,0.736 l -0.8,1.968 c -0.5227,-0.299 -1.0453,-0.517 -1.568,-0.656 -0.5227,-0.149 -1.0347,-0.224 -1.536,-0.224 -0.5013,0 -0.912,0.059 -1.232,0.176 -0.32,0.117 -0.5493,0.272 -0.688,0.464 -0.1387,0.181 -0.208,0.395 -0.208,0.64 0,0.288 0.1173,0.523 0.352,0.704 0.2347,0.171 0.544,0.309 0.928,0.416 0.384,0.107 0.8053,0.213 1.264,0.32 0.4693,0.107 0.9333,0.229 1.392,0.368 0.4693,0.139 0.896,0.325 1.28,0.56 0.384,0.235 0.6933,0.544 0.928,0.928 0.2453,0.384 0.368,0.869 0.368,1.456 0,0.629 -0.176,1.205 -0.528,1.728 -0.352,0.523 -0.88,0.944 -1.584,1.264 -0.6933,0.32 -1.5733,0.48 -2.64,0.48 z m 11.5791,-8.928 c 0.6827,0 1.2907,0.139 1.824,0.416 0.544,0.267 0.9707,0.683 1.28,1.248 0.3094,0.555 0.464,1.269 0.464,2.144 v 4.928 h -2.496 v -4.544 c 0,-0.693 -0.1546,-1.205 -0.464,-1.536 -0.2986,-0.331 -0.7253,-0.496 -1.28,-0.496 -0.3946,0 -0.752,0.085 -1.072,0.256 -0.3093,0.16 -0.5546,0.411 -0.736,0.752 -0.1706,0.341 -0.256,0.779 -0.256,1.312 v 4.256 h -2.496 v -11.872 h 2.496 v 5.648 l -0.56,-0.72 c 0.3094,-0.576 0.752,-1.019 1.328,-1.328 0.576,-0.309 1.232,-0.464 1.968,-0.464 z m 9.989,8.864 c -0.9173,0 -1.7333,-0.192 -2.448,-0.576 -0.704,-0.384 -1.264,-0.907 -1.68,-1.568 -0.4053,-0.672 -0.608,-1.435 -0.608,-2.288 0,-0.864 0.2027,-1.627 0.608,-2.288 0.416,-0.672 0.976,-1.195 1.68,-1.568 0.7147,-0.384 1.5307,-0.576 2.448,-0.576 0.9067,0 1.7174,0.192 2.432,0.576 0.7147,0.373 1.2747,0.891 1.68,1.552 0.4054,0.661 0.608,1.429 0.608,2.304 0,0.853 -0.2026,1.616 -0.608,2.288 -0.4053,0.661 -0.9653,1.184 -1.68,1.568 -0.7146,0.384 -1.5253,0.576 -2.432,0.576 z m 0,-2.048 c 0.416,0 0.7894,-0.096 1.12,-0.288 0.3307,-0.192 0.592,-0.464 0.784,-0.816 0.192,-0.363 0.288,-0.789 0.288,-1.28 0,-0.501 -0.096,-0.928 -0.288,-1.28 -0.192,-0.352 -0.4533,-0.624 -0.784,-0.816 -0.3306,-0.192 -0.704,-0.288 -1.12,-0.288 -0.416,0 -0.7893,0.096 -1.12,0.288 -0.3306,0.192 -0.5973,0.464 -0.8,0.816 -0.192,0.352 -0.288,0.779 -0.288,1.28 0,0.491 0.096,0.917 0.288,1.28 0.2027,0.352 0.4694,0.624 0.8,0.816 0.3307,0.192 0.704,0.288 1.12,0.288 z m 11.4769,2.048 c -0.726,0 -1.36,-0.16 -1.904,-0.48 -0.544,-0.32 -0.971,-0.805 -1.28,-1.456 -0.299,-0.661 -0.448,-1.493 -0.448,-2.496 0,-1.013 0.144,-1.845 0.432,-2.496 0.288,-0.651 0.704,-1.136 1.248,-1.456 0.544,-0.32 1.194,-0.48 1.952,-0.48 0.81,0 1.536,0.187 2.176,0.56 0.65,0.363 1.162,0.875 1.536,1.536 0.384,0.661 0.576,1.44 0.576,2.336 0,0.907 -0.192,1.691 -0.576,2.352 -0.374,0.661 -0.886,1.173 -1.536,1.536 -0.64,0.363 -1.366,0.544 -2.176,0.544 z m -5.0885,2.976 v -11.712 h 2.3845 v 1.76 l -0.048,2.56 0.16,2.544 v 4.848 z m 4.6565,-5.024 c 0.416,0 0.784,-0.096 1.104,-0.288 0.33,-0.192 0.592,-0.464 0.784,-0.816 0.202,-0.363 0.304,-0.789 0.304,-1.28 0,-0.501 -0.102,-0.928 -0.304,-1.28 -0.192,-0.352 -0.454,-0.624 -0.784,-0.816 -0.32,-0.192 -0.688,-0.288 -1.104,-0.288 -0.416,0 -0.79,0.096 -1.12,0.288 -0.331,0.192 -0.592,0.464 -0.784,0.816 -0.192,0.352 -0.288,0.779 -0.288,1.28 0,0.491 0.096,0.917 0.288,1.28 0.192,0.352 0.453,0.624 0.784,0.816 0.33,0.192 0.704,0.288 1.12,0.288 z m 16.154,-6.816 c 0.682,0 1.29,0.139 1.824,0.416 0.544,0.267 0.97,0.683 1.28,1.248 0.309,0.555 0.464,1.269 0.464,2.144 v 4.928 h -2.496 v -4.544 c 0,-0.693 -0.155,-1.205 -0.464,-1.536 -0.299,-0.331 -0.726,-0.496 -1.28,-0.496 -0.395,0 -0.752,0.085 -1.072,0.256 -0.31,0.16 -0.555,0.411 -0.736,0.752 -0.171,0.341 -0.256,0.779 -0.256,1.312 v 4.256 h -2.496 v -8.608 h 2.384 v 2.384 l -0.448,-0.72 c 0.309,-0.576 0.752,-1.019 1.328,-1.328 0.576,-0.309 1.232,-0.464 1.968,-0.464 z m 9.989,8.864 c -0.918,0 -1.734,-0.192 -2.448,-0.576 -0.704,-0.384 -1.264,-0.907 -1.68,-1.568 -0.406,-0.672 -0.608,-1.435 -0.608,-2.288 0,-0.864 0.202,-1.627 0.608,-2.288 0.416,-0.672 0.976,-1.195 1.68,-1.568 0.714,-0.384 1.53,-0.576 2.448,-0.576 0.906,0 1.717,0.192 2.432,0.576 0.714,0.373 1.274,0.891 1.68,1.552 0.405,0.661 0.608,1.429 0.608,2.304 0,0.853 -0.203,1.616 -0.608,2.288 -0.406,0.661 -0.966,1.184 -1.68,1.568 -0.715,0.384 -1.526,0.576 -2.432,0.576 z m 0,-2.048 c 0.416,0 0.789,-0.096 1.12,-0.288 0.33,-0.192 0.592,-0.464 0.784,-0.816 0.192,-0.363 0.288,-0.789 0.288,-1.28 0,-0.501 -0.096,-0.928 -0.288,-1.28 -0.192,-0.352 -0.454,-0.624 -0.784,-0.816 -0.331,-0.192 -0.704,-0.288 -1.12,-0.288 -0.416,0 -0.79,0.096 -1.12,0.288 -0.331,0.192 -0.598,0.464 -0.8,0.816 -0.192,0.352 -0.288,0.779 -0.288,1.28 0,0.491 0.096,0.917 0.288,1.28 0.202,0.352 0.469,0.624 0.8,0.816 0.33,0.192 0.704,0.288 1.12,0.288 z m 8.122,1.92 -3.104,-8.608 h 2.352 l 2.576,7.408 h -1.12 l 2.688,-7.408 h 2.112 l 2.608,7.408 h -1.12 l 2.656,-7.408 h 2.208 l -3.12,8.608 h -2.416 l -2.288,-6.352 h 0.736 l -2.368,6.352 z"
       fill="#f9faf9"
       id="path4-6" />
  </g>
  <defs
     id="defs23">
    <clipPath
       id="clip0_1977_3507">
      <rect
         width="768"
         height="238"
         fill="white"
         id="rect23" />
    </clipPath>
  </defs>
</svg>
