<svg xmlns="http://www.w3.org/2000/svg" viewBox="0 0 792.01 177.33"><defs><style>.cls-1,.cls-2{fill:#fff;}.cls-1{fill-rule:evenodd;}</style></defs><g id="Layer_2" data-name="Layer 2"><g id="Layer_1-2" data-name="Layer 1"><path class="cls-1" d="M24.83,177.33H177.25V24.84H24.83Zm136.88-15.57H109.39l-14-46.47A26.62,26.62,0,0,0,82.78,65.23h0l0,96.51H40.37V40.13h74.91a46.46,46.46,0,0,1,25,85.6ZM152.42,12.47H12.47v140H0V0H152.42Z"/><path class="cls-2" d="M769.74,118.65a14.16,14.16,0,0,1-5.09-2.94,13.53,13.53,0,0,1-3.41-4.75,15.42,15.42,0,0,1-1.23-6.38v-.46a15.91,15.91,0,0,1,1.23-6.44,14.6,14.6,0,0,1,8.5-8,17.54,17.54,0,0,1,6.32-1.07,19.21,19.21,0,0,1,6.32,1,15.11,15.11,0,0,1,5,3,14.61,14.61,0,0,1,3.34,4.8,15.38,15.38,0,0,1,1.25,6.33v.45a15.6,15.6,0,0,1-1.25,6.45,14.27,14.27,0,0,1-3.34,4.86,15.18,15.18,0,0,1-5.09,3,17.87,17.87,0,0,1-6.33,1.07A18.6,18.6,0,0,1,769.74,118.65Zm1.77-8.26a6,6,0,0,0,9,0,10.37,10.37,0,0,0,1.51-6V104a10.36,10.36,0,0,0-1.51-6A5.23,5.23,0,0,0,776,96a5.37,5.37,0,0,0-4.51,2,10,10,0,0,0-1.5,5.92v.41A10.44,10.44,0,0,0,771.51,110.39Z"/><path class="cls-2" d="M757,89.74v9.41c-2.93-.06-5.12.39-6.67,1.41s-2.33,2.7-2.33,5.07v13.51H737v-29h11V96a9.92,9.92,0,0,1,3.56-4.78A8.75,8.75,0,0,1,757,89.74Z"/><path class="cls-2" d="M713,119.14H702v-41h14.83c5.51,0,9.57,1.19,12.22,3.53s4,5.75,4,10.08V92c0,4.27-1.36,7.57-4.07,9.79s-6.59,3.37-11.6,3.37H713Zm9-27.23a4.27,4.27,0,0,0-1.48-3.66,6.75,6.75,0,0,0-4.15-1.11H713v10h3.31a6.29,6.29,0,0,0,4.27-1.28A4.64,4.64,0,0,0,722,92.14Z"/><path class="cls-2" d="M686,89.14v7h-6V108.3a3.07,3.07,0,0,0,.8,2.31,3,3,0,0,0,2.25.79,11.63,11.63,0,0,0,1.55-.11,7.53,7.53,0,0,0,1.4-.39v7.92c-.63.17-1.42.4-2.39.57a18.27,18.27,0,0,1-3.21.28c-3.34,0-5.94-.85-7.69-2.5S670,113,670,109.44V96.14h-4v-7h4v-6h10v6Z"/><path class="cls-2" d="M663,119.14H653V102.07a6,6,0,0,0-1-3.78,3.82,3.82,0,0,0-3.12-1.18,4.66,4.66,0,0,0-3.51,1.35c-1,.9-1.37,2.31-1.37,4.23v16.45H634v-29h10v4.71A9.63,9.63,0,0,1,647.55,91a10.34,10.34,0,0,1,6-1.61A9.31,9.31,0,0,1,660.4,92c1.71,1.83,2.61,4.55,2.61,8.26Z"/><path class="cls-2" d="M617.85,97a4.79,4.79,0,0,0-3.76-1.41A5.15,5.15,0,0,0,610.34,97a7.21,7.21,0,0,0-1.84,4.12h10.76A6.38,6.38,0,0,0,617.85,97Zm-10.09,21.59a13,13,0,0,1-5-2.87,13.8,13.8,0,0,1-3.3-4.73,19.92,19.92,0,0,1-1.46-6.42v-.46a20.69,20.69,0,0,1,1.46-6.42,15.41,15.41,0,0,1,3.37-4.84,14.36,14.36,0,0,1,5-3.1,17.67,17.67,0,0,1,6.21-1.07,17.46,17.46,0,0,1,5.73.9,12.77,12.77,0,0,1,8,7.49,18.18,18.18,0,0,1,1.17,6.82v2.23H608.39a7.13,7.13,0,0,0,1.85,4.92,5.7,5.7,0,0,0,4.26,1.64,5.55,5.55,0,0,0,3.69-1,4.38,4.38,0,0,0,1.4-2.54H629a10.8,10.8,0,0,1-4.42,7.78q-3.8,2.72-10.43,2.71A19.43,19.43,0,0,1,607.76,118.61Z"/><path class="cls-2" d="M595,89.14v7h-6V108.3a3.07,3.07,0,0,0,.8,2.31,3,3,0,0,0,2.25.79,11.63,11.63,0,0,0,1.55-.11,7.53,7.53,0,0,0,1.4-.39v7.92c-.63.17-1.42.4-2.39.57a18.27,18.27,0,0,1-3.21.28c-3.34,0-5.94-.85-7.69-2.5S579,113,579,109.44V96.14h-4v-7h4v-6h10v6Z"/><path class="cls-2" d="M572,119.14H562V102.07a6,6,0,0,0-1-3.78,3.82,3.82,0,0,0-3.12-1.18,4.66,4.66,0,0,0-3.51,1.35c-1,.9-1.37,2.31-1.37,4.23v16.45H543v-29h10v4.71A9.63,9.63,0,0,1,556.55,91a10.34,10.34,0,0,1,6-1.61A9.31,9.31,0,0,1,569.4,92c1.71,1.83,2.61,4.55,2.61,8.26Z"/><path class="cls-2" d="M526.5,98.07A5.25,5.25,0,0,0,522,96a5.37,5.37,0,0,0-4.51,2,9.88,9.88,0,0,0-1.5,5.89v.41a10.34,10.34,0,0,0,1.5,6.06,6,6,0,0,0,9,0,10.27,10.27,0,0,0,1.51-6V104A10.27,10.27,0,0,0,526.5,98.07Zm-10.76,20.51a14.12,14.12,0,0,1-5.09-2.92,13.51,13.51,0,0,1-3.41-4.72,15.33,15.33,0,0,1-1.23-6.36v-.45a15.8,15.8,0,0,1,1.23-6.41,14.56,14.56,0,0,1,8.5-7.92,17.54,17.54,0,0,1,6.32-1.07,19.47,19.47,0,0,1,6.32,1,15.09,15.09,0,0,1,5,3,14.42,14.42,0,0,1,3.34,4.78,15.19,15.19,0,0,1,1.25,6.29v.45a15.37,15.37,0,0,1-1.25,6.41,14.18,14.18,0,0,1-3.34,4.84,15.32,15.32,0,0,1-5.09,3A18.1,18.1,0,0,1,522,119.6,18.6,18.6,0,0,1,515.74,118.58Z"/><path class="cls-2" d="M502.23,104.14a16.91,16.91,0,0,1-1.79,6.7,14.56,14.56,0,0,1-3.88,4.83,17.57,17.57,0,0,1-5.72,2.92,24.49,24.49,0,0,1-7.11,1,27,27,0,0,1-9.12-1.43,16.7,16.7,0,0,1-10.34-10.39A26,26,0,0,1,463,99.52v-.44a20.45,20.45,0,0,1,1.55-8.19,17.69,17.69,0,0,1,4.21-6.37,18.78,18.78,0,0,1,6.46-4.07,22.8,22.8,0,0,1,8-1.42,26.41,26.41,0,0,1,7.12.87,17.11,17.11,0,0,1,5.67,2.75,14.18,14.18,0,0,1,3.88,4.73,18.91,18.91,0,0,1,1.79,6.76H490a7.25,7.25,0,0,0-2-4.62,6.56,6.56,0,0,0-4.66-1.59,7.25,7.25,0,0,0-6.07,2.85C475.77,92.71,475,95.45,475,99v.44c0,3.57.72,6.31,2.22,8.24a7.48,7.48,0,0,0,6.27,2.85,7.87,7.87,0,0,0,5-1.59,7.15,7.15,0,0,0,2.39-4.83Z"/><path class="cls-2" d="M443.81,110.61a3,3,0,0,0,2.25.79,11.63,11.63,0,0,0,1.55-.11,7.53,7.53,0,0,0,1.4-.39v7.94c-.63.17-1.42.4-2.39.57a18.22,18.22,0,0,1-3.21.29c-3.34,0-5.94-.86-7.69-2.52S433,113,433,109.42V96.14h-4v-7h4v-6h10v6h6v7h-6V108.3A3.07,3.07,0,0,0,443.81,110.61Z"/><path class="cls-2" d="M408.42,110.27a4.75,4.75,0,0,0,4.2,2.12,4.49,4.49,0,0,0,3.39-1.33,6.21,6.21,0,0,0,1.59-3.92h8.8a13.56,13.56,0,0,1-3.82,9.53c-2.41,2.41-5.91,3.62-10.56,3.62a17.07,17.07,0,0,1-5.94-1,12.56,12.56,0,0,1-4.76-3.07,13.77,13.77,0,0,1-3.17-5,19.68,19.68,0,0,1-1.14-7v-.48a19,19,0,0,1,1.19-7,15.18,15.18,0,0,1,3.29-5.19,14.64,14.64,0,0,1,4.85-3.26,15.62,15.62,0,0,1,5.91-1.09,20,20,0,0,1,5.08.67A11.37,11.37,0,0,1,421.65,90a12.29,12.29,0,0,1,3.17,4,16,16,0,0,1,1.42,6.1h-9.18a6.3,6.3,0,0,0-1.38-3.44,4.08,4.08,0,0,0-3.21-1.15,4.64,4.64,0,0,0-4.05,2,10.89,10.89,0,0,0-1.41,6v.48A11.25,11.25,0,0,0,408.42,110.27Z"/><rect class="cls-2" x="382.01" y="90.14" width="10" height="29"/><path class="cls-2" d="M391.14,77.71a5,5,0,0,1,1.56,3.78,4.76,4.76,0,0,1-1.56,3.72,5.79,5.79,0,0,1-4,1.46,5.61,5.61,0,0,1-3.91-1.46,4.74,4.74,0,0,1-1.57-3.72,5,5,0,0,1,1.57-3.78,5.61,5.61,0,0,1,3.91-1.46A5.79,5.79,0,0,1,391.14,77.71Z"/><path class="cls-2" d="M377,89.74v9.41c-2.94-.06-5.12.39-6.66,1.41s-2.34,2.7-2.34,5.07v13.51H358v-29h10V96a9.8,9.8,0,0,1,3.56-4.78A8.75,8.75,0,0,1,377,89.74Z"/><path class="cls-2" d="M353,89.14v7h-6V108.3a3.07,3.07,0,0,0,.8,2.31,3,3,0,0,0,2.25.79,11.75,11.75,0,0,0,1.55-.11,7.75,7.75,0,0,0,1.4-.39v7.67c-.6.16-1.33.38-2.23.54a17.29,17.29,0,0,1-3,.27c-3.14,0-5.57-.81-7.21-2.36s-2.54-4-2.54-7.28V96.14h-4v-7h3v-6h10v6Z"/><path class="cls-2" d="M315.44,111.53a4.22,4.22,0,0,0,2.91.82,4.88,4.88,0,0,0,2.64-.6,2.16,2.16,0,0,0,.81-1.74,1.69,1.69,0,0,0-1.14-1.58,15.2,15.2,0,0,0-4.09-1c-.71-.1-1.37-.21-2-.33a22,22,0,0,1-2.85-.71,9.2,9.2,0,0,1-3.34-1.69,5.92,5.92,0,0,1-1.89-2.61,10.06,10.06,0,0,1-.64-3.81,8.39,8.39,0,0,1,1-4.14,9,9,0,0,1,2.63-2.94,11.81,11.81,0,0,1,3.83-1.74,18.47,18.47,0,0,1,4.63-.55,22.44,22.44,0,0,1,4.81.49A11.28,11.28,0,0,1,326.49,91a8.88,8.88,0,0,1,2.65,2.83,11.4,11.4,0,0,1,1.24,4.31h-8.74A3.62,3.62,0,0,0,320.56,96,3.82,3.82,0,0,0,318,95.3a3.77,3.77,0,0,0-2.38.66,1.83,1.83,0,0,0-.8,1.58,1.62,1.62,0,0,0,1.08,1.52,13.53,13.53,0,0,0,3.66.82c.59.08,1.15.17,1.69.26,1.27.21,2.42.45,3.44.72a10.5,10.5,0,0,1,3.6,1.63,6.86,6.86,0,0,1,2.16,2.67,9.08,9.08,0,0,1,.7,3.87c0,3.37-1.13,5.82-3.45,7.4s-5.39,2.4-9.33,2.4-7.16-.82-9.43-2.45a8.81,8.81,0,0,1-3.5-7.24h8.89A4.33,4.33,0,0,0,315.44,111.53Z"/><path class="cls-2" d="M291.07,97a4.75,4.75,0,0,0-3.73-1.41A5.08,5.08,0,0,0,283.61,97a7,7,0,0,0-1.84,4.12h10.7A6.37,6.37,0,0,0,291.07,97Zm6.7-4.66A14.12,14.12,0,0,1,301,97.09a15.42,15.42,0,0,1,1,6.82v2.23H281.65c.17,2.39.78,3.85,1.84,4.92a5.7,5.7,0,0,0,4.24,1.64,5.49,5.49,0,0,0,3.67-1,4.34,4.34,0,0,0,1.41-2.54h9.37a10.82,10.82,0,0,1-4.41,7.78q-3.76,2.72-10.37,2.71a19.29,19.29,0,0,1-6.37-1,12.9,12.9,0,0,1-5-2.87,13.77,13.77,0,0,1-3.29-4.73,35.28,35.28,0,0,1-1.77-6.42v-.46a38.23,38.23,0,0,1,1.77-6.42,15.66,15.66,0,0,1,3.34-4.84,14.49,14.49,0,0,1,5-3.1,17.48,17.48,0,0,1,6.19-1.07,17.22,17.22,0,0,1,5.69.9A13.74,13.74,0,0,1,297.77,92.36Z"/><path class="cls-2" d="M258.52,119.14l-7.91-14H248v14H236v-40H251.7c5.25,0,9.29,1.06,12.1,3.13S268,87.58,268,91.83v.84a10.08,10.08,0,0,1-2,6.61,12.55,12.55,0,0,1-5,3.67l9.3,16.19ZM257,91.84a4.49,4.49,0,0,0-1.4-3.66,6.58,6.58,0,0,0-4-1H248v10h3.51a5.74,5.74,0,0,0,4.14-1.28A5,5,0,0,0,257,92.08Z"/></g></g></svg>