<svg viewBox="0 0 1000 115" xmlns="http://www.w3.org/2000/svg" fill-rule="evenodd" clip-rule="evenodd" stroke-linejoin="round" stroke-miterlimit="2"><path d="M81.592,582.676l500.812,0l0,-501.047l-500.812,0l0,501.047Zm449.764,-51.164l-171.934,0l-45.959,-152.692c27.365,-14.782 45.959,-43.729 45.959,-77.021c0,-48.317 -39.147,-87.482 -87.44,-87.482c-0.024,0 -0.048,0.003 -0.048,0.003l0.048,317.117l-139.342,0l0,-399.573l246.152,0c84.26,0 152.567,68.336 152.567,152.635c0,54.049 -28.103,101.496 -70.457,128.62l70.454,118.393Zm-30.544,-490.529l-459.849,0l0,460.062l-40.963,0l0,-501.045l500.812,0l0,40.983Z" fill="#b4bbc1" transform="scale(.19737)"/><path d="M0.073,-0.715l0.272,0c0.098,0 0.17,0.021 0.217,0.063c0.047,0.041 0.07,0.1 0.07,0.176l0,0.004c0,0.075 -0.024,0.133 -0.072,0.172c-0.048,0.039 -0.117,0.059 -0.206,0.059l-0.077,0l0,0.241l-0.204,0l0,-0.715Zm0.263,0.334c0.034,0 0.059,-0.008 0.076,-0.023c0.017,-0.015 0.025,-0.037 0.025,-0.067l0,-0.004c0,-0.031 -0.009,-0.053 -0.026,-0.066c-0.017,-0.013 -0.042,-0.02 -0.074,-0.02l-0.06,0l0,0.18l0.059,0Z" fill="#b4bbc1" fill-rule="nonzero" transform="matrix(84.17277 0 0 85.023 858.256 89.198)"/><path d="M0.057,-0.523l0.179,0l0,0.104c0.017,-0.039 0.039,-0.068 0.067,-0.085c0.027,-0.018 0.061,-0.027 0.102,-0.026l0,0.167c-0.055,-0.001 -0.097,0.007 -0.126,0.025c-0.029,0.018 -0.043,0.048 -0.043,0.09l0,0.248l-0.179,0l0,-0.523Z" fill="#b4bbc1" fill-rule="nonzero" transform="matrix(84.17277 0 0 85.023 913.474 89.198)"/><path d="M0.316,-0.121c0.034,0 0.06,-0.012 0.077,-0.035c0.017,-0.024 0.026,-0.058 0.026,-0.102l0,-0.007c0,-0.044 -0.009,-0.078 -0.026,-0.102c-0.017,-0.023 -0.043,-0.035 -0.077,-0.035c-0.034,0 -0.06,0.011 -0.078,0.034c-0.017,0.023 -0.026,0.057 -0.026,0.101l0,0.008c0,0.045 0.009,0.079 0.026,0.103c0.017,0.023 0.043,0.035 0.078,0.035Zm-0.001,0.133c-0.04,0 -0.078,-0.006 -0.112,-0.018c-0.036,-0.012 -0.066,-0.029 -0.091,-0.052c-0.026,-0.023 -0.046,-0.051 -0.061,-0.084c-0.015,-0.033 -0.022,-0.071 -0.022,-0.113l0,-0.008c0,-0.042 0.007,-0.08 0.022,-0.113c0.015,-0.034 0.035,-0.063 0.061,-0.087c0.025,-0.024 0.055,-0.042 0.091,-0.055c0.034,-0.013 0.072,-0.019 0.113,-0.019c0.04,0 0.078,0.006 0.112,0.019c0.036,0.012 0.066,0.03 0.091,0.053c0.025,0.023 0.045,0.052 0.06,0.085c0.015,0.033 0.022,0.071 0.022,0.112l0,0.008c0,0.043 -0.007,0.081 -0.022,0.115c-0.015,0.033 -0.035,0.062 -0.06,0.085c-0.026,0.023 -0.056,0.041 -0.091,0.054c-0.035,0.012 -0.073,0.018 -0.113,0.018Z" fill="#b4bbc1" fill-rule="nonzero" transform="matrix(84.17277 0 0 85.023 949.412 89.198)"/><g><path d="M0.409,0.012c-0.063,0 -0.117,-0.009 -0.164,-0.026c-0.047,-0.017 -0.085,-0.042 -0.116,-0.074c-0.031,-0.032 -0.055,-0.071 -0.07,-0.115c-0.015,-0.045 -0.023,-0.095 -0.023,-0.15l0,-0.008c0,-0.055 0.009,-0.105 0.028,-0.149c0.018,-0.045 0.043,-0.084 0.076,-0.116c0.033,-0.032 0.071,-0.057 0.116,-0.074c0.045,-0.017 0.093,-0.026 0.145,-0.026c0.047,0 0.089,0.005 0.128,0.016c0.039,0.011 0.073,0.028 0.102,0.05c0.029,0.023 0.052,0.051 0.07,0.086c0.017,0.035 0.028,0.076 0.032,0.123l-0.211,0c-0.004,-0.037 -0.016,-0.065 -0.036,-0.084c-0.02,-0.019 -0.048,-0.029 -0.084,-0.029c-0.046,0 -0.083,0.017 -0.11,0.052c-0.027,0.035 -0.04,0.085 -0.04,0.15l0,0.008c0,0.065 0.013,0.114 0.039,0.149c0.027,0.035 0.065,0.053 0.114,0.053c0.036,0 0.066,-0.01 0.089,-0.029c0.024,-0.019 0.039,-0.048 0.044,-0.088l0.204,0c-0.003,0.046 -0.014,0.087 -0.032,0.122c-0.018,0.035 -0.041,0.065 -0.07,0.088c-0.029,0.023 -0.064,0.041 -0.103,0.053c-0.039,0.012 -0.082,0.018 -0.128,0.018Z" fill="#b4bbc1" fill-rule="nonzero" transform="matrix(84.59789 0 0 85.023 501.525 89.214)"/><path d="M0.316,-0.121c0.034,0 0.06,-0.012 0.077,-0.035c0.017,-0.024 0.026,-0.058 0.026,-0.102l0,-0.007c0,-0.044 -0.009,-0.078 -0.026,-0.102c-0.017,-0.023 -0.043,-0.035 -0.077,-0.035c-0.034,0 -0.06,0.011 -0.078,0.034c-0.017,0.023 -0.026,0.057 -0.026,0.101l0,0.008c0,0.045 0.009,0.079 0.026,0.103c0.017,0.023 0.043,0.035 0.078,0.035Zm-0.001,0.133c-0.04,0 -0.078,-0.006 -0.112,-0.018c-0.036,-0.012 -0.066,-0.029 -0.091,-0.052c-0.026,-0.023 -0.046,-0.051 -0.061,-0.084c-0.015,-0.033 -0.022,-0.071 -0.022,-0.113l0,-0.008c0,-0.042 0.007,-0.08 0.022,-0.113c0.015,-0.034 0.035,-0.063 0.061,-0.087c0.025,-0.024 0.055,-0.042 0.091,-0.055c0.034,-0.013 0.072,-0.019 0.113,-0.019c0.04,0 0.078,0.006 0.112,0.019c0.036,0.012 0.066,0.03 0.091,0.053c0.025,0.023 0.045,0.052 0.06,0.085c0.015,0.033 0.022,0.071 0.022,0.112l0,0.008c0,0.043 -0.007,0.081 -0.022,0.115c-0.015,0.033 -0.035,0.062 -0.06,0.085c-0.026,0.023 -0.056,0.041 -0.091,0.054c-0.035,0.012 -0.073,0.018 -0.113,0.018Z" fill="#b4bbc1" fill-rule="nonzero" transform="matrix(84.59789 0 0 85.023 566.499 89.214)"/><path d="M0.057,-0.523l0.179,0l0,0.085c0.014,-0.028 0.035,-0.051 0.064,-0.07c0.028,-0.019 0.064,-0.029 0.108,-0.029c0.051,0 0.092,0.016 0.124,0.049c0.031,0.032 0.047,0.081 0.047,0.148l0,0.34l-0.179,0l0,-0.303c0,-0.03 -0.006,-0.052 -0.018,-0.067c-0.012,-0.014 -0.031,-0.021 -0.057,-0.021c-0.027,0 -0.048,0.008 -0.065,0.024c-0.016,0.016 -0.024,0.041 -0.024,0.075l0,0.292l-0.179,0l0,-0.523Z" fill="#b4bbc1" fill-rule="nonzero" transform="matrix(84.59789 0 0 85.023 619.458 89.214)"/><path d="M0.265,0.012c-0.059,0 -0.105,-0.015 -0.137,-0.043c-0.031,-0.029 -0.047,-0.075 -0.047,-0.137l0,-0.233l-0.063,0l0,-0.122l0.063,0l0,-0.109l0.179,0l0,0.109l0.103,0l0,0.122l-0.103,0l0,0.216c0,0.018 0.005,0.032 0.014,0.041c0.008,0.009 0.022,0.014 0.039,0.014c0.01,0 0.019,-0.001 0.027,-0.002c0.008,-0.001 0.016,-0.004 0.024,-0.007l0,0.136c-0.011,0.003 -0.025,0.007 -0.042,0.01c-0.017,0.003 -0.036,0.005 -0.057,0.005Z" fill="#b4bbc1" fill-rule="nonzero" transform="matrix(84.59789 0 0 85.023 672.585 89.214)"/><path d="M0.313,0.012c-0.041,0 -0.079,-0.006 -0.114,-0.018c-0.035,-0.011 -0.064,-0.028 -0.089,-0.051c-0.025,-0.023 -0.045,-0.051 -0.06,-0.084c-0.014,-0.033 -0.021,-0.071 -0.021,-0.114l0,-0.008c0,-0.042 0.007,-0.08 0.022,-0.113c0.015,-0.034 0.035,-0.063 0.06,-0.087c0.025,-0.024 0.055,-0.042 0.09,-0.055c0.035,-0.013 0.072,-0.019 0.111,-0.019c0.036,0 0.07,0.005 0.102,0.016c0.032,0.011 0.06,0.027 0.085,0.049c0.024,0.022 0.043,0.05 0.057,0.084c0.015,0.034 0.022,0.074 0.022,0.121l0,0.047l-0.368,0c0.003,0.035 0.013,0.062 0.032,0.081c0.019,0.019 0.045,0.028 0.077,0.028c0.03,0 0.052,-0.006 0.065,-0.018c0.014,-0.012 0.023,-0.027 0.026,-0.044l0.168,0c-0.008,0.059 -0.034,0.105 -0.079,0.137c-0.045,0.032 -0.107,0.048 -0.186,0.048Zm0.091,-0.333c-0.001,-0.032 -0.01,-0.056 -0.025,-0.073c-0.015,-0.017 -0.038,-0.025 -0.067,-0.025c-0.027,0 -0.05,0.008 -0.067,0.025c-0.017,0.017 -0.028,0.041 -0.033,0.073l0.192,0Z" fill="#b4bbc1" fill-rule="nonzero" transform="matrix(84.59789 0 0 85.023 705.83 89.214)"/><path d="M0.057,-0.523l0.179,0l0,0.085c0.014,-0.028 0.035,-0.051 0.064,-0.07c0.028,-0.019 0.064,-0.029 0.108,-0.029c0.051,0 0.092,0.016 0.124,0.049c0.031,0.032 0.047,0.081 0.047,0.148l0,0.34l-0.179,0l0,-0.303c0,-0.03 -0.006,-0.052 -0.018,-0.067c-0.012,-0.014 -0.031,-0.021 -0.057,-0.021c-0.027,0 -0.048,0.008 -0.065,0.024c-0.016,0.016 -0.024,0.041 -0.024,0.075l0,0.292l-0.179,0l0,-0.523Z" fill="#b4bbc1" fill-rule="nonzero" transform="matrix(84.59789 0 0 85.023 756.76 89.214)"/><path d="M0.265,0.012c-0.059,0 -0.105,-0.015 -0.137,-0.043c-0.031,-0.029 -0.047,-0.075 -0.047,-0.137l0,-0.233l-0.063,0l0,-0.122l0.063,0l0,-0.109l0.179,0l0,0.109l0.103,0l0,0.122l-0.103,0l0,0.216c0,0.018 0.005,0.032 0.014,0.041c0.008,0.009 0.022,0.014 0.039,0.014c0.01,0 0.019,-0.001 0.027,-0.002c0.008,-0.001 0.016,-0.004 0.024,-0.007l0,0.136c-0.011,0.003 -0.025,0.007 -0.042,0.01c-0.017,0.003 -0.036,0.005 -0.057,0.005Z" fill="#b4bbc1" fill-rule="nonzero" transform="matrix(84.59789 0 0 85.023 809.887 89.214)"/></g><g><path d="M0.073,-0.715l0.28,0c0.094,0 0.166,0.019 0.216,0.056c0.05,0.038 0.075,0.095 0.075,0.171l0,0.004c0,0.051 -0.012,0.092 -0.036,0.121c-0.025,0.03 -0.056,0.052 -0.093,0.067l0.171,0.296l-0.216,0l-0.145,-0.256l-0.048,0l0,0.256l-0.204,0l0,-0.715Zm0.27,0.326c0.035,0 0.06,-0.007 0.077,-0.022c0.017,-0.015 0.026,-0.036 0.026,-0.065l0,-0.004c0,-0.029 -0.009,-0.05 -0.026,-0.063c-0.017,-0.012 -0.043,-0.018 -0.076,-0.018l-0.067,0l0,0.172l0.066,0Z" fill="#b4bbc1" fill-rule="nonzero" transform="matrix(84.17277 0 0 85.023 155.929 89.214)"/><path d="M0.313,0.012c-0.041,0 -0.079,-0.006 -0.114,-0.018c-0.035,-0.011 -0.064,-0.028 -0.089,-0.051c-0.025,-0.023 -0.045,-0.051 -0.06,-0.084c-0.014,-0.033 -0.021,-0.071 -0.021,-0.114l0,-0.008c0,-0.042 0.007,-0.08 0.022,-0.113c0.015,-0.034 0.035,-0.063 0.06,-0.087c0.025,-0.024 0.055,-0.042 0.09,-0.055c0.035,-0.013 0.072,-0.019 0.111,-0.019c0.036,0 0.07,0.005 0.102,0.016c0.032,0.011 0.06,0.027 0.085,0.049c0.024,0.022 0.043,0.05 0.057,0.084c0.015,0.034 0.022,0.074 0.022,0.121l0,0.047l-0.368,0c0.003,0.035 0.013,0.062 0.032,0.081c0.019,0.019 0.045,0.028 0.077,0.028c0.03,0 0.052,-0.006 0.065,-0.018c0.014,-0.012 0.023,-0.027 0.026,-0.044l0.168,0c-0.008,0.059 -0.034,0.105 -0.079,0.137c-0.045,0.032 -0.107,0.048 -0.186,0.048Zm0.091,-0.333c-0.001,-0.032 -0.01,-0.056 -0.025,-0.073c-0.015,-0.017 -0.038,-0.025 -0.067,-0.025c-0.027,0 -0.05,0.008 -0.067,0.025c-0.017,0.017 -0.028,0.041 -0.033,0.073l0.192,0Z" fill="#b4bbc1" fill-rule="nonzero" transform="matrix(84.17277 0 0 85.023 212.808 89.214)"/><path d="M0.262,0.012c-0.075,0 -0.133,-0.015 -0.175,-0.045c-0.041,-0.03 -0.063,-0.074 -0.065,-0.133l0.165,0c0.003,0.019 0.01,0.034 0.02,0.044c0.011,0.01 0.029,0.015 0.054,0.015c0.022,0 0.038,-0.004 0.048,-0.011c0.011,-0.008 0.016,-0.019 0.016,-0.032c0,-0.013 -0.007,-0.022 -0.022,-0.029c-0.014,-0.007 -0.039,-0.013 -0.075,-0.018c-0.035,-0.005 -0.065,-0.011 -0.09,-0.018c-0.025,-0.008 -0.046,-0.019 -0.062,-0.032c-0.016,-0.013 -0.028,-0.029 -0.035,-0.048c-0.008,-0.019 -0.012,-0.043 -0.012,-0.07c0,-0.029 0.006,-0.054 0.018,-0.075c0.012,-0.022 0.028,-0.04 0.049,-0.055c0.02,-0.014 0.044,-0.024 0.071,-0.031c0.027,-0.007 0.056,-0.011 0.086,-0.011c0.032,0 0.062,0.003 0.089,0.009c0.027,0.006 0.05,0.016 0.07,0.029c0.02,0.013 0.036,0.031 0.049,0.052c0.012,0.021 0.02,0.048 0.023,0.079l-0.162,0c-0.003,-0.017 -0.01,-0.03 -0.02,-0.039c-0.011,-0.009 -0.026,-0.013 -0.047,-0.013c-0.019,0 -0.034,0.004 -0.044,0.012c-0.01,0.007 -0.015,0.017 -0.015,0.029c0,0.013 0.007,0.022 0.02,0.028c0.013,0.006 0.036,0.011 0.068,0.015c0.036,0.005 0.068,0.011 0.095,0.018c0.027,0.007 0.049,0.017 0.067,0.03c0.018,0.013 0.031,0.03 0.04,0.049c0.009,0.019 0.013,0.043 0.013,0.071c0,0.062 -0.021,0.107 -0.064,0.136c-0.043,0.029 -0.1,0.044 -0.173,0.044Z" fill="#b4bbc1" fill-rule="nonzero" transform="matrix(84.17277 0 0 85.023 263.905 89.214)"/><path d="M0.265,0.012c-0.059,0 -0.105,-0.015 -0.137,-0.043c-0.031,-0.029 -0.047,-0.075 -0.047,-0.137l0,-0.233l-0.063,0l0,-0.122l0.063,0l0,-0.109l0.179,0l0,0.109l0.103,0l0,0.122l-0.103,0l0,0.216c0,0.018 0.005,0.032 0.014,0.041c0.008,0.009 0.022,0.014 0.039,0.014c0.01,0 0.019,-0.001 0.027,-0.002c0.008,-0.001 0.016,-0.004 0.024,-0.007l0,0.136c-0.011,0.003 -0.025,0.007 -0.042,0.01c-0.017,0.003 -0.036,0.005 -0.057,0.005Z" fill="#b4bbc1" fill-rule="nonzero" transform="matrix(84.17277 0 0 85.023 307.591 89.214)"/><path d="M0.057,-0.523l0.179,0l0,0.104c0.017,-0.039 0.039,-0.068 0.067,-0.085c0.027,-0.018 0.061,-0.027 0.102,-0.026l0,0.167c-0.055,-0.001 -0.097,0.007 -0.126,0.025c-0.029,0.018 -0.043,0.048 -0.043,0.09l0,0.248l-0.179,0l0,-0.523Z" fill="#b4bbc1" fill-rule="nonzero" transform="matrix(84.17277 0 0 85.023 340.67 89.214)"/><path d="M0.062,-0.523l0.179,0l0,0.523l-0.179,0l0,-0.523Zm0.089,-0.05c-0.028,0 -0.051,-0.009 -0.07,-0.026c-0.019,-0.017 -0.028,-0.039 -0.028,-0.066c0,-0.027 0.009,-0.049 0.028,-0.067c0.019,-0.017 0.042,-0.026 0.07,-0.026c0.028,0 0.052,0.009 0.071,0.026c0.018,0.018 0.028,0.04 0.028,0.067c0,0.027 -0.01,0.049 -0.028,0.066c-0.019,0.017 -0.043,0.026 -0.071,0.026Z" fill="#b4bbc1" fill-rule="nonzero" transform="matrix(84.17277 0 0 85.023 377.033 89.214)"/><path d="M0.304,0.012c-0.039,0 -0.076,-0.006 -0.109,-0.017c-0.033,-0.011 -0.062,-0.028 -0.087,-0.051c-0.025,-0.022 -0.044,-0.05 -0.058,-0.083c-0.014,-0.033 -0.021,-0.072 -0.021,-0.116l0,-0.008c0,-0.043 0.007,-0.082 0.022,-0.116c0.015,-0.034 0.035,-0.063 0.06,-0.086c0.025,-0.023 0.055,-0.041 0.089,-0.053c0.033,-0.013 0.069,-0.019 0.108,-0.019c0.032,0 0.063,0.004 0.093,0.011c0.029,0.007 0.056,0.019 0.079,0.036c0.023,0.017 0.042,0.04 0.057,0.067c0.015,0.027 0.024,0.061 0.027,0.101l-0.168,0c-0.004,-0.025 -0.013,-0.044 -0.026,-0.057c-0.013,-0.013 -0.032,-0.019 -0.058,-0.019c-0.032,0 -0.057,0.011 -0.074,0.033c-0.017,0.023 -0.026,0.056 -0.026,0.1l0,0.008c0,0.046 0.009,0.081 0.026,0.104c0.017,0.022 0.043,0.034 0.077,0.034c0.025,0 0.046,-0.007 0.062,-0.022c0.016,-0.015 0.026,-0.036 0.029,-0.065l0.161,0c-0.003,0.066 -0.026,0.119 -0.07,0.158c-0.044,0.04 -0.108,0.06 -0.193,0.06Z" fill="#b4bbc1" fill-rule="nonzero" transform="matrix(84.17277 0 0 85.023 402.202 89.214)"/><path d="M0.265,0.012c-0.059,0 -0.105,-0.015 -0.137,-0.043c-0.031,-0.029 -0.047,-0.075 -0.047,-0.137l0,-0.233l-0.063,0l0,-0.122l0.063,0l0,-0.109l0.179,0l0,0.109l0.103,0l0,0.122l-0.103,0l0,0.216c0,0.018 0.005,0.032 0.014,0.041c0.008,0.009 0.022,0.014 0.039,0.014c0.01,0 0.019,-0.001 0.027,-0.002c0.008,-0.001 0.016,-0.004 0.024,-0.007l0,0.136c-0.011,0.003 -0.025,0.007 -0.042,0.01c-0.017,0.003 -0.036,0.005 -0.057,0.005Z" fill="#b4bbc1" fill-rule="nonzero" transform="matrix(84.17277 0 0 85.023 451.61 89.214)"/></g></svg>